<svg width="68" height="63" viewBox="0 0 68 63" fill="none" xmlns="http://www.w3.org/2000/svg">
<path d="M28.3779 21.623H39.1895C39.9357 21.623 40.54 22.2274 40.54 22.9736V32.4325C40.54 33.1787 39.9362 33.7847 39.1895 33.7847H28.3779C27.6322 33.7847 27.0268 33.1782 27.0268 32.4325L27.0263 22.9736C27.0263 22.2274 27.6322 21.623 28.3779 21.623H28.3779ZM29.7285 31.0819H37.8372V24.3258H29.7285V31.0819Z" fill="black" fill-opacity="0.5"/>
<path d="M10.8111 21.623H21.6221C22.3668 21.623 22.9727 22.2274 22.9727 22.9736V32.4325C22.9727 33.1787 22.3668 33.7847 21.6221 33.7847H10.8111C10.0664 33.7847 9.45995 33.1782 9.45995 32.4325L9.45943 22.9736C9.45943 22.2274 10.0664 21.623 10.8111 21.623H10.8111ZM12.1616 31.0819H20.2714V24.3258H12.1627L12.1622 31.0819H12.1616Z" fill="black" fill-opacity="0.5"/>
<path d="M45.2681 21.623H56.0801C56.8264 21.623 57.4307 22.2274 57.4307 22.9736V32.4325C57.4307 33.1787 56.8263 33.7847 56.0801 33.7847H45.2676C44.5229 33.7847 43.9186 33.1782 43.9186 32.4325L43.9192 22.9736C43.9192 22.2274 44.5235 21.623 45.2681 21.623H45.2681ZM46.6208 31.0819H54.7295V24.3258H46.6208V31.0819Z" fill="black" fill-opacity="0.5"/>
<path d="M10.8111 41.8926H21.6221C22.3668 41.8926 22.9727 42.4969 22.9727 43.2437V52.7026C22.9727 53.4488 22.3668 54.0536 21.6221 54.0536H10.8111C10.0664 54.0536 9.45995 53.4488 9.45995 52.7026L9.45943 43.2437C9.45943 42.4969 10.0664 41.8926 10.8111 41.8926H10.8111ZM12.1616 51.3529H20.2714V44.5948H12.1627L12.1622 51.3529H12.1616Z" fill="black" fill-opacity="0.5"/>
<path d="M45.2681 41.8926H56.0801C56.8264 41.8926 57.4307 42.4969 57.4307 43.2437V52.7026C57.4307 53.4488 56.8263 54.0536 56.0801 54.0536H45.2676C44.5229 54.0536 43.9186 53.4488 43.9186 52.7026L43.9192 43.2437C43.9192 42.4969 44.5235 41.8926 45.2681 41.8926H45.2681ZM46.6208 51.3529H54.7295V44.5948H46.6208V51.3529Z" fill="black" fill-opacity="0.5"/>
<path d="M1.35101 20.2704C0.605278 20.2704 -9.15527e-05 19.664 -9.15527e-05 18.9182V12.8387C-9.15527e-05 12.0909 0.605812 11.4876 1.35101 11.4876H3.90131L9.14548 0.756201C9.37223 0.293787 9.84198 0 10.3594 0H57.7604C58.2751 0 58.7486 0.29431 58.9738 0.756201L64.2169 11.4865H66.2147C66.9625 11.4865 67.5674 12.0909 67.5674 12.8376V18.9172C67.5674 19.6634 66.9625 20.2693 66.2147 20.2693H63.512V54.0534H66.2147C66.9625 54.0534 67.5674 54.6578 67.5674 55.4045V61.4855C67.5674 62.2318 66.9625 62.8366 66.2147 62.8366L44.0392 62.8377C43.7019 62.8377 43.3778 62.7131 43.1306 62.4858L39.0725 58.7963H28.5883L25.0492 62.4301C24.7947 62.6915 24.4465 62.8386 24.0799 62.8386L1.35069 62.8381C0.604965 62.8381 -0.000396729 62.2332 -0.000396729 61.487V55.406C-0.000396729 54.6582 0.605499 54.0549 1.35069 54.0549H4.05289V20.2708L1.35101 20.2704ZM56.9165 2.70268H11.2047L6.91103 11.4865H61.2109L56.9165 2.70268ZM64.8639 17.5663V14.1881H4.74698L2.70251 14.1875V17.5658H5.40523L62.1625 17.5663H64.8639ZM37.838 42.58H29.7293V56.0923H37.838V42.58ZM5.40657 56.7559H2.70385V60.1353L23.5119 60.1347L27.0284 56.5233V41.2146C27.0284 40.4699 27.6343 39.8645 28.3795 39.8645H39.1905C39.9368 39.8645 40.5411 40.4694 40.5411 41.2146V56.4737L44.5619 60.1343L64.8646 60.1348V56.7555H62.1635C61.4167 56.7555 60.8124 56.1491 60.8124 55.4044V20.2689H6.75914V55.4031C6.75809 56.1483 6.1522 56.7542 5.40644 56.7542L5.40657 56.7559Z" fill="black" fill-opacity="0.5"/>
</svg>
