<svg width="61" height="61" viewBox="0 0 61 61" fill="none" xmlns="http://www.w3.org/2000/svg">
<path d="M10.5577 0C9.91041 0 9.38462 0.525793 9.38462 1.17308V4.69231H5.86539C5.2181 4.69231 4.69231 5.2181 4.69231 5.86539V58.6539H1.17308C0.525793 58.6539 0 59.1796 0 59.8269C0 60.4742 0.525793 61 1.17308 61H59.8269C60.4742 61 61 60.4742 61 59.8269C61 59.1796 60.4742 58.6539 59.8269 58.6539H46.9231V16.4231H49.2692V29.3269C49.2692 29.9742 49.795 30.5 50.4423 30.5H59.8269C60.4742 30.5 61 29.9742 61 29.3269V8.21154C61 7.56426 60.4742 7.03846 59.8269 7.03846H50.4423C49.795 7.03846 49.2692 7.56426 49.2692 8.21154V9.38462H46.9231V5.86539C46.9231 5.2181 46.3973 4.69231 45.75 4.69231H42.2308V1.17308C42.2308 0.525793 41.705 0 41.0577 0H10.5577ZM11.7308 2.34615H39.8846V4.69231H11.7308V2.34615ZM7.03846 7.03846H44.5769V58.6539H35.1923V46.9231H36.3654C37.0127 46.9231 37.5385 46.3973 37.5385 45.75C37.5385 45.1027 37.0127 44.5769 36.3654 44.5769H17.5962C16.9489 44.5769 16.4231 45.1027 16.4231 45.75C16.4231 46.3973 16.9489 46.9231 17.5962 46.9231H18.7692V58.6539H7.03846V7.03846ZM10.5577 9.38462C9.91041 9.38462 9.38462 9.91041 9.38462 10.5577V17.5962C9.38462 18.2434 9.91041 18.7692 10.5577 18.7692H17.5962C18.2434 18.7692 18.7692 18.2434 18.7692 17.5962V10.5577C18.7692 9.91041 18.2434 9.38462 17.5962 9.38462H10.5577ZM22.2885 9.38462C21.6412 9.38462 21.1154 9.91041 21.1154 10.5577V17.5962C21.1154 18.2434 21.6412 18.7692 22.2885 18.7692H29.3269C29.9742 18.7692 30.5 18.2434 30.5 17.5962V10.5577C30.5 9.91041 29.9742 9.38462 29.3269 9.38462H22.2885ZM34.0192 9.38462C33.3719 9.38462 32.8462 9.91041 32.8462 10.5577V17.5962C32.8462 18.2434 33.3719 18.7692 34.0192 18.7692H41.0577C41.705 18.7692 42.2308 18.2434 42.2308 17.5962V10.5577C42.2308 9.91041 41.705 9.38462 41.0577 9.38462H34.0192ZM51.6154 9.38462H58.6539V28.1538H51.6154V9.38462ZM11.7308 11.7308H16.4231V16.4231H11.7308V11.7308ZM23.4615 11.7308H28.1538V16.4231H23.4615V11.7308ZM35.1923 11.7308H39.8846V16.4231H35.1923V11.7308ZM46.9231 11.7308H49.2692V14.0769H46.9231V11.7308ZM55.1346 11.7308C54.4873 11.7308 53.9615 12.2566 53.9615 12.9038V24.6346C53.9615 25.2819 54.4873 25.8077 55.1346 25.8077C55.7819 25.8077 56.3077 25.2819 56.3077 24.6346V12.9038C56.3077 12.2566 55.7819 11.7308 55.1346 11.7308ZM10.5577 21.1154C9.91041 21.1154 9.38462 21.6412 9.38462 22.2885V29.3269C9.38462 29.9742 9.91041 30.5 10.5577 30.5H17.5962C18.2434 30.5 18.7692 29.9742 18.7692 29.3269V22.2885C18.7692 21.6412 18.2434 21.1154 17.5962 21.1154H10.5577ZM22.2885 21.1154C21.6412 21.1154 21.1154 21.6412 21.1154 22.2885V29.3269C21.1154 29.9742 21.6412 30.5 22.2885 30.5H29.3269C29.9742 30.5 30.5 29.9742 30.5 29.3269V22.2885C30.5 21.6412 29.9742 21.1154 29.3269 21.1154H22.2885ZM34.0192 21.1154C33.3719 21.1154 32.8462 21.6412 32.8462 22.2885V29.3269C32.8462 29.9742 33.3719 30.5 34.0192 30.5H41.0577C41.705 30.5 42.2308 29.9742 42.2308 29.3269V22.2885C42.2308 21.6412 41.705 21.1154 41.0577 21.1154H34.0192ZM11.7308 23.4615H16.4231V28.1538H11.7308V23.4615ZM23.4615 23.4615H28.1538V28.1538H23.4615V23.4615ZM35.1923 23.4615H39.8846V28.1538H35.1923V23.4615ZM10.5577 32.8462C9.91041 32.8462 9.38462 33.3719 9.38462 34.0192V41.0577C9.38462 41.705 9.91041 42.2308 10.5577 42.2308H17.5962C18.2434 42.2308 18.7692 41.705 18.7692 41.0577V34.0192C18.7692 33.3719 18.2434 32.8462 17.5962 32.8462H10.5577ZM22.2885 32.8462C21.6412 32.8462 21.1154 33.3719 21.1154 34.0192V41.0577C21.1154 41.705 21.6412 42.2308 22.2885 42.2308H29.3269C29.9742 42.2308 30.5 41.705 30.5 41.0577V34.0192C30.5 33.3719 29.9742 32.8462 29.3269 32.8462H22.2885ZM34.0192 32.8462C33.3719 32.8462 32.8462 33.3719 32.8462 34.0192V41.0577C32.8462 41.705 33.3719 42.2308 34.0192 42.2308H41.0577C41.705 42.2308 42.2308 41.705 42.2308 41.0577V34.0192C42.2308 33.3719 41.705 32.8462 41.0577 32.8462H34.0192ZM11.7308 35.1923H16.4231V39.8846H11.7308V35.1923ZM23.4615 35.1923H28.1538V39.8846H23.4615V35.1923ZM35.1923 35.1923H39.8846V39.8846H35.1923V35.1923ZM21.1154 46.9231H25.8077V58.6539H21.1154V46.9231ZM28.1538 46.9231H32.8462V58.6539H28.1538V46.9231Z" fill="black" fill-opacity="0.5"/>
</svg>
