<svg width="166" height="40" viewBox="0 0 166 40" fill="none" xmlns="http://www.w3.org/2000/svg">
<path d="M49.5483 21.8239V9.18182H54.6903V31H49.7045V27.1222H49.4773C48.9848 28.3437 48.1752 29.3428 47.0483 30.1193C45.9309 30.8958 44.553 31.2841 42.9148 31.2841C41.4848 31.2841 40.2206 30.9669 39.1222 30.3324C38.0331 29.6884 37.1809 28.7557 36.5653 27.5341C35.9498 26.303 35.642 24.8163 35.642 23.0739V9.18182H40.7841V22.2784C40.7841 23.661 41.1629 24.7595 41.9205 25.5739C42.678 26.3883 43.6723 26.7955 44.9034 26.7955C45.661 26.7955 46.3949 26.6108 47.1051 26.2415C47.8153 25.8722 48.3977 25.3229 48.8523 24.5938C49.3163 23.8551 49.5483 22.9318 49.5483 21.8239ZM69.495 31.4261C67.3643 31.4261 65.5178 30.9574 63.9553 30.0199C62.3928 29.0824 61.1806 27.7708 60.3189 26.0852C59.4666 24.3996 59.0405 22.4299 59.0405 20.1761C59.0405 17.9223 59.4666 15.9479 60.3189 14.2528C61.1806 12.5578 62.3928 11.2415 63.9553 10.304C65.5178 9.36648 67.3643 8.89773 69.495 8.89773C71.6257 8.89773 73.4723 9.36648 75.0348 10.304C76.5973 11.2415 77.8047 12.5578 78.657 14.2528C79.5187 15.9479 79.9496 17.9223 79.9496 20.1761C79.9496 22.4299 79.5187 24.3996 78.657 26.0852C77.8047 27.7708 76.5973 29.0824 75.0348 30.0199C73.4723 30.9574 71.6257 31.4261 69.495 31.4261ZM69.5234 27.3068C70.6787 27.3068 71.6446 26.9896 72.4212 26.3551C73.1977 25.7112 73.7753 24.8494 74.1541 23.7699C74.5424 22.6903 74.7365 21.4877 74.7365 20.1619C74.7365 18.8267 74.5424 17.6193 74.1541 16.5398C73.7753 15.4508 73.1977 14.5843 72.4212 13.9403C71.6446 13.2964 70.6787 12.9744 69.5234 12.9744C68.3397 12.9744 67.3549 13.2964 66.5689 13.9403C65.7924 14.5843 65.21 15.4508 64.8217 16.5398C64.4429 17.6193 64.2536 18.8267 64.2536 20.1619C64.2536 21.4877 64.4429 22.6903 64.8217 23.7699C65.21 24.8494 65.7924 25.7112 66.5689 26.3551C67.3549 26.9896 68.3397 27.3068 69.5234 27.3068ZM90.5923 31.4403C89.2098 31.4403 87.9645 31.1941 86.8565 30.7017C85.758 30.1998 84.8868 29.4612 84.2429 28.4858C83.6084 27.5104 83.2912 26.3078 83.2912 24.8778C83.2912 23.6468 83.5185 22.6288 83.973 21.8239C84.4276 21.0189 85.0478 20.375 85.8338 19.892C86.6198 19.4091 87.5052 19.0445 88.4901 18.7983C89.4844 18.5426 90.5118 18.358 91.5724 18.2443C92.8509 18.1117 93.8878 17.9934 94.6832 17.8892C95.4787 17.7756 96.0563 17.6051 96.4162 17.3778C96.7855 17.1411 96.9702 16.7765 96.9702 16.2841V16.1989C96.9702 15.1288 96.6529 14.3002 96.0185 13.7131C95.384 13.1259 94.4702 12.8324 93.277 12.8324C92.0175 12.8324 91.0185 13.107 90.2798 13.6562C89.5507 14.2055 89.0582 14.8542 88.8026 15.6023L84.0014 14.9205C84.3802 13.5947 85.0052 12.4867 85.8764 11.5966C86.7476 10.697 87.813 10.0246 89.0724 9.57955C90.3319 9.125 91.724 8.89773 93.2486 8.89773C94.2997 8.89773 95.3461 9.02083 96.3878 9.26705C97.4295 9.51326 98.3812 9.92045 99.2429 10.4886C100.105 11.0473 100.796 11.8097 101.317 12.7756C101.847 13.7415 102.112 14.9489 102.112 16.3977V31H97.169V28.0028H96.9986C96.6861 28.6089 96.2457 29.1771 95.6776 29.7074C95.1188 30.2282 94.4134 30.6496 93.5611 30.9716C92.7183 31.2841 91.7287 31.4403 90.5923 31.4403ZM91.9276 27.6619C92.9598 27.6619 93.8546 27.4583 94.6122 27.0511C95.3698 26.6345 95.9522 26.0852 96.3594 25.4034C96.776 24.7216 96.9844 23.9782 96.9844 23.1733V20.6023C96.8234 20.7348 96.5488 20.858 96.1605 20.9716C95.7817 21.0852 95.3556 21.1847 94.8821 21.2699C94.4086 21.3551 93.9399 21.4309 93.4759 21.4972C93.0118 21.5634 92.6094 21.6203 92.2685 21.6676C91.5014 21.7718 90.8149 21.9422 90.2088 22.179C89.6027 22.4157 89.1245 22.7472 88.7741 23.1733C88.4238 23.59 88.2486 24.1297 88.2486 24.7926C88.2486 25.7396 88.5942 26.4545 89.2855 26.9375C89.9768 27.4205 90.8575 27.6619 91.9276 27.6619ZM112.425 1.90909V31H107.283V1.90909H112.425ZM117.712 31V9.18182H122.854V31H117.712ZM120.298 6.08523C119.483 6.08523 118.782 5.81534 118.195 5.27557C117.608 4.72632 117.315 4.06818 117.315 3.30114C117.315 2.52462 117.608 1.86648 118.195 1.3267C118.782 0.777461 119.483 0.50284 120.298 0.50284C121.121 0.50284 121.822 0.777461 122.4 1.3267C122.987 1.86648 123.281 2.52462 123.281 3.30114C123.281 4.06818 122.987 4.72632 122.4 5.27557C121.822 5.81534 121.121 6.08523 120.298 6.08523ZM139.037 9.18182V13.1591H126.494V9.18182H139.037ZM129.591 3.95455H134.733V24.4375C134.733 25.1288 134.837 25.6591 135.045 26.0284C135.263 26.3883 135.547 26.6345 135.898 26.767C136.248 26.8996 136.636 26.9659 137.062 26.9659C137.384 26.9659 137.678 26.9422 137.943 26.8949C138.218 26.8475 138.426 26.8049 138.568 26.767L139.435 30.7869C139.16 30.8816 138.767 30.9858 138.256 31.0994C137.754 31.2131 137.138 31.2794 136.409 31.2983C135.121 31.3362 133.961 31.142 132.929 30.7159C131.897 30.2803 131.078 29.608 130.472 28.6989C129.875 27.7898 129.581 26.6534 129.591 25.2898V3.95455ZM146.533 39.1818C145.833 39.1818 145.184 39.125 144.587 39.0114C144 38.9072 143.531 38.7841 143.181 38.642L144.374 34.6364C145.122 34.8542 145.79 34.9583 146.377 34.9489C146.964 34.9394 147.48 34.7547 147.925 34.3949C148.38 34.0445 148.763 33.4574 149.076 32.6335L149.516 31.4545L141.604 9.18182H147.059L152.087 25.6591H152.315L157.357 9.18182H162.826L154.09 33.642C153.683 34.7973 153.143 35.7869 152.471 36.6108C151.799 37.4441 150.975 38.0786 149.999 38.5142C149.033 38.9593 147.878 39.1818 146.533 39.1818Z" fill="black"/>
<g clip-path="url(#clip0_3651_133978)">
<path d="M24.9397 29.284C23.8734 29.9678 22.7631 30.5691 21.5688 30.999C18.2221 32.2043 14.8368 32.3322 11.4205 31.323C8.49364 30.4583 6.01489 28.865 4.00354 26.5845C1.88824 24.1857 0.600337 21.3872 0.161858 18.2055C-0.306908 14.8009 0.238265 11.5587 1.85313 8.54138C3.89547 4.72471 7.00474 2.1085 11.1397 0.778716C14.6241 -0.34193 18.1071 -0.242179 21.5454 1.0078C23.7351 1.80374 25.6514 3.03996 27.2987 4.69376C28.844 6.24436 30.0266 8.02405 30.8444 10.0603C31.8466 12.5562 32.1915 15.1359 31.9003 17.7989C31.66 19.9955 30.9744 22.0559 29.8779 23.978C29.8249 23.9043 29.7664 23.8335 29.7189 23.7558C28.6788 22.04 27.3661 20.5672 25.7843 19.3323C25.5172 19.1239 25.202 18.9739 24.992 18.6946C25.5682 16.7464 25.5358 14.8002 24.8536 12.8939C24.062 10.6815 22.6344 8.97546 20.5694 7.8218C18.5814 6.71078 16.4585 6.37369 14.2331 6.79815C11.9808 7.22742 10.1223 8.3522 8.68707 10.1463C6.95518 12.3126 6.31295 14.794 6.74179 17.5127C7.11212 19.8565 8.2541 21.7986 10.1175 23.2969C12.038 24.8406 14.2338 25.5107 16.6843 25.358C18.1725 25.2651 19.5472 24.7973 20.8282 24.044C21.025 23.9938 21.1524 24.13 21.2887 24.2249C22.58 25.1247 23.6126 26.2612 24.3319 27.6618C24.5948 28.1737 24.8956 28.6841 24.9397 29.284Z" fill="#D71796"/>
<path d="M24.8177 19.0396C25.0313 19.3189 25.3526 19.4689 25.6236 19.6773C27.2332 20.9129 28.5677 22.385 29.6256 24.1007C29.6732 24.1785 29.7327 24.2487 29.7873 24.323C30.2011 25.1292 30.631 25.9293 30.9418 26.7809C31.5586 28.4733 31.9185 30.2137 31.9437 32.0175C31.9472 32.2542 31.8765 32.3367 31.6294 32.336C29.6011 32.3285 27.5728 32.3278 25.5445 32.3367C25.2833 32.3381 25.1888 32.2473 25.1951 32.0003C25.2119 31.3076 25.0789 30.6341 24.9073 29.9668C24.8765 29.8478 24.8709 29.7184 24.7652 29.6297C24.7204 29.0298 24.4144 28.5194 24.147 28.0068C23.4153 26.6062 22.3651 25.4697 21.0517 24.5699C20.913 24.475 20.7835 24.3388 20.5833 24.389C20.5826 24.2714 20.4804 24.2507 20.4026 24.2053C19.05 23.4197 17.5776 23.0372 16.0184 22.9718C15.7173 22.9595 15.6578 22.8693 15.6592 22.5949C15.6711 20.6246 15.6725 18.6551 15.6599 16.6848C15.6585 16.4096 15.7327 16.3395 16.0093 16.3408C17.5832 16.3484 19.1074 16.6332 20.6043 17.0914C21.9457 17.5021 23.2081 18.0772 24.3906 18.8229C24.5251 18.9068 24.642 19.0314 24.8177 19.0396Z" fill="#FDA170"/>
</g>
<defs>
<clipPath id="clip0_3651_133978">
<rect width="32" height="32" fill="white"/>
</clipPath>
</defs>
</svg>
