<svg width="128" height="42" viewBox="0 0 128 42" fill="none" xmlns="http://www.w3.org/2000/svg">
<path fill-rule="evenodd" clip-rule="evenodd" d="M31.5682 17.3825C31.5706 17.3095 31.5718 17.1071 31.5718 17.3825H31.5682ZM31.5651 17.3825C31.5663 17.4181 31.5673 17.4087 31.5682 17.3825H31.5651ZM16.2534 32.6249C16.2175 32.6261 16.2269 32.627 16.2534 32.6279V32.6249ZM24.244 7.80196C23.1864 6.80826 21.9353 6.00813 20.549 5.45939C19.2217 4.93378 17.7727 4.64496 16.2534 4.64496C13.031 4.64496 10.1314 5.9433 8.03965 8.04361C5.93965 10.1524 4.64526 13.0748 4.64526 16.3103C4.64526 19.547 5.93996 22.4727 8.04117 24.584C10.1333 26.6861 13.0322 27.9866 16.2534 27.9866C16.8627 27.9866 15.9238 28 16.4317 27.9945C19.5967 27.9607 22.2399 26.9899 24.0605 25.2082C25.4815 23.8177 26.4372 21.8969 26.7872 19.5026H16.3812V14.8577H29.2481H31.5365L31.5615 17.1622C31.5627 17.2839 31.5639 17.3509 31.5651 17.3825H31.5627C31.5627 22.1036 29.9993 25.8772 27.3085 28.5107C24.6193 31.1421 20.8627 32.5746 16.4683 32.6215C16.3499 32.6227 16.2847 32.624 16.2534 32.6249V32.6279C16.3286 32.6303 16.541 32.6316 16.2534 32.6316C11.756 32.6316 7.69696 30.8043 4.75696 27.85C1.81391 24.8926 0 20.811 0 16.3103C0 11.8096 1.81361 7.73165 4.75574 4.77765C7.69604 1.82517 11.7557 0 16.2534 0C18.3701 0 20.395 0.404783 22.2545 1.1407C24.1777 1.90217 25.9268 3.02491 27.4193 4.42704L24.244 7.80196Z" fill="#DEDEDE"/>
<path fill-rule="evenodd" clip-rule="evenodd" d="M48.0718 17.683C46.9817 16.5578 45.4733 15.8617 43.8055 15.8617C42.1374 15.8617 40.629 16.5578 39.5388 17.683C38.4471 18.81 37.7718 20.3749 37.7718 22.1109C37.7718 23.8469 38.4471 25.4122 39.5388 26.5389C40.629 27.664 42.1374 28.3601 43.8055 28.3601C45.4733 28.3601 46.9817 27.664 48.0718 26.5389C49.1635 25.4122 49.8389 23.8469 49.8389 22.1109C49.8389 20.3749 49.1635 18.81 48.0718 17.683ZM43.8055 11.6846C46.7154 11.6846 49.3516 12.8551 51.2614 14.7472C53.17 16.6378 54.3502 19.2418 54.3502 22.1109C54.3502 24.98 53.17 27.584 51.2614 29.4746C49.3516 31.367 46.7154 32.5373 43.8055 32.5373C40.8956 32.5373 38.259 31.367 36.3493 29.4746C34.441 27.584 33.2607 24.98 33.2607 22.1109C33.2607 19.2418 34.441 16.6378 36.3493 14.7472C38.259 12.8551 40.8956 11.6846 43.8055 11.6846Z" fill="#DEDEDE"/>
<path fill-rule="evenodd" clip-rule="evenodd" d="M70.7508 17.683C69.6607 16.5578 68.1523 15.8617 66.4845 15.8617C64.8164 15.8617 63.308 16.5578 62.2178 17.683C61.1265 18.81 60.4511 20.3749 60.4511 22.1109C60.4511 23.8469 61.1265 25.4122 62.2178 26.5389C63.308 27.664 64.8164 28.3601 66.4845 28.3601C68.1523 28.3601 69.6607 27.664 70.7508 26.5389C71.8425 25.4122 72.5179 23.8469 72.5179 22.1109C72.5179 20.3749 71.8425 18.81 70.7508 17.683ZM66.4845 11.6846C69.3944 11.6846 72.0306 12.8551 73.9407 14.7472C75.849 16.6378 77.0292 19.2418 77.0292 22.1109C77.0292 24.98 75.849 27.584 73.9407 29.4746C72.0306 31.367 69.3944 32.5373 66.4845 32.5373C63.5746 32.5373 60.9384 31.367 59.0283 29.4746C57.12 27.584 55.9395 24.98 55.9395 22.1109C55.9395 19.2418 57.12 16.6378 59.0283 14.7472C60.9384 12.8551 63.5746 11.6846 66.4845 11.6846Z" fill="#DEDEDE"/>
<path fill-rule="evenodd" clip-rule="evenodd" d="M93.0472 17.683C92.0088 16.5578 90.572 15.8617 88.9833 15.8617C87.3943 15.8617 85.9578 16.5578 84.9193 17.683C83.8794 18.81 83.2363 20.3749 83.2363 22.1109C83.2363 25.6191 85.6014 28.4748 88.9833 28.4748C90.572 28.4748 92.0088 27.664 93.0472 26.5389C94.0872 25.4122 94.7303 23.8469 94.7303 22.1109C94.7303 20.3749 94.0872 18.81 93.0472 17.683ZM88.1859 11.6846C91.0249 11.6846 92.7466 12.587 94.2939 14.0874V12.2726H98.6052V32.1377C98.6052 34.9081 97.3036 37.913 95.5408 39.4804C93.8428 40.9902 91.5617 41.9431 89.3035 41.9431C87.2412 41.9431 85.1707 41.5457 83.3611 40.4317C81.7511 39.4408 80.3776 37.9604 79.4353 35.8754L83.3891 34.0934C84.5085 36.5702 86.179 37.8463 89.3035 37.8463C91.517 37.8463 94.2939 35.7938 94.2939 32.4119V30.1293C92.7228 31.633 90.9415 32.5373 88.6272 32.5373C85.9946 32.5373 83.1681 31.367 81.44 29.4746C79.7135 27.584 78.6455 24.98 78.6455 22.1109C78.6455 16.3158 83.4317 11.6846 88.1859 11.6846Z" fill="#DEDEDE"/>
<path fill-rule="evenodd" clip-rule="evenodd" d="M101.393 31.9407H105.844V1.34277H101.393V31.9407Z" fill="#DEDEDE"/>
<path fill-rule="evenodd" clip-rule="evenodd" d="M113.081 25.2767C114.833 29.4518 121.008 29.4977 123.348 25.5975L126.874 27.9605C124.715 31.1245 121.57 32.606 118.144 32.6249C115.094 32.6282 112.639 31.4851 110.804 29.6332C106.321 25.1078 107.281 18.1641 110.387 14.8723C112.921 12.187 116.83 10.8217 120.863 12.2862C123.481 13.2373 125.607 15.5412 127.161 19.5455C122.465 21.4492 117.784 23.3828 113.081 25.2767ZM112.372 21.7475L121.853 17.9292C120.18 15.7774 117.748 14.7356 114.544 16.9218C113.312 17.9626 112.233 19.7394 112.372 21.7475Z" fill="#DEDEDE"/>
</svg>
