<svg width="102" height="104" viewBox="0 0 102 104" fill="none" xmlns="http://www.w3.org/2000/svg">
<path d="M34.98 94V83.92H36.009V88.463H41.581V83.92H42.603V94H41.581V89.45H36.009V94H34.98ZM47.441 94.21C46.6897 94.21 46.048 94.0397 45.516 93.699C44.984 93.3583 44.5757 92.887 44.291 92.285C44.0063 91.683 43.864 90.9923 43.864 90.213C43.864 89.4197 44.0087 88.7243 44.298 88.127C44.5873 87.5297 44.998 87.0653 45.53 86.734C46.0667 86.398 46.7037 86.23 47.441 86.23C48.197 86.23 48.841 86.4003 49.373 86.741C49.9097 87.077 50.318 87.546 50.598 88.148C50.8827 88.7453 51.025 89.4337 51.025 90.213C51.025 91.0063 50.8827 91.704 50.598 92.306C50.3133 92.9033 49.9027 93.37 49.366 93.706C48.8293 94.042 48.1877 94.21 47.441 94.21ZM47.441 93.223C48.281 93.223 48.9063 92.9453 49.317 92.39C49.7277 91.83 49.933 91.1043 49.933 90.213C49.933 89.2983 49.7253 88.5703 49.31 88.029C48.8993 87.4877 48.2763 87.217 47.441 87.217C46.8763 87.217 46.4097 87.3453 46.041 87.602C45.677 87.854 45.404 88.2063 45.222 88.659C45.0447 89.107 44.956 89.625 44.956 90.213C44.956 91.123 45.166 91.8533 45.586 92.404C46.006 92.95 46.6243 93.223 47.441 93.223ZM56.4051 94C55.9805 94.0887 55.5605 94.1237 55.1451 94.105C54.7345 94.0863 54.3658 93.9977 54.0391 93.839C53.7171 93.6803 53.4721 93.433 53.3041 93.097C53.1688 92.817 53.0941 92.5347 53.0801 92.25C53.0708 91.9607 53.0661 91.6317 53.0661 91.263V84.34H54.0881V91.221C54.0881 91.5383 54.0905 91.8043 54.0951 92.019C54.1045 92.229 54.1535 92.4157 54.2421 92.579C54.4101 92.8917 54.6761 93.0783 55.0401 93.139C55.4088 93.1997 55.8638 93.1857 56.4051 93.097V94ZM51.4491 87.322V86.44H56.4051V87.322H51.4491ZM60.5402 94.21C59.8028 94.21 59.1635 94.0467 58.6222 93.72C58.0855 93.3933 57.6678 92.9337 57.3692 92.341C57.0705 91.7483 56.9212 91.053 56.9212 90.255C56.9212 89.429 57.0682 88.715 57.3622 88.113C57.6562 87.511 58.0692 87.0467 58.6012 86.72C59.1378 86.3933 59.7702 86.23 60.4982 86.23C61.2448 86.23 61.8818 86.4027 62.4092 86.748C62.9365 87.0887 63.3355 87.5787 63.6062 88.218C63.8768 88.8573 64.0005 89.6203 63.9772 90.507H62.9272V90.143C62.9085 89.163 62.6962 88.4233 62.2902 87.924C61.8888 87.4247 61.3008 87.175 60.5262 87.175C59.7142 87.175 59.0912 87.4387 58.6572 87.966C58.2278 88.4933 58.0132 89.2447 58.0132 90.22C58.0132 91.172 58.2278 91.9117 58.6572 92.439C59.0912 92.9617 59.7048 93.223 60.4982 93.223C61.0395 93.223 61.5108 93.0993 61.9122 92.852C62.3182 92.6 62.6378 92.2383 62.8712 91.767L63.8302 92.138C63.5315 92.796 63.0905 93.307 62.5072 93.671C61.9285 94.0303 61.2728 94.21 60.5402 94.21ZM57.6492 90.507V89.646H63.4242V90.507H57.6492ZM65.3906 94V83.71H66.4196V94H65.3906Z" fill="black"/>
<rect x="0.5" y="0.5" width="101" height="103" stroke="black" stroke-opacity="0.12"/>
<path d="M31.5577 12C30.9104 12 30.3846 12.5258 30.3846 13.1731V16.6923H26.8654C26.2181 16.6923 25.6923 17.2181 25.6923 17.8654V70.6539H22.1731C21.5258 70.6539 21 71.1796 21 71.8269C21 72.4742 21.5258 73 22.1731 73H80.8269C81.4742 73 82 72.4742 82 71.8269C82 71.1796 81.4742 70.6539 80.8269 70.6539H67.9231V28.4231H70.2692V41.3269C70.2692 41.9742 70.795 42.5 71.4423 42.5H80.8269C81.4742 42.5 82 41.9742 82 41.3269V20.2115C82 19.5643 81.4742 19.0385 80.8269 19.0385H71.4423C70.795 19.0385 70.2692 19.5643 70.2692 20.2115V21.3846H67.9231V17.8654C67.9231 17.2181 67.3973 16.6923 66.75 16.6923H63.2308V13.1731C63.2308 12.5258 62.705 12 62.0577 12H31.5577ZM32.7308 14.3462H60.8846V16.6923H32.7308V14.3462ZM28.0385 19.0385H65.5769V70.6539H56.1923V58.9231H57.3654C58.0127 58.9231 58.5385 58.3973 58.5385 57.75C58.5385 57.1027 58.0127 56.5769 57.3654 56.5769H38.5962C37.9489 56.5769 37.4231 57.1027 37.4231 57.75C37.4231 58.3973 37.9489 58.9231 38.5962 58.9231H39.7692V70.6539H28.0385V19.0385ZM31.5577 21.3846C30.9104 21.3846 30.3846 21.9104 30.3846 22.5577V29.5962C30.3846 30.2434 30.9104 30.7692 31.5577 30.7692H38.5962C39.2434 30.7692 39.7692 30.2434 39.7692 29.5962V22.5577C39.7692 21.9104 39.2434 21.3846 38.5962 21.3846H31.5577ZM43.2885 21.3846C42.6412 21.3846 42.1154 21.9104 42.1154 22.5577V29.5962C42.1154 30.2434 42.6412 30.7692 43.2885 30.7692H50.3269C50.9742 30.7692 51.5 30.2434 51.5 29.5962V22.5577C51.5 21.9104 50.9742 21.3846 50.3269 21.3846H43.2885ZM55.0192 21.3846C54.3719 21.3846 53.8462 21.9104 53.8462 22.5577V29.5962C53.8462 30.2434 54.3719 30.7692 55.0192 30.7692H62.0577C62.705 30.7692 63.2308 30.2434 63.2308 29.5962V22.5577C63.2308 21.9104 62.705 21.3846 62.0577 21.3846H55.0192ZM72.6154 21.3846H79.6539V40.1538H72.6154V21.3846ZM32.7308 23.7308H37.4231V28.4231H32.7308V23.7308ZM44.4615 23.7308H49.1538V28.4231H44.4615V23.7308ZM56.1923 23.7308H60.8846V28.4231H56.1923V23.7308ZM67.9231 23.7308H70.2692V26.0769H67.9231V23.7308ZM76.1346 23.7308C75.4873 23.7308 74.9615 24.2566 74.9615 24.9038V36.6346C74.9615 37.2819 75.4873 37.8077 76.1346 37.8077C76.7819 37.8077 77.3077 37.2819 77.3077 36.6346V24.9038C77.3077 24.2566 76.7819 23.7308 76.1346 23.7308ZM31.5577 33.1154C30.9104 33.1154 30.3846 33.6412 30.3846 34.2885V41.3269C30.3846 41.9742 30.9104 42.5 31.5577 42.5H38.5962C39.2434 42.5 39.7692 41.9742 39.7692 41.3269V34.2885C39.7692 33.6412 39.2434 33.1154 38.5962 33.1154H31.5577ZM43.2885 33.1154C42.6412 33.1154 42.1154 33.6412 42.1154 34.2885V41.3269C42.1154 41.9742 42.6412 42.5 43.2885 42.5H50.3269C50.9742 42.5 51.5 41.9742 51.5 41.3269V34.2885C51.5 33.6412 50.9742 33.1154 50.3269 33.1154H43.2885ZM55.0192 33.1154C54.3719 33.1154 53.8462 33.6412 53.8462 34.2885V41.3269C53.8462 41.9742 54.3719 42.5 55.0192 42.5H62.0577C62.705 42.5 63.2308 41.9742 63.2308 41.3269V34.2885C63.2308 33.6412 62.705 33.1154 62.0577 33.1154H55.0192ZM32.7308 35.4615H37.4231V40.1538H32.7308V35.4615ZM44.4615 35.4615H49.1538V40.1538H44.4615V35.4615ZM56.1923 35.4615H60.8846V40.1538H56.1923V35.4615ZM31.5577 44.8462C30.9104 44.8462 30.3846 45.3719 30.3846 46.0192V53.0577C30.3846 53.705 30.9104 54.2308 31.5577 54.2308H38.5962C39.2434 54.2308 39.7692 53.705 39.7692 53.0577V46.0192C39.7692 45.3719 39.2434 44.8462 38.5962 44.8462H31.5577ZM43.2885 44.8462C42.6412 44.8462 42.1154 45.3719 42.1154 46.0192V53.0577C42.1154 53.705 42.6412 54.2308 43.2885 54.2308H50.3269C50.9742 54.2308 51.5 53.705 51.5 53.0577V46.0192C51.5 45.3719 50.9742 44.8462 50.3269 44.8462H43.2885ZM55.0192 44.8462C54.3719 44.8462 53.8462 45.3719 53.8462 46.0192V53.0577C53.8462 53.705 54.3719 54.2308 55.0192 54.2308H62.0577C62.705 54.2308 63.2308 53.705 63.2308 53.0577V46.0192C63.2308 45.3719 62.705 44.8462 62.0577 44.8462H55.0192ZM32.7308 47.1923H37.4231V51.8846H32.7308V47.1923ZM44.4615 47.1923H49.1538V51.8846H44.4615V47.1923ZM56.1923 47.1923H60.8846V51.8846H56.1923V47.1923ZM42.1154 58.9231H46.8077V70.6539H42.1154V58.9231ZM49.1538 58.9231H53.8462V70.6539H49.1538V58.9231Z" fill="black" fill-opacity="0.5"/>
</svg>
