<svg width="102" height="104" viewBox="0 0 102 104" fill="none" xmlns="http://www.w3.org/2000/svg">
<path d="M34.98 94V83.92H36.009V88.463H41.581V83.92H42.603V94H41.581V89.45H36.009V94H34.98ZM47.441 94.21C46.6897 94.21 46.048 94.0397 45.516 93.699C44.984 93.3583 44.5757 92.887 44.291 92.285C44.0063 91.683 43.864 90.9923 43.864 90.213C43.864 89.4197 44.0087 88.7243 44.298 88.127C44.5873 87.5297 44.998 87.0653 45.53 86.734C46.0667 86.398 46.7037 86.23 47.441 86.23C48.197 86.23 48.841 86.4003 49.373 86.741C49.9097 87.077 50.318 87.546 50.598 88.148C50.8827 88.7453 51.025 89.4337 51.025 90.213C51.025 91.0063 50.8827 91.704 50.598 92.306C50.3133 92.9033 49.9027 93.37 49.366 93.706C48.8293 94.042 48.1877 94.21 47.441 94.21ZM47.441 93.223C48.281 93.223 48.9063 92.9453 49.317 92.39C49.7277 91.83 49.933 91.1043 49.933 90.213C49.933 89.2983 49.7253 88.5703 49.31 88.029C48.8993 87.4877 48.2763 87.217 47.441 87.217C46.8763 87.217 46.4097 87.3453 46.041 87.602C45.677 87.854 45.404 88.2063 45.222 88.659C45.0447 89.107 44.956 89.625 44.956 90.213C44.956 91.123 45.166 91.8533 45.586 92.404C46.006 92.95 46.6243 93.223 47.441 93.223ZM55.0418 94.203C54.1551 94.203 53.4248 94.0117 52.8508 93.629C52.2814 93.2463 51.9314 92.7143 51.8008 92.033L52.8508 91.858C52.9628 92.2873 53.2171 92.6303 53.6138 92.887C54.0151 93.139 54.5098 93.265 55.0978 93.265C55.6718 93.265 56.1244 93.146 56.4558 92.908C56.7871 92.6653 56.9528 92.3363 56.9528 91.921C56.9528 91.6877 56.8991 91.4987 56.7918 91.354C56.6891 91.2047 56.4768 91.067 56.1548 90.941C55.8328 90.815 55.3521 90.6657 54.7128 90.493C54.0268 90.3063 53.4901 90.1197 53.1028 89.933C52.7154 89.7463 52.4401 89.5317 52.2768 89.289C52.1134 89.0417 52.0318 88.7407 52.0318 88.386C52.0318 87.9567 52.1531 87.581 52.3958 87.259C52.6384 86.9323 52.9744 86.6803 53.4038 86.503C53.8331 86.321 54.3324 86.23 54.9018 86.23C55.4711 86.23 55.9798 86.3233 56.4278 86.51C56.8804 86.692 57.2444 86.9487 57.5198 87.28C57.7951 87.6113 57.9584 87.9963 58.0098 88.435L56.9598 88.624C56.8898 88.1807 56.6681 87.8307 56.2948 87.574C55.9261 87.3127 55.4571 87.1773 54.8878 87.168C54.3511 87.154 53.9148 87.2567 53.5788 87.476C53.2428 87.6907 53.0748 87.9777 53.0748 88.337C53.0748 88.5377 53.1354 88.7103 53.2568 88.855C53.3781 88.995 53.5974 89.128 53.9148 89.254C54.2368 89.38 54.6941 89.5177 55.2868 89.667C55.9821 89.8443 56.5281 90.031 56.9248 90.227C57.3214 90.423 57.6038 90.654 57.7718 90.92C57.9398 91.186 58.0238 91.515 58.0238 91.907C58.0238 92.621 57.7578 93.1833 57.2258 93.594C56.6984 94 55.9704 94.203 55.0418 94.203ZM63.4123 94C62.9876 94.0887 62.5676 94.1237 62.1523 94.105C61.7416 94.0863 61.3729 93.9977 61.0462 93.839C60.7242 93.6803 60.4792 93.433 60.3113 93.097C60.1759 92.817 60.1012 92.5347 60.0872 92.25C60.0779 91.9607 60.0732 91.6317 60.0732 91.263V84.34H61.0952V91.221C61.0952 91.5383 61.0976 91.8043 61.1023 92.019C61.1116 92.229 61.1606 92.4157 61.2493 92.579C61.4172 92.8917 61.6833 93.0783 62.0473 93.139C62.4159 93.1997 62.8709 93.1857 63.4123 93.097V94ZM58.4562 87.322V86.44H63.4123V87.322H58.4562ZM67.5473 94.21C66.8099 94.21 66.1706 94.0467 65.6293 93.72C65.0926 93.3933 64.6749 92.9337 64.3763 92.341C64.0776 91.7483 63.9283 91.053 63.9283 90.255C63.9283 89.429 64.0753 88.715 64.3693 88.113C64.6633 87.511 65.0763 87.0467 65.6083 86.72C66.1449 86.3933 66.7773 86.23 67.5053 86.23C68.2519 86.23 68.8889 86.4027 69.4163 86.748C69.9436 87.0887 70.3426 87.5787 70.6133 88.218C70.8839 88.8573 71.0076 89.6203 70.9843 90.507H69.9343V90.143C69.9156 89.163 69.7033 88.4233 69.2973 87.924C68.8959 87.4247 68.3079 87.175 67.5333 87.175C66.7213 87.175 66.0983 87.4387 65.6643 87.966C65.2349 88.4933 65.0203 89.2447 65.0203 90.22C65.0203 91.172 65.2349 91.9117 65.6643 92.439C66.0983 92.9617 66.7119 93.223 67.5053 93.223C68.0466 93.223 68.5179 93.0993 68.9193 92.852C69.3253 92.6 69.6449 92.2383 69.8783 91.767L70.8373 92.138C70.5386 92.796 70.0976 93.307 69.5143 93.671C68.9356 94.0303 68.2799 94.21 67.5473 94.21ZM64.6563 90.507V89.646H70.4313V90.507H64.6563ZM72.3977 94V83.71H73.4267V94H72.3977Z" fill="black"/>
<rect x="0.5" y="0.5" width="101" height="103" stroke="black" stroke-opacity="0.12"/>
<path d="M45.3779 33.623H56.1895C56.9357 33.623 57.54 34.2274 57.54 34.9736V44.4325C57.54 45.1787 56.9362 45.7847 56.1895 45.7847H45.3779C44.6322 45.7847 44.0268 45.1782 44.0268 44.4325L44.0263 34.9736C44.0263 34.2274 44.6322 33.623 45.3779 33.623H45.3779ZM46.7285 43.0819H54.8372V36.3258H46.7285V43.0819Z" fill="black" fill-opacity="0.5"/>
<path d="M27.8111 33.623H38.6221C39.3668 33.623 39.9727 34.2274 39.9727 34.9736V44.4325C39.9727 45.1787 39.3668 45.7847 38.6221 45.7847H27.8111C27.0664 45.7847 26.46 45.1782 26.46 44.4325L26.4594 34.9736C26.4594 34.2274 27.0664 33.623 27.8111 33.623H27.8111ZM29.1616 43.0819H37.2714V36.3258H29.1627L29.1622 43.0819H29.1616Z" fill="black" fill-opacity="0.5"/>
<path d="M62.2681 33.623H73.0801C73.8264 33.623 74.4307 34.2274 74.4307 34.9736V44.4325C74.4307 45.1787 73.8263 45.7847 73.0801 45.7847H62.2676C61.5229 45.7847 60.9186 45.1782 60.9186 44.4325L60.9192 34.9736C60.9192 34.2274 61.5235 33.623 62.2681 33.623H62.2681ZM63.6208 43.0819H71.7295V36.3258H63.6208V43.0819Z" fill="black" fill-opacity="0.5"/>
<path d="M27.8111 53.8926H38.6221C39.3668 53.8926 39.9727 54.4969 39.9727 55.2437V64.7026C39.9727 65.4488 39.3668 66.0536 38.6221 66.0536H27.8111C27.0664 66.0536 26.46 65.4488 26.46 64.7026L26.4594 55.2437C26.4594 54.4969 27.0664 53.8926 27.8111 53.8926H27.8111ZM29.1616 63.3529H37.2714V56.5948H29.1627L29.1622 63.3529H29.1616Z" fill="black" fill-opacity="0.5"/>
<path d="M62.2681 53.8926H73.0801C73.8264 53.8926 74.4307 54.4969 74.4307 55.2437V64.7026C74.4307 65.4488 73.8263 66.0536 73.0801 66.0536H62.2676C61.5229 66.0536 60.9186 65.4488 60.9186 64.7026L60.9192 55.2437C60.9192 54.4969 61.5235 53.8926 62.2681 53.8926H62.2681ZM63.6208 63.3529H71.7295V56.5948H63.6208V63.3529Z" fill="black" fill-opacity="0.5"/>
<path d="M18.351 32.2704C17.6053 32.2704 16.9999 31.664 16.9999 30.9182V24.8387C16.9999 24.0909 17.6058 23.4876 18.351 23.4876H20.9013L26.1455 12.7562C26.3722 12.2938 26.842 12 27.3594 12H74.7604C75.2751 12 75.7486 12.2943 75.9738 12.7562L81.2169 23.4865H83.2147C83.9625 23.4865 84.5674 24.0909 84.5674 24.8376V30.9172C84.5674 31.6634 83.9625 32.2693 83.2147 32.2693H80.512V66.0534H83.2147C83.9625 66.0534 84.5674 66.6578 84.5674 67.4045V73.4855C84.5674 74.2318 83.9625 74.8366 83.2147 74.8366L61.0392 74.8377C60.7019 74.8377 60.3778 74.7131 60.1306 74.4858L56.0725 70.7963H45.5883L42.0492 74.4301C41.7947 74.6915 41.4465 74.8386 41.0799 74.8386L18.3507 74.8381C17.605 74.8381 16.9996 74.2332 16.9996 73.487V67.406C16.9996 66.6582 17.6055 66.0549 18.3507 66.0549H21.0529V32.2708L18.351 32.2704ZM73.9165 14.7027H28.2047L23.911 23.4865H78.2109L73.9165 14.7027ZM81.8639 29.5663V26.1881H21.747L19.7025 26.1875V29.5658H22.4052L79.1625 29.5663H81.8639ZM54.838 54.58H46.7293V68.0923H54.838V54.58ZM22.4066 68.7559H19.7038V72.1353L40.5119 72.1347L44.0284 68.5233V53.2146C44.0284 52.4699 44.6343 51.8645 45.3795 51.8645H56.1905C56.9368 51.8645 57.5411 52.4694 57.5411 53.2146V68.4737L61.5619 72.1343L81.8646 72.1348V68.7555H79.1635C78.4167 68.7555 77.8124 68.1491 77.8124 67.4044V32.2689H23.7591V67.4031C23.7581 68.1483 23.1522 68.7542 22.4064 68.7542L22.4066 68.7559Z" fill="black" fill-opacity="0.5"/>
</svg>
