<svg width="256" height="256" viewBox="0 0 256 256" fill="none" xmlns="http://www.w3.org/2000/svg">
<g clip-path="url(#clip0_3826_129363)">
<path d="M199.518 234.272C190.987 239.742 182.105 244.553 172.551 247.992C145.777 257.634 118.694 258.658 91.364 250.584C67.9491 243.666 48.1192 230.92 32.0283 212.676C15.1059 193.486 4.8027 171.098 1.29487 145.644C-2.45526 118.407 1.90612 92.4693 14.8251 68.331C31.1637 37.7977 56.0379 16.868 89.1173 6.22973C116.993 -2.73544 144.857 -1.93744 172.363 8.06239C189.881 14.4299 205.212 24.3197 218.389 37.5501C230.752 49.9549 240.213 64.1924 246.755 80.4827C254.773 100.449 257.532 121.087 255.202 142.391C253.28 159.964 247.796 176.447 239.023 191.824C238.599 191.235 238.131 190.668 237.751 190.046C229.43 176.32 218.929 164.537 206.274 154.659C204.138 152.991 201.616 151.791 199.936 149.557C204.545 133.971 204.286 118.402 198.829 103.152C192.496 85.4524 181.075 71.8037 164.555 62.5744C148.651 53.6863 131.668 50.9896 113.865 54.3852C95.8466 57.8194 80.9782 66.8176 69.4965 81.1707C55.6414 98.5011 50.5036 118.352 53.9343 140.102C56.897 158.852 66.0328 174.389 80.9397 186.375C96.3036 198.725 113.87 204.085 133.475 202.864C145.38 202.121 156.377 198.378 166.625 192.352C168.2 191.95 169.219 193.04 170.309 193.799C180.64 200.998 188.9 210.09 194.655 221.295C196.759 225.389 199.165 229.473 199.518 234.272Z" fill="#D71796"/>
<path d="M198.542 152.317C200.25 154.551 202.821 155.751 204.989 157.419C217.866 167.303 228.541 179.08 237.004 192.806C237.385 193.428 237.861 193.989 238.298 194.584C241.609 201.034 245.048 207.434 247.535 214.248C252.469 227.786 255.348 241.71 255.55 256.14C255.578 258.033 255.012 258.694 253.035 258.688C236.808 258.628 220.582 258.622 204.356 258.694C202.266 258.705 201.51 257.978 201.561 256.002C201.695 250.46 200.631 245.073 199.259 239.734C199.012 238.782 198.967 237.747 198.122 237.037C197.763 232.238 195.315 228.155 193.176 224.055C187.323 212.85 178.921 203.758 168.413 196.559C167.304 195.8 166.268 194.71 164.666 195.112C164.661 194.171 163.843 194.006 163.221 193.643C152.4 187.358 140.621 184.298 128.147 183.775C125.739 183.676 125.262 182.955 125.274 180.759C125.369 164.997 125.38 149.24 125.279 133.478C125.268 131.277 125.862 130.716 128.074 130.727C140.665 130.787 152.859 133.066 164.834 136.731C175.566 140.017 185.665 144.618 195.125 150.583C196.2 151.255 197.136 152.251 198.542 152.317Z" fill="#FDA170"/>
</g>
<defs>
<clipPath id="clip0_3826_129363">
<rect width="256" height="256" fill="white"/>
</clipPath>
</defs>
</svg>
