<svg width="32" height="32" viewBox="0 0 32 32" fill="none" xmlns="http://www.w3.org/2000/svg">
<g clip-path="url(#clip0_3826_129360)">
<path d="M24.9397 29.284C23.8734 29.9678 22.7631 30.5691 21.5688 30.999C18.2221 32.2043 14.8368 32.3322 11.4205 31.323C8.49364 30.4583 6.01489 28.865 4.00354 26.5845C1.88824 24.1857 0.600337 21.3872 0.161858 18.2055C-0.306908 14.8009 0.238265 11.5587 1.85313 8.54138C3.89547 4.72471 7.00474 2.1085 11.1397 0.778716C14.6241 -0.34193 18.1071 -0.242179 21.5454 1.0078C23.7351 1.80374 25.6514 3.03996 27.2987 4.69376C28.844 6.24436 30.0266 8.02405 30.8444 10.0603C31.8466 12.5562 32.1915 15.1359 31.9003 17.7989C31.66 19.9955 30.9744 22.0559 29.8779 23.978C29.8249 23.9043 29.7664 23.8335 29.7189 23.7558C28.6788 22.04 27.3661 20.5672 25.7843 19.3323C25.5172 19.1239 25.202 18.9739 24.992 18.6946C25.5682 16.7464 25.5358 14.8002 24.8536 12.8939C24.062 10.6815 22.6344 8.97547 20.5694 7.8218C18.5814 6.71078 16.4585 6.37369 14.2331 6.79815C11.9808 7.22742 10.1223 8.3522 8.68707 10.1463C6.95518 12.3126 6.31295 14.794 6.74179 17.5127C7.11212 19.8565 8.2541 21.7986 10.1175 23.2969C12.038 24.8406 14.2338 25.5107 16.6843 25.358C18.1725 25.2651 19.5472 24.7973 20.8282 24.044C21.025 23.9938 21.1524 24.13 21.2887 24.2249C22.58 25.1247 23.6126 26.2612 24.3319 27.6619C24.5948 28.1737 24.8956 28.6841 24.9397 29.284Z" fill="#D71796"/>
<path d="M24.8177 19.0396C25.0313 19.3189 25.3526 19.4689 25.6236 19.6773C27.2332 20.9129 28.5677 22.385 29.6256 24.1007C29.6732 24.1785 29.7327 24.2487 29.7873 24.323C30.2011 25.1292 30.631 25.9293 30.9418 26.7809C31.5586 28.4733 31.9185 30.2137 31.9437 32.0175C31.9472 32.2542 31.8765 32.3367 31.6294 32.336C29.6011 32.3285 27.5728 32.3278 25.5445 32.3367C25.2833 32.3381 25.1888 32.2473 25.1951 32.0003C25.2119 31.3076 25.0789 30.6341 24.9073 29.9668C24.8765 29.8478 24.8709 29.7184 24.7652 29.6297C24.7204 29.0298 24.4144 28.5194 24.147 28.0068C23.4153 26.6062 22.3651 25.4697 21.0517 24.5699C20.913 24.475 20.7835 24.3388 20.5833 24.389C20.5826 24.2714 20.4804 24.2507 20.4026 24.2053C19.05 23.4197 17.5776 23.0372 16.0184 22.9718C15.7173 22.9595 15.6578 22.8693 15.6592 22.5949C15.6711 20.6246 15.6725 18.6551 15.6599 16.6848C15.6585 16.4096 15.7327 16.3395 16.0093 16.3408C17.5832 16.3484 19.1074 16.6332 20.6043 17.0914C21.9457 17.5021 23.2081 18.0772 24.3906 18.8229C24.5251 18.9068 24.642 19.0314 24.8177 19.0396Z" fill="#FDA170"/>
</g>
<defs>
<clipPath id="clip0_3826_129360">
<rect width="32" height="32" fill="white"/>
</clipPath>
</defs>
</svg>
