<svg width="194" height="48" viewBox="0 0 194 48" fill="none" xmlns="http://www.w3.org/2000/svg">
<path d="M33.8807 24C30.3263 27.9713 25.1609 30.4706 19.4118 30.4706C13.6627 30.4706 8.4973 27.9713 4.94287 24C8.4973 20.0287 13.6627 17.5294 19.4118 17.5294C25.1609 17.5294 30.3263 20.0287 33.8807 24Z" fill="white"/>
<path fill-rule="evenodd" clip-rule="evenodd" d="M0 36.9412C0 26.2204 8.69094 17.5294 19.4118 17.5294C13.6626 17.5294 8.4973 20.0287 4.94288 24C8.4973 27.9713 13.6627 30.4706 19.4118 30.4706C25.1609 30.4706 30.3263 27.9713 33.8807 24C36.9545 27.4343 38.8235 31.9695 38.8235 36.9412V44.2745C38.8235 45.2275 38.051 46 37.098 46H1.72549C0.772528 46 0 45.2275 0 44.2745V36.9412ZM33.8807 24C33.8807 24 33.8807 24 33.8807 24V24Z" fill="#7CD4FD"/>
<path fill-rule="evenodd" clip-rule="evenodd" d="M12.1306 29.0589C9.3589 27.9366 6.90535 26.1926 4.94288 24C8.4973 20.0287 13.6627 17.5294 19.4118 17.5294C25.1609 17.5294 30.3263 20.0287 33.8807 24C33.8807 24 33.8807 24 33.8807 24C36.9545 20.5657 38.8235 16.0305 38.8235 11.0588V3.72549C38.8235 2.77252 38.051 2 37.098 2L1.72549 1.99999C0.772529 1.99999 7.24411e-07 2.77252 6.41101e-07 3.72548L0 11.0588C-1.28944e-06 19.2047 5.01754 26.1788 12.1306 29.0589Z" fill="#0BA5EC"/>
<path d="M69.144 14.456V34H65.224V25.684H56.852V34H52.932V14.456H56.852V22.492H65.224V14.456H69.144Z" fill="#101828"/>
<path d="M79.8903 34.252C78.397 34.252 77.053 33.9253 75.8583 33.272C74.6636 32.6 73.721 31.6573 73.0303 30.444C72.3583 29.2307 72.0223 27.8307 72.0223 26.244C72.0223 24.6573 72.3676 23.2573 73.0583 22.044C73.7676 20.8307 74.729 19.8973 75.9423 19.244C77.1556 18.572 78.509 18.236 80.0023 18.236C81.4956 18.236 82.849 18.572 84.0623 19.244C85.2756 19.8973 86.2276 20.8307 86.9183 22.044C87.6276 23.2573 87.9823 24.6573 87.9823 26.244C87.9823 27.8307 87.6183 29.2307 86.8903 30.444C86.181 31.6573 85.2103 32.6 83.9783 33.272C82.765 33.9253 81.4023 34.252 79.8903 34.252ZM79.8903 30.836C80.5996 30.836 81.2623 30.668 81.8783 30.332C82.513 29.9773 83.017 29.4547 83.3903 28.764C83.7636 28.0733 83.9503 27.2333 83.9503 26.244C83.9503 24.7693 83.5583 23.64 82.7743 22.856C82.009 22.0533 81.0663 21.652 79.9463 21.652C78.8263 21.652 77.8836 22.0533 77.1183 22.856C76.3716 23.64 75.9983 24.7693 75.9983 26.244C75.9983 27.7187 76.3623 28.8573 77.0903 29.66C77.837 30.444 78.7703 30.836 79.8903 30.836Z" fill="#101828"/>
<path d="M105.502 18.488V34H101.554V32.04C101.05 32.712 100.387 33.244 99.5658 33.636C98.7631 34.0093 97.8858 34.196 96.9338 34.196C95.7204 34.196 94.6471 33.944 93.7138 33.44C92.7804 32.9173 92.0431 32.1613 91.5018 31.172C90.9791 30.164 90.7178 28.9693 90.7178 27.588V18.488H94.6378V27.028C94.6378 28.26 94.9458 29.212 95.5618 29.884C96.1778 30.5373 97.0178 30.864 98.0818 30.864C99.1644 30.864 100.014 30.5373 100.63 29.884C101.246 29.212 101.554 28.26 101.554 27.028V18.488H105.502Z" fill="#101828"/>
<path d="M113.289 20.896C113.793 20.0747 114.447 19.4307 115.249 18.964C116.071 18.4973 117.004 18.264 118.049 18.264V22.38H117.013C115.781 22.38 114.848 22.6693 114.213 23.248C113.597 23.8267 113.289 24.8347 113.289 26.272V34H109.369V18.488H113.289V20.896Z" fill="#101828"/>
<path d="M126.766 18.236C127.923 18.236 128.94 18.4693 129.818 18.936C130.695 19.384 131.386 19.972 131.89 20.7V18.488H135.838V34.112C135.838 35.5493 135.548 36.828 134.97 37.948C134.391 39.0867 133.523 39.9827 132.366 40.636C131.208 41.308 129.808 41.644 128.166 41.644C125.963 41.644 124.152 41.1307 122.734 40.104C121.334 39.0773 120.54 37.6773 120.354 35.904H124.246C124.451 36.6133 124.89 37.1733 125.562 37.584C126.252 38.0133 127.083 38.228 128.054 38.228C129.192 38.228 130.116 37.8827 130.826 37.192C131.535 36.52 131.89 35.4933 131.89 34.112V31.704C131.386 32.432 130.686 33.0387 129.79 33.524C128.912 34.0093 127.904 34.252 126.766 34.252C125.459 34.252 124.264 33.916 123.182 33.244C122.099 32.572 121.24 31.6293 120.606 30.416C119.99 29.184 119.682 27.7747 119.682 26.188C119.682 24.62 119.99 23.2293 120.606 22.016C121.24 20.8027 122.09 19.8693 123.154 19.216C124.236 18.5627 125.44 18.236 126.766 18.236ZM131.89 26.244C131.89 25.292 131.703 24.48 131.33 23.808C130.956 23.1173 130.452 22.5947 129.818 22.24C129.183 21.8667 128.502 21.68 127.774 21.68C127.046 21.68 126.374 21.8573 125.758 22.212C125.142 22.5667 124.638 23.0893 124.246 23.78C123.872 24.452 123.686 25.2547 123.686 26.188C123.686 27.1213 123.872 27.9427 124.246 28.652C124.638 29.3427 125.142 29.8747 125.758 30.248C126.392 30.6213 127.064 30.808 127.774 30.808C128.502 30.808 129.183 30.6307 129.818 30.276C130.452 29.9027 130.956 29.38 131.33 28.708C131.703 28.0173 131.89 27.196 131.89 26.244Z" fill="#101828"/>
<path d="M143.586 13.28V34H139.666V13.28H143.586Z" fill="#101828"/>
<path d="M146.451 26.188C146.451 24.62 146.759 23.2293 147.375 22.016C148.01 20.8027 148.859 19.8693 149.923 19.216C151.006 18.5627 152.21 18.236 153.535 18.236C154.693 18.236 155.701 18.4693 156.559 18.936C157.437 19.4027 158.137 19.9907 158.659 20.7V18.488H162.607V34H158.659V31.732C158.155 32.46 157.455 33.0667 156.559 33.552C155.682 34.0187 154.665 34.252 153.507 34.252C152.201 34.252 151.006 33.916 149.923 33.244C148.859 32.572 148.01 31.6293 147.375 30.416C146.759 29.184 146.451 27.7747 146.451 26.188ZM158.659 26.244C158.659 25.292 158.473 24.48 158.099 23.808C157.726 23.1173 157.222 22.5947 156.587 22.24C155.953 21.8667 155.271 21.68 154.543 21.68C153.815 21.68 153.143 21.8573 152.527 22.212C151.911 22.5667 151.407 23.0893 151.015 23.78C150.642 24.452 150.455 25.2547 150.455 26.188C150.455 27.1213 150.642 27.9427 151.015 28.652C151.407 29.3427 151.911 29.8747 152.527 30.248C153.162 30.6213 153.834 30.808 154.543 30.808C155.271 30.808 155.953 30.6307 156.587 30.276C157.222 29.9027 157.726 29.38 158.099 28.708C158.473 28.0173 158.659 27.196 158.659 26.244Z" fill="#101828"/>
<path d="M172.372 34.252C171.103 34.252 169.964 34.028 168.956 33.58C167.948 33.1133 167.145 32.488 166.548 31.704C165.969 30.92 165.652 30.052 165.596 29.1H169.544C169.619 29.6973 169.908 30.192 170.412 30.584C170.935 30.976 171.578 31.172 172.344 31.172C173.09 31.172 173.669 31.0227 174.08 30.724C174.509 30.4253 174.724 30.0427 174.724 29.576C174.724 29.072 174.463 28.6987 173.94 28.456C173.436 28.1947 172.624 27.9147 171.504 27.616C170.347 27.336 169.395 27.0467 168.648 26.748C167.92 26.4493 167.285 25.992 166.744 25.376C166.221 24.76 165.96 23.9293 165.96 22.884C165.96 22.0253 166.203 21.2413 166.688 20.532C167.192 19.8227 167.901 19.2627 168.816 18.852C169.749 18.4413 170.841 18.236 172.092 18.236C173.94 18.236 175.414 18.7027 176.516 19.636C177.617 20.5507 178.224 21.792 178.336 23.36H174.584C174.528 22.744 174.267 22.2587 173.8 21.904C173.352 21.5307 172.745 21.344 171.98 21.344C171.271 21.344 170.72 21.4747 170.328 21.736C169.954 21.9973 169.768 22.3613 169.768 22.828C169.768 23.3507 170.029 23.752 170.552 24.032C171.075 24.2933 171.887 24.564 172.988 24.844C174.108 25.124 175.032 25.4133 175.76 25.712C176.488 26.0107 177.113 26.4773 177.636 27.112C178.177 27.728 178.457 28.5493 178.476 29.576C178.476 30.472 178.224 31.2747 177.72 31.984C177.235 32.6933 176.525 33.2533 175.592 33.664C174.677 34.056 173.604 34.252 172.372 34.252Z" fill="#101828"/>
<path d="M187.63 34.252C186.36 34.252 185.222 34.028 184.214 33.58C183.206 33.1133 182.403 32.488 181.806 31.704C181.227 30.92 180.91 30.052 180.854 29.1H184.802C184.876 29.6973 185.166 30.192 185.67 30.584C186.192 30.976 186.836 31.172 187.602 31.172C188.348 31.172 188.927 31.0227 189.338 30.724C189.767 30.4253 189.982 30.0427 189.982 29.576C189.982 29.072 189.72 28.6987 189.198 28.456C188.694 28.1947 187.882 27.9147 186.762 27.616C185.604 27.336 184.652 27.0467 183.906 26.748C183.178 26.4493 182.543 25.992 182.002 25.376C181.479 24.76 181.218 23.9293 181.218 22.884C181.218 22.0253 181.46 21.2413 181.946 20.532C182.45 19.8227 183.159 19.2627 184.074 18.852C185.007 18.4413 186.099 18.236 187.35 18.236C189.198 18.236 190.672 18.7027 191.774 19.636C192.875 20.5507 193.482 21.792 193.594 23.36H189.842C189.786 22.744 189.524 22.2587 189.058 21.904C188.61 21.5307 188.003 21.344 187.238 21.344C186.528 21.344 185.978 21.4747 185.586 21.736C185.212 21.9973 185.026 22.3613 185.026 22.828C185.026 23.3507 185.287 23.752 185.81 24.032C186.332 24.2933 187.144 24.564 188.246 24.844C189.366 25.124 190.29 25.4133 191.018 25.712C191.746 26.0107 192.371 26.4773 192.894 27.112C193.435 27.728 193.715 28.5493 193.734 29.576C193.734 30.472 193.482 31.2747 192.978 31.984C192.492 32.6933 191.783 33.2533 190.85 33.664C189.935 34.056 188.862 34.252 187.63 34.252Z" fill="#101828"/>
</svg>
