<svg width="188" height="48" viewBox="0 0 188 48" fill="none" xmlns="http://www.w3.org/2000/svg">
<path fill-rule="evenodd" clip-rule="evenodd" d="M22.5 36.4667C29.3851 36.4667 34.9667 30.8851 34.9667 24C34.9667 17.1149 29.3851 11.5333 22.5 11.5333C15.6148 11.5333 10.0333 17.1149 10.0333 24C10.0333 30.8851 15.6148 36.4667 22.5 36.4667ZM22.5 46C34.6503 46 44.5 36.1503 44.5 24C44.5 11.8497 34.6503 2 22.5 2C10.3497 2 0.5 11.8497 0.5 24C0.5 36.1503 10.3497 46 22.5 46Z" fill="#6938EF"/>
<path d="M22.7517 24.4817C25.0427 22.1906 28.7573 22.1906 31.0484 24.4817L42.4564 35.8897C44.7474 38.1808 44.7474 41.8953 42.4564 44.1864C40.1653 46.4775 36.4507 46.4775 34.1597 44.1864L22.7517 32.7784C20.4606 30.4873 20.4606 26.7728 22.7517 24.4817Z" fill="#F670C7"/>
<path d="M25.955 35.9817L33.2003 43.2271C36.6755 41.2889 39.5708 38.4359 41.5604 34.9938L34.3745 27.8078C33.1122 31.7472 29.944 34.8336 25.955 35.9817Z" fill="#6519BA"/>
<path d="M80.02 36.1C79.3854 36.884 78.6107 37.4813 77.696 37.892C76.8 38.3027 75.8107 38.508 74.728 38.508C73.272 38.508 71.956 38.1907 70.78 37.556C69.604 36.94 68.26 35.8387 66.748 34.252C64.9747 34.028 63.388 33.4587 61.988 32.544C60.6067 31.6293 59.524 30.4533 58.74 29.016C57.9747 27.56 57.592 25.9547 57.592 24.2C57.592 22.2773 58.0494 20.5507 58.964 19.02C59.8974 17.4707 61.176 16.2573 62.8 15.38C64.4427 14.5027 66.2814 14.064 68.316 14.064C70.3507 14.064 72.18 14.5027 73.804 15.38C75.428 16.2573 76.7067 17.4707 77.64 19.02C78.5734 20.5507 79.04 22.2773 79.04 24.2C79.04 26.4773 78.396 28.4747 77.108 30.192C75.8387 31.9093 74.1494 33.104 72.04 33.776C72.5067 34.2613 72.9547 34.6067 73.384 34.812C73.832 35.036 74.308 35.148 74.812 35.148C76.0254 35.148 77.0894 34.6627 78.004 33.692L80.02 36.1ZM62.184 24.2C62.184 25.4133 62.4454 26.496 62.968 27.448C63.5094 28.4 64.2467 29.1467 65.18 29.688C66.1134 30.2107 67.1587 30.472 68.316 30.472C69.4734 30.472 70.5187 30.2107 71.452 29.688C72.3854 29.1467 73.1134 28.4 73.636 27.448C74.1774 26.496 74.448 25.4133 74.448 24.2C74.448 22.9867 74.1774 21.904 73.636 20.952C73.1134 20 72.3854 19.2627 71.452 18.74C70.5187 18.1987 69.4734 17.928 68.316 17.928C67.1587 17.928 66.1134 18.1987 65.18 18.74C64.2467 19.2627 63.5094 20 62.968 20.952C62.4454 21.904 62.184 22.9867 62.184 24.2Z" fill="#101828"/>
<path d="M97.317 18.936V34H93.173V32.208C92.5944 32.8613 91.9037 33.3653 91.101 33.72C90.2984 34.056 89.4304 34.224 88.497 34.224C86.5184 34.224 84.9504 33.6547 83.793 32.516C82.6357 31.3773 82.057 29.688 82.057 27.448V18.936H86.425V26.804C86.425 29.2307 87.4424 30.444 89.477 30.444C90.5224 30.444 91.3624 30.108 91.997 29.436C92.6317 28.7453 92.949 27.728 92.949 26.384V18.936H97.317Z" fill="#101828"/>
<path d="M108.532 34.224C106.945 34.224 105.517 33.8973 104.248 33.244C102.997 32.572 102.017 31.648 101.308 30.472C100.598 29.296 100.244 27.9613 100.244 26.468C100.244 24.9747 100.598 23.64 101.308 22.464C102.017 21.288 102.997 20.3733 104.248 19.72C105.517 19.048 106.945 18.712 108.532 18.712C110.118 18.712 111.537 19.048 112.788 19.72C114.038 20.3733 115.018 21.288 115.728 22.464C116.437 23.64 116.792 24.9747 116.792 26.468C116.792 27.9613 116.437 29.296 115.728 30.472C115.018 31.648 114.038 32.572 112.788 33.244C111.537 33.8973 110.118 34.224 108.532 34.224ZM108.532 30.64C109.652 30.64 110.566 30.2667 111.276 29.52C112.004 28.7547 112.368 27.7373 112.368 26.468C112.368 25.1987 112.004 24.1907 111.276 23.444C110.566 22.6787 109.652 22.296 108.532 22.296C107.412 22.296 106.488 22.6787 105.76 23.444C105.032 24.1907 104.668 25.1987 104.668 26.468C104.668 27.7373 105.032 28.7547 105.76 29.52C106.488 30.2667 107.412 30.64 108.532 30.64Z" fill="#101828"/>
<path d="M129.427 33.272C128.998 33.5893 128.466 33.832 127.831 34C127.215 34.1493 126.562 34.224 125.871 34.224C124.079 34.224 122.689 33.7667 121.699 32.852C120.729 31.9373 120.243 30.5933 120.243 28.82V22.632H117.919V19.272H120.243V15.604H124.611V19.272H128.363V22.632H124.611V28.764C124.611 29.3987 124.77 29.8933 125.087 30.248C125.423 30.584 125.89 30.752 126.487 30.752C127.178 30.752 127.766 30.5653 128.251 30.192L129.427 33.272Z" fill="#101828"/>
<path d="M131.879 18.936H136.247V34H131.879V18.936ZM134.063 16.836C133.261 16.836 132.607 16.6027 132.103 16.136C131.599 15.6693 131.347 15.0907 131.347 14.4C131.347 13.7093 131.599 13.1307 132.103 12.664C132.607 12.1973 133.261 11.964 134.063 11.964C134.866 11.964 135.519 12.188 136.023 12.636C136.527 13.084 136.779 13.644 136.779 14.316C136.779 15.044 136.527 15.6507 136.023 16.136C135.519 16.6027 134.866 16.836 134.063 16.836Z" fill="#101828"/>
<path d="M155.057 26.524C155.057 26.58 155.029 26.972 154.973 27.7H143.577C143.783 28.6333 144.268 29.3707 145.033 29.912C145.799 30.4533 146.751 30.724 147.889 30.724C148.673 30.724 149.364 30.612 149.961 30.388C150.577 30.1453 151.147 29.772 151.669 29.268L153.993 31.788C152.575 33.412 150.503 34.224 147.777 34.224C146.079 34.224 144.576 33.8973 143.269 33.244C141.963 32.572 140.955 31.648 140.245 30.472C139.536 29.296 139.181 27.9613 139.181 26.468C139.181 24.9933 139.527 23.668 140.217 22.492C140.927 21.2973 141.888 20.3733 143.101 19.72C144.333 19.048 145.705 18.712 147.217 18.712C148.692 18.712 150.027 19.0293 151.221 19.664C152.416 20.2987 153.349 21.2133 154.021 22.408C154.712 23.584 155.057 24.956 155.057 26.524ZM147.245 22.016C146.256 22.016 145.425 22.296 144.753 22.856C144.081 23.416 143.671 24.1813 143.521 25.152H150.941C150.792 24.2 150.381 23.444 149.709 22.884C149.037 22.3053 148.216 22.016 147.245 22.016Z" fill="#101828"/>
<path d="M167.121 18.712C168.988 18.712 170.491 19.272 171.629 20.392C172.787 21.512 173.365 23.1733 173.365 25.376V34H168.997V26.048C168.997 24.8533 168.736 23.9667 168.213 23.388C167.691 22.7907 166.935 22.492 165.945 22.492C164.844 22.492 163.967 22.8373 163.313 23.528C162.66 24.2 162.333 25.208 162.333 26.552V34H157.965V18.936H162.137V20.7C162.716 20.0653 163.435 19.58 164.293 19.244C165.152 18.8893 166.095 18.712 167.121 18.712Z" fill="#101828"/>
<path d="M187.041 33.272C186.611 33.5893 186.079 33.832 185.445 34C184.829 34.1493 184.175 34.224 183.485 34.224C181.693 34.224 180.302 33.7667 179.313 32.852C178.342 31.9373 177.857 30.5933 177.857 28.82V22.632H175.533V19.272H177.857V15.604H182.225V19.272H185.977V22.632H182.225V28.764C182.225 29.3987 182.383 29.8933 182.701 30.248C183.037 30.584 183.503 30.752 184.101 30.752C184.791 30.752 185.379 30.5653 185.865 30.192L187.041 33.272Z" fill="#101828"/>
</svg>
