<svg width="170" height="48" viewBox="0 0 170 48" fill="none" xmlns="http://www.w3.org/2000/svg">
<rect x="0.5" y="19.2" width="9.59998" height="9.59999" fill="#039855"/>
<rect x="29.2999" y="28.8" width="9.6" height="9.59999" transform="rotate(180 29.2999 28.8)" fill="#027A48"/>
<path d="M10.1 19.2L19.7 9.59999V19.2L10.1 28.8V19.2Z" fill="#A6F4C5"/>
<path d="M19.7 28.8L10.1 38.4L10.1 28.8L19.7 19.2L19.7 28.8Z" fill="#6CE9A6"/>
<path d="M0.5 19.2L19.7 0V9.59999L10.1 19.2H0.5Z" fill="#32D583"/>
<path d="M29.2999 28.8L10.0999 48L10.0999 38.4L19.6999 28.8L29.2999 28.8Z" fill="#12B76A"/>
<path d="M50.208 34.28C48.696 34.28 47.2306 34.0653 45.812 33.636C44.412 33.2067 43.3013 32.6373 42.48 31.928L43.74 29.1C44.5426 29.7347 45.5226 30.2573 46.68 30.668C47.856 31.06 49.032 31.256 50.208 31.256C51.664 31.256 52.7466 31.0227 53.456 30.556C54.184 30.0893 54.548 29.4733 54.548 28.708C54.548 28.148 54.3426 27.6907 53.932 27.336C53.54 26.9627 53.036 26.6733 52.42 26.468C51.804 26.2627 50.964 26.0293 49.9 25.768C48.4066 25.4133 47.1933 25.0587 46.26 24.704C45.3453 24.3493 44.552 23.7987 43.88 23.052C43.2266 22.2867 42.9 21.26 42.9 19.972C42.9 18.8893 43.1893 17.9093 43.768 17.032C44.3653 16.136 45.252 15.4267 46.428 14.904C47.6226 14.3813 49.0786 14.12 50.796 14.12C51.9906 14.12 53.1666 14.2693 54.324 14.568C55.4813 14.8667 56.48 15.296 57.32 15.856L56.172 18.684C55.3133 18.18 54.4173 17.7973 53.484 17.536C52.5506 17.2747 51.6453 17.144 50.768 17.144C49.3306 17.144 48.2573 17.3867 47.548 17.872C46.8573 18.3573 46.512 19.0013 46.512 19.804C46.512 20.364 46.708 20.8213 47.1 21.176C47.5106 21.5307 48.024 21.8107 48.64 22.016C49.256 22.2213 50.096 22.4547 51.16 22.716C52.616 23.052 53.8106 23.4067 54.744 23.78C55.6773 24.1347 56.4706 24.6853 57.124 25.432C57.796 26.1787 58.132 27.1867 58.132 28.456C58.132 29.5387 57.8333 30.5187 57.236 31.396C56.6573 32.2733 55.7706 32.9733 54.576 33.496C53.3813 34.0187 51.9253 34.28 50.208 34.28Z" fill="#101828"/>
<path d="M61.4053 19.048H64.9053V34H61.4053V19.048ZM63.1693 16.584C62.5347 16.584 62.0027 16.388 61.5733 15.996C61.144 15.5853 60.9293 15.0813 60.9293 14.484C60.9293 13.8867 61.144 13.392 61.5733 13C62.0027 12.5893 62.5347 12.384 63.1693 12.384C63.804 12.384 64.336 12.58 64.7653 12.972C65.1947 13.3453 65.4093 13.8213 65.4093 14.4C65.4093 15.016 65.1947 15.5387 64.7653 15.968C64.3547 16.3787 63.8227 16.584 63.1693 16.584Z" fill="#101828"/>
<path d="M74.1191 34.196C72.9058 34.196 71.7204 34.0373 70.5631 33.72C69.4058 33.4027 68.4818 33.0013 67.7911 32.516L69.1351 29.856C69.8071 30.304 70.6098 30.668 71.5431 30.948C72.4951 31.2093 73.4284 31.34 74.3431 31.34C76.4338 31.34 77.4791 30.7893 77.4791 29.688C77.4791 29.1653 77.2084 28.8013 76.6671 28.596C76.1444 28.3907 75.2951 28.1947 74.1191 28.008C72.8871 27.8213 71.8791 27.6067 71.0951 27.364C70.3298 27.1213 69.6578 26.7013 69.0791 26.104C68.5191 25.488 68.2391 24.6387 68.2391 23.556C68.2391 22.1373 68.8271 21.008 70.0031 20.168C71.1978 19.3093 72.8031 18.88 74.8191 18.88C75.8458 18.88 76.8724 19.0013 77.8991 19.244C78.9258 19.468 79.7658 19.776 80.4191 20.168L79.0751 22.828C77.8058 22.0813 76.3778 21.708 74.7911 21.708C73.7644 21.708 72.9804 21.8667 72.4391 22.184C71.9164 22.4827 71.6551 22.884 71.6551 23.388C71.6551 23.948 71.9351 24.3493 72.4951 24.592C73.0738 24.816 73.9604 25.0307 75.1551 25.236C76.3498 25.4227 77.3298 25.6373 78.0951 25.88C78.8604 26.1227 79.5138 26.5333 80.0551 27.112C80.6151 27.6907 80.8951 28.512 80.8951 29.576C80.8951 30.976 80.2884 32.096 79.0751 32.936C77.8618 33.776 76.2098 34.196 74.1191 34.196Z" fill="#101828"/>
<path d="M97.6358 19.048L90.6358 35.204C89.9825 36.828 89.1891 37.9667 88.2558 38.62C87.3225 39.292 86.1931 39.628 84.8678 39.628C84.1211 39.628 83.3838 39.5067 82.6558 39.264C81.9278 39.0213 81.3305 38.6853 80.8638 38.256L82.2638 35.68C82.5998 35.9973 82.9918 36.2493 83.4398 36.436C83.9065 36.6227 84.3731 36.716 84.8398 36.716C85.4558 36.716 85.9598 36.5573 86.3518 36.24C86.7625 35.9227 87.1358 35.3907 87.4718 34.644L87.7238 34.056L81.1998 19.048H84.8398L89.5438 30.108L94.2758 19.048H97.6358Z" fill="#101828"/>
<path d="M108.111 18.88C109.567 18.88 110.865 19.1973 112.003 19.832C113.161 20.4667 114.066 21.3627 114.719 22.52C115.373 23.6773 115.699 25.012 115.699 26.524C115.699 28.036 115.373 29.38 114.719 30.556C114.066 31.7133 113.161 32.6093 112.003 33.244C110.865 33.8787 109.567 34.196 108.111 34.196C106.095 34.196 104.499 33.524 103.323 32.18V39.432H99.8233V19.048H103.155V21.008C103.734 20.2987 104.443 19.7667 105.283 19.412C106.142 19.0573 107.085 18.88 108.111 18.88ZM107.719 31.2C109.007 31.2 110.062 30.7707 110.883 29.912C111.723 29.0533 112.143 27.924 112.143 26.524C112.143 25.124 111.723 23.9947 110.883 23.136C110.062 22.2773 109.007 21.848 107.719 21.848C106.879 21.848 106.123 22.044 105.451 22.436C104.779 22.8093 104.247 23.3507 103.855 24.06C103.463 24.7693 103.267 25.5907 103.267 26.524C103.267 27.4573 103.463 28.2787 103.855 28.988C104.247 29.6973 104.779 30.248 105.451 30.64C106.123 31.0133 106.879 31.2 107.719 31.2Z" fill="#101828"/>
<path d="M127.503 18.88C129.388 18.88 130.9 19.4307 132.039 20.532C133.177 21.6333 133.747 23.2667 133.747 25.432V34H130.247V25.88C130.247 24.5733 129.939 23.5933 129.323 22.94C128.707 22.268 127.829 21.932 126.691 21.932C125.403 21.932 124.385 22.324 123.639 23.108C122.892 23.8733 122.519 24.984 122.519 26.44V34H119.019V13.224H122.519V20.784C123.097 20.168 123.807 19.7013 124.647 19.384C125.505 19.048 126.457 18.88 127.503 18.88Z" fill="#101828"/>
<path d="M152.663 19.048V34H149.331V32.096C148.771 32.768 148.071 33.2907 147.231 33.664C146.391 34.0187 145.485 34.196 144.515 34.196C142.517 34.196 140.94 33.6453 139.783 32.544C138.644 31.424 138.075 29.772 138.075 27.588V19.048H141.575V27.112C141.575 28.456 141.873 29.464 142.471 30.136C143.087 30.7893 143.955 31.116 145.075 31.116C146.325 31.116 147.315 30.7333 148.043 29.968C148.789 29.184 149.163 28.064 149.163 26.608V19.048H152.663Z" fill="#101828"/>
<path d="M161.865 34.196C160.652 34.196 159.466 34.0373 158.309 33.72C157.152 33.4027 156.228 33.0013 155.537 32.516L156.881 29.856C157.553 30.304 158.356 30.668 159.289 30.948C160.241 31.2093 161.174 31.34 162.089 31.34C164.18 31.34 165.225 30.7893 165.225 29.688C165.225 29.1653 164.954 28.8013 164.413 28.596C163.89 28.3907 163.041 28.1947 161.865 28.008C160.633 27.8213 159.625 27.6067 158.841 27.364C158.076 27.1213 157.404 26.7013 156.825 26.104C156.265 25.488 155.985 24.6387 155.985 23.556C155.985 22.1373 156.573 21.008 157.749 20.168C158.944 19.3093 160.549 18.88 162.565 18.88C163.592 18.88 164.618 19.0013 165.645 19.244C166.672 19.468 167.512 19.776 168.165 20.168L166.821 22.828C165.552 22.0813 164.124 21.708 162.537 21.708C161.51 21.708 160.726 21.8667 160.185 22.184C159.662 22.4827 159.401 22.884 159.401 23.388C159.401 23.948 159.681 24.3493 160.241 24.592C160.82 24.816 161.706 25.0307 162.901 25.236C164.096 25.4227 165.076 25.6373 165.841 25.88C166.606 26.1227 167.26 26.5333 167.801 27.112C168.361 27.6907 168.641 28.512 168.641 29.576C168.641 30.976 168.034 32.096 166.821 32.936C165.608 33.776 163.956 34.196 161.865 34.196Z" fill="#101828"/>
</svg>
