<svg width="161" height="48" viewBox="0 0 161 48" fill="none" xmlns="http://www.w3.org/2000/svg">
<path d="M22.5 2C10.3497 2 0.5 11.8497 0.5 24C0.5 36.1503 10.3497 46 22.5 46C33.401 46 42.4502 38.0716 44.1958 27.6667H44.0379C42.4098 33.9925 36.6674 38.6667 29.8333 38.6667C21.7332 38.6667 15.1667 32.1002 15.1667 24C15.1667 15.8998 21.7332 9.33333 29.8333 9.33333C36.6674 9.33333 42.4098 14.0075 44.0379 20.3333H44.1958C42.4502 9.92838 33.401 2 22.5 2Z" fill="#A4BCFD"/>
<path d="M0.5 24C0.5 11.8497 10.3497 2 22.5 2C33.401 2 42.4502 9.92838 44.1958 20.3333H29.3713C27.7431 14.0075 22.0007 9.33333 15.1667 9.33333C7.06649 9.33333 0.5 15.8998 0.5 24Z" fill="#3538CD"/>
<path d="M0.5 24C0.5 36.1503 10.3497 46 22.5 46C33.401 46 42.4502 38.0716 44.1958 27.6667H29.3713C27.7431 33.9925 22.0007 38.6667 15.1667 38.6667C7.06649 38.6667 0.5 32.1002 0.5 24Z" fill="#3538CD"/>
<path d="M75.9389 20.5071C75.3125 15.983 71.8324 13.358 67.3182 13.358C61.9986 13.358 57.9915 17.2358 57.9915 23.8182C57.9915 30.3906 61.9488 34.2784 67.3182 34.2784C72.1605 34.2784 75.3721 31.1463 75.9389 27.2585L72.2201 27.2386C71.7528 29.625 69.804 30.9673 67.3679 30.9673C64.0667 30.9673 61.7003 28.4915 61.7003 23.8182C61.7003 19.2244 64.0469 16.669 67.3778 16.669C69.8537 16.669 71.7926 18.071 72.2201 20.5071H75.9389Z" fill="#101828"/>
<path d="M83.5529 34.3082C85.9492 34.3082 87.381 33.1847 88.0373 31.902H88.1566V34H91.6168V23.7784C91.6168 19.7415 88.3256 18.5284 85.4123 18.5284C82.2006 18.5284 79.7347 19.9602 78.9392 22.7443L82.3 23.2216C82.658 22.1776 83.6722 21.2827 85.4321 21.2827C87.1026 21.2827 88.0174 22.1378 88.0174 23.6392V23.6989C88.0174 24.733 86.9336 24.7827 84.239 25.071C81.2759 25.3892 78.4421 26.2742 78.4421 29.7145C78.4421 32.7173 80.6395 34.3082 83.5529 34.3082ZM84.4875 31.6634C82.9861 31.6634 81.9123 30.9773 81.9123 29.6548C81.9123 28.2727 83.1154 27.696 84.7262 27.4673C85.6708 27.3381 87.56 27.0994 88.0273 26.7216V28.5213C88.0273 30.2216 86.6552 31.6634 84.4875 31.6634Z" fill="#101828"/>
<path d="M102.863 18.7273H99.8498V15.0682H96.2503V18.7273H94.0827V21.5114H96.2503V30.0028C96.2304 32.8764 98.3185 34.2884 101.023 34.2088C102.047 34.179 102.753 33.9801 103.141 33.8509L102.534 31.0369C102.336 31.0867 101.928 31.1761 101.48 31.1761C100.576 31.1761 99.8498 30.858 99.8498 29.4063V21.5114H102.863V18.7273Z" fill="#101828"/>
<path d="M110.268 34.3082C112.664 34.3082 114.096 33.1847 114.752 31.902H114.871V34H118.332V23.7784C118.332 19.7415 115.04 18.5284 112.127 18.5284C108.915 18.5284 106.45 19.9602 105.654 22.7443L109.015 23.2216C109.373 22.1776 110.387 21.2827 112.147 21.2827C113.817 21.2827 114.732 22.1378 114.732 23.6392V23.6989C114.732 24.733 113.648 24.7827 110.954 25.071C107.991 25.3892 105.157 26.2742 105.157 29.7145C105.157 32.7173 107.354 34.3082 110.268 34.3082ZM111.202 31.6634C109.701 31.6634 108.627 30.9773 108.627 29.6548C108.627 28.2727 109.83 27.696 111.441 27.4673C112.386 27.3381 114.275 27.0994 114.742 26.7216V28.5213C114.742 30.2216 113.37 31.6634 111.202 31.6634Z" fill="#101828"/>
<path d="M125.55 13.6364H121.951V34H125.55V13.6364Z" fill="#101828"/>
<path d="M135.914 34.2983C140.388 34.2983 143.232 31.1463 143.232 26.4233C143.232 21.6903 140.388 18.5284 135.914 18.5284C131.439 18.5284 128.595 21.6903 128.595 26.4233C128.595 31.1463 131.439 34.2983 135.914 34.2983ZM135.934 31.4148C133.458 31.4148 132.245 29.2074 132.245 26.4134C132.245 23.6193 133.458 21.3821 135.934 21.3821C138.37 21.3821 139.583 23.6193 139.583 26.4134C139.583 29.2074 138.37 31.4148 135.934 31.4148Z" fill="#101828"/>
<path d="M152.929 40.0455C157.055 40.0455 160.098 38.1563 160.098 34.2486V18.7273H156.548V21.2528H156.349C155.803 20.1492 154.659 18.5284 151.964 18.5284C148.435 18.5284 145.66 21.2926 145.66 26.3139C145.66 31.2955 148.435 33.7813 151.954 33.7813C154.57 33.7813 155.793 32.3793 156.349 31.2557H156.528V34.1492C156.528 36.3963 155.037 37.321 152.989 37.321C150.821 37.321 149.866 36.2969 149.429 35.402L146.187 36.1875C146.844 38.3253 149.041 40.0455 152.929 40.0455ZM152.959 30.9574C150.582 30.9574 149.329 29.108 149.329 26.294C149.329 23.5199 150.562 21.4815 152.959 21.4815C155.276 21.4815 156.548 23.4006 156.548 26.294C156.548 29.2074 155.256 30.9574 152.959 30.9574Z" fill="#101828"/>
</svg>
