<svg width="183" height="48" viewBox="0 0 183 48" fill="none" xmlns="http://www.w3.org/2000/svg">
<path d="M15.7143 33.4286C24.393 33.4286 31.4285 26.393 31.4285 17.7143C31.4285 16.7307 31.3382 15.7682 31.1653 14.8347C30.2318 14.6618 29.2693 14.5714 28.2857 14.5714C19.6069 14.5714 12.5714 21.607 12.5714 30.2857C12.5714 31.2693 12.6618 32.2318 12.8347 33.1653C13.7682 33.3382 14.7307 33.4286 15.7143 33.4286Z" fill="#175CD3"/>
<path fill-rule="evenodd" clip-rule="evenodd" d="M12.8347 33.1653C5.53118 31.8127 0 25.4095 0 17.7143C0 9.03553 7.03553 2 15.7143 2C23.4095 2 29.8128 7.53118 31.1653 14.8347C30.2318 14.6618 29.2693 14.5714 28.2857 14.5714C19.607 14.5714 12.5714 21.607 12.5714 30.2857C12.5714 31.2693 12.6618 32.2318 12.8347 33.1653Z" fill="#1570EF"/>
<path fill-rule="evenodd" clip-rule="evenodd" d="M15.7142 33.4285C24.393 33.4285 31.4285 26.393 31.4285 17.7142C31.4285 16.7306 31.3381 15.7681 31.1652 14.8346C38.4687 16.1872 43.9999 22.5905 43.9999 30.2856C43.9999 38.9644 36.9644 45.9999 28.2856 45.9999C20.5905 45.9999 14.1872 40.4688 12.8346 33.1652C13.7681 33.3381 14.7306 33.4285 15.7142 33.4285Z" fill="#2E90FA"/>
<path d="M74.228 28.904C73.668 30.7147 72.688 32.068 71.288 32.964C69.888 33.8413 68.2547 34.28 66.388 34.28C64.5587 34.28 62.972 33.8973 61.628 33.132C60.3027 32.3667 59.276 31.2747 58.548 29.856C57.8387 28.4373 57.484 26.7387 57.484 24.76C57.484 22.7813 57.848 21.0827 58.576 19.664C59.304 18.2453 60.3307 17.1533 61.656 16.388C62.9813 15.6227 64.54 15.24 66.332 15.24C68.2173 15.24 69.832 15.6413 71.176 16.444C72.5387 17.228 73.472 18.4227 73.976 20.028L70.476 21.512C70.1587 20.392 69.6733 19.5987 69.02 19.132C68.3667 18.6467 67.5267 18.404 66.5 18.404C64.9693 18.404 63.7467 18.9547 62.832 20.056C61.936 21.1387 61.488 22.7067 61.488 24.76C61.488 26.7947 61.9173 28.3627 62.776 29.464C63.6347 30.5653 64.876 31.116 66.5 31.116C67.508 31.116 68.376 30.8453 69.104 30.304C69.8507 29.7627 70.3733 28.9413 70.672 27.84L74.228 28.904Z" fill="#101828"/>
<path d="M79.0613 17.984C77.4746 17.984 76.6813 17.3027 76.6813 15.94C76.6813 14.5587 77.4746 13.868 79.0613 13.868C80.648 13.868 81.4413 14.5587 81.4413 15.94C81.4413 17.3027 80.648 17.984 79.0613 17.984ZM80.9653 20V34H77.1293V20H80.9653Z" fill="#101828"/>
<path d="M85.0316 34V20H88.3636L88.6156 22.744C88.9703 21.792 89.5023 21.0547 90.2116 20.532C90.9396 19.9907 91.8543 19.72 92.9556 19.72C93.609 19.72 94.113 19.8227 94.4676 20.028L94.0196 23.248C93.833 23.192 93.5996 23.1453 93.3196 23.108C93.0583 23.052 92.713 23.024 92.2836 23.024C91.705 23.024 91.1543 23.164 90.6316 23.444C90.1276 23.7053 89.7076 24.116 89.3716 24.676C89.0356 25.2173 88.8676 25.908 88.8676 26.748V34H85.0316Z" fill="#101828"/>
<path d="M102.927 19.72C104.793 19.72 106.24 20.1213 107.267 20.924C108.312 21.7267 109.003 22.6973 109.339 23.836L105.755 25.124C105.381 23.4253 104.457 22.576 102.983 22.576C101.919 22.576 101.088 22.9493 100.491 23.696C99.912 24.4427 99.6227 25.5533 99.6227 27.028C99.6227 28.5213 99.9214 29.632 100.519 30.36C101.135 31.0693 101.965 31.424 103.011 31.424C104.635 31.424 105.605 30.5933 105.923 28.932L109.395 30.052C109.077 31.3027 108.368 32.32 107.267 33.104C106.184 33.888 104.775 34.28 103.039 34.28C101.583 34.28 100.304 33.9907 99.2027 33.412C98.12 32.8333 97.28 32.0027 96.6827 30.92C96.0854 29.8373 95.7867 28.5307 95.7867 27C95.7867 25.4693 96.0854 24.1627 96.6827 23.08C97.2987 21.9973 98.1387 21.1667 99.2027 20.588C100.285 20.0093 101.527 19.72 102.927 19.72Z" fill="#101828"/>
<path d="M118.759 19.72C120.159 19.72 121.401 20.0093 122.483 20.588C123.566 21.1667 124.406 21.9973 125.003 23.08C125.619 24.1627 125.927 25.4693 125.927 27C125.927 28.5307 125.619 29.8373 125.003 30.92C124.406 32.0027 123.566 32.8333 122.483 33.412C121.401 33.9907 120.159 34.28 118.759 34.28C117.341 34.28 116.09 33.9907 115.007 33.412C113.943 32.8333 113.103 32.0027 112.487 30.92C111.89 29.8373 111.591 28.5307 111.591 27C111.591 25.4693 111.89 24.1627 112.487 23.08C113.103 21.9973 113.943 21.1667 115.007 20.588C116.09 20.0093 117.341 19.72 118.759 19.72ZM118.759 22.576C117.714 22.576 116.893 22.9493 116.295 23.696C115.717 24.424 115.427 25.5253 115.427 27C115.427 28.4747 115.717 29.5853 116.295 30.332C116.893 31.06 117.714 31.424 118.759 31.424C119.786 31.424 120.589 31.06 121.167 30.332C121.765 29.5853 122.063 28.4747 122.063 27C122.063 25.5253 121.765 24.424 121.167 23.696C120.589 22.9493 119.786 22.576 118.759 22.576Z" fill="#101828"/>
<path d="M135.521 19.72C136.921 19.72 138.162 20.0093 139.245 20.588C140.328 21.1667 141.168 21.9973 141.765 23.08C142.381 24.1627 142.689 25.4693 142.689 27C142.689 28.5307 142.381 29.8373 141.765 30.92C141.168 32.0027 140.328 32.8333 139.245 33.412C138.162 33.9907 136.921 34.28 135.521 34.28C134.102 34.28 132.852 33.9907 131.769 33.412C130.705 32.8333 129.865 32.0027 129.249 30.92C128.652 29.8373 128.353 28.5307 128.353 27C128.353 25.4693 128.652 24.1627 129.249 23.08C129.865 21.9973 130.705 21.1667 131.769 20.588C132.852 20.0093 134.102 19.72 135.521 19.72ZM135.521 22.576C134.476 22.576 133.654 22.9493 133.057 23.696C132.478 24.424 132.189 25.5253 132.189 27C132.189 28.4747 132.478 29.5853 133.057 30.332C133.654 31.06 134.476 31.424 135.521 31.424C136.548 31.424 137.35 31.06 137.929 30.332C138.526 29.5853 138.825 28.4747 138.825 27C138.825 25.5253 138.526 24.424 137.929 23.696C137.35 22.9493 136.548 22.576 135.521 22.576Z" fill="#101828"/>
<path d="M149.679 13.868V29.688C149.679 30.3413 149.791 30.7987 150.015 31.06C150.239 31.3213 150.612 31.452 151.135 31.452C151.452 31.452 151.713 31.4333 151.919 31.396C152.124 31.3587 152.385 31.284 152.703 31.172L152.367 33.692C152.049 33.8787 151.648 34.0187 151.163 34.112C150.696 34.224 150.229 34.28 149.763 34.28C148.4 34.28 147.401 33.9533 146.767 33.3C146.151 32.628 145.843 31.564 145.843 30.108V13.868H149.679Z" fill="#101828"/>
<path d="M161.336 34.28C159.134 34.28 157.37 33.6453 156.044 32.376C154.719 31.088 154.056 29.296 154.056 27C154.056 25.4693 154.355 24.1627 154.952 23.08C155.55 21.9973 156.38 21.1667 157.444 20.588C158.527 20.0093 159.759 19.72 161.14 19.72C162.559 19.72 163.763 20.0093 164.752 20.588C165.742 21.148 166.498 21.9227 167.02 22.912C167.543 23.8827 167.804 24.9933 167.804 26.244C167.804 26.6173 167.795 26.972 167.776 27.308C167.758 27.644 167.73 27.9427 167.692 28.204H157.808C157.958 29.2867 158.331 30.0987 158.928 30.64C159.544 31.1627 160.338 31.424 161.308 31.424C162.13 31.424 162.792 31.2653 163.296 30.948C163.8 30.6307 164.192 30.192 164.472 29.632L167.524 30.808C167.076 31.9093 166.292 32.768 165.172 33.384C164.052 33.9813 162.774 34.28 161.336 34.28ZM161.112 22.548C159.302 22.548 158.21 23.5467 157.836 25.544H164.136C164.024 24.5733 163.707 23.836 163.184 23.332C162.68 22.8093 161.99 22.548 161.112 22.548Z" fill="#101828"/>
<path d="M176.655 34.28C175.236 34.28 173.939 34.028 172.763 33.524C171.606 33.02 170.663 32.3107 169.935 31.396L172.147 29.156C172.595 29.828 173.192 30.3787 173.939 30.808C174.686 31.2373 175.572 31.452 176.599 31.452C177.327 31.452 177.906 31.3493 178.335 31.144C178.783 30.92 179.007 30.5747 179.007 30.108C179.007 29.8093 178.904 29.5573 178.699 29.352C178.494 29.128 178.083 28.9507 177.467 28.82L175.003 28.316C173.379 27.98 172.222 27.476 171.531 26.804C170.859 26.1133 170.523 25.2267 170.523 24.144C170.523 23.3787 170.747 22.66 171.195 21.988C171.662 21.316 172.352 20.7747 173.267 20.364C174.182 19.9347 175.32 19.72 176.683 19.72C179.52 19.72 181.555 20.588 182.787 22.324L180.491 24.564C180.08 23.9107 179.539 23.416 178.867 23.08C178.214 22.7253 177.523 22.548 176.795 22.548C175.152 22.548 174.331 23.0053 174.331 23.92C174.331 24.2187 174.462 24.48 174.723 24.704C174.984 24.9093 175.46 25.0867 176.151 25.236L179.007 25.824C180.388 26.104 181.378 26.58 181.975 27.252C182.572 27.9053 182.871 28.6987 182.871 29.632C182.871 30.976 182.33 32.0867 181.247 32.964C180.183 33.8413 178.652 34.28 176.655 34.28Z" fill="#101828"/>
</svg>
