<svg width="306" height="42" viewBox="0 0 306 42" fill="none" xmlns="http://www.w3.org/2000/svg">
<path d="M115.024 16.4118V34.9965H108.047V16.4118H100.99V10.4949H122.061V16.4118H115.024Z" fill="#475467"/>
<path d="M138.368 27.6057H127.284C127.503 29.6426 128.719 30.535 130.494 30.535C132.148 30.535 133.524 30.1858 135.378 29.2353L137.85 33.2704C135.517 34.6089 133.105 35.3655 130.155 35.3655C124.473 35.3655 121.343 31.4468 121.343 25.8016C121.343 19.4579 125.011 16.2182 129.975 16.2182C135.158 16.2182 138.388 19.5355 138.388 26.3641C138.388 26.9073 138.388 27.2953 138.368 27.6057ZM129.796 20.8935C128.321 20.8935 127.503 21.8829 127.284 23.687H132.686C132.348 21.8247 131.71 20.8935 129.796 20.8935Z" fill="#475467"/>
<path d="M150.409 35.3844C144.867 35.3844 141.557 31.9507 141.557 25.7623C141.557 20.117 144.508 16.2371 150.548 16.2371C154.116 16.2371 156.15 17.8473 157.804 20.4274L153.339 23.7253C152.442 22.1152 151.824 21.3392 150.428 21.3392C148.774 21.3392 147.937 22.9494 147.937 25.8593C147.937 28.7692 148.834 30.263 150.608 30.263C151.824 30.263 152.701 29.6034 153.877 27.8768L157.984 31.0001C155.791 34.1429 153.758 35.3844 150.409 35.3844Z" fill="#475467"/>
<path d="M172.476 34.9967V24.5597C172.476 22.1736 171.659 21.5528 170.323 21.5528C168.948 21.5528 168.131 22.1736 168.131 24.5015V34.9967H161.652V11.9889L168.131 9.46694V17.8475C169.327 16.9745 170.642 16.2374 172.875 16.2374C177.021 16.2374 178.995 18.9339 178.995 23.7644V34.9967H172.476Z" fill="#475467"/>
<path d="M194.484 35.3847C187.009 35.3847 183.002 29.9916 183.002 22.7556C183.002 14.8794 187.746 10.1266 194.504 10.1266C200.684 10.1266 203.136 12.7261 204.87 17.3432L198.551 19.7293C197.654 17.4596 196.797 16.024 194.484 16.024C191.574 16.024 190.318 18.8563 190.318 22.7362C190.318 26.4803 191.534 29.4485 194.564 29.4485C196.757 29.4485 197.694 28.2845 199.05 25.9759L204.95 29.0217C203.276 32.2614 200.465 35.3847 194.484 35.3847Z" fill="#475467"/>
<path d="M220.878 23.5511C220.061 22.6782 219.124 22.0186 217.868 22.0186C216.293 22.0186 215.316 22.7558 215.316 24.9867V34.9968H208.838V16.6255H215.316V17.9641C216.433 16.9165 217.689 16.2569 219.343 16.2569C220.719 16.2569 221.636 16.5673 222.393 17.0329L220.878 23.5511Z" fill="#475467"/>
<path d="M236.268 34.9967V33.7746C235.112 34.6475 233.756 35.3847 231.563 35.3847C227.417 35.3847 225.443 32.6882 225.443 27.8577V16.6254H231.962V27.0623C231.962 29.4485 232.779 30.0693 234.115 30.0693C235.451 30.0693 236.268 29.4485 236.268 27.1205V16.6254H242.787V34.9967H236.268Z" fill="#475467"/>
<path d="M258.276 34.9964V24.5595C258.276 22.1734 257.459 21.5526 256.123 21.5526C254.747 21.5526 253.93 22.1734 253.93 24.5013V34.9964H247.451V16.6251H253.93V17.8473C255.126 16.9743 256.442 16.2371 258.675 16.2371C262.821 16.2371 264.795 18.9337 264.795 23.7641V34.9964H258.276Z" fill="#475467"/>
<path d="M277.413 35.3844C271.872 35.3844 268.562 31.9507 268.562 25.7623C268.562 20.117 271.513 16.2371 277.553 16.2371C281.121 16.2371 283.155 17.8473 284.809 20.4274L280.344 23.7253C279.447 22.1152 278.829 21.3392 277.433 21.3392C275.779 21.3392 274.942 22.9494 274.942 25.8593C274.942 28.7692 275.839 30.263 277.613 30.263C278.829 30.263 279.706 29.6034 280.882 27.8768L284.989 31.0001C282.796 34.1429 280.763 35.3844 277.413 35.3844Z" fill="#475467"/>
<path d="M299.481 34.9967V24.5597C299.481 22.1736 298.664 21.5528 297.328 21.5528C295.953 21.5528 295.135 22.1736 295.135 24.5015V34.9967H288.657V11.9889L295.135 9.46694V17.8475C296.332 16.9745 297.647 16.2374 299.88 16.2374C304.026 16.2374 306 18.9339 306 23.7644V34.9967H299.481Z" fill="#475467"/>
<path d="M0 0V14.0064H14.393V41.9999H28.766V14.0064H43.1589V0H0Z" fill="#475467"/>
<path d="M57.532 27.9936V14.0066L43.1589 14.0064L43.1589 42H86.298V27.9936H57.532Z" fill="#475467"/>
<path d="M86.298 0H57.532L57.532 14.0066L86.298 14.0064V0Z" fill="#475467"/>
</svg>
