<svg width="350" height="51" viewBox="0 0 350 51" fill="none" xmlns="http://www.w3.org/2000/svg">
<path fill-rule="evenodd" clip-rule="evenodd" d="M6.57813 18.8921C7.27055 17 8.22261 15.5154 9.43433 14.4238C9.59301 14.351 9.76611 14.3219 9.93922 14.2928C10.1123 14.2783 10.5307 14.2637 11.2086 14.2637C11.5837 14.2637 11.901 14.2928 12.1896 14.3365C12.4781 14.3947 12.7666 14.4966 13.0695 14.6421C13.3724 14.8022 13.7331 15.006 14.137 15.2825L8.98715 19.4161L10.1989 20.3913V34.1601C8.88617 33.5197 7.78985 32.4863 7.06859 31.2055C6.05882 29.4443 5.55394 27.0719 5.55394 24.1173C5.53952 22.5163 5.88572 20.7697 6.57813 18.8921ZM6.1021 13.6087C6.40503 13.6087 6.79451 13.667 7.27055 13.7688C7.74658 13.8707 8.17934 13.9726 8.58324 14.0745C5.75589 15.3408 3.56326 17.4221 2.01976 20.3476C0.678208 22.9238 -0.0142044 25.7911 0.000220856 28.7166C0.000220856 32.4572 1.28407 35.6592 3.86619 38.3228C6.44831 40.9863 9.59301 42.3253 13.2859 42.3253C16.8489 42.3253 19.8782 40.9426 22.3305 38.1918C24.7828 35.4409 26.0234 32.1952 26.0234 28.4546C25.6916 29.2406 25.3021 29.8955 24.8838 30.4195C24.35 31.0599 23.7442 31.6567 23.095 32.1807C22.5902 32.6173 22.1285 32.9521 21.7246 33.1704C21.3207 33.3887 20.8014 33.6361 20.1523 33.9127V15.5445C20.9601 15.2098 21.6092 14.8604 22.0997 14.4966C22.5902 14.1473 23.1239 13.6233 23.7009 12.9392C25.1867 11.28 26.0089 9.41695 26.182 7.37928C25.1002 8.09247 24.1337 8.61644 23.2681 8.96575C22.4026 9.30051 21.4361 9.53339 20.3687 9.63527C20.1956 9.63527 19.9648 9.64983 19.6618 9.67894C18.479 9.67894 16.7191 9.21319 14.3822 8.28168C12.0453 7.35017 10.1989 6.88442 8.8429 6.88442C6.17423 6.88442 4.03929 8.15068 2.42366 10.6541C0.981138 12.8955 0.24545 15.5591 0.24545 18.6592C0.447404 17.7132 0.937862 16.8108 1.71683 15.9521C2.29384 15.3116 2.9574 14.7586 3.69308 14.3219C4.41435 13.8562 5.22216 13.6087 6.1021 13.6087ZM30.7116 42.0634L35.1113 37.1147L32.8898 34.7714V21.512L34.1592 20.6533L37.6934 23.3604V40.8553C37.6934 41.845 37.6357 42.6892 37.5203 43.3878C37.4193 44.0428 37.1452 44.6687 36.7413 45.1926L35.5008 46.75C34.9382 47.4486 34.2458 48.0017 33.4091 48.4092C35.0968 48.2346 36.4817 47.8562 37.5491 47.2594C38.631 46.6627 39.7418 45.7166 40.8814 44.4358C41.718 43.4752 42.3527 42.5291 42.7711 41.583C43.2038 40.6079 43.4779 39.5745 43.6077 38.5265V18.9212L42.0931 19.0231L37.3472 15.8065L33.914 18.6592L32.8032 18.0479V8.35445L31.7935 6.15668L27.2928 10.5959V35.732L25.9224 37.3622L30.7116 42.0634ZM45.7715 36.5034L53.9074 41.6995L61.6393 33.4906L57.4416 36.5034L52.2917 32.7774V29.3134L61.495 22.3707L55.6384 14.4092L46.2908 20.988V35.3682L45.7715 36.5034ZM72.8189 10.8579V20.3913C72.1409 20.464 71.5927 20.5805 71.1744 20.7551C70.7561 20.9298 70.3089 21.2209 69.8328 21.6284C68.4769 22.6909 67.8133 24.0445 67.8133 25.7038C67.7989 26.2277 67.871 26.7372 68.0153 27.232C68.4913 26.8245 68.9529 26.5479 69.4001 26.417C69.8617 26.286 70.4243 26.2132 71.1023 26.2132C71.434 26.2132 71.7081 26.2569 71.9101 26.3151C72.112 26.3878 72.415 26.5188 72.8189 26.7226V36.0959L79.8007 43.1841L86.2199 36.6053L93.9519 43.1841L105.218 32.1661V13.3031L98.2362 7.90325L93.0863 12.5899L86.0612 7.90325L79.8007 13.2012V10.101C79.8007 9.08219 79.0794 7.93236 77.6225 6.63699C77.1897 6.33134 76.7714 6.01113 76.3819 5.69092C75.9924 5.37072 75.7616 4.90497 75.7039 4.30822C75.6462 3.82791 75.6174 3.3476 75.6029 2.85274C75.6029 1.70291 75.9924 0.771404 76.7714 0.101884C76.4829 0.0436644 76.1944 0.0145548 75.9059 0C74.3912 0 73.0497 0.640411 71.8957 1.90668C70.7272 3.1875 70.1502 4.59932 70.1502 6.17123C70.1502 6.40411 70.179 6.73887 70.2512 7.1464C70.5397 8.80565 71.3908 10.0428 72.8189 10.8579ZM106.574 36.7654L112.835 41.2046L117.378 36.8673L122.788 40.6952L127.433 35.6447H125.817L123.754 33.4906V18.5574L122.644 18.7611L117.393 14.3219L107.439 21.25V35.8776L106.574 36.7654ZM136.723 15.3116C136.088 15.006 135.482 14.613 134.934 14.1618L126.697 20.0274V29.9247L127.462 30.536H132.366L126.005 41.6995C126.986 40.8553 127.736 40.2877 128.284 40.0111C129.048 39.6327 129.9 39.4435 130.765 39.4435C131.847 39.4435 132.712 39.5745 133.39 39.8219C134.068 40.0694 134.761 40.5206 135.468 41.1755L143.546 34.7569V24.714L142.94 24.1027H137.531V23.5933L142.334 15.0788C141.829 15.3844 141.425 15.5591 141.122 15.6173C140.632 15.6755 140.141 15.7046 139.651 15.6901H138.584C137.934 15.7046 137.3 15.5736 136.723 15.3116ZM149.532 41.3502L153.975 36.3579L151.754 34.0146V20.7551L152.966 19.8819L156.557 22.6327V40.0693C156.572 40.9135 156.514 41.7577 156.384 42.6019C156.269 43.2569 155.995 43.8682 155.548 44.4067C155.274 44.7414 154.913 45.2363 154.437 45.8913C153.831 46.6045 153.095 47.1866 152.259 47.6233C153.802 47.4923 155.187 47.1139 156.384 46.488C157.582 45.8622 158.707 44.9306 159.745 43.708C160.524 42.7911 161.13 41.8305 161.563 40.8262C161.996 39.8219 162.284 38.7885 162.428 37.7406V18.1498L160.957 18.3099L156.154 15.0933L152.72 17.9024L151.61 17.2911V7.64127L150.643 5.39983L146.099 9.83904V35.0334L144.729 36.6053L149.532 41.3502ZM173.839 11.2217L169.295 7.49572L165.602 11.5711L169.439 15.0933L173.839 11.2217ZM166.713 22.7346V36.6053L165.746 38.0899H167.463L171.401 41.4521L175.541 37.6241L180.85 41.9615L185.494 36.7654L184.023 34.8878V21.8904L185.235 21.2791L187.918 24.2337V36.9692L192.621 41.1027L197.164 35.9067H195.044L193.832 33.9127V20.042L194.438 18.7611L193.226 19.0231L188.581 15.2971L184.038 20.042L178.729 15.8065L174.329 20.7551H176.046L177.517 22.4872V35.2226L174.589 36.2414L172.714 34.7569V20.4786L173.32 19.6053L168.069 15.6755L163.77 20.2603L165.241 20.726L166.713 22.7346ZM257.577 36.1541L256.12 34.262V21.2646L257.332 20.6533L260.015 23.6079V36.4015L264.718 40.4769L269.262 35.2808H267.141L265.93 33.2868V19.4161L266.536 18.1935L265.324 18.3973L260.679 14.6712L256.135 19.4161L250.826 15.1807L246.427 20.1293H248.143L249.615 21.8613V34.655L247.797 37.1002L253.409 40.8262L257.577 36.1541ZM198.145 36.256C198.823 36.256 199.429 36.3433 199.992 36.518C200.554 36.6926 201.088 36.9837 201.636 37.4058C202.17 37.8279 202.574 38.2354 202.819 38.6284C203.064 39.0214 203.281 39.5599 203.454 40.2295L200.829 43.6498L198.044 47.4195C198.751 47.012 199.357 46.7646 199.862 46.6772C200.367 46.5899 201.103 46.5462 202.083 46.5462C203.223 46.6481 204.204 46.9247 205.012 47.3613C205.82 47.7979 206.555 48.4675 207.233 49.3553C208.849 48.744 210.724 47.3759 212.874 45.28C215.023 43.1695 216.09 41.4375 216.09 40.0839C216.09 39.851 215.845 39.1087 215.355 37.9007C214.864 36.6635 214.619 35.3536 214.619 34.0146V18.1498L207.594 13.7106L198.751 20.0274V35.1207L198.145 36.256ZM215.586 18.8193H218.514V36.518L217.807 37.9007H219.524L223.216 40.7534L227.962 35.2954H225.885L224.515 33.8108V19.1687L227.501 15.4426H224.515V5.70548L218.499 11.3673V15.2389L215.586 18.8193ZM228.366 36.256L234.627 40.7389L245.547 33.0394V18.0479L244.436 18.3099L239.171 13.8271L229.217 20.7551V35.3973L228.366 36.256ZM279.662 10.9598V15.7046C278.783 15.7046 278.047 15.792 277.441 15.9812C276.835 16.1704 276.258 16.5342 275.696 17.0728C275.133 17.6113 274.816 18.2517 274.715 18.9649C274.614 19.6781 274.556 20.6096 274.556 21.774C274.556 22.2543 274.541 22.5745 274.498 22.7491C275.234 21.5557 276.273 21.0608 277.585 21.2646C278.465 21.3956 279.158 21.774 279.662 22.3853V30.2885C278.119 31.1036 276.763 32.1807 275.623 33.5051C274.34 35.0334 273.474 36.6053 273.041 38.25C273.618 37.7988 274.224 37.3913 274.859 37.0565C275.364 36.7945 276.071 36.5471 276.979 36.2705C277.311 36.1687 277.701 36.0522 278.148 35.9358C278.581 35.8193 279.085 35.7611 279.662 35.7611V51L286.284 45.542L288.505 47.1721V38.4974L291.333 39.4726L300.882 32.792V10.3485L294.766 5.39983L288.505 10.6978V7.90325L287.293 6.88442V11.3673L286.284 12.0805V7.39384L281.134 3.40582L275.018 9.47517C275.522 9.16952 276.042 9.00942 276.575 9.00942C277.008 9.00942 277.441 9.08219 277.845 9.21318C278.754 9.5625 279.36 10.1447 279.662 10.9598ZM301.748 36.7654L308.008 41.2046L318.971 33.5051V18.5574L317.861 18.7611L312.552 14.3219L302.599 21.25V35.8776L301.748 36.7654ZM330.757 15.0933C330.108 14.7731 329.473 14.3947 328.881 13.9726L320.688 19.78V29.6772L321.395 30.2885H326.299L319.938 41.4521C320.645 40.8408 321.236 40.3896 321.712 40.0693C322.592 39.4872 323.602 39.1961 324.741 39.1961C325.794 39.1961 326.645 39.3271 327.323 39.5745C328.001 39.8365 328.694 40.2731 329.401 40.9281L337.493 34.5094V24.4666L336.887 23.8553H331.478V23.3459L336.282 14.8313C335.777 15.137 335.373 15.3116 335.07 15.3699C334.767 15.4281 334.276 15.4426 333.599 15.4426H332.545C331.853 15.4426 331.262 15.3262 330.757 15.0933ZM337.623 19.0668H340.551V36.7654L339.845 38.1481H341.561L345.196 41.0009L350 35.5428H347.923L346.552 34.0582V19.4307L349.481 15.7046H346.552V5.96747L340.566 11.6293V15.5009L337.623 19.0668ZM113.44 19.5325L117.378 22.4872V34.3639L116.109 35.7466L113.426 33.4033L113.44 19.5325ZM211.287 40.4332C212.095 41.0154 212.499 41.7431 212.499 42.631C212.499 43.0385 212.455 43.3442 212.398 43.5479C212.196 43.8536 212.037 44.0574 211.936 44.1592C211.662 44.4358 211.316 44.6104 210.926 44.6687C210.493 44.7414 209.916 44.5231 209.21 44.0283C208.503 43.5334 207.435 43.286 206.022 43.286C205.113 43.286 204.291 43.3733 203.54 43.5479C202.805 43.7226 202.026 44.0137 201.218 44.4212L208.604 35.2372V36.4161C208.604 37.1002 208.661 37.6533 208.777 38.1045C208.892 38.5411 209.152 38.9777 209.556 39.3853C210.133 39.7346 210.71 40.0985 211.287 40.4332ZM204.767 18.9212L208.604 21.774V33.3014L207.493 34.524L204.767 31.7731V18.9212ZM52.2917 27.8433V20.3913L55.9846 25.0779L52.2917 27.8433ZM138.872 19.4307L135.439 25.6019H132.857V18.9212C133.867 19.5616 134.963 19.8964 136.146 19.8964C137.083 19.8818 137.992 19.7363 138.872 19.4307ZM235.233 19.0231L239.171 22.036V33.9127L237.916 35.2954L235.233 32.8938V19.0231ZM133.809 29.3134H137.502V35.8921C136.982 35.7029 136.449 35.5574 135.915 35.4555C135.554 35.4118 134.833 35.3827 133.722 35.3827C133.073 35.3682 132.438 35.4409 131.804 35.5865C131.27 35.7175 130.621 35.9503 129.885 36.256L133.809 29.3134ZM286.284 15.4426L287.293 14.5693V43.6789L286.284 43.0676V15.4426ZM288.505 13.8125L291.592 11.8185L293.814 13.4486V32.6173C292.761 32.006 292.198 31.6858 292.097 31.6421L290.986 31.2783C290.164 31.0745 289.327 30.8707 288.505 30.667V13.8125ZM18.479 16.0539C18.8107 16.0539 19.0848 16.0248 19.2868 15.9521V34.5094C18.0174 35.1498 16.6181 35.4846 15.19 35.4846C14.3533 35.4846 13.5023 35.3827 12.6656 35.1789C11.8289 34.9752 11.1654 34.6986 10.6893 34.3639L16.445 28.5565V15.8065C16.6902 15.9375 16.9499 16.0248 17.224 16.0394C17.5125 16.0539 17.7 16.0685 17.801 16.0685L18.479 16.0539ZM308.628 19.5325L312.566 22.4872V34.3639L311.355 35.7466L308.628 33.4033V19.5325ZM79.7863 14.6858L81.6615 13.2012L85.5564 17.1747V35.4846L83.984 37.1147L79.7863 33.0394V14.6858ZM331.565 19.5325C331.997 19.4598 332.43 19.3433 332.82 19.1687L329.386 25.3399H326.804V18.6592C327.8 19.2997 328.954 19.6344 330.136 19.6344C330.656 19.6344 331.132 19.5908 331.565 19.5325ZM327.771 29.0659H331.464V35.6447C330.944 35.4555 330.411 35.3099 329.877 35.208C329.516 35.1498 328.795 35.1353 327.67 35.1353C327.021 35.1207 326.371 35.1935 325.751 35.339C325.116 35.5137 324.482 35.732 323.876 36.0086L327.771 29.0659ZM93.0719 14.6858L94.9039 13.2012L98.842 17.1747V35.4846L97.2264 37.1147L93.0863 33.0394L93.0719 14.6858Z" fill="#475467"/>
</svg>
