<svg width="230" height="42" viewBox="0 0 230 42" fill="none" xmlns="http://www.w3.org/2000/svg">
<path d="M205.974 33.952H214.283C214.606 34.9864 215.702 36.0207 217.757 36.0207C220.539 36.0207 221.497 34.315 221.497 31.7926V29.9961H221.313C219.94 31.5749 218.116 32.7362 215.426 32.7362C210.129 32.7362 205.522 28.871 205.522 21.313C205.522 14.3901 209.309 8.99158 215.02 8.99158C218.309 8.99158 220.318 10.2981 221.644 12.3668H221.782V9.71743H230V30.6675C230 34.5327 228.627 37.545 226.573 39.3506C224.426 41.2379 221.368 42 217.895 42C211.363 42 206.803 39.3415 205.974 33.952ZM221.865 20.9047C221.865 17.8924 220.41 15.4608 217.895 15.4608C215.472 15.4608 213.924 17.6202 213.924 20.9047C213.924 24.1439 215.481 26.4757 217.895 26.4757C220.401 26.4848 221.865 24.0985 221.865 20.9047ZM196.347 13.8458H196.485C198.263 10.4705 200.594 9.21841 203.56 9.21841C204.242 9.21841 204.702 9.30914 204.979 9.44524V16.8671H204.795C199.728 15.9689 196.761 18.3552 196.761 23.79V33.9067H188.129V9.71743H196.347V13.8458ZM0 0H16.8958C20.0925 0 22.5523 0.762152 24.2934 2.15943C26.2557 3.7291 27.3059 6.06999 27.3059 8.85548C27.3059 12.0946 25.9793 14.118 23.2432 15.3791V15.5152C26.8085 16.6857 28.8629 19.8341 28.8629 23.6539C28.8629 27.2923 27.4441 30.1322 25.1226 31.838C23.1603 33.2353 20.6084 33.9067 17.2274 33.9067H0V0ZM16.0759 26.394C18.1303 26.394 19.6319 25.1782 19.6319 22.9281C19.6319 20.5872 17.9921 19.4621 16.0298 19.4621H9.35993V26.385H16.0759V26.394ZM15.2007 13.2651C17.0248 13.2651 18.3514 12.2761 18.3514 10.2981C18.3514 8.36552 16.9787 7.42191 15.1546 7.42191H9.35993V13.2651H15.2007Z" fill="#475467"/>
<path d="M30.4105 0H39.2638V33.9067H30.4105V0ZM40.9589 21.8483C40.9589 14.2087 45.9797 9.03694 53.7458 9.03694C61.512 9.03694 66.4407 14.2087 66.4407 21.8483C66.4407 29.5424 61.512 34.6597 53.7458 34.6597C45.9797 34.6688 40.9589 29.5424 40.9589 21.8483ZM57.6704 21.8483C57.6704 17.6202 56.2977 14.9708 53.6537 14.9708C51.0097 14.9708 49.7292 17.6202 49.7292 21.8483C49.7292 26.1218 51.0097 28.7712 53.6537 28.7712C56.2977 28.7803 57.6704 26.1218 57.6704 21.8483ZM67.4449 21.8483C67.4449 14.2087 72.4657 9.03694 80.2319 9.03694C87.998 9.03694 92.9267 14.2087 92.9267 21.8483C92.9267 29.5424 87.998 34.6597 80.2319 34.6597C72.4657 34.6688 67.4449 29.5424 67.4449 21.8483ZM84.1564 21.8483C84.1564 17.6202 82.7837 14.9708 80.1397 14.9708C77.4957 14.9708 76.2152 17.6202 76.2152 21.8483C76.2152 26.1218 77.4957 28.7712 80.1397 28.7712C82.7837 28.7803 84.1564 26.1218 84.1564 21.8483ZM94.6126 9.71743H102.83V13.3558H102.968C104.608 10.5249 106.847 8.99157 110.366 8.99157C113.471 8.99157 115.801 10.5159 116.99 13.1743H117.128C119.136 9.98056 121.743 8.99157 124.756 8.99157C130.468 8.99157 132.928 13.129 132.928 18.6999V33.8976H124.295V20.2333C124.295 17.7563 123.522 16.1413 121.329 16.1413C119.182 16.1413 118.086 18.1192 118.086 20.7323V33.9067H109.445V20.2333C109.445 17.7563 108.671 16.1413 106.478 16.1413C104.332 16.1413 103.236 18.1192 103.236 20.7323V33.9067H94.6126V9.71743ZM143.467 30.7583H143.375V33.9067H135.157V0H143.789V12.2307H143.927C145.567 10.1167 147.76 8.99157 150.91 8.99157C157.074 8.99157 160.639 14.4809 160.639 21.7576C160.639 29.987 156.76 34.7051 150.367 34.7051C147.714 34.7142 144.977 33.453 143.467 30.7583ZM151.868 21.676C151.868 17.7654 150.413 15.243 147.806 15.243C145.162 15.243 143.467 17.7654 143.467 21.676C143.467 25.5411 145.153 28.1089 147.806 28.1089C150.45 28.0998 151.868 25.5865 151.868 21.676ZM161.735 21.7667C161.735 14.2087 166.802 8.95528 174.154 8.95528C177.802 8.95528 180.639 10.0804 182.786 12.1037C185.614 14.7984 186.894 19.0266 186.802 24.0168H170.321C170.69 27.0292 172.145 28.5625 174.752 28.5625C176.263 28.5625 177.581 27.8911 178.133 26.267H186.443C184.987 31.7926 180.648 34.5872 174.485 34.5872C166.848 34.5781 161.735 29.4971 161.735 21.7667ZM170.321 19.2443H178.17C178.032 16.3227 176.392 14.7894 174.338 14.7894C171.961 14.7894 170.634 16.4588 170.321 19.2443Z" fill="#475467"/>
</svg>
