<svg width="211" height="31" viewBox="0 0 211 31" fill="none" xmlns="http://www.w3.org/2000/svg">
<path d="M34.5667 27.2827V3.68317C34.5667 2.45545 34.8334 1.53465 35.4 0.920792C35.9334 0.306931 36.6667 0 37.5334 0C38.4334 0 39.1667 0.306931 39.7 0.920792C40.2667 1.53465 40.5334 2.45545 40.5334 3.68317V27.2827C40.5334 28.5105 40.2667 29.4653 39.7 30.0792C39.1334 30.6931 38.4334 31 37.5334 31C36.6667 31 35.9667 30.6931 35.4334 30.0792C34.8667 29.4312 34.5667 28.5105 34.5667 27.2827Z" fill="#475467"/>
<path d="M195.867 30.9659C187.533 30.9659 180.733 24.0088 180.733 15.4829C180.733 6.95709 187.533 0 195.867 0C204.2 0 211 6.95709 211 15.4829C211 24.0429 204.233 30.9659 195.867 30.9659ZM195.867 6.27502C190.9 6.27502 186.867 10.4015 186.867 15.4829C186.867 20.5644 190.9 24.6909 195.867 24.6909C200.833 24.6909 204.867 20.5644 204.867 15.4829C204.867 10.4356 200.833 6.27502 195.867 6.27502Z" fill="#475467"/>
<path d="M127.967 30.9659C119.633 30.9659 112.833 24.0088 112.833 15.4829C112.833 6.95709 119.633 0 127.967 0C136.3 0 143.1 6.95709 143.1 15.4829C143.1 24.0429 136.3 30.9659 127.967 30.9659ZM127.967 6.27502C123 6.27502 118.967 10.4015 118.967 15.4829C118.967 20.5644 123 24.6909 127.967 24.6909C132.933 24.6909 136.967 20.5644 136.967 15.4829C136.967 10.4356 132.933 6.27502 127.967 6.27502Z" fill="#475467"/>
<path d="M175.9 15.4829C175.9 12.0726 174.8 8.90099 172.967 6.34323C170.3 2.62596 166.033 0.170517 161.2 0C161.033 0 160.9 0 160.733 0H153.133C151.833 0 150.9 0.306931 150.333 0.920792C149.767 1.53465 149.467 2.48955 149.467 3.85369V27.1463C149.467 28.5105 149.767 29.4653 150.333 30.0792C150.9 30.6931 151.867 31 153.133 31H160.733C160.9 31 161.033 31 161.2 31C166.033 30.8636 170.267 28.4081 172.967 24.6568C174.8 22.0649 175.9 18.8933 175.9 15.4829ZM161.833 24.6227C161.1 24.6568 160.3 24.6909 159.467 24.6909H155.5V6.27503H159.467C160.3 6.27503 161.1 6.27503 161.833 6.34323C164.467 6.65016 166.733 8.15071 168.167 10.2651C169.167 11.7316 169.767 13.5391 169.767 15.4829C169.767 17.4268 169.167 19.2002 168.167 20.6667C166.733 22.8493 164.467 24.3157 161.833 24.6227Z" fill="#475467"/>
<path d="M104.267 0.136332C103.167 -0.204702 101.967 0.238642 101.333 1.22764L92.1999 15.4488L83.0666 1.22764C82.4333 0.238642 81.2333 -0.204702 80.1333 0.136332C79.0333 0.477366 78.2666 1.56868 78.2666 2.76229V28.0329C78.2666 29.5335 79.4333 30.7953 80.8999 30.7953C82.3333 30.7953 83.5333 29.5676 83.5333 28.0329V11.7656L89.9999 21.8602C89.9999 21.8602 89.9999 21.8602 89.9999 21.8943C89.9999 21.8943 89.9999 21.9284 90.0332 21.9284C90.0666 21.9966 90.0999 22.0648 90.1666 22.0989C90.1999 22.133 90.1999 22.133 90.2333 22.1671C90.2666 22.2012 90.2999 22.2694 90.3332 22.3035C90.3666 22.3376 90.3999 22.3717 90.4332 22.4059C90.4666 22.44 90.4999 22.44 90.4999 22.4741C90.5666 22.5082 90.5999 22.5423 90.6666 22.6105L90.6999 22.6446C90.7666 22.6787 90.8333 22.7128 90.8666 22.7469C90.8999 22.7469 90.8999 22.781 90.8999 22.781C90.9333 22.8151 90.9999 22.8151 91.0332 22.8492C91.2999 22.9856 91.5666 23.0538 91.8666 23.0879C91.9333 23.0879 91.9666 23.0879 92.0332 23.0879C92.0666 23.0879 92.0999 23.0879 92.1332 23.0879C92.1666 23.0879 92.1999 23.0879 92.2333 23.0879C92.2999 23.0879 92.3333 23.0879 92.3999 23.0879C92.6666 23.0538 92.9666 22.9856 93.2332 22.8492C93.2666 22.8151 93.3332 22.8151 93.3666 22.781L93.3999 22.7469C93.4666 22.7128 93.5332 22.6787 93.5666 22.6446C93.5999 22.6446 93.5999 22.6105 93.5999 22.6105C93.6666 22.5764 93.6999 22.5423 93.7666 22.4741C93.7999 22.44 93.8332 22.44 93.8332 22.4059C93.8666 22.3717 93.8999 22.3376 93.9332 22.3035C93.9666 22.2694 93.9999 22.2353 94.0332 22.1671C94.0666 22.133 94.0666 22.133 94.0999 22.0989C94.1332 22.0307 94.1999 21.9966 94.2332 21.9284L94.2666 21.8943C94.2666 21.8943 94.2666 21.8943 94.2666 21.8602L100.733 11.7656V28.0329C100.733 29.5335 101.9 30.7953 103.367 30.7953C104.8 30.7953 106 29.5676 106 28.0329V2.76229C106.133 1.56868 105.367 0.477366 104.267 0.136332Z" fill="#475467"/>
<path d="M69.3333 30.0451H49.7C48.6666 30.0451 47.5333 29.3971 47.1 28.374C46.6667 27.3509 46.6 25.9527 47.5 24.8273L63.5333 5.76347H50.2666C48.8333 5.76347 47.6333 4.46755 47.6333 2.89879C47.6333 1.33003 48.8 0.341034 50.2666 0.341034H68.1333C69.1666 0.341034 70.2333 0.511551 71.1666 1.56876C72.0333 2.52365 71.9666 4.60396 71.0333 5.83168L55.5333 24.3157H69.3333C70.8 24.3157 71.8333 25.6117 71.8333 27.1804C71.8333 28.7492 70.8 30.0451 69.3333 30.0451Z" fill="#475467"/>
<path d="M15.0333 30.9659C10.6667 30.9659 6.73333 29.1925 3.9 25.9868C1.43333 23.1903 0 19.473 0 15.7899C0 4.29703 9.33333 0 15.2333 0C21.0333 0 25.2667 2.89879 25.4667 3.0352C26.7667 3.95599 27.1333 5.76347 26.2333 7.12761C25.3667 8.49175 23.6 8.83278 22.3 7.94609C22.2333 7.91199 19.2 5.89989 15.2333 5.89989C11.5333 5.89989 6.43333 8.38944 6.43333 15.7899C6.43333 19.9846 9.5 24.9637 15.1 24.9637C18.2667 24.9637 20.4667 24.1111 21.7667 23.2585V18.8933H17.4333C15.8667 18.8933 14.6 17.5632 14.6 15.9604C14.6 14.3234 15.8667 13.0275 17.4333 13.0275H24.6667C26.2333 13.0275 27.5 14.3575 27.5 15.9604V24.725C27.5 25.5093 27.2 26.2937 26.6333 26.8394C24.7333 28.7492 20.5333 30.9659 15.0333 30.9659Z" fill="#475467"/>
</svg>
