<svg width="80" height="80" viewBox="0 0 80 80" fill="none" xmlns="http://www.w3.org/2000/svg">
<path d="M74.1618 38.0412L43.0188 7.91975L40 5L16.5567 27.6742L5.83815 38.0412C4.72062 39.1234 4.72062 40.8766 5.83815 41.9588L27.2562 62.6742L40 75L63.4433 52.3258L63.8063 51.9747L74.1618 41.9588C75.2794 40.8766 75.2794 39.1234 74.1618 38.0412ZM40 50.3485L29.3005 40L40 29.6515L50.6995 40L40 50.3485Z" fill="#2684FF"/>
<path fill-rule="evenodd" clip-rule="evenodd" d="M40.0001 29.6515C32.9949 22.8753 32.9607 11.9 39.9237 5.08313L16.509 27.7204L29.2529 40.0462L40.0001 29.6515Z" fill="url(#paint0_linear_4231_83307)"/>
<path fill-rule="evenodd" clip-rule="evenodd" d="M50.7281 39.9722L40 50.3483C43.3812 53.6167 45.2809 58.0506 45.2809 62.6741C45.2809 67.2976 43.3812 71.7316 40 74.9999L63.4719 52.2979L50.7281 39.9722Z" fill="url(#paint1_linear_4231_83307)"/>
<defs>
<linearGradient id="paint0_linear_4231_83307" x1="38.0895" y1="19.1829" x2="20.2414" y2="26.9757" gradientUnits="userSpaceOnUse">
<stop offset="0.18" stop-color="#0052CC"/>
<stop offset="1" stop-color="#2684FF"/>
</linearGradient>
<linearGradient id="paint1_linear_4231_83307" x1="42.0444" y1="60.6968" x2="59.8603" y2="52.9594" gradientUnits="userSpaceOnUse">
<stop offset="0.18" stop-color="#0052CC"/>
<stop offset="1" stop-color="#2684FF"/>
</linearGradient>
</defs>
</svg>
