<svg width="80" height="80" viewBox="0 0 80 80" fill="none" xmlns="http://www.w3.org/2000/svg">
<path fill-rule="evenodd" clip-rule="evenodd" d="M14.29 73.0445L5.69159 62.3329C3.62282 59.7557 2.5 56.5865 2.5 53.3247V14.5375C2.5 9.65161 6.40896 5.59742 11.4518 5.25313L51.3303 2.53046C54.2275 2.33266 57.107 3.10273 59.4869 4.71176L73.4981 14.1848C76.0061 15.8805 77.5 18.6525 77.5 21.6106V65.7079C77.5 70.4894 73.6564 74.4482 68.7191 74.7522L24.4583 77.4767C20.5183 77.7192 16.71 76.0592 14.29 73.0445Z" fill="white"/>
<path d="M28.1202 33.9468V33.439C28.1202 32.1517 29.1512 31.0842 30.4799 30.9954L40.1582 30.3493L53.5426 50.0588V32.7604L50.0975 32.3011V32.0599C50.0975 30.7576 51.152 29.6829 52.4977 29.614L61.304 29.1629V30.4302C61.304 31.0251 60.8616 31.534 60.2552 31.6365L58.1361 31.9949V60.0092L55.4765 60.9239C53.2546 61.688 50.7809 60.87 49.509 58.9507L36.5152 39.343V58.0574L40.5146 58.8228L40.4589 59.1938C40.2844 60.3558 39.2811 61.2347 38.0675 61.2887L28.1202 61.7314C27.9887 60.4818 28.9253 59.3639 30.2173 59.2282L31.5257 59.0907V34.1381L28.1202 33.9468Z" fill="black"/>
<path fill-rule="evenodd" clip-rule="evenodd" d="M51.6872 7.41696L11.8087 10.1396C9.41997 10.3027 7.56836 12.2231 7.56836 14.5375V53.3247C7.56836 55.4992 8.31691 57.612 9.69609 59.3301L18.2945 70.0417C19.6847 71.7736 21.8725 72.7272 24.1359 72.5879L68.3966 69.8634C70.6651 69.7237 72.4311 67.9048 72.4311 65.7079V21.6106C72.4311 20.2515 71.7447 18.9779 70.5924 18.1988L56.5812 8.72573C55.1532 7.76032 53.4255 7.29828 51.6872 7.41696ZM13.7862 15.1425C13.2315 14.7319 13.4955 13.8764 14.1923 13.8264L51.9555 11.1178C53.1587 11.0315 54.3543 11.3628 55.3273 12.0522L62.9042 17.4203C63.1919 17.6241 63.0569 18.0641 62.7008 18.0834L22.7097 20.2584C21.4994 20.3242 20.3048 19.9687 19.3425 19.2562L13.7862 15.1425ZM20.8339 27.0768C20.8339 25.7776 21.8835 24.7044 23.2257 24.6313L65.5076 22.3286C66.8157 22.2574 67.9168 23.2633 67.9168 24.5295V62.7132C67.9168 64.01 66.8709 65.082 65.5315 65.1583L23.5172 67.5488C22.0615 67.6316 20.8339 66.513 20.8339 65.1037V27.0768Z" fill="black"/>
</svg>
