<svg width="215" height="174" viewBox="0 0 215 174" fill="none" xmlns="http://www.w3.org/2000/svg">
<path d="M203.51 116.655C203.779 116.576 204.002 116.379 204.223 116.183C205.455 115.093 205.522 113.181 205.922 111.654C206.771 108.42 207.937 105.615 209.344 102.543C209.902 101.325 210.659 99.715 209.764 98.7581C209.141 98.0936 208.375 98.2023 207.587 98.757C206.799 99.3116 206.351 100.35 205.933 101.184C204.89 103.262 203.638 106.422 202.709 108.684C202.674 108.77 202.544 108.766 202.522 108.678C202.274 107.652 201.679 105.723 201.338 104.91C193.794 86.9183 182.72 68.7003 162.794 57.5887C154.183 52.7864 145.398 49.2548 135.501 47.563C134.644 47.4167 133.525 46.7628 133.025 46.1027C117.483 25.56 84.9854 29.0804 62.0525 41.7792C44.5032 51.4965 26.2715 66.2644 18.0868 83.4542C17.3878 84.9225 10.888 99.0011 13.6936 98.8946C13.9194 98.8863 14.1995 98.9086 14.3803 98.6979C15.5325 97.3588 17.1816 92.5385 18.4447 89.458C20.4267 84.6244 22.7799 79.911 25.9022 75.5916C30.4663 69.2768 36.0234 63.6561 42.0697 58.5692C53.608 48.9462 66.6792 39.9114 81.5377 36.2204C95.0487 32.8641 110.939 32.7055 123.718 40.7352C125.473 41.8386 128.42 44.5217 129.555 46.8211C129.687 47.09 129.502 47.4115 129.185 47.4693C128.122 47.6618 127.03 47.6017 125.96 47.6521C119.757 47.9433 113.852 49.583 108.179 52.1544C107.978 52.2461 107.777 52.3387 107.576 52.4309C107.377 52.524 107.177 52.6179 106.978 52.7115C106.73 52.8282 106.484 52.9472 106.238 53.0653C106.022 53.1695 105.805 53.2747 105.59 53.3805C105.149 53.5963 104.71 53.8162 104.272 54.0387C102.396 54.9941 100.558 56.0191 98.7576 57.1026C88.6177 63.2042 78.1411 73.0021 76.0438 84.5601C75.0649 89.9563 76.851 96.1734 82.2958 98.2423C100.002 104.969 118.319 92.286 126.849 79.6051C129.494 75.6755 131.663 70.5844 132.774 66.0955C133.646 62.5719 134.032 58.9685 133.998 55.4075C133.984 53.9503 133.369 51.2184 135.041 50.7037C136.876 50.1384 139.85 51.1234 141.598 51.663C161.63 57.846 178.664 70.5954 189.17 87.7124C189.392 88.0741 189.612 88.4368 189.828 88.8014C192.969 94.0894 195.256 99.8364 197.585 105.569C198.185 107.047 198.821 108.951 199.301 109.968C199.347 110.063 199.28 110.174 199.167 110.17C196.236 110.069 192.511 108.955 189.846 108.065C188.859 107.736 187.812 107.434 186.757 107.606C185.704 107.777 184.582 108.576 184.604 109.575C184.625 110.518 186.63 110.699 187.911 111.173C191.584 112.536 194.974 114.254 198.647 115.617C200.285 116.223 201.77 117.169 203.51 116.655ZM101.247 95.7751C98.9334 96.4406 96.5912 96.8822 94.2932 97.0605C87.9471 97.5515 79.7117 95.7831 78.6648 88.9226C77.7187 82.7216 82.099 75.9459 86.1432 71.1942C91.389 65.0318 98.2419 60.1678 105.517 56.3737C108.218 54.9651 110.998 53.6878 113.874 52.6615C116.752 51.6343 119.658 50.9813 122.654 50.4859C124.17 50.2348 125.695 50.0369 127.225 49.9721C128.481 49.9195 130.199 49.6885 130.833 50.9477C131.815 52.9015 131.72 57.1096 131.389 59.818C129.455 75.6617 117.944 90.9739 101.247 95.7751Z" fill="#1D2939"/>
</svg>
