<svg width="80" height="80" viewBox="0 0 80 80" fill="none" xmlns="http://www.w3.org/2000/svg">
<g filter="url(#filter0_d_4231_83283)">
<path d="M5 29.8889C5 21.177 5 16.821 6.69545 13.4935C8.18682 10.5665 10.5665 8.18682 13.4935 6.69545C16.821 5 21.177 5 29.8889 5H50.1111C58.823 5 63.179 5 66.5065 6.69545C69.4335 8.18682 71.8132 10.5665 73.3045 13.4935C75 16.821 75 21.177 75 29.8889V50.1111C75 58.823 75 63.179 73.3045 66.5065C71.8132 69.4335 69.4335 71.8132 66.5065 73.3045C63.179 75 58.823 75 50.1111 75H29.8889C21.177 75 16.821 75 13.4935 73.3045C10.5665 71.8132 8.18682 69.4335 6.69545 66.5065C5 63.179 5 58.823 5 50.1111V29.8889Z" fill="white"/>
<path d="M40.0053 31.1273L31.353 15.858C31.6403 15.5655 31.9708 15.3737 32.3014 15.2448C29.7499 16.0845 28.5791 18.9496 28.5791 18.9496L12.7729 46.8369C12.5505 47.7113 12.4887 48.5007 12.5165 49.1957H29.7684L40.0053 31.1273Z" fill="#34A853"/>
<path d="M40.0049 31.1273L50.2417 49.1957H67.4937C67.5215 48.5007 67.4597 47.7113 67.2373 46.8369L51.431 18.9496C51.431 18.9496 50.2572 16.0845 47.7088 15.2448C48.0362 15.3737 48.3698 15.5655 48.6571 15.858L40.0049 31.1273Z" fill="#FBBC05"/>
<path d="M40.0048 31.1279L48.657 15.8587C48.3697 15.5662 48.0361 15.3743 47.7087 15.2454C47.3318 15.1227 46.9271 15.0409 46.4885 15.0189H46.0313H33.9782H33.521C33.0854 15.0378 32.6777 15.1196 32.3009 15.2454C31.9734 15.3743 31.6398 15.5662 31.3525 15.8587L40.0048 31.1279Z" fill="#188038"/>
<path d="M29.771 49.1958L21.2177 64.2921C21.2177 64.2921 20.9335 64.1537 20.5474 63.8675C21.7613 64.8016 22.9413 64.9998 22.9413 64.9998H56.5339C58.3873 64.9998 58.7734 64.2921 58.7734 64.2921C58.7796 64.289 58.7827 64.2858 58.7889 64.2827L50.2417 49.1958H29.771Z" fill="#4285F4"/>
<path d="M29.7719 49.1958H12.52C12.6065 51.2464 13.4961 52.4447 13.4961 52.4447L14.1448 53.5706C14.1912 53.6366 14.219 53.6744 14.219 53.6744L15.6306 56.1527L18.7999 61.6691C18.8926 61.8924 19.0007 62.0969 19.115 62.2919C19.1582 62.3579 19.1984 62.4302 19.2447 62.4931C19.2571 62.512 19.2694 62.5309 19.2818 62.5498C19.6741 63.1033 20.1127 63.531 20.5513 63.8675C20.9375 64.1569 21.2217 64.2921 21.2217 64.2921L29.7719 49.1958Z" fill="#1967D2"/>
<path d="M50.2417 49.1958H67.4936C67.4071 51.2464 66.5175 52.4447 66.5175 52.4447L65.8688 53.5706C65.8225 53.6366 65.7947 53.6744 65.7947 53.6744L64.383 56.1527L61.2137 61.6691C61.121 61.8924 61.0129 62.0969 60.8987 62.2919C60.8554 62.3579 60.8152 62.4302 60.7689 62.4931C60.7565 62.512 60.7442 62.5309 60.7318 62.5498C60.3395 63.1033 59.9009 63.531 59.4623 63.8675C59.0762 64.1569 58.792 64.2921 58.792 64.2921L50.2417 49.1958Z" fill="#EA4335"/>
</g>
<defs>
<filter id="filter0_d_4231_83283" x="-2" y="-1" width="84" height="84" filterUnits="userSpaceOnUse" color-interpolation-filters="sRGB">
<feFlood flood-opacity="0" result="BackgroundImageFix"/>
<feColorMatrix in="SourceAlpha" type="matrix" values="0 0 0 0 0 0 0 0 0 0 0 0 0 0 0 0 0 0 127 0" result="hardAlpha"/>
<feOffset dy="1"/>
<feGaussianBlur stdDeviation="1"/>
<feColorMatrix type="matrix" values="0 0 0 0 0.0627451 0 0 0 0 0.0941176 0 0 0 0 0.156863 0 0 0 0.05 0"/>
<feBlend mode="normal" in2="BackgroundImageFix" result="effect1_dropShadow_4231_83283"/>
<feBlend mode="normal" in="SourceGraphic" in2="effect1_dropShadow_4231_83283" result="shape"/>
</filter>
</defs>
</svg>
