<svg width="23" height="24" viewBox="0 0 23 24" fill="none" xmlns="http://www.w3.org/2000/svg">
<path d="M5.33365 14H9.33361C9.70191 14 10.0003 13.7016 10.0003 13.3333V10C10.0003 9.63171 9.70191 9.33335 9.33361 9.33335H5.33365C4.96535 9.33335 4.66699 9.63171 4.66699 10V13.3333C4.66699 13.7016 4.96535 14 5.33365 14ZM6.00031 10.6667H8.66695V12.6666H6.00031V10.6667Z" fill="#F36DD4"/>
<path d="M13.3332 14H17.3331C17.7014 14 17.9998 13.7016 17.9998 13.3333V10C17.9998 9.63171 17.7014 9.33335 17.3331 9.33335H13.3332C12.9649 9.33335 12.6665 9.63171 12.6665 10V13.3333C12.6665 13.7016 12.9649 14 13.3332 14ZM13.9998 10.6667H16.6665V12.6666H13.9998V10.6667Z" fill="#F36DD4"/>
<path d="M13.3332 20.6666H17.3331C17.7014 20.6666 17.9998 20.3682 17.9998 19.9999V16.6666C17.9998 16.2983 17.7014 15.9999 17.3331 15.9999H13.3332C12.9649 15.9999 12.6665 16.2983 12.6665 16.6666V19.9999C12.6665 20.3682 12.9649 20.6666 13.3332 20.6666ZM13.9998 17.3333H16.6665V19.3332H13.9998V17.3333Z" fill="#F36DD4"/>
<path d="M22.298 5.40387L11.6315 0.0705921C11.4438 -0.0235307 11.223 -0.0235307 11.0352 0.0705921L0.368609 5.40387C0.0920124 5.54207 -0.053262 5.85234 0.0179801 6.1531C0.0892222 6.45406 0.357448 6.66685 0.666783 6.66685H1.33344V23.3333C1.33344 23.7016 1.6318 24 2.0001 24H20.6666C21.0349 24 21.3332 23.7016 21.3332 23.3333V6.66685H21.9999C22.3092 6.66685 22.5778 6.45425 22.6487 6.15329C22.7196 5.85214 22.5745 5.54206 22.2981 5.40387H22.298ZM11.3334 1.41229L19.1762 5.33358H3.4911L11.3334 1.41229ZM8.66676 22.6668H6.00012V17.3335H8.66676V22.6668ZM20 22.6668H10.0001V16.6669C10.0001 16.2986 9.70172 16.0002 9.33342 16.0002H5.33346C4.96516 16.0002 4.6668 16.2986 4.6668 16.6669V22.6668H2.66682V6.667H20V22.6668Z" fill="#F36DD4"/>
</svg>
