<svg width="24" height="21" viewBox="0 0 24 21" fill="none" xmlns="http://www.w3.org/2000/svg">
<path d="M21.36 0H2.64C1.94016 0.00125001 1.26949 0.279822 0.774629 0.774629C0.279817 1.26944 0.00123429 1.94016 0 2.64V18.16C0.00125001 18.8598 0.279822 19.5305 0.774629 20.0254C1.26944 20.5202 1.94016 20.7988 2.64 20.8H21.36C22.0598 20.7987 22.7305 20.5202 23.2254 20.0254C23.7202 19.5306 23.9988 18.8598 24 18.16V2.64C23.9987 1.94016 23.7202 1.26949 23.2254 0.774629C22.7306 0.279817 22.0598 0.00123429 21.36 0ZM22.4 18.16C22.4 18.4359 22.2904 18.7003 22.0954 18.8954C21.9004 19.0904 21.6359 19.2 21.36 19.2H2.64C2.3641 19.2 2.09965 19.0904 1.90464 18.8954C1.70964 18.7004 1.59999 18.4359 1.59999 18.16V6.4H22.4L22.4 18.16ZM22.4 4.8H1.6V2.64C1.6 2.36411 1.70964 2.09966 1.90464 1.90464C2.09964 1.70964 2.36412 1.6 2.64 1.6H21.36C21.6359 1.6 21.9003 1.70964 22.0954 1.90464C22.2904 2.09964 22.4 2.36411 22.4 2.64L22.4 4.8Z" fill="#F36DD4"/>
<path d="M4.8002 3.20002C4.8002 3.64181 4.44198 4.00002 4.0002 4.00002C3.55841 4.00002 3.2002 3.64181 3.2002 3.20002C3.2002 2.75824 3.55841 2.40002 4.0002 2.40002C4.44198 2.40002 4.8002 2.75824 4.8002 3.20002Z" fill="#F36DD4"/>
<path d="M7.19961 3.20002C7.19961 3.64181 6.8414 4.00002 6.39961 4.00002C5.95782 4.00002 5.59961 3.64181 5.59961 3.20002C5.59961 2.75824 5.95782 2.40002 6.39961 2.40002C6.8414 2.40002 7.19961 2.75824 7.19961 3.20002Z" fill="#F36DD4"/>
<path d="M9.6 3.20002C9.6 3.64181 9.24179 4.00002 8.8 4.00002C8.35821 4.00002 8 3.64181 8 3.20002C8 2.75824 8.35821 2.40002 8.8 2.40002C9.24179 2.40002 9.6 2.75824 9.6 3.20002Z" fill="#F36DD4"/>
<path d="M10.1009 15.7655C10.2511 15.9155 10.4545 15.9998 10.6667 15.9998C10.8788 15.9998 11.0822 15.9155 11.2322 15.7655L16.5657 10.432C16.7201 10.2829 16.808 10.0781 16.81 9.86362C16.8118 9.64897 16.7275 9.44273 16.5757 9.29095C16.4239 9.13917 16.2176 9.05488 16.003 9.05667C15.7886 9.05845 15.5836 9.14649 15.4346 9.30077L10.6666 14.0688L8.56571 11.9681C8.3625 11.7718 8.0709 11.6972 7.7984 11.772C7.52608 11.8466 7.31323 12.0595 7.2384 12.332C7.16376 12.6043 7.2384 12.8961 7.43465 13.0993L10.1009 15.7655Z" fill="#F36DD4"/>
</svg>
