<svg width="24" height="24" viewBox="0 0 24 24" fill="none" xmlns="http://www.w3.org/2000/svg">
<path d="M4.62722 23.1826C5.75235 23.1826 6.83121 22.7358 7.62658 21.9405C8.42196 21.1448 8.86898 20.066 8.86898 18.9411C8.86898 17.816 8.42194 16.7371 7.62658 15.9417C6.83121 15.1464 5.75235 14.6993 4.62722 14.6993C3.50237 14.6993 2.42351 15.1464 1.62786 15.9417C0.832489 16.7371 0.385742 17.816 0.385742 18.9411C0.385742 20.066 0.83251 21.1448 1.62786 21.9405C2.42351 22.7358 3.50237 23.1826 4.62722 23.1826ZM4.62722 17.0128V17.0131C5.13854 17.0131 5.62889 17.2162 5.99067 17.5777C6.35217 17.9394 6.55524 18.4298 6.55524 18.9411C6.55524 19.4524 6.35217 19.9428 5.99067 20.3043C5.6289 20.666 5.13856 20.8691 4.62722 20.8691C4.11589 20.8691 3.62555 20.666 3.26405 20.3043C2.90228 19.9428 2.69921 19.4524 2.69921 18.9411C2.69921 18.4298 2.90228 17.9394 3.26405 17.5777C3.62555 17.2162 4.11589 17.0131 4.62722 17.0131V17.0128Z" fill="#F36DD4"/>
<path d="M22.7508 5.05935C22.7508 3.9345 22.304 2.85564 21.5087 2.05999C20.713 1.26462 19.6342 0.817871 18.5093 0.817871C17.3842 0.817871 16.3053 1.26464 15.51 2.05999C14.7146 2.85564 14.2676 3.9345 14.2676 5.05935C14.2676 6.18448 14.7146 7.26334 15.51 8.05871C16.3053 8.85409 17.3842 9.30111 18.5093 9.30111C19.6342 9.30111 20.713 8.85407 21.5087 8.05871C22.3041 7.26334 22.7508 6.18448 22.7508 5.05935ZM16.5813 5.05935C16.5813 4.54803 16.7844 4.05768 17.1459 3.69618C17.5077 3.33441 17.998 3.13134 18.5093 3.13134C19.0207 3.13134 19.511 3.33441 19.8725 3.69618C20.2343 4.05768 20.4374 4.54802 20.4374 5.05935C20.4374 5.57069 20.2343 6.06102 19.8725 6.4228C19.511 6.7843 19.0207 6.98737 18.5093 6.98737C17.998 6.98737 17.5077 6.7843 17.1459 6.4228C16.7844 6.06103 16.5813 5.57069 16.5813 5.05935Z" fill="#F36DD4"/>
<path d="M11.522 19.7582L15.7637 23.9999L17.3986 22.3651L15.1311 20.0976H18.8945C20.0197 20.0976 21.0985 19.6506 21.8939 18.8553C22.6896 18.0596 23.1363 16.9807 23.1363 15.8559V11.6141H20.8226V15.8559C20.8226 16.3672 20.6195 16.8576 20.258 17.2193C19.8965 17.5808 19.4059 17.7839 18.8945 17.7839H15.1311L17.3985 15.5164L15.7637 13.8816L11.522 18.1234C11.3054 18.3402 11.1836 18.6342 11.1836 18.9408C11.1836 19.2474 11.3054 19.5414 11.522 19.7582L11.522 19.7582Z" fill="#F36DD4"/>
<path d="M0 8.14406V12.3858H2.31375V8.14406C2.31375 7.63274 2.51682 7.14239 2.87832 6.78061C3.23983 6.41911 3.73043 6.21604 4.24177 6.21604H8.00524L5.73777 8.48351L7.37258 10.1183L11.6143 5.87657C11.8309 5.65978 11.9527 5.36579 11.9527 5.05916C11.9527 4.75254 11.8309 4.45854 11.6143 4.24176L7.37258 0L5.73777 1.63481L8.00524 3.90229H4.24177C3.11664 3.90229 2.03778 4.34933 1.24241 5.14468C0.446761 5.94033 1.36589e-05 7.01919 1.36589e-05 8.14405L0 8.14406Z" fill="#F36DD4"/>
</svg>
