<svg width="24" height="22" viewBox="0 0 24 22" fill="none" xmlns="http://www.w3.org/2000/svg">
<path d="M9.75 7.87492C9.75 8.2891 9.41418 8.62492 9 8.62492C8.58582 8.62492 8.25 8.2891 8.25 7.87492C8.25 7.46073 8.58582 7.12492 9 7.12492C9.41418 7.12492 9.75 7.46073 9.75 7.87492Z" fill="#F36DD4"/>
<path d="M9.75 4.87491C9.75 5.2891 9.41418 5.62491 9 5.62491C8.58582 5.62491 8.25 5.2891 8.25 4.87491C8.25 4.46073 8.58582 4.12491 9 4.12491C9.41418 4.12491 9.75 4.46073 9.75 4.87491Z" fill="#F36DD4"/>
<path d="M9.75 10.8749C9.75 11.2891 9.41418 11.6249 9 11.6249C8.58582 11.6249 8.25 11.2891 8.25 10.8749C8.25 10.4607 8.58582 10.1249 9 10.1249C9.41418 10.1249 9.75 10.4607 9.75 10.8749Z" fill="#F36DD4"/>
<path d="M12.75 4.87491C12.75 5.2891 12.4142 5.62491 12 5.62491C11.5858 5.62491 11.25 5.2891 11.25 4.87491C11.25 4.46073 11.5858 4.12491 12 4.12491C12.4142 4.12491 12.75 4.46073 12.75 4.87491Z" fill="#F36DD4"/>
<path d="M12.75 7.87492C12.75 8.2891 12.4142 8.62492 12 8.62492C11.5858 8.62492 11.25 8.2891 11.25 7.87492C11.25 7.46073 11.5858 7.12492 12 7.12492C12.4142 7.12492 12.75 7.46073 12.75 7.87492Z" fill="#F36DD4"/>
<path d="M12.75 10.8749C12.75 11.2891 12.4142 11.6249 12 11.6249C11.5858 11.6249 11.25 11.2891 11.25 10.8749C11.25 10.4607 11.5858 10.1249 12 10.1249C12.4142 10.1249 12.75 10.4607 12.75 10.8749Z" fill="#F36DD4"/>
<path d="M15.75 10.8749C15.75 11.2891 15.4142 11.6249 15 11.6249C14.5858 11.6249 14.25 11.2891 14.25 10.8749C14.25 10.4607 14.5858 10.1249 15 10.1249C15.4142 10.1249 15.75 10.4607 15.75 10.8749Z" fill="#F36DD4"/>
<path d="M15.75 7.87492C15.75 8.2891 15.4142 8.62492 15 8.62492C14.5858 8.62492 14.25 8.2891 14.25 7.87492C14.25 7.46073 14.5858 7.12492 15 7.12492C15.4142 7.12492 15.75 7.46073 15.75 7.87492Z" fill="#F36DD4"/>
<path d="M15.75 4.87491C15.75 5.2891 15.4142 5.62491 15 5.62491C14.5858 5.62491 14.25 5.2891 14.25 4.87491C14.25 4.46073 14.5858 4.12491 15 4.12491C15.4142 4.12491 15.75 4.46073 15.75 4.87491Z" fill="#F36DD4"/>
<path d="M24 13.4999C23.9996 12.2704 23.4494 11.1053 22.5 10.3238V5.62501C22.7679 5.62501 23.0156 5.482 23.1495 5.25001C23.2835 5.01801 23.2835 4.73199 23.1495 4.50001C23.0156 4.26801 22.7679 4.12501 22.5 4.12501H18.75V1.47348C18.9877 1.4125 19.1803 1.23892 19.2656 1.00893C19.3511 0.778957 19.3184 0.521857 19.1781 0.320435C19.0378 0.1192 18.8079 -0.000551217 18.5625 1.9078e-06H5.43749C5.19213 -0.00054742 4.96213 0.119205 4.82188 0.320435C4.68162 0.521852 4.64885 0.778929 4.73435 1.00893C4.81968 1.23891 5.01231 1.4125 5.24998 1.47348V4.12501H1.49998C1.2321 4.12501 0.984354 4.26801 0.850526 4.50001C0.716492 4.732 0.716492 5.01802 0.850526 5.25001C0.984378 5.482 1.23212 5.62501 1.49998 5.62501V19.875H0.749979C0.482098 19.875 0.234354 20.018 0.100526 20.25C-0.0335086 20.482 -0.0335086 20.768 0.100526 21C0.234377 21.232 0.482117 21.375 0.749979 21.375H23.25C23.5179 21.375 23.7656 21.232 23.8994 21C24.0335 20.768 24.0335 20.482 23.8994 20.25C23.7656 20.018 23.5178 19.875 23.25 19.875H20.625V17.5534C21.572 17.3775 22.4277 16.8759 23.044 16.1358C23.6603 15.3955 23.9985 14.4631 24 13.5001L24 13.4999ZM5.25 19.8749H3V5.62491H5.25V19.8749ZM21 5.62491V9.53476C20.2652 9.32162 19.4848 9.32162 18.75 9.53476V5.62491H21ZM13.5 19.8749H10.5V16.1249H13.5V19.8749ZM19.125 19.8749H15V15.3749C15 15.1761 14.9209 14.9853 14.7803 14.8447C14.6396 14.7041 14.4489 14.6249 14.25 14.6249H9.75002C9.55117 14.6249 9.36037 14.704 9.21977 14.8447C9.07917 14.9853 9.00005 15.1761 9.00005 15.3749V19.8749H6.75005V1.49991H17.25V10.3204C16.4382 10.9894 15.913 11.9438 15.7821 12.9877C15.6512 14.0316 15.9246 15.0861 16.546 15.9349C17.1677 16.7838 18.0903 17.3628 19.1251 17.5532L19.125 19.8749ZM19.875 14.6249C19.6761 14.6249 19.4854 14.704 19.3447 14.8446C19.2041 14.9853 19.125 15.1761 19.125 15.3749V16.0143C18.3126 15.7721 17.6671 15.1524 17.3921 14.3504C17.1169 13.5485 17.2462 12.6631 17.7389 11.9732C18.2317 11.2832 19.0272 10.8738 19.875 10.8738C20.7228 10.8738 21.5184 11.2832 22.0111 11.9732C22.5038 12.6631 22.6331 13.5484 22.3579 14.3504C22.0829 15.1524 21.4374 15.7721 20.625 16.0143V15.3749C20.625 15.176 20.5459 14.9852 20.4052 14.8446C20.2646 14.704 20.0738 14.6249 19.875 14.6249H19.875Z" fill="#F36DD4"/>
</svg>
