<svg width="24" height="21" viewBox="0 0 24 21" fill="none" xmlns="http://www.w3.org/2000/svg">
<path d="M21.36 0H2.64C1.94016 0.00125001 1.26949 0.279822 0.774629 0.774629C0.279817 1.26944 0.00123429 1.94016 0 2.64V18.16C0.00125001 18.8598 0.279822 19.5305 0.774629 20.0254C1.26944 20.5202 1.94016 20.7988 2.64 20.8H21.36C22.0598 20.7987 22.7305 20.5202 23.2254 20.0254C23.7202 19.5306 23.9988 18.8598 24 18.16V2.64C23.9988 1.94016 23.7202 1.26949 23.2254 0.774629C22.7306 0.279817 22.0598 0.00123429 21.36 0ZM22.4 18.16C22.4 18.4359 22.2904 18.7003 22.0954 18.8954C21.9004 19.0904 21.6359 19.2 21.36 19.2H2.64C2.3641 19.2 2.09965 19.0904 1.90464 18.8954C1.70964 18.7004 1.59999 18.4359 1.59999 18.16V6.4H22.4L22.4 18.16ZM22.4 4.8H1.6V2.64C1.6 2.3641 1.70964 2.09966 1.90464 1.90464C2.09964 1.70964 2.36412 1.6 2.64 1.6H21.36C21.6359 1.6 21.9003 1.70964 22.0954 1.90464C22.2904 2.09964 22.4 2.36411 22.4 2.64L22.4 4.8Z" fill="#F36DD4"/>
<path d="M8.55462 12.227C8.77529 12.0306 8.64913 11.6703 8.36559 11.6376L7.16817 11.5394C7.04223 11.5394 6.94749 11.4412 6.91606 11.3429L6.44351 10.1965C6.349 9.93449 5.97095 9.93449 5.87645 10.1965L5.40389 11.3429C5.37246 11.4412 5.2463 11.5394 5.15178 11.5394L3.95436 11.6376C3.67082 11.6703 3.57631 12.0306 3.76533 12.227L4.679 13.0458C4.77352 13.1114 4.80495 13.2423 4.77352 13.3734L4.48998 14.5851C4.4269 14.8798 4.71065 15.0763 4.96253 14.9454L6.00236 14.2904C6.09687 14.2249 6.22303 14.2249 6.31754 14.2904L7.35736 14.9454C7.60947 15.1092 7.893 14.8798 7.82992 14.5851L7.54616 13.3408C7.51473 13.2099 7.54616 13.1114 7.64067 13.0132L8.55462 12.227Z" fill="#F36DD4"/>
<path d="M14.5546 12.227C14.7753 12.0306 14.6491 11.6703 14.3656 11.6376L13.1682 11.5394C13.0422 11.5394 12.9475 11.4412 12.9161 11.3429L12.4435 10.1965C12.349 9.93449 11.971 9.93449 11.8764 10.1965L11.4039 11.3429C11.3725 11.4412 11.2463 11.5394 11.1518 11.5394L9.95436 11.6376C9.67082 11.6703 9.57631 12.0306 9.76533 12.227L10.679 13.0458C10.7735 13.1114 10.8049 13.2423 10.7735 13.3734L10.49 14.5851C10.4269 14.8798 10.7107 15.0763 10.9625 14.9454L12.0024 14.2904C12.0969 14.2249 12.223 14.2249 12.3175 14.2904L13.3574 14.9454C13.6095 15.1092 13.893 14.8798 13.8299 14.5851L13.5462 13.3408C13.5147 13.2099 13.5462 13.1114 13.6407 13.0132L14.5546 12.227Z" fill="#F36DD4"/>
<path d="M20.5546 12.2415C20.7753 12.0437 20.6491 11.6811 20.3656 11.6483L19.1682 11.5494C19.0422 11.5494 18.9475 11.4505 18.9161 11.3516L18.4435 10.1978C18.349 9.93407 17.971 9.93407 17.8764 10.1978L17.4039 11.3516C17.3725 11.4505 17.2463 11.5494 17.1518 11.5494L15.9544 11.6483C15.6708 11.6811 15.5763 12.0438 15.7653 12.2415L16.679 13.0656C16.7735 13.1316 16.8049 13.2633 16.7735 13.3953L16.49 14.6149C16.4269 14.8786 16.7419 15.1095 16.9625 14.9446L18.0024 14.2854C18.0969 14.2194 18.223 14.2194 18.3175 14.2854L19.3574 14.9446C19.6095 15.1095 19.893 14.8786 19.8299 14.582L19.5464 13.3624C19.515 13.2307 19.5464 13.1316 19.6409 13.0327L20.5546 12.2415Z" fill="#F36DD4"/>
</svg>
