<svg width="23" height="26" viewBox="0 0 23 26" fill="none" xmlns="http://www.w3.org/2000/svg">
<mask id="path-1-outside-1_3980_155336" maskUnits="userSpaceOnUse" x="0" y="0" width="23" height="26" fill="black">
<rect fill="white" width="23" height="26"/>
<path d="M9.76462 1.17067C9.64728 1.27733 9.59395 1.53333 9.59395 1.97066V2.59999H8.65529C8.06862 2.59999 7.67396 2.64266 7.58863 2.72799C7.50329 2.81332 7.46063 3.21866 7.46063 3.84799V4.82932L6.69263 4.86131L5.91397 4.89331L5.88197 6.72797L5.86063 8.5733H4.04731C2.36199 8.5733 2.23399 8.58396 2.12732 8.78663C2.05265 8.92529 2.02065 11.4853 2.02065 16.5946L2.03132 24.1999L1.60466 24.2319C1.08199 24.2745 0.889993 24.4665 1.06066 24.7759L1.17799 24.9999H11.8766C23.3325 24.9999 22.9059 25.0212 22.7992 24.4985C22.7779 24.3492 22.6499 24.2959 22.2552 24.2745L21.7539 24.2425V13.5866C21.7539 4.05065 21.7326 2.91999 21.5832 2.77066C21.4446 2.62132 20.9219 2.59999 17.5512 2.59999C14.5006 2.59999 13.6473 2.63199 13.5619 2.73866C13.4979 2.81332 13.4339 3.30399 13.4126 3.83732L13.3806 4.78665L12.9859 4.81865L12.5806 4.85065V3.89065C12.5806 2.64266 12.5379 2.59999 11.3433 2.59999H10.4473V1.97066C10.4473 1.36267 10.2873 1 10.0206 1C9.96728 1 9.84995 1.07467 9.76462 1.17067ZM11.7273 4.14665V4.83998L9.99928 4.81865L8.26062 4.78665L8.22862 4.11465L8.19662 3.45332H9.96728H11.7273V4.14665ZM20.9006 13.8533V24.2639L19.4392 24.2319L17.9672 24.1999L17.9352 18.6426C17.9139 13.9813 17.8926 13.0533 17.7646 12.9466C17.5726 12.7973 17.1672 12.9786 17.1672 13.2133C17.1672 13.3306 17.0392 13.3733 16.7406 13.3733C16.4526 13.3733 16.3139 13.3306 16.3139 13.2239C16.3139 13.1493 16.2499 13.0213 16.1646 12.9573C15.9726 12.7973 15.5673 12.9786 15.5673 13.2133C15.5673 13.3413 15.4073 13.3733 14.8739 13.3733H14.1806V8.4133V3.45332H17.5406H20.9006V13.8533ZM13.3273 9.42662C13.3273 11.5386 13.3273 13.2986 13.3273 13.3306C13.3273 13.3626 12.6766 13.3839 11.8766 13.3839H10.4259L10.4046 12.7439L10.3939 12.0933H11.0553C11.6846 12.0933 12.0473 11.9333 12.0473 11.6666C12.0473 11.3999 11.6846 11.2399 11.0553 11.2399H10.3939L10.4046 10.5786L10.4259 9.90662L11.1193 9.87462C11.9086 9.84262 12.1326 9.68262 11.9406 9.33063C11.8446 9.13863 11.7273 9.10663 11.1299 9.10663C10.4899 9.10663 10.4366 9.08529 10.3406 8.83996L10.2339 8.5733H8.42062H6.6073V7.07997V5.58664H9.96728H13.3273V9.42662ZM9.59395 16.7866V24.2639L8.66595 24.2319L7.72729 24.1999L7.69529 23.2506C7.67396 22.7172 7.60996 22.2266 7.54596 22.1519C7.38596 21.9599 5.08197 21.9599 4.92197 22.1519C4.85797 22.2266 4.79397 22.7172 4.77264 23.2506L4.74064 24.1999L3.81264 24.2319L2.87398 24.2639V16.7866V9.31996H6.23397H9.59395V16.7866ZM17.1672 19.2399V24.2532L13.8073 24.2319L10.4473 24.1999L10.4153 19.2079L10.3939 14.2266H13.7859H17.1672V19.2399ZM6.90596 23.5279C6.8633 24.3279 6.6073 24.5519 6.6073 23.7839C6.6073 22.9199 5.9033 22.8986 5.8393 23.7626C5.81797 23.9972 5.7433 24.1999 5.6793 24.2319C5.57264 24.2639 5.54064 24.0825 5.54064 23.5706V22.8666H6.23397H6.93796L6.90596 23.5279Z"/>
</mask>
<path d="M9.76462 1.17067C9.64728 1.27733 9.59395 1.53333 9.59395 1.97066V2.59999H8.65529C8.06862 2.59999 7.67396 2.64266 7.58863 2.72799C7.50329 2.81332 7.46063 3.21866 7.46063 3.84799V4.82932L6.69263 4.86131L5.91397 4.89331L5.88197 6.72797L5.86063 8.5733H4.04731C2.36199 8.5733 2.23399 8.58396 2.12732 8.78663C2.05265 8.92529 2.02065 11.4853 2.02065 16.5946L2.03132 24.1999L1.60466 24.2319C1.08199 24.2745 0.889993 24.4665 1.06066 24.7759L1.17799 24.9999H11.8766C23.3325 24.9999 22.9059 25.0212 22.7992 24.4985C22.7779 24.3492 22.6499 24.2959 22.2552 24.2745L21.7539 24.2425V13.5866C21.7539 4.05065 21.7326 2.91999 21.5832 2.77066C21.4446 2.62132 20.9219 2.59999 17.5512 2.59999C14.5006 2.59999 13.6473 2.63199 13.5619 2.73866C13.4979 2.81332 13.4339 3.30399 13.4126 3.83732L13.3806 4.78665L12.9859 4.81865L12.5806 4.85065V3.89065C12.5806 2.64266 12.5379 2.59999 11.3433 2.59999H10.4473V1.97066C10.4473 1.36267 10.2873 1 10.0206 1C9.96728 1 9.84995 1.07467 9.76462 1.17067ZM11.7273 4.14665V4.83998L9.99928 4.81865L8.26062 4.78665L8.22862 4.11465L8.19662 3.45332H9.96728H11.7273V4.14665ZM20.9006 13.8533V24.2639L19.4392 24.2319L17.9672 24.1999L17.9352 18.6426C17.9139 13.9813 17.8926 13.0533 17.7646 12.9466C17.5726 12.7973 17.1672 12.9786 17.1672 13.2133C17.1672 13.3306 17.0392 13.3733 16.7406 13.3733C16.4526 13.3733 16.3139 13.3306 16.3139 13.2239C16.3139 13.1493 16.2499 13.0213 16.1646 12.9573C15.9726 12.7973 15.5673 12.9786 15.5673 13.2133C15.5673 13.3413 15.4073 13.3733 14.8739 13.3733H14.1806V8.4133V3.45332H17.5406H20.9006V13.8533ZM13.3273 9.42662C13.3273 11.5386 13.3273 13.2986 13.3273 13.3306C13.3273 13.3626 12.6766 13.3839 11.8766 13.3839H10.4259L10.4046 12.7439L10.3939 12.0933H11.0553C11.6846 12.0933 12.0473 11.9333 12.0473 11.6666C12.0473 11.3999 11.6846 11.2399 11.0553 11.2399H10.3939L10.4046 10.5786L10.4259 9.90662L11.1193 9.87462C11.9086 9.84262 12.1326 9.68262 11.9406 9.33063C11.8446 9.13863 11.7273 9.10663 11.1299 9.10663C10.4899 9.10663 10.4366 9.08529 10.3406 8.83996L10.2339 8.5733H8.42062H6.6073V7.07997V5.58664H9.96728H13.3273V9.42662ZM9.59395 16.7866V24.2639L8.66595 24.2319L7.72729 24.1999L7.69529 23.2506C7.67396 22.7172 7.60996 22.2266 7.54596 22.1519C7.38596 21.9599 5.08197 21.9599 4.92197 22.1519C4.85797 22.2266 4.79397 22.7172 4.77264 23.2506L4.74064 24.1999L3.81264 24.2319L2.87398 24.2639V16.7866V9.31996H6.23397H9.59395V16.7866ZM17.1672 19.2399V24.2532L13.8073 24.2319L10.4473 24.1999L10.4153 19.2079L10.3939 14.2266H13.7859H17.1672V19.2399ZM6.90596 23.5279C6.8633 24.3279 6.6073 24.5519 6.6073 23.7839C6.6073 22.9199 5.9033 22.8986 5.8393 23.7626C5.81797 23.9972 5.7433 24.1999 5.6793 24.2319C5.57264 24.2639 5.54064 24.0825 5.54064 23.5706V22.8666H6.23397H6.93796L6.90596 23.5279Z" fill="#F36DD4"/>
<path d="M9.76462 1.17067C9.64728 1.27733 9.59395 1.53333 9.59395 1.97066V2.59999H8.65529C8.06862 2.59999 7.67396 2.64266 7.58863 2.72799C7.50329 2.81332 7.46063 3.21866 7.46063 3.84799V4.82932L6.69263 4.86131L5.91397 4.89331L5.88197 6.72797L5.86063 8.5733H4.04731C2.36199 8.5733 2.23399 8.58396 2.12732 8.78663C2.05265 8.92529 2.02065 11.4853 2.02065 16.5946L2.03132 24.1999L1.60466 24.2319C1.08199 24.2745 0.889993 24.4665 1.06066 24.7759L1.17799 24.9999H11.8766C23.3325 24.9999 22.9059 25.0212 22.7992 24.4985C22.7779 24.3492 22.6499 24.2959 22.2552 24.2745L21.7539 24.2425V13.5866C21.7539 4.05065 21.7326 2.91999 21.5832 2.77066C21.4446 2.62132 20.9219 2.59999 17.5512 2.59999C14.5006 2.59999 13.6473 2.63199 13.5619 2.73866C13.4979 2.81332 13.4339 3.30399 13.4126 3.83732L13.3806 4.78665L12.9859 4.81865L12.5806 4.85065V3.89065C12.5806 2.64266 12.5379 2.59999 11.3433 2.59999H10.4473V1.97066C10.4473 1.36267 10.2873 1 10.0206 1C9.96728 1 9.84995 1.07467 9.76462 1.17067ZM11.7273 4.14665V4.83998L9.99928 4.81865L8.26062 4.78665L8.22862 4.11465L8.19662 3.45332H9.96728H11.7273V4.14665ZM20.9006 13.8533V24.2639L19.4392 24.2319L17.9672 24.1999L17.9352 18.6426C17.9139 13.9813 17.8926 13.0533 17.7646 12.9466C17.5726 12.7973 17.1672 12.9786 17.1672 13.2133C17.1672 13.3306 17.0392 13.3733 16.7406 13.3733C16.4526 13.3733 16.3139 13.3306 16.3139 13.2239C16.3139 13.1493 16.2499 13.0213 16.1646 12.9573C15.9726 12.7973 15.5673 12.9786 15.5673 13.2133C15.5673 13.3413 15.4073 13.3733 14.8739 13.3733H14.1806V8.4133V3.45332H17.5406H20.9006V13.8533ZM13.3273 9.42662C13.3273 11.5386 13.3273 13.2986 13.3273 13.3306C13.3273 13.3626 12.6766 13.3839 11.8766 13.3839H10.4259L10.4046 12.7439L10.3939 12.0933H11.0553C11.6846 12.0933 12.0473 11.9333 12.0473 11.6666C12.0473 11.3999 11.6846 11.2399 11.0553 11.2399H10.3939L10.4046 10.5786L10.4259 9.90662L11.1193 9.87462C11.9086 9.84262 12.1326 9.68262 11.9406 9.33063C11.8446 9.13863 11.7273 9.10663 11.1299 9.10663C10.4899 9.10663 10.4366 9.08529 10.3406 8.83996L10.2339 8.5733H8.42062H6.6073V7.07997V5.58664H9.96728H13.3273V9.42662ZM9.59395 16.7866V24.2639L8.66595 24.2319L7.72729 24.1999L7.69529 23.2506C7.67396 22.7172 7.60996 22.2266 7.54596 22.1519C7.38596 21.9599 5.08197 21.9599 4.92197 22.1519C4.85797 22.2266 4.79397 22.7172 4.77264 23.2506L4.74064 24.1999L3.81264 24.2319L2.87398 24.2639V16.7866V9.31996H6.23397H9.59395V16.7866ZM17.1672 19.2399V24.2532L13.8073 24.2319L10.4473 24.1999L10.4153 19.2079L10.3939 14.2266H13.7859H17.1672V19.2399ZM6.90596 23.5279C6.8633 24.3279 6.6073 24.5519 6.6073 23.7839C6.6073 22.9199 5.9033 22.8986 5.8393 23.7626C5.81797 23.9972 5.7433 24.1999 5.6793 24.2319C5.57264 24.2639 5.54064 24.0825 5.54064 23.5706V22.8666H6.23397H6.93796L6.90596 23.5279Z" stroke="#F36DD4" stroke-width="0.2" mask="url(#path-1-outside-1_3980_155336)"/>
<path d="M16.001 4.81179C16.1188 4.82787 16.2085 4.85126 16.2627 4.94575C16.2878 4.98943 16.3034 5.04501 16.3149 5.11409C16.3264 5.18356 16.3346 5.2709 16.3426 5.38032L16.3426 5.38032L16.3426 5.38109C16.3588 5.66115 16.3225 5.87647 16.2248 6.00723C16.1747 6.07421 16.109 6.11832 16.0292 6.13625C15.9505 6.15394 15.8618 6.14538 15.7656 6.11429C15.7192 6.09979 15.6777 6.0805 15.6428 6.0506C15.6074 6.02025 15.5817 5.98141 15.5632 5.93219C15.5276 5.83717 15.5174 5.69768 15.5174 5.49064C15.5174 5.35029 15.5255 5.21218 15.5391 5.10311C15.5459 5.04869 15.5542 5.00043 15.5639 4.9623C15.5688 4.94327 15.5742 4.92577 15.5804 4.91085C15.5862 4.89693 15.5944 4.8809 15.6067 4.86862C15.6256 4.84969 15.6525 4.83734 15.6784 4.82881C15.7057 4.81987 15.7376 4.81331 15.7718 4.80903C15.8402 4.80048 15.922 4.80052 16.001 4.81179ZM16.001 4.81179C16.001 4.8118 16.0011 4.8118 16.0011 4.81181L15.994 4.86131L16.0008 4.81177C16.0009 4.81178 16.0009 4.81178 16.001 4.81179Z" fill="#F36DD4" stroke="#F36DD4" stroke-width="0.1"/>
<path d="M17.8923 5.44798L17.9422 5.44465C17.9502 5.56498 17.9544 5.6614 17.9528 5.73913C17.9513 5.81651 17.9441 5.87851 17.9279 5.92868C17.9112 5.98038 17.8849 6.01934 17.847 6.04958C17.8105 6.07867 17.7657 6.09756 17.7161 6.11407L17.7161 6.11408L17.7152 6.11436C17.6238 6.14292 17.5386 6.14984 17.4619 6.1324C17.3845 6.1148 17.3191 6.07315 17.2672 6.01056C17.1652 5.88761 17.117 5.68636 17.117 5.42664C17.117 5.30205 17.1251 5.17969 17.1388 5.08234C17.1457 5.03376 17.154 4.99034 17.1639 4.95554C17.1688 4.93815 17.1743 4.92201 17.1806 4.90804C17.1866 4.89476 17.1948 4.88015 17.2063 4.86862C17.2252 4.84969 17.2521 4.83734 17.2781 4.82881C17.3053 4.81987 17.3372 4.81331 17.3715 4.80903C17.4398 4.80049 17.5215 4.80052 17.6004 4.81177M17.8923 5.44798L17.9422 5.44479C17.9342 5.3196 17.9268 5.22058 17.9162 5.14257C17.9057 5.06513 17.8915 5.00383 17.8677 4.95628C17.8427 4.90635 17.8079 4.87287 17.7605 4.8507C17.716 4.82984 17.662 4.81981 17.6004 4.81177M17.8923 5.44798C17.9243 5.92797 17.8923 6.00264 17.7003 6.06664C17.359 6.17331 17.167 5.93864 17.167 5.42664C17.167 5.18131 17.199 4.94664 17.2417 4.90398C17.2843 4.86131 17.4443 4.83998 17.5937 4.86131M17.8923 5.44798C17.8603 4.94664 17.839 4.89331 17.5937 4.86131M17.6004 4.81177C17.6003 4.81176 17.6002 4.81174 17.6001 4.81173L17.5937 4.86131M17.6004 4.81177C17.6005 4.81179 17.6006 4.8118 17.6007 4.81181L17.5937 4.86131" fill="#F36DD4" stroke="#F36DD4" stroke-width="0.1"/>
<path d="M18.7845 4.98276L18.7845 4.98276L18.785 4.98141C18.8404 4.84287 18.9998 4.78936 19.1893 4.81165L19.1894 4.81167C19.2552 4.81956 19.3127 4.82809 19.3586 4.84738C19.4084 4.86827 19.4445 4.90158 19.4678 4.95441C19.4896 5.00364 19.4996 5.06816 19.5049 5.15065C19.5101 5.23401 19.5108 5.34165 19.5108 5.47997C19.5108 5.71822 19.5032 5.87285 19.4726 5.97206C19.4567 6.0234 19.4336 6.06395 19.3989 6.09383C19.3645 6.12353 19.3233 6.13873 19.2786 6.14767C19.2156 6.16027 19.1435 6.15357 19.0775 6.13635C19.0113 6.11907 18.9463 6.08997 18.8975 6.0533L18.8974 6.0534L18.8947 6.05109C18.8447 6.00772 18.8078 5.93695 18.7811 5.85738C18.7539 5.77641 18.7353 5.68018 18.7257 5.57938C18.7066 5.37873 18.7225 5.152 18.7845 4.98276ZM19.4608 5.47997C19.4608 4.92531 19.4501 4.89331 19.1835 4.86131L18.8315 4.99998C18.7141 5.31997 18.7675 5.87464 18.9275 6.0133C19.0128 6.0773 19.1621 6.11997 19.2688 6.09864C19.4288 6.06664 19.4608 5.95997 19.4608 5.47997Z" fill="#F36DD4" stroke="#F36DD4" stroke-width="0.1"/>
<path d="M15.5389 8.268C15.5281 8.13807 15.5254 8.00279 15.5294 7.89015C15.5315 7.83383 15.5352 7.78258 15.5406 7.74013C15.5458 7.69977 15.5529 7.663 15.5636 7.6375C15.5888 7.57021 15.6458 7.52506 15.71 7.49778C15.7748 7.47023 15.8519 7.45849 15.9275 7.46065C16.0032 7.46281 16.0806 7.47899 16.1461 7.51036C16.2115 7.54161 16.269 7.59007 16.2965 7.65872L16.2965 7.65872L16.2966 7.65907C16.3484 7.79141 16.3668 8.00502 16.36 8.20167C16.3566 8.30098 16.3468 8.39832 16.3307 8.48176C16.3151 8.56218 16.2929 8.6352 16.2613 8.68384C16.2302 8.74311 16.1644 8.77998 16.0977 8.79987C16.0279 8.82067 15.9458 8.82646 15.8694 8.81475C15.7549 8.79837 15.6695 8.77154 15.6172 8.67925C15.5931 8.63656 15.5778 8.58297 15.5665 8.51732C15.555 8.45137 15.5469 8.36941 15.5389 8.268ZM15.5389 8.268C15.5389 8.26796 15.5389 8.26793 15.5389 8.26789L15.5887 8.26395L15.5389 8.26811C15.5389 8.26807 15.5389 8.26803 15.5389 8.268Z" fill="#F36DD4" stroke="#F36DD4" stroke-width="0.1"/>
<path d="M17.1633 7.62773L17.1633 7.62776C17.1532 7.65485 17.146 7.69303 17.1407 7.73587C17.1353 7.7797 17.1316 7.83188 17.1295 7.88886C17.1255 8.00276 17.1282 8.13798 17.139 8.26788M17.1633 7.62773L17.139 8.26813C17.139 8.26804 17.139 8.26796 17.139 8.26788M17.1633 7.62773L17.1645 7.62501M17.1633 7.62773L17.1645 7.62501M17.139 8.26788C17.147 8.37678 17.1544 8.46309 17.1661 8.53034M17.139 8.26788L17.1661 8.53034M17.1645 7.62501C17.1929 7.56115 17.2485 7.51849 17.3184 7.49521C17.3875 7.47217 17.4727 7.46712 17.5679 7.4783C17.6385 7.48615 17.6994 7.49393 17.7477 7.51175C17.7997 7.53099 17.8389 7.5625 17.8645 7.61555C17.8883 7.66473 17.899 7.72962 17.9046 7.81263C17.9102 7.89662 17.9108 8.00571 17.9108 8.14664V8.14851C17.9108 8.29094 17.9108 8.40083 17.9057 8.48435C17.9007 8.56682 17.8905 8.63185 17.8649 8.67959C17.8365 8.73259 17.7924 8.75906 17.7367 8.77145C17.6852 8.78289 17.619 8.78331 17.5408 8.78331C17.4666 8.78331 17.4041 8.78147 17.3535 8.7703M17.1645 7.62501L17.3535 8.7703M17.3535 8.7703C17.3007 8.75862 17.2571 8.73594 17.2247 8.6925M17.3535 8.7703L17.2247 8.6925M17.2247 8.6925C17.1942 8.65153 17.1776 8.59701 17.1661 8.53034M17.2247 8.6925L17.1661 8.53034" fill="#F36DD4" stroke="#F36DD4" stroke-width="0.1"/>
<path d="M18.8972 8.71996L18.8972 8.72001L18.8952 8.71837C18.8355 8.66859 18.7947 8.58263 18.7677 8.4884C18.7401 8.39226 18.7247 8.27935 18.7212 8.16682C18.7178 8.05427 18.7263 7.94008 18.7479 7.84131C18.769 7.7443 18.8043 7.65485 18.8599 7.59928C18.9054 7.55374 18.9729 7.52123 19.0412 7.5013C19.1102 7.48118 19.1859 7.47218 19.2517 7.47817L19.2518 7.478L19.2559 7.47873C19.3039 7.4872 19.3486 7.50019 19.3861 7.52693C19.4248 7.55458 19.4512 7.59344 19.4691 7.64485C19.4866 7.69501 19.4966 7.75881 19.5026 7.83928C19.5086 7.9202 19.5106 8.02104 19.5106 8.14663C19.5106 8.38488 19.503 8.53951 19.4723 8.63872C19.4565 8.69006 19.4333 8.73061 19.3987 8.76049C19.3643 8.79018 19.323 8.80539 19.2784 8.81432C19.2153 8.82693 19.1433 8.82023 19.0773 8.80301C19.011 8.78573 18.9461 8.75663 18.8972 8.71996Z" fill="#F36DD4" stroke="#F36DD4" stroke-width="0.1"/>
<path d="M15.5484 10.457C15.5659 10.3534 15.6005 10.2656 15.6693 10.2264C15.7702 10.1621 15.8677 10.1296 15.9579 10.1323C16.0499 10.1351 16.1292 10.1745 16.191 10.2441C16.3115 10.3796 16.3638 10.6263 16.3422 10.9447L16.3422 10.9447L16.3422 10.945C16.3342 11.0514 16.3268 11.1358 16.3151 11.2017C16.3035 11.267 16.2868 11.3206 16.2561 11.3609C16.2237 11.4036 16.1801 11.4257 16.1275 11.4372C16.077 11.4481 16.0146 11.45 15.9403 11.45C15.8641 11.45 15.7999 11.4488 15.7487 11.4376C15.6944 11.4258 15.6503 11.4017 15.6187 11.3544C15.5895 11.3105 15.5744 11.2514 15.5638 11.1775C15.5532 11.1027 15.5464 11.0053 15.5384 10.8805L15.5384 10.8804C15.5277 10.7083 15.5301 10.5652 15.5484 10.457Z" fill="#F36DD4" stroke="#F36DD4" stroke-width="0.1"/>
<path d="M17.1388 10.9452C17.1278 10.8134 17.1332 10.6762 17.1512 10.5603C17.1602 10.5023 17.1724 10.4487 17.1877 10.4033C17.2025 10.3596 17.2213 10.3197 17.2457 10.2912C17.2824 10.2427 17.3328 10.2017 17.3838 10.1726C17.4343 10.1437 17.4911 10.1233 17.5406 10.1233C17.6884 10.1233 17.7991 10.215 17.866 10.3604C17.9322 10.5042 17.9588 10.7055 17.9425 10.9447L17.9425 10.9447L17.9425 10.945C17.9345 11.0514 17.927 11.1358 17.9153 11.2017C17.9038 11.267 17.8871 11.3206 17.8564 11.3609C17.8239 11.4036 17.7803 11.4257 17.7277 11.4372C17.6773 11.4481 17.6148 11.45 17.5406 11.45C17.4664 11.45 17.4039 11.4481 17.3535 11.4372C17.3009 11.4257 17.2573 11.4036 17.2248 11.3609C17.1941 11.3206 17.1774 11.267 17.1659 11.2017C17.1542 11.1359 17.1467 11.0515 17.1388 10.9452ZM17.1388 10.9452C17.1388 10.9453 17.1388 10.9454 17.1388 10.9455L17.1886 10.9413M17.1388 10.9452C17.1387 10.9452 17.1387 10.9451 17.1387 10.945L17.1886 10.9413M17.1886 10.9413C17.1673 10.6853 17.2099 10.408 17.2846 10.3226L17.8926 10.9413C17.8606 11.368 17.8393 11.4 17.5406 11.4C17.2419 11.4 17.2206 11.368 17.1886 10.9413Z" fill="#F36DD4" stroke="#F36DD4" stroke-width="0.1"/>
<path d="M19.252 10.1448L19.252 10.1446L19.2561 10.1454C19.3041 10.1539 19.3488 10.1668 19.3863 10.1936C19.4251 10.2212 19.4514 10.2601 19.4693 10.3115C19.4868 10.3617 19.4968 10.4255 19.5028 10.5059C19.5088 10.5868 19.5108 10.6877 19.5108 10.8133C19.5108 10.9465 19.5094 11.0515 19.5036 11.134C19.4979 11.2157 19.4875 11.28 19.467 11.3297C19.4454 11.382 19.4128 11.4177 19.3665 11.4413C19.3233 11.4633 19.2707 11.4734 19.2119 11.4814C19.1356 11.4931 19.0536 11.4873 18.9838 11.4665C18.917 11.4466 18.8511 11.4097 18.8201 11.3503C18.7805 11.2883 18.7549 11.1998 18.7396 11.1042C18.7238 11.0062 18.718 10.8957 18.7215 10.7877C18.7249 10.6798 18.7375 10.573 18.7593 10.4826C18.7806 10.3945 18.8125 10.3135 18.8601 10.2659C18.9056 10.2204 18.9731 10.1879 19.0414 10.1679C19.1104 10.1478 19.1861 10.1388 19.252 10.1448Z" fill="#F36DD4" stroke="#F36DD4" stroke-width="0.1"/>
<path d="M18.9464 14.1642L18.9464 14.1642L18.9461 14.164C18.8603 14.1178 18.802 14.022 18.7648 13.9141C18.727 13.8044 18.7078 13.6732 18.7064 13.5431C18.7051 13.413 18.7215 13.2812 18.7572 13.1702C18.7922 13.0611 18.8485 12.9637 18.9334 12.9144C18.9489 12.9048 18.9634 12.8958 18.9768 12.8874C19.0104 12.8663 19.0378 12.8492 19.0605 12.8364C19.0925 12.8183 19.1215 12.8049 19.1529 12.801C19.1852 12.797 19.2144 12.8037 19.2449 12.8138C19.2616 12.8194 19.2819 12.8272 19.3054 12.8362C19.3221 12.8427 19.3405 12.8497 19.3604 12.857L19.3604 12.857L19.3623 12.8578C19.4451 12.8923 19.4955 12.9614 19.5247 13.0696C19.5532 13.1752 19.5638 13.325 19.5638 13.5333C19.5638 13.6897 19.5537 13.8202 19.5317 13.9247C19.5098 14.0287 19.4752 14.1118 19.4224 14.1686C19.3675 14.2276 19.2969 14.2541 19.2147 14.2507C19.135 14.2475 19.0453 14.2164 18.9464 14.1642Z" fill="#F36DD4" stroke="#F36DD4" stroke-width="0.1"/>
<path d="M18.7845 15.756L18.7845 15.756L18.785 15.7547C18.8404 15.6162 18.9998 15.5626 19.1893 15.5849L19.1894 15.585C19.2552 15.5928 19.3127 15.6014 19.3586 15.6207C19.4084 15.6416 19.4445 15.6749 19.4678 15.7277C19.4896 15.7769 19.4996 15.8414 19.5049 15.9239C19.5101 16.0073 19.5108 16.1149 19.5108 16.2533C19.5108 16.4915 19.5032 16.6461 19.4726 16.7453C19.4567 16.7967 19.4336 16.8372 19.3989 16.8671C19.3645 16.8968 19.3233 16.912 19.2786 16.921C19.2156 16.9336 19.1435 16.9269 19.0775 16.9096C19.0113 16.8924 18.9463 16.8633 18.8975 16.8266L18.8974 16.8267L18.8947 16.8244C18.8447 16.781 18.8078 16.7102 18.7811 16.6307C18.7539 16.5497 18.7353 16.4535 18.7257 16.3527C18.7066 16.152 18.7225 15.9253 18.7845 15.756ZM19.4608 16.2533C19.4608 15.6986 19.4501 15.6666 19.1835 15.6346L18.8315 15.7733C18.7141 16.0933 18.7675 16.6479 18.9275 16.7866C19.0128 16.8506 19.1621 16.8933 19.2688 16.8719C19.4288 16.8399 19.4608 16.7333 19.4608 16.2533Z" fill="#F36DD4" stroke="#F36DD4" stroke-width="0.1"/>
<path d="M19.252 18.2514L19.252 18.2513L19.2561 18.252C19.3041 18.2605 19.3488 18.2735 19.3863 18.3002C19.4251 18.3279 19.4514 18.3667 19.4693 18.4181C19.4868 18.4683 19.4968 18.5321 19.5028 18.6126C19.5088 18.6935 19.5108 18.7943 19.5108 18.9199C19.5108 19.0532 19.5094 19.1581 19.5036 19.2406C19.4979 19.3224 19.4875 19.3866 19.467 19.4363C19.4454 19.4886 19.4128 19.5244 19.3665 19.548C19.3233 19.5699 19.2707 19.58 19.2119 19.5881C19.1356 19.5997 19.0536 19.5939 18.9838 19.5732C18.917 19.5532 18.8511 19.5163 18.8201 19.4569C18.7805 19.3949 18.7549 19.3064 18.7396 19.2108C18.7238 19.1129 18.718 19.0023 18.7215 18.8943C18.7249 18.7864 18.7375 18.6796 18.7593 18.5892C18.7806 18.5011 18.8125 18.4202 18.8601 18.3726C18.9056 18.327 18.9731 18.2945 19.0414 18.2746C19.1104 18.2545 19.1861 18.2455 19.252 18.2514Z" fill="#F36DD4" stroke="#F36DD4" stroke-width="0.1"/>
<path d="M19.3584 22.2586L19.3584 22.2587L19.3565 22.2597C19.2679 22.3083 19.1818 22.3312 19.1014 22.3261C19.0203 22.321 18.9488 22.2875 18.8906 22.2302C18.7765 22.1176 18.7171 21.917 18.7171 21.6612C18.7171 21.5301 18.7307 21.3985 18.7542 21.2894C18.7659 21.2348 18.7803 21.1849 18.7972 21.1431C18.8137 21.1021 18.8341 21.0649 18.8597 21.0392C18.9356 20.9634 18.9992 20.9152 19.0809 20.905C19.1588 20.8952 19.2448 20.9216 19.3602 20.9636L19.3602 20.9636L19.3613 20.964C19.4053 20.9812 19.4393 21.016 19.4653 21.057C19.4915 21.0982 19.5119 21.1491 19.5276 21.2049C19.5589 21.3166 19.5731 21.4552 19.5718 21.5937C19.5704 21.7324 19.5533 21.8739 19.5202 21.9916C19.5036 22.0505 19.4827 22.1047 19.4568 22.15C19.4311 22.195 19.3988 22.234 19.3584 22.2586Z" fill="#F36DD4" stroke="#F36DD4" stroke-width="0.1"/>
<path d="M7.99937 7.17179L7.99937 7.17179L7.99943 7.17158C8.0164 7.11786 8.03817 7.06531 8.09756 7.02609C8.15285 6.98957 8.23523 6.9684 8.36156 6.95428C8.61576 6.92589 9.08349 6.92331 9.9671 6.92331C10.8034 6.92331 11.273 6.92858 11.5454 6.95555C11.6813 6.96901 11.7733 6.98826 11.8386 7.01773C11.9074 7.04871 11.9449 7.09019 11.9733 7.14079L11.9737 7.14136C12.0458 7.27362 12.0458 7.43032 11.9737 7.56258L11.9737 7.5626L11.9726 7.56436C11.9434 7.61312 11.904 7.65179 11.8355 7.68057C11.7699 7.70809 11.6785 7.72629 11.5452 7.73908C11.2783 7.76469 10.8248 7.76997 10.0311 7.76997C9.55111 7.76997 9.1768 7.76664 8.88794 7.75409C8.59991 7.74157 8.39321 7.71979 8.25021 7.68161C8.10794 7.64363 8.01561 7.58585 7.97769 7.49104C7.94151 7.40059 7.96209 7.2916 7.99937 7.17179Z" fill="#F36DD4" stroke="#F36DD4" stroke-width="0.1"/>
<path d="M4.21074 11.8799C4.21074 11.7229 4.22423 11.5853 4.24949 11.4815C4.26209 11.4297 4.2781 11.3842 4.29812 11.3485C4.31744 11.314 4.34399 11.2824 4.3808 11.2682C4.59115 11.1798 4.76932 11.1834 4.89166 11.3122C5.00734 11.434 5.05741 11.6544 5.05741 11.9546C5.05741 12.1315 5.04428 12.2597 5.00583 12.3558C4.96586 12.4558 4.90011 12.5174 4.80632 12.5644C4.71649 12.612 4.63169 12.6361 4.55403 12.6303C4.47424 12.6244 4.40727 12.5873 4.35531 12.5235C4.30451 12.4612 4.26881 12.3745 4.24556 12.2681C4.22222 12.1613 4.21074 12.0315 4.21074 11.8799Z" fill="#F36DD4" stroke="#F36DD4" stroke-width="0.1"/>
<path d="M6.02946 12.5537L6.02946 12.5537L6.02919 12.5536C5.95492 12.5146 5.90503 12.4246 5.87198 12.3258C5.83786 12.2238 5.81731 12.0991 5.81047 11.9733C5.80362 11.8474 5.81039 11.7178 5.83232 11.6057C5.85387 11.4956 5.89159 11.394 5.95304 11.3326C5.99431 11.2913 6.04393 11.2563 6.09216 11.2315C6.13922 11.2072 6.19021 11.1899 6.23373 11.1899C6.37433 11.1899 6.48249 11.2715 6.55272 11.4061C6.62195 11.5388 6.65706 11.7266 6.65706 11.9546C6.65706 12.2099 6.60051 12.4079 6.48908 12.5193C6.43225 12.5761 6.36209 12.6092 6.28213 12.615C6.20307 12.6206 6.11786 12.5993 6.02946 12.5537Z" fill="#F36DD4" stroke="#F36DD4" stroke-width="0.1"/>
<path d="M7.62956 12.5537L7.62956 12.5537L7.62929 12.5536C7.55501 12.5146 7.50513 12.4246 7.47207 12.3258C7.43796 12.2238 7.4174 12.0991 7.41057 11.9733C7.40372 11.8474 7.41048 11.7178 7.43242 11.6057C7.45396 11.4956 7.49169 11.394 7.55314 11.3326C7.5944 11.2913 7.64402 11.2563 7.69226 11.2315C7.73931 11.2072 7.79031 11.1899 7.83382 11.1899C7.97443 11.1899 8.08258 11.2715 8.15282 11.4061C8.22205 11.5388 8.25716 11.7266 8.25716 11.9546C8.25716 12.2099 8.2006 12.4079 8.08918 12.5193C8.03234 12.5761 7.96219 12.6092 7.88223 12.615C7.80317 12.6206 7.71795 12.5993 7.62956 12.5537Z" fill="#F36DD4" stroke="#F36DD4" stroke-width="0.1"/>
<path d="M5.83232 14.6467C5.81622 14.4746 5.81825 14.3426 5.84436 14.2396C5.87109 14.1342 5.92295 14.0598 6.00246 14.0045C6.08786 13.942 6.17336 13.9083 6.25528 13.9063C6.33851 13.9043 6.41306 13.9353 6.4739 13.993C6.59279 14.1058 6.65748 14.3176 6.65748 14.5893C6.65748 14.8188 6.61522 14.9989 6.54718 15.1253C6.47944 15.2511 6.38229 15.3293 6.27265 15.3378C6.16205 15.3463 6.0581 15.2824 5.98083 15.1659C5.90361 15.0495 5.84875 14.8758 5.83232 14.6467Z" fill="#F36DD4" stroke="#F36DD4" stroke-width="0.1"/>
<path d="M7.61659 13.9807L7.61658 13.9807L7.61784 13.98C7.71116 13.9291 7.80015 13.9045 7.8822 13.9104C7.96565 13.9164 8.03713 13.9537 8.09379 14.0174C8.20394 14.1411 8.25711 14.3626 8.25711 14.6533C8.25711 14.8656 8.24689 15.0077 8.21135 15.1039C8.19294 15.1538 8.16725 15.193 8.13178 15.2236C8.09678 15.2538 8.05511 15.2731 8.00869 15.2877C7.91731 15.3162 7.83206 15.3231 7.75525 15.3055C7.67773 15.2877 7.61231 15.2456 7.56044 15.1823C7.45862 15.058 7.41045 14.8541 7.41045 14.5893C7.41045 14.4273 7.42383 14.2987 7.45548 14.1994C7.48754 14.0989 7.53929 14.0258 7.61659 13.9807Z" fill="#F36DD4" stroke="#F36DD4" stroke-width="0.1"/>
<path d="M4.88023 15.2245L4.88015 15.2244C4.93019 15.181 4.9671 15.1103 4.9938 15.0309C5.02096 14.9501 5.03957 14.8542 5.04918 14.7541C5.06828 14.5549 5.05247 14.3305 4.99019 14.1663C4.99018 14.1663 4.99017 14.1662 4.99016 14.1662L4.94341 14.1839C4.87941 14.0133 4.46341 13.9493 4.33541 14.0879L4.88023 15.2245ZM4.88023 15.2245L4.87741 15.2266C4.82677 15.2646 4.75728 15.291 4.68464 15.3026C4.61184 15.3143 4.53168 15.3117 4.45872 15.2875C4.41247 15.273 4.37104 15.2538 4.3362 15.2239C4.30079 15.1936 4.27505 15.1547 4.25659 15.1055C4.22096 15.0105 4.21074 14.871 4.21074 14.6639C4.21074 14.5236 4.21883 14.3855 4.23247 14.2777C4.23927 14.2239 4.24761 14.1765 4.25742 14.1396C4.26231 14.1212 4.2679 14.1042 4.27444 14.0898C4.27974 14.0782 4.28796 14.0629 4.3011 14.0514L4.88023 15.2245Z" fill="#F36DD4" stroke="#F36DD4" stroke-width="0.1"/>
<path d="M4.21074 17.3413C4.21074 17.1957 4.21882 17.0549 4.23246 16.9457C4.23926 16.8913 4.2476 16.8435 4.25741 16.8065C4.26229 16.788 4.26788 16.7709 4.27443 16.7565C4.27971 16.7449 4.28791 16.7297 4.30099 16.7182C4.376 16.6389 4.50148 16.6189 4.61547 16.6344C4.73213 16.6502 4.85446 16.7051 4.92865 16.7974C4.98256 16.8612 5.01368 16.9565 5.02933 17.0587C5.04525 17.1626 5.04616 17.2803 5.03448 17.3943C5.0228 17.5084 4.99833 17.6209 4.96221 17.7143C4.92701 17.8053 4.87744 17.8868 4.80987 17.9277C4.72326 17.9835 4.64067 18.0154 4.56405 18.0182C4.48509 18.0211 4.41635 17.9927 4.36195 17.9358C4.30902 17.8805 4.2717 17.8006 4.24737 17.7023C4.22293 17.6035 4.21074 17.4825 4.21074 17.3413Z" fill="#F36DD4" stroke="#F36DD4" stroke-width="0.1"/>
<path d="M6.29428 16.6517C6.35534 16.6597 6.40907 16.669 6.45274 16.6881C6.49949 16.7086 6.53438 16.7401 6.55787 16.7889C6.57999 16.8347 6.59088 16.8936 6.59684 16.9672C6.60286 17.0415 6.60417 17.136 6.60417 17.2559C6.60417 17.5362 6.55618 17.7504 6.45628 17.8786C6.40523 17.9442 6.34037 17.9874 6.26304 18.0038C6.18651 18.02 6.1024 18.009 6.01346 17.9745L6.01345 17.9746L6.01227 17.9741C5.93079 17.9401 5.87985 17.875 5.85015 17.7725C5.82135 17.6731 5.81084 17.5336 5.81084 17.3412C5.81084 17.1956 5.81892 17.0549 5.83255 16.9445C5.83935 16.8894 5.84766 16.8408 5.85737 16.8025C5.86222 16.7833 5.86766 16.7658 5.87387 16.7508C5.87967 16.7369 5.88787 16.7208 5.90015 16.7086C5.91908 16.6896 5.94594 16.6773 5.9719 16.6687C5.99911 16.6598 6.03109 16.6532 6.0653 16.649C6.13365 16.6404 6.21532 16.6405 6.29428 16.6517ZM6.29428 16.6517C6.29417 16.6517 6.29407 16.6517 6.29397 16.6517L6.2875 16.7012M6.29428 16.6517C6.29438 16.6517 6.29448 16.6517 6.29458 16.6517L6.2875 16.7012M6.2875 16.7012C6.53284 16.7332 6.55417 16.7759 6.55417 17.2559C6.55417 17.8106 6.36217 18.0559 6.03151 17.9279C5.90351 17.8746 5.86084 17.7252 5.86084 17.3412C5.86084 17.0532 5.89284 16.7866 5.93551 16.7439C5.97817 16.7012 6.13817 16.6799 6.2875 16.7012Z" fill="#F36DD4" stroke="#F36DD4" stroke-width="0.1"/>
<path d="M7.89388 16.6517C7.95478 16.6597 8.00915 16.669 8.05339 16.6896C8.10109 16.7118 8.13548 16.7462 8.15829 16.7986C8.17981 16.848 8.19056 16.9124 8.19648 16.9947C8.20246 17.0777 8.20378 17.184 8.20378 17.3199C8.20378 17.5582 8.19619 17.7128 8.16555 17.812C8.1497 17.8633 8.12658 17.9039 8.09194 17.9338C8.05752 17.9635 8.01627 17.9787 7.97159 17.9876C7.88467 18.005 7.80402 18.002 7.73195 17.9768C7.6596 17.9515 7.59902 17.9049 7.551 17.8404C7.45622 17.7131 7.41045 17.5161 7.41045 17.2666C7.41045 17.142 7.41856 17.0196 7.43227 16.9223C7.43911 16.8737 7.4475 16.8303 7.45733 16.7955C7.46225 16.7781 7.46778 16.7619 7.47409 16.748C7.48009 16.7347 7.48824 16.7201 7.49976 16.7086C7.51869 16.6896 7.54555 16.6773 7.57151 16.6687C7.59872 16.6598 7.6307 16.6532 7.66491 16.649C7.73326 16.6404 7.81493 16.6405 7.89388 16.6517ZM7.89388 16.6517C7.89378 16.6517 7.89368 16.6517 7.89358 16.6517L7.88711 16.7012L7.89418 16.6518C7.89408 16.6517 7.89398 16.6517 7.89388 16.6517Z" fill="#F36DD4" stroke="#F36DD4" stroke-width="0.1"/>
<path d="M4.30343 19.4959L4.25719 19.4769C4.3051 19.3605 4.43043 19.3076 4.55366 19.3033C4.67858 19.2989 4.81813 19.3426 4.91478 19.4392C4.96239 19.4868 4.99428 19.5678 5.01553 19.6559C5.03735 19.7463 5.04999 19.8531 5.0534 19.961C5.05682 20.069 5.05104 20.1795 5.03529 20.2775C5.01993 20.3731 4.99432 20.4616 4.9548 20.5236C4.92374 20.583 4.85789 20.6199 4.79103 20.6398C4.72122 20.6606 4.63918 20.6664 4.56276 20.6547C4.44827 20.6383 4.36282 20.6115 4.31058 20.5192C4.28642 20.4765 4.2712 20.4229 4.25983 20.3573C4.2484 20.2913 4.24027 20.2094 4.23226 20.108C4.22144 19.978 4.21872 19.8428 4.22279 19.7301C4.22483 19.6738 4.22858 19.6225 4.234 19.5801C4.23923 19.5391 4.24653 19.5018 4.25747 19.4762L4.30343 19.4959ZM4.30343 19.4959C4.37809 19.3146 4.70876 19.3039 4.87943 19.4746C5.02876 19.6239 5.05009 20.2853 4.91143 20.4986M4.30343 19.4959C4.27143 19.5706 4.26076 19.8479 4.28209 20.1039L4.91143 20.4986M4.91143 20.4986C4.86876 20.5839 4.70876 20.6266 4.57009 20.6053L4.91143 20.4986Z" fill="#F36DD4" stroke="#F36DD4" stroke-width="0.1"/>
<path d="M5.84184 19.6303C5.85932 19.5267 5.89393 19.4389 5.96274 19.3997C6.06369 19.3354 6.16115 19.3029 6.25131 19.3056C6.34334 19.3084 6.42268 19.3478 6.48451 19.4174C6.60494 19.5528 6.65727 19.7996 6.63569 20.118L6.63569 20.118L6.63566 20.1183C6.62769 20.2247 6.62021 20.3091 6.60853 20.375C6.59697 20.4402 6.58028 20.4939 6.54959 20.5342C6.51714 20.5768 6.47352 20.599 6.42092 20.6104C6.37047 20.6214 6.30805 20.6232 6.2338 20.6232C6.15755 20.6232 6.09334 20.6221 6.04213 20.6109C5.98786 20.5991 5.94377 20.575 5.9122 20.5276C5.88298 20.4838 5.86783 20.4246 5.85731 20.3508C5.84664 20.276 5.83987 20.1786 5.83191 20.0538L5.8319 20.0537C5.82114 19.8815 5.82357 19.7385 5.84184 19.6303Z" fill="#F36DD4" stroke="#F36DD4" stroke-width="0.1"/>
<path d="M7.43221 20.1185C7.42124 19.9867 7.4267 19.8495 7.44464 19.7336C7.45362 19.6756 7.46586 19.622 7.48118 19.5766C7.49606 19.5325 7.5151 19.4923 7.53979 19.4637C7.61414 19.3724 7.69947 19.3148 7.79911 19.3036C7.89765 19.2924 7.99976 19.3279 8.10585 19.4001C8.17418 19.4395 8.2086 19.5271 8.22602 19.6303C8.24429 19.7385 8.24671 19.8815 8.23595 20.0537L8.23595 20.0538C8.22798 20.1786 8.22121 20.276 8.21055 20.3508C8.20003 20.4246 8.18488 20.4838 8.15565 20.5276C8.12408 20.575 8.07999 20.5991 8.02573 20.6109C7.97452 20.6221 7.9103 20.6232 7.83405 20.6232C7.75981 20.6232 7.69739 20.6214 7.64694 20.6104C7.59434 20.599 7.55072 20.5768 7.51826 20.5342C7.48758 20.4939 7.47089 20.4402 7.45932 20.375C7.44766 20.3092 7.44018 20.2248 7.43221 20.1185ZM7.43221 20.1185C7.43222 20.1186 7.43222 20.1187 7.43223 20.1187L7.48205 20.1146M7.43221 20.1185C7.4322 20.1185 7.4322 20.1184 7.43219 20.1183L7.48205 20.1146M7.48205 20.1146C7.46072 19.8586 7.50339 19.5812 7.57805 19.4959M7.48205 20.1146L7.57805 19.4959M7.57805 19.4959C7.71672 19.3252 7.87672 19.3039 8.07938 19.4426C8.17538 19.4959 8.20738 19.7092 8.18605 20.0506L7.57805 19.4959Z" fill="#F36DD4" stroke="#F36DD4" stroke-width="0.1"/>
<path d="M11.6771 19.1972C11.6771 17.7679 11.685 16.7939 11.7051 16.165C11.7151 15.8507 11.7281 15.6215 11.7448 15.4645C11.7532 15.3861 11.7626 15.3243 11.7733 15.2783C11.7787 15.2553 11.7846 15.2351 11.7915 15.2183C11.798 15.2022 11.8068 15.1855 11.8197 15.1726C11.8625 15.1298 11.9189 15.0945 11.9768 15.0699C12.0346 15.0454 12.0973 15.0299 12.1537 15.0299C12.2583 15.0299 12.3597 15.0375 12.4351 15.1327C12.4707 15.1777 12.498 15.2392 12.5198 15.3207C12.5417 15.4024 12.559 15.5072 12.5728 15.6415C12.6278 16.1768 12.6304 17.2097 12.6304 19.1972C12.6304 20.8822 12.6251 21.8567 12.601 22.4273C12.589 22.7123 12.5722 22.8991 12.5485 23.024C12.5251 23.1473 12.4936 23.2189 12.4449 23.2647C12.3443 23.3705 12.254 23.4392 12.1537 23.4392C12.0534 23.4392 11.9631 23.3705 11.8625 23.2647C11.8139 23.2189 11.7823 23.1473 11.7589 23.024C11.7352 22.8991 11.7184 22.7123 11.7064 22.4273C11.6824 21.8567 11.6771 20.8822 11.6771 19.1972Z" fill="#F36DD4" stroke="#F36DD4" stroke-width="0.1"/>
<path d="M13.3897 15.2594L13.3896 15.2594L13.3904 15.258C13.4707 15.1159 13.6362 15.0438 13.7889 15.0366C13.9401 15.0295 14.1033 15.086 14.1629 15.2316L14.163 15.2316L14.1641 15.2348C14.1681 15.2469 14.1705 15.2652 14.1723 15.2832C14.1744 15.3032 14.1765 15.3295 14.1785 15.3612C14.1824 15.4248 14.1863 15.5124 14.1901 15.621C14.1976 15.8383 14.2046 16.141 14.2106 16.5071C14.2226 17.2394 14.2306 18.2263 14.2306 19.2932C14.2306 21.1591 14.228 22.1341 14.2012 22.6558C14.1879 22.9155 14.1685 23.0681 14.1383 23.1633C14.1229 23.2119 14.104 23.248 14.0798 23.2763C14.0556 23.3047 14.0285 23.3223 14.0022 23.3369L14.0023 23.337L14.0003 23.3379C13.853 23.4116 13.7094 23.4266 13.5894 23.3767C13.4689 23.3266 13.3832 23.2156 13.343 23.0608C13.3342 23.0287 13.3273 22.9714 13.3213 22.8968C13.3151 22.8203 13.3096 22.7212 13.3047 22.603C13.2948 22.3665 13.2873 22.0522 13.282 21.6868C13.2713 20.9558 13.2693 20.0191 13.2746 19.0889C13.28 18.1587 13.2926 17.2347 13.3113 16.5291C13.3206 16.1763 13.3315 15.8778 13.3437 15.6603C13.3498 15.5516 13.3563 15.4625 13.3631 15.3968C13.3665 15.364 13.3701 15.3364 13.3739 15.3147C13.3773 15.2953 13.3819 15.2742 13.3897 15.2594Z" fill="#F36DD4" stroke="#F36DD4" stroke-width="0.1"/>
<path d="M15.1727 23.3426L15.1727 23.3426L15.1718 23.3419C15.1214 23.2987 15.0893 23.2301 15.0656 23.1081C15.0418 22.9855 15.0251 22.7996 15.0131 22.5113C14.989 21.934 14.9837 20.9355 14.9837 19.1866C14.9837 18.0984 14.9917 17.0981 15.005 16.3644C15.0117 15.9975 15.0197 15.6971 15.0287 15.4855C15.0332 15.3798 15.038 15.2957 15.0431 15.2364C15.0456 15.2069 15.0482 15.1826 15.0511 15.1646C15.0525 15.1557 15.0542 15.1472 15.0562 15.1398C15.0572 15.1362 15.0586 15.1318 15.0605 15.1274C15.062 15.1239 15.0657 15.1159 15.073 15.1086C15.0919 15.0896 15.1188 15.0773 15.1447 15.0688C15.172 15.0598 15.2039 15.0533 15.2382 15.049C15.3064 15.0405 15.388 15.0405 15.4669 15.0517C15.4671 15.0517 15.4672 15.0517 15.4674 15.0518L15.733 15.0836L15.777 15.0889V15.1333V19.1759C15.777 21.0047 15.7717 22.0194 15.7463 22.5888C15.7336 22.8729 15.7159 23.0495 15.6903 23.162C15.6646 23.2746 15.6289 23.3332 15.5725 23.3675C15.5034 23.4133 15.4367 23.4375 15.3674 23.4324C15.2983 23.4274 15.2353 23.3938 15.1727 23.3426Z" fill="#F36DD4" stroke="#F36DD4" stroke-width="0.1"/>
</svg>
