<svg width="26" height="26" viewBox="0 0 26 26" fill="none" xmlns="http://www.w3.org/2000/svg">
<path d="M12.7715 1.11527L12.7715 1.11531L13.5695 1.91342C13.6745 1.80836 13.7349 1.66284 13.7349 1.51435C13.7349 1.36586 13.6746 1.22034 13.5695 1.11527L13.5695 1.11527C13.4646 1.01039 13.3191 0.95 13.1706 0.95C13.022 0.95 12.8766 1.01019 12.7715 1.11527Z" fill="#F36DD4" stroke="#F36DD4" stroke-width="0.1"/>
<path d="M12.7715 2.6583L12.7715 2.65834L13.5695 3.45645C13.6745 3.35139 13.7349 3.20587 13.7349 3.05738C13.7349 2.90889 13.6746 2.76337 13.5695 2.6583L13.5695 2.6583C13.4646 2.55342 13.3191 2.49303 13.1706 2.49303C13.022 2.49303 12.8766 2.55322 12.7715 2.6583Z" fill="#F36DD4" stroke="#F36DD4" stroke-width="0.1"/>
<path d="M12.7715 4.20158L12.7715 4.20161L13.5695 4.99972C13.6745 4.89466 13.7349 4.74914 13.7349 4.60065C13.7349 4.45216 13.6746 4.30664 13.5695 4.20158L13.5695 4.20158C13.4646 4.09669 13.3191 4.0363 13.1706 4.0363C13.022 4.0363 12.8766 4.09649 12.7715 4.20158Z" fill="#F36DD4" stroke="#F36DD4" stroke-width="0.1"/>
<mask id="path-4-outside-1_3999_157195" maskUnits="userSpaceOnUse" x="19.7324" y="3.23871" width="3" height="3" fill="black">
<rect fill="white" x="19.7324" y="3.23871" width="3" height="3"/>
<path d="M21.2468 5.2674C21.1114 5.2674 20.9788 5.21229 20.8831 5.11677C20.7873 5.02107 20.7324 4.88844 20.7324 4.75306C20.7324 4.61786 20.7873 4.48505 20.8831 4.38934C20.9788 4.29363 21.1108 4.23871 21.2468 4.23871C21.382 4.23871 21.5148 4.29382 21.6103 4.38934C21.706 4.48505 21.7611 4.61767 21.7611 4.75306C21.7611 4.88826 21.706 5.02107 21.6103 5.11677C21.5148 5.21229 21.3822 5.2674 21.2468 5.2674Z"/>
</mask>
<path d="M21.2468 5.2674C21.1114 5.2674 20.9788 5.21229 20.8831 5.11677C20.7873 5.02107 20.7324 4.88844 20.7324 4.75306C20.7324 4.61786 20.7873 4.48505 20.8831 4.38934C20.9788 4.29363 21.1108 4.23871 21.2468 4.23871C21.382 4.23871 21.5148 4.29382 21.6103 4.38934C21.706 4.48505 21.7611 4.61767 21.7611 4.75306C21.7611 4.88826 21.706 5.02107 21.6103 5.11677C21.5148 5.21229 21.3822 5.2674 21.2468 5.2674Z" fill="#F36DD4"/>
<path d="M20.8831 5.11677L20.8123 5.18749L20.8124 5.18756L20.8831 5.11677ZM21.6103 4.38934L21.681 4.31863L21.681 4.31863L21.6103 4.38934ZM21.6103 5.11677L21.681 5.18749L21.681 5.18748L21.6103 5.11677ZM21.2468 5.1674C21.138 5.1674 21.0307 5.12288 20.9537 5.04599L20.8124 5.18756C20.9268 5.30171 21.0848 5.3674 21.2468 5.3674V5.1674ZM20.9538 5.04606C20.8768 4.96912 20.8324 4.86193 20.8324 4.75306H20.6324C20.6324 4.91495 20.6979 5.07302 20.8123 5.18749L20.9538 5.04606ZM20.8324 4.75306C20.8324 4.64435 20.8768 4.53698 20.9538 4.46005L20.8123 4.31863C20.6979 4.43311 20.6324 4.59136 20.6324 4.75306H20.8324ZM20.9538 4.46005C21.0307 4.38306 21.1374 4.33871 21.2468 4.33871V4.13871C21.0843 4.13871 20.9268 4.2042 20.8123 4.31863L20.9538 4.46005ZM21.2468 4.33871C21.3554 4.33871 21.4628 4.38326 21.5396 4.46005L21.681 4.31863C21.5668 4.20438 21.4085 4.13871 21.2468 4.13871V4.33871ZM21.5396 4.46005C21.6166 4.53706 21.6611 4.64427 21.6611 4.75306H21.8611C21.8611 4.59107 21.7954 4.43303 21.681 4.31863L21.5396 4.46005ZM21.6611 4.75306C21.6611 4.86167 21.6166 4.96907 21.5396 5.04607L21.681 5.18748C21.7954 5.07307 21.8611 4.91484 21.8611 4.75306H21.6611ZM21.5396 5.04606C21.4628 5.12287 21.3556 5.1674 21.2468 5.1674V5.3674C21.4087 5.3674 21.5668 5.30172 21.681 5.18749L21.5396 5.04606Z" fill="#F36DD4" mask="url(#path-4-outside-1_3999_157195)"/>
<path d="M19.757 6.24346L19.7571 6.24356C19.8619 6.34845 20.0075 6.40884 20.1559 6.40884C20.305 6.40884 20.4499 6.34863 20.5553 6.24363L20.5555 6.24346C20.6605 6.13784 20.7203 5.99254 20.7203 5.84449C20.7203 5.69609 20.6605 5.55078 20.5555 5.44515L20.5555 5.44515L20.5553 5.44494C20.4499 5.3402 20.305 5.27977 20.1559 5.27977C20.0075 5.27977 19.8621 5.33997 19.7571 5.44505L19.757 5.44512C19.652 5.55048 19.5916 5.6954 19.5916 5.84449C19.5916 5.99325 19.6521 6.13796 19.757 6.24346ZM19.6416 5.84449C19.6416 5.70874 19.6967 5.57648 19.7924 5.4804C19.8881 5.38469 20.0207 5.32977 20.1559 5.32977C20.2917 5.32977 20.424 5.38488 20.52 5.4804C20.6157 5.57666 20.6703 5.70929 20.6703 5.84449C20.6703 5.97932 20.6157 6.11195 20.52 6.20821C20.424 6.30391 20.2917 6.35884 20.1559 6.35884C20.0207 6.35884 19.8879 6.30373 19.7924 6.20821C19.6967 6.11195 19.6416 5.97987 19.6416 5.84449Z" fill="#F36DD4" stroke="#F36DD4" stroke-width="0.1"/>
<path d="M18.6653 6.53642L18.6653 6.53642C18.5602 6.64148 18.4998 6.787 18.4998 6.93549C18.4998 7.08417 18.5602 7.22951 18.6653 7.33456L18.6653 7.33457C18.7702 7.43945 18.9157 7.49984 19.0642 7.49984C19.2126 7.49984 19.3581 7.43944 19.4632 7.3346L19.4632 7.33456C19.5683 7.22947 19.6285 7.08394 19.6285 6.93549C19.6285 6.78685 19.5683 6.6415 19.4632 6.53642L19.4632 6.53638C19.3581 6.43154 19.2126 6.37114 19.0642 6.37114C18.9157 6.37114 18.7703 6.43133 18.6653 6.53642Z" fill="#F36DD4" stroke="#F36DD4" stroke-width="0.1"/>
<path d="M7.33429 18.6091L7.33435 18.6091C7.43918 18.504 7.49959 18.3591 7.49959 18.21C7.49959 18.0616 7.4394 17.9162 7.33432 17.8111L7.33432 17.8111C7.22926 17.7061 7.08374 17.6457 6.93525 17.6457C6.78598 17.6457 6.64121 17.7061 6.53617 17.8111L6.57153 17.8465L6.53627 17.811C6.43066 17.9161 6.3709 18.0617 6.3709 18.21C6.3709 18.3591 6.43045 18.504 6.53622 18.6092C6.64131 18.7142 6.78682 18.7744 6.93525 18.7744C7.08393 18.7744 7.22924 18.714 7.33429 18.6091Z" fill="#F36DD4" stroke="#F36DD4" stroke-width="0.1"/>
<path d="M5.44525 19.7004L5.44535 19.7005C5.55051 19.8056 5.69607 19.8654 5.84443 19.8654C5.99339 19.8654 6.13818 19.8056 6.24347 19.7005L6.2435 19.7005C6.34898 19.595 6.40877 19.45 6.40877 19.301C6.40877 19.1527 6.34923 19.0073 6.24345 18.9021C6.13841 18.7971 5.99347 18.7367 5.84443 18.7367C5.69574 18.7367 5.55041 18.7971 5.44535 18.9021L5.44535 18.9021C5.34047 19.007 5.28008 19.1526 5.28008 19.301C5.28008 19.4495 5.34029 19.5948 5.44525 19.7004ZM5.84443 19.8154C5.70923 19.8154 5.57642 19.7608 5.48071 19.6651C5.385 19.5689 5.33008 19.4362 5.33008 19.301C5.33008 19.1658 5.38519 19.033 5.48071 18.9375C5.57642 18.8418 5.70904 18.7867 5.84443 18.7867C5.98018 18.7867 6.11244 18.8418 6.20814 18.9375C6.3044 19.0332 6.35877 19.1658 6.35877 19.301C6.35877 19.4368 6.30421 19.569 6.20814 19.6651C6.11225 19.7608 5.98018 19.8154 5.84443 19.8154Z" fill="#F36DD4" stroke="#F36DD4" stroke-width="0.1"/>
<path d="M4.35356 20.7914L4.35355 20.7914C4.24847 20.6863 4.18828 20.541 4.18828 20.3925C4.18828 20.2438 4.24868 20.0985 4.35352 19.9935L4.35355 19.9934C4.45864 19.8884 4.60399 19.8282 4.75263 19.8282C4.90108 19.8282 5.04661 19.8884 5.1517 19.9934C5.25679 20.0985 5.31698 20.2439 5.31698 20.3925C5.31698 20.541 5.25659 20.6865 5.15172 20.7914L4.35356 20.7914ZM4.35356 20.7914C4.45862 20.8965 4.60414 20.9569 4.75263 20.9569M4.35356 20.7914L4.75263 20.9569M4.75263 20.9569C4.90106 20.9569 5.0466 20.8967 5.1517 20.7914L4.75263 20.9569ZM4.38884 20.7561L4.38891 20.7561L4.38884 20.7561Z" fill="#F36DD4" stroke="#F36DD4" stroke-width="0.1"/>
<mask id="path-11-outside-2_3999_157195" maskUnits="userSpaceOnUse" x="22.9717" y="11.0587" width="3" height="3" fill="black">
<rect fill="white" x="22.9717" y="11.0587" width="3" height="3"/>
<path d="M24.486 13.0874C24.3508 13.0874 24.218 13.0322 24.1223 12.9367C24.0268 12.841 23.9717 12.7082 23.9717 12.573C23.9717 12.4378 24.0266 12.305 24.1223 12.2093C24.218 12.1136 24.3506 12.0587 24.486 12.0587C24.6212 12.0587 24.754 12.1138 24.8496 12.2093C24.9453 12.305 25.0004 12.4376 25.0004 12.573C25.0004 12.7082 24.9453 12.841 24.8496 12.9367C24.754 13.0322 24.6212 13.0874 24.486 13.0874Z"/>
</mask>
<path d="M24.486 13.0874C24.3508 13.0874 24.218 13.0322 24.1223 12.9367C24.0268 12.841 23.9717 12.7082 23.9717 12.573C23.9717 12.4378 24.0266 12.305 24.1223 12.2093C24.218 12.1136 24.3506 12.0587 24.486 12.0587C24.6212 12.0587 24.754 12.1138 24.8496 12.2093C24.9453 12.305 25.0004 12.4376 25.0004 12.573C25.0004 12.7082 24.9453 12.841 24.8496 12.9367C24.754 13.0322 24.6212 13.0874 24.486 13.0874Z" fill="#F36DD4"/>
<path d="M24.1223 12.9367L24.0515 13.0074L24.0517 13.0075L24.1223 12.9367ZM24.8496 12.2093L24.9203 12.1386L24.9203 12.1386L24.8496 12.2093ZM24.8496 12.9367L24.9203 13.0074L24.9203 13.0074L24.8496 12.9367ZM24.486 12.9874C24.3774 12.9874 24.27 12.9428 24.193 12.8659L24.0517 13.0075C24.1661 13.1217 24.3243 13.1874 24.486 13.1874V12.9874ZM24.1931 12.8661C24.1162 12.7891 24.0717 12.6816 24.0717 12.573H23.8717C23.8717 12.7348 23.9374 12.893 24.0515 13.0074L24.1931 12.8661ZM24.0717 12.573C24.0717 12.4643 24.1161 12.3569 24.193 12.28L24.0516 12.1386C23.9371 12.2531 23.8717 12.4113 23.8717 12.573H24.0717ZM24.193 12.28C24.27 12.203 24.3772 12.1587 24.486 12.1587V11.9587C24.3241 11.9587 24.1661 12.0241 24.0516 12.1386L24.193 12.28ZM24.486 12.1587C24.5947 12.1587 24.7021 12.2032 24.7789 12.28L24.9203 12.1386C24.806 12.0243 24.6478 11.9587 24.486 11.9587V12.1587ZM24.7789 12.28C24.8559 12.357 24.9004 12.4642 24.9004 12.573H25.1004C25.1004 12.411 25.0347 12.253 24.9203 12.1386L24.7789 12.28ZM24.9004 12.573C24.9004 12.6816 24.8558 12.789 24.7789 12.866L24.9203 13.0074C25.0347 12.893 25.1004 12.7348 25.1004 12.573H24.9004ZM24.7789 12.866C24.7021 12.9428 24.5947 12.9874 24.486 12.9874V13.1874C24.6478 13.1874 24.806 13.1217 24.9203 13.0074L24.7789 12.866Z" fill="#F36DD4" mask="url(#path-11-outside-2_3999_157195)"/>
<mask id="path-13-outside-3_3999_157195" maskUnits="userSpaceOnUse" x="21.4287" y="11.0587" width="3" height="3" fill="black">
<rect fill="white" x="21.4287" y="11.0587" width="3" height="3"/>
<path d="M22.9431 13.0874C22.8079 13.0874 22.675 13.0322 22.5793 12.9367C22.4838 12.841 22.4287 12.7082 22.4287 12.573C22.4287 12.4378 22.4836 12.305 22.5793 12.2093C22.675 12.1136 22.8077 12.0587 22.9431 12.0587C23.0783 12.0587 23.2111 12.1138 23.3066 12.2093C23.4023 12.305 23.4574 12.4376 23.4574 12.573C23.4574 12.7082 23.4023 12.841 23.3066 12.9367C23.2111 13.0322 23.0783 13.0874 22.9431 13.0874Z"/>
</mask>
<path d="M22.9431 13.0874C22.8079 13.0874 22.675 13.0322 22.5793 12.9367C22.4838 12.841 22.4287 12.7082 22.4287 12.573C22.4287 12.4378 22.4836 12.305 22.5793 12.2093C22.675 12.1136 22.8077 12.0587 22.9431 12.0587C23.0783 12.0587 23.2111 12.1138 23.3066 12.2093C23.4023 12.305 23.4574 12.4376 23.4574 12.573C23.4574 12.7082 23.4023 12.841 23.3066 12.9367C23.2111 13.0322 23.0783 13.0874 22.9431 13.0874Z" fill="#F36DD4"/>
<path d="M22.5793 12.9367L22.5086 13.0074L22.5087 13.0075L22.5793 12.9367ZM23.3066 12.2093L23.3773 12.1386L23.3773 12.1386L23.3066 12.2093ZM23.3066 12.9367L23.3773 13.0074L23.3773 13.0074L23.3066 12.9367ZM22.9431 12.9874C22.8344 12.9874 22.727 12.9428 22.65 12.8659L22.5087 13.0075C22.6231 13.1217 22.7813 13.1874 22.9431 13.1874V12.9874ZM22.6501 12.8661C22.5733 12.7891 22.5287 12.6816 22.5287 12.573H22.3287C22.3287 12.7348 22.3944 12.893 22.5086 13.0074L22.6501 12.8661ZM22.5287 12.573C22.5287 12.4643 22.5731 12.3569 22.6501 12.28L22.5086 12.1386C22.3942 12.2531 22.3287 12.4113 22.3287 12.573H22.5287ZM22.6501 12.28C22.727 12.203 22.8342 12.1587 22.9431 12.1587V11.9587C22.7812 11.9587 22.6231 12.0241 22.5086 12.1386L22.6501 12.28ZM22.9431 12.1587C23.0517 12.1587 23.1591 12.2032 23.2359 12.28L23.3773 12.1386C23.2631 12.0243 23.1048 11.9587 22.9431 11.9587V12.1587ZM23.2359 12.28C23.3129 12.357 23.3574 12.4642 23.3574 12.573H23.5574C23.5574 12.411 23.4917 12.253 23.3773 12.1386L23.2359 12.28ZM23.3574 12.573C23.3574 12.6816 23.3129 12.789 23.2359 12.866L23.3773 13.0074C23.4917 12.893 23.5574 12.7348 23.5574 12.573H23.3574ZM23.2359 12.866C23.1591 12.9428 23.0517 12.9874 22.9431 12.9874V13.1874C23.1048 13.1874 23.2631 13.1217 23.3773 13.0074L23.2359 12.866Z" fill="#F36DD4" mask="url(#path-13-outside-3_3999_157195)"/>
<mask id="path-15-outside-4_3999_157195" maskUnits="userSpaceOnUse" x="19.8857" y="11.0587" width="3" height="3" fill="black">
<rect fill="white" x="19.8857" y="11.0587" width="3" height="3"/>
<path d="M21.4001 13.0874C21.2649 13.0874 21.1321 13.0322 21.0364 12.9367C20.9409 12.841 20.8857 12.7082 20.8857 12.573C20.8857 12.4378 20.9407 12.305 21.0364 12.2093C21.1321 12.1136 21.2647 12.0587 21.4001 12.0587C21.5353 12.0587 21.6681 12.1138 21.7636 12.2093C21.8593 12.305 21.9144 12.4376 21.9144 12.573C21.9144 12.7082 21.8593 12.841 21.7636 12.9367C21.6681 13.0322 21.5353 13.0874 21.4001 13.0874Z"/>
</mask>
<path d="M21.4001 13.0874C21.2649 13.0874 21.1321 13.0322 21.0364 12.9367C20.9409 12.841 20.8857 12.7082 20.8857 12.573C20.8857 12.4378 20.9407 12.305 21.0364 12.2093C21.1321 12.1136 21.2647 12.0587 21.4001 12.0587C21.5353 12.0587 21.6681 12.1138 21.7636 12.2093C21.8593 12.305 21.9144 12.4376 21.9144 12.573C21.9144 12.7082 21.8593 12.841 21.7636 12.9367C21.6681 13.0322 21.5353 13.0874 21.4001 13.0874Z" fill="#F36DD4"/>
<path d="M21.0364 12.9367L20.9656 13.0074L20.9657 13.0075L21.0364 12.9367ZM21.7636 12.2093L21.8343 12.1386L21.8343 12.1386L21.7636 12.2093ZM21.7636 12.9367L21.8343 13.0074L21.8343 13.0074L21.7636 12.9367ZM21.4001 12.9874C21.2915 12.9874 21.184 12.9428 21.107 12.8659L20.9657 13.0075C21.0801 13.1217 21.2383 13.1874 21.4001 13.1874V12.9874ZM21.1072 12.8661C21.0303 12.7891 20.9857 12.6816 20.9857 12.573H20.7857C20.7857 12.7348 20.8514 12.893 20.9656 13.0074L21.1072 12.8661ZM20.9857 12.573C20.9857 12.4643 21.0302 12.3569 21.1071 12.28L20.9657 12.1386C20.8512 12.2531 20.7857 12.4113 20.7857 12.573H20.9857ZM21.1071 12.28C21.184 12.203 21.2912 12.1587 21.4001 12.1587V11.9587C21.2382 11.9587 21.0801 12.0241 20.9657 12.1386L21.1071 12.28ZM21.4001 12.1587C21.5087 12.1587 21.6161 12.2032 21.6929 12.28L21.8343 12.1386C21.7201 12.0243 21.5618 11.9587 21.4001 11.9587V12.1587ZM21.6929 12.28C21.7699 12.357 21.8144 12.4642 21.8144 12.573H22.0144C22.0144 12.411 21.9487 12.253 21.8343 12.1386L21.6929 12.28ZM21.8144 12.573C21.8144 12.6816 21.7699 12.789 21.6929 12.866L21.8343 13.0074C21.9487 12.893 22.0144 12.7348 22.0144 12.573H21.8144ZM21.6929 12.866C21.6161 12.9428 21.5087 12.9874 21.4001 12.9874V13.1874C21.5618 13.1874 21.7201 13.1217 21.8343 13.0074L21.6929 12.866Z" fill="#F36DD4" mask="url(#path-15-outside-4_3999_157195)"/>
<path d="M4.20121 12.9721L4.20125 12.9721C4.3063 13.077 4.4518 13.1374 4.60029 13.1374C4.74897 13.1374 4.89428 13.0769 4.99932 12.9721L4.99939 12.972C5.10424 12.867 5.16463 12.7215 5.16463 12.573C5.16463 12.4244 5.10445 12.279 4.99936 12.1739L4.99932 12.1739C4.89427 12.069 4.74877 12.0087 4.60029 12.0087C4.45165 12.0087 4.3063 12.0688 4.20121 12.1739L4.20118 12.174C4.09633 12.279 4.03594 12.4245 4.03594 12.573C4.03594 12.7216 4.09612 12.867 4.20121 12.9721ZM5.11463 12.573C5.11463 12.7082 5.05952 12.841 4.964 12.9367V12.2093C5.05971 12.305 5.11463 12.4376 5.11463 12.573Z" fill="#F36DD4" stroke="#F36DD4" stroke-width="0.1"/>
<path d="M2.65824 12.9721L2.65828 12.9721C2.76333 13.077 2.90883 13.1374 3.05732 13.1374C3.206 13.1374 3.35131 13.0769 3.45636 12.9721L3.45643 12.972C3.56127 12.867 3.62166 12.7215 3.62166 12.573C3.62166 12.4244 3.56148 12.279 3.45639 12.1739L3.45636 12.1739C3.35131 12.069 3.2058 12.0087 3.05732 12.0087C2.90868 12.0087 2.76333 12.0688 2.65824 12.1739L2.65821 12.174C2.55336 12.279 2.49297 12.4245 2.49297 12.573C2.49297 12.7216 2.55315 12.867 2.65824 12.9721ZM3.57166 12.573C3.57166 12.7082 3.51655 12.841 3.42104 12.9367V12.2093C3.51674 12.305 3.57166 12.4376 3.57166 12.573Z" fill="#F36DD4" stroke="#F36DD4" stroke-width="0.1"/>
<path d="M1.87807 12.9367C1.97359 12.841 2.0287 12.7082 2.0287 12.573C2.0287 12.4376 1.97377 12.305 1.87807 12.2093V12.9367ZM1.87807 12.9367C1.78236 13.0322 1.64973 13.0874 1.51435 13.0874C1.37915 13.0874 1.24634 13.0322 1.15063 12.9367H1.87807ZM1.11527 12.9721L1.11531 12.9721C1.22036 13.077 1.36586 13.1374 1.51435 13.1374C1.66303 13.1374 1.80834 13.0769 1.91339 12.9721L1.91346 12.972C2.0183 12.867 2.0787 12.7215 2.0787 12.573C2.0787 12.4244 2.01851 12.279 1.91342 12.1739L1.91339 12.1739C1.80834 12.069 1.66284 12.0087 1.51435 12.0087C1.36571 12.0087 1.22036 12.0688 1.11527 12.1739L1.11524 12.174C1.0104 12.279 0.95 12.4245 0.95 12.573C0.95 12.7216 1.01019 12.867 1.11527 12.9721Z" fill="#F36DD4" stroke="#F36DD4" stroke-width="0.1"/>
<path d="M4.35355 5.15213L4.35359 5.15216C4.45864 5.25701 4.60414 5.3174 4.75263 5.3174C4.90112 5.3174 5.04662 5.25701 5.15167 5.15216L5.15174 5.1521C5.25658 5.04705 5.31698 4.90154 5.31698 4.75306C5.31698 4.60442 5.25679 4.45907 5.1517 4.35398L5.15167 4.35395C5.04662 4.2491 4.90112 4.18871 4.75263 4.18871C4.60399 4.18871 4.45864 4.24889 4.35355 4.35398L4.35352 4.35402C4.24868 4.45907 4.18828 4.60457 4.18828 4.75306C4.18828 4.90227 4.24849 5.04706 4.35355 5.15213ZM5.26698 4.75306C5.26698 4.88826 5.21187 5.02107 5.11635 5.11677V4.38934C5.21206 4.48505 5.26698 4.61767 5.26698 4.75306Z" fill="#F36DD4" stroke="#F36DD4" stroke-width="0.1"/>
<path d="M5.44525 6.24346L5.44549 6.2437C5.55099 6.34839 5.69586 6.40884 5.84443 6.40884C5.99349 6.40884 6.13822 6.34861 6.24377 6.24366L6.24397 6.24346C6.34897 6.13785 6.40877 5.99293 6.40877 5.84449C6.40877 5.69551 6.34898 5.55076 6.24397 5.44515L6.24397 5.44515L6.24376 5.44494C6.13841 5.3402 5.99351 5.27977 5.84443 5.27977C5.69579 5.27977 5.55044 5.33996 5.44535 5.44505L5.44535 5.44505L5.44525 5.44515C5.3405 5.55051 5.28008 5.6954 5.28008 5.84449C5.28008 5.99321 5.34032 6.13792 5.44525 6.24346Z" fill="#F36DD4" stroke="#F36DD4" stroke-width="0.1"/>
<path d="M6.53624 7.33463C6.64129 7.43946 6.78677 7.49984 6.93525 7.49984C7.08393 7.49984 7.22924 7.43944 7.33429 7.3346L7.33435 7.33453C7.4392 7.22948 7.49959 7.08398 7.49959 6.93549C7.49959 6.78685 7.43941 6.6415 7.33432 6.53642L7.33428 6.53638C7.22923 6.43154 7.08373 6.37114 6.93525 6.37114C6.78603 6.37114 6.64124 6.43135 6.53617 6.53642L6.57153 6.57177L6.53624 6.53635C6.43066 6.64153 6.3709 6.78713 6.3709 6.93549C6.3709 7.08399 6.43044 7.22942 6.53624 7.33463ZM6.53624 7.33463C6.53623 7.33462 6.53622 7.33461 6.53621 7.3346L6.57153 7.29921L6.53627 7.33467C6.53626 7.33465 6.53625 7.33464 6.53624 7.33463ZM7.44959 6.93549C7.44959 7.07069 7.39448 7.2035 7.29896 7.29921V6.57177C7.39467 6.66748 7.44959 6.80011 7.44959 6.93549Z" fill="#F36DD4" stroke="#F36DD4" stroke-width="0.1"/>
<path d="M18.6652 18.6091C18.7702 18.7142 18.9157 18.7744 19.0642 18.7744C19.2132 18.7744 19.3582 18.714 19.4632 18.6091L19.4632 18.6091C19.5683 18.504 19.6285 18.3585 19.6285 18.21C19.6285 18.0616 19.5683 17.9162 19.4632 17.8111L19.4632 17.8111C19.3582 17.7061 19.2126 17.6457 19.0642 17.6457C18.9156 17.6457 18.7703 17.7061 18.6653 17.8111C18.5602 17.916 18.4998 18.0616 18.4998 18.21C18.4998 18.3593 18.5602 18.504 18.6652 18.6091ZM18.6652 18.6091L18.7006 18.5737L18.6653 18.6091C18.6653 18.6091 18.6652 18.6091 18.6652 18.6091Z" fill="#F36DD4" stroke="#F36DD4" stroke-width="0.1"/>
<path d="M20.52 19.6647C20.6157 19.569 20.6703 19.4368 20.6703 19.301C20.6703 19.1658 20.6157 19.0332 20.52 18.9375V19.6647ZM20.52 19.6647L20.5554 19.7001C20.6605 19.595 20.7203 19.45 20.7203 19.301C20.7203 19.1527 20.6605 19.0073 20.5554 18.9021L20.5553 18.9021C20.45 18.7971 20.305 18.7367 20.1559 18.7367C20.0074 18.7367 19.8621 18.7971 19.7571 18.9021C19.652 19.007 19.5916 19.1526 19.5916 19.301C19.5916 19.4503 19.652 19.5951 19.7571 19.7001L19.7924 19.6647L19.757 19.7C19.862 19.8056 20.0076 19.8654 20.1559 19.8654C20.3049 19.8654 20.4499 19.8056 20.5554 19.7001L20.52 19.6647Z" fill="#F36DD4" stroke="#F36DD4" stroke-width="0.1"/>
<path d="M20.8477 20.7914L20.883 20.7561L20.8477 20.7914ZM20.8477 20.7914C20.9528 20.8965 21.0981 20.9569 21.2468 20.9569C21.3954 20.9569 21.5408 20.8967 21.6457 20.7914C21.7507 20.6865 21.8111 20.541 21.8111 20.3925C21.8111 20.2438 21.7507 20.0985 21.6457 19.9935M20.8477 20.7914L20.8477 20.7914C20.7426 20.6863 20.6824 20.541 20.6824 20.3925C20.6824 20.2439 20.7426 20.0985 20.8477 19.9934C20.9528 19.8884 21.0976 19.8282 21.2468 19.8282C21.3952 19.8282 21.5407 19.8883 21.6457 19.9935M21.6457 19.9935C21.6457 19.9935 21.6457 19.9935 21.6457 19.9934L21.6103 20.0288L21.6457 19.9935C21.6457 19.9935 21.6457 19.9935 21.6457 19.9935Z" fill="#F36DD4" stroke="#F36DD4" stroke-width="0.1"/>
<path d="M15.5065 17.4149L15.5064 17.4149C15.3059 17.507 15.1775 17.7073 15.1775 17.9278V19.981H11.1627L11.163 17.9278C11.163 17.7072 11.0347 17.5068 10.8341 17.4149C8.84678 16.5028 7.56256 14.501 7.56256 12.3157C7.56256 9.22371 10.0783 6.70795 13.1703 6.70795C16.2622 6.70795 18.778 9.22357 18.778 12.3157C18.778 14.5011 17.4938 16.5029 15.5065 17.4149ZM10.5982 21.1097H15.7419C16.0535 21.1097 16.3063 20.8569 16.3063 20.5453V18.2788C18.505 17.12 19.9067 14.8183 19.9067 12.3157C19.9067 8.60104 16.8847 5.57909 13.17 5.57909C9.45534 5.57909 6.4334 8.60118 6.4334 12.3157C6.4334 14.8183 7.83511 17.1201 10.0338 18.2788V20.5453C10.0338 20.8569 10.2866 21.1097 10.5982 21.1097Z" fill="#F36DD4" stroke="#F36DD4" stroke-width="0.1"/>
<path d="M11.112 24.1955H15.2268C15.5384 24.1955 15.7912 23.9428 15.7912 23.6312V20.5451C15.7912 20.2334 15.5384 19.9807 15.2268 19.9807H11.112C10.8004 19.9807 10.5477 20.2335 10.5477 20.5451V23.6312C10.5477 23.9428 10.8004 24.1955 11.112 24.1955ZM14.6625 21.1094V23.0668H11.6764V21.1094H14.6625Z" fill="#F36DD4" stroke="#F36DD4" stroke-width="0.1"/>
<path d="M12.7057 24.1959V25.1746C12.7057 25.4862 12.453 25.739 12.1413 25.739C11.8297 25.739 11.577 25.4862 11.577 25.1746V23.6316C11.577 23.32 11.8297 23.0672 12.1413 23.0672H14.1987C14.5103 23.0672 14.7631 23.3199 14.7631 23.6316V25.1746C14.7631 25.4862 14.5104 25.7389 14.1988 25.739L12.7057 24.1959ZM12.7057 24.1959H13.6344V25.1746C13.6344 25.4862 13.8871 25.7389 14.1987 25.739L12.7057 24.1959Z" fill="#F36DD4" stroke="#F36DD4" stroke-width="0.1"/>
<path d="M9.57004 22.6526H16.7707C17.0823 22.6526 17.335 22.3999 17.335 22.0882C17.335 21.7766 17.0823 21.5239 16.7707 21.5239H9.57004C9.2584 21.5239 9.00566 21.7766 9.00566 22.0882C9.00566 22.3999 9.25843 22.6526 9.57004 22.6526Z" fill="#F36DD4" stroke="#F36DD4" stroke-width="0.1"/>
<path d="M9.57004 21.1097H16.7707C17.0823 21.1097 17.335 20.857 17.335 20.5453C17.335 20.2337 17.0823 19.9809 16.7707 19.9809H9.57004C9.2584 19.9809 9.00566 20.2337 9.00566 20.5453C9.00566 20.857 9.25843 21.1097 9.57004 21.1097Z" fill="#F36DD4" stroke="#F36DD4" stroke-width="0.1"/>
<path d="M10.034 12.3154C10.034 14.0447 11.4407 15.4515 13.1701 15.4515C14.8994 15.4515 16.3062 14.0447 16.3062 12.3154C16.3062 10.586 14.8994 9.17931 13.1701 9.17931C11.4407 9.17931 10.034 10.586 10.034 12.3154ZM11.1627 12.3152C11.1627 11.2083 12.0632 10.3078 13.1701 10.3078C14.277 10.3078 15.1775 11.2083 15.1775 12.3152C15.1775 13.4221 14.277 14.3226 13.1701 14.3226C12.0632 14.3226 11.1627 13.4221 11.1627 12.3152Z" fill="#F36DD4" stroke="#F36DD4" stroke-width="0.1"/>
<path d="M12.6062 20.5453C12.6062 20.857 12.859 21.1097 13.1706 21.1097C13.4823 21.1097 13.735 20.8569 13.735 20.5453V12.3158C13.735 12.0041 13.4823 11.7514 13.1706 11.7514C12.859 11.7514 12.6062 12.0042 12.6062 12.3158V20.5453Z" fill="#F36DD4" stroke="#F36DD4" stroke-width="0.1"/>
</svg>
