<svg width="24" height="21" viewBox="0 0 24 21" fill="none" xmlns="http://www.w3.org/2000/svg">
<path d="M21.4286 0H2.57143C1.15349 0 0 1.15349 0 2.57143V18C0 19.4179 1.15349 20.5714 2.57143 20.5714H21.4286C22.8465 20.5714 24 19.4179 24 18V2.57143C24 1.15349 22.8465 0 21.4286 0ZM2.57143 1.71429H21.4286C21.9015 1.71429 22.2857 2.09849 22.2857 2.57143V3.37499H1.71429V2.57143C1.71429 2.09849 2.09849 1.71429 2.57143 1.71429ZM21.4286 18.8571H2.57143C2.09849 18.8571 1.71429 18.4729 1.71429 18V5.08937H22.2857V18C22.2857 18.4729 21.9015 18.8571 21.4286 18.8571ZM6 13.7143H7.71429C9.13223 13.7143 10.2857 12.5608 10.2857 11.1429V9.42857C10.2857 8.01063 9.13223 6.85714 7.71429 6.85714H6C4.58206 6.85714 3.42857 8.01063 3.42857 9.42857V11.1429C3.42857 12.5608 4.58206 13.7143 6 13.7143ZM5.14286 9.42857C5.14286 8.95563 5.52706 8.57143 6 8.57143H7.71429C8.18722 8.57143 8.57143 8.95563 8.57143 9.42857V11.1429C8.57143 11.6158 8.18722 12 7.71429 12H6C5.52706 12 5.14286 11.6158 5.14286 11.1429V9.42857ZM20.5714 8.57143C20.5714 9.04519 20.188 9.42857 19.7143 9.42857H12.8571C12.3834 9.42857 12 9.04519 12 8.57143C12 8.09767 12.3834 7.71429 12.8571 7.71429H19.7143C20.188 7.71429 20.5714 8.09767 20.5714 8.57143ZM20.5714 12C20.5714 12.4738 20.188 12.8571 19.7143 12.8571H12.8571C12.3834 12.8571 12 12.4738 12 12C12 11.5262 12.3834 11.1429 12.8571 11.1429H19.7143C20.188 11.1429 20.5714 11.5262 20.5714 12ZM20.5714 16.2857C20.5714 16.7595 20.188 17.1429 19.7143 17.1429H4.28571C3.81195 17.1429 3.42857 16.7595 3.42857 16.2857C3.42857 15.812 3.81195 15.4286 4.28571 15.4286H19.7143C20.188 15.4286 20.5714 15.812 20.5714 16.2857Z" fill="#F36DD4"/>
</svg>
