<svg width="24" height="21" viewBox="0 0 24 21" fill="none" xmlns="http://www.w3.org/2000/svg">
<path d="M21.36 0H2.64C1.94016 0.00125001 1.26949 0.279822 0.774629 0.774629C0.279817 1.26944 0.00123429 1.94016 0 2.64V18.16C0.00125001 18.8598 0.279822 19.5305 0.774629 20.0254C1.26944 20.5202 1.94016 20.7988 2.64 20.8H21.36C22.0598 20.7987 22.7305 20.5202 23.2254 20.0254C23.7202 19.5306 23.9988 18.8598 24 18.16V2.64C23.9987 1.94016 23.7202 1.26949 23.2254 0.774629C22.7306 0.279817 22.0598 0.00123429 21.36 0ZM22.4 18.16C22.4 18.4359 22.2904 18.7003 22.0954 18.8954C21.9004 19.0904 21.6359 19.2 21.36 19.2H2.64C2.3641 19.2 2.09965 19.0904 1.90464 18.8954C1.70964 18.7004 1.59999 18.4359 1.59999 18.16V6.4H22.4L22.4 18.16ZM22.4 4.8H1.6V2.64C1.6 2.36411 1.70964 2.09966 1.90464 1.90464C2.09964 1.70964 2.36412 1.6 2.64 1.6H21.36C21.6359 1.6 21.9003 1.70964 22.0954 1.90464C22.2904 2.09964 22.4 2.36411 22.4 2.64L22.4 4.8Z" fill="#F36DD4"/>
</svg>
