<svg width="31" height="26" viewBox="0 0 31 26" fill="none" xmlns="http://www.w3.org/2000/svg">
<path d="M7.36666 8.29694H3.44829C3.1502 8.29694 2.9085 8.53864 2.9085 8.83674V10.7959C2.9085 10.9391 2.96536 11.0764 3.06658 11.1776C3.1678 11.2788 3.30515 11.3357 3.44829 11.3357H7.36666C7.5098 11.3357 7.64715 11.2788 7.74837 11.1776C7.84959 11.0764 7.90646 10.9391 7.90646 10.7959V8.83674C7.90646 8.6936 7.84959 8.55624 7.74837 8.45502C7.64715 8.35381 7.5098 8.29694 7.36666 8.29694ZM6.82686 10.2561H3.98809V9.37653H6.82686V10.2561Z" fill="#F36DD4" stroke="#F36DD4" stroke-width="0.1"/>
<path d="M7.36666 12.2152H3.44829C3.1502 12.2152 2.9085 12.4569 2.9085 12.755V14.7142C2.9085 14.8574 2.96536 14.9947 3.06658 15.0959C3.1678 15.1972 3.30515 15.254 3.44829 15.254H7.36666C7.5098 15.254 7.64715 15.1972 7.74837 15.0959C7.84959 14.9947 7.90646 14.8574 7.90646 14.7142V12.755C7.90646 12.6119 7.84959 12.4745 7.74837 12.3733C7.64715 12.2721 7.5098 12.2152 7.36666 12.2152ZM6.82686 14.1744H3.98809V13.2948H6.82686V14.1744Z" fill="#F36DD4" stroke="#F36DD4" stroke-width="0.1"/>
<path d="M7.36666 16.1335H3.44829C3.1502 16.1335 2.9085 16.3753 2.9085 16.6733V18.6325C2.9085 18.7757 2.96536 18.913 3.06658 19.0142C3.1678 19.1155 3.30515 19.1723 3.44829 19.1723H7.36666C7.5098 19.1723 7.64715 19.1155 7.74837 19.0142C7.84959 18.913 7.90646 18.7757 7.90646 18.6325V16.6733C7.90646 16.5302 7.84959 16.3928 7.74837 16.2916C7.64715 16.1904 7.5098 16.1335 7.36666 16.1335ZM6.82686 18.0927H3.98809V17.2131H6.82686V18.0927Z" fill="#F36DD4" stroke="#F36DD4" stroke-width="0.1"/>
<path d="M11.2857 5.94808H14.7143C14.8574 5.94808 14.9948 5.89121 15.096 5.79C15.1972 5.68878 15.2541 5.55142 15.2541 5.40828V3.4491C15.2541 3.30596 15.1972 3.16861 15.096 3.06739C14.9948 2.96617 14.8574 2.9093 14.7143 2.9093H11.2857C10.9876 2.9093 10.7459 3.15101 10.7459 3.4491V5.40828C10.7459 5.55142 10.8028 5.68878 10.904 5.79C11.0052 5.89121 11.1426 5.94808 11.2857 5.94808ZM11.8255 3.9889H14.1745V4.86849H11.8255V3.9889Z" fill="#F36DD4" stroke="#F36DD4" stroke-width="0.1"/>
<path d="M16.6739 5.94808H20.1024C20.2456 5.94808 20.3829 5.89121 20.4842 5.79C20.5854 5.68878 20.6422 5.55142 20.6422 5.40828V3.4491C20.6422 3.30596 20.5854 3.16861 20.4842 3.06739C20.3829 2.96617 20.2456 2.9093 20.1024 2.9093H16.6739C16.3758 2.9093 16.1341 3.15101 16.1341 3.4491V5.40828C16.1341 5.55142 16.1909 5.68878 16.2922 5.79C16.3934 5.89121 16.5307 5.94808 16.6739 5.94808ZM17.2137 3.9889H19.5627V4.86849H17.2137V3.9889Z" fill="#F36DD4" stroke="#F36DD4" stroke-width="0.1"/>
<path d="M11.2857 10.3561H14.7143C14.8574 10.3561 14.9948 10.2992 15.096 10.198C15.1972 10.0968 15.2541 9.95941 15.2541 9.81627V7.85709C15.2541 7.71395 15.1972 7.5766 15.096 7.47538C14.9948 7.37416 14.8574 7.31729 14.7143 7.31729H11.2857C10.9876 7.31729 10.7459 7.559 10.7459 7.85709V9.81627C10.7459 9.95941 10.8028 10.0968 10.904 10.198C11.0052 10.2992 11.1426 10.3561 11.2857 10.3561ZM11.8255 8.39689H14.1745V9.27648H11.8255V8.39689Z" fill="#F36DD4" stroke="#F36DD4" stroke-width="0.1"/>
<path d="M16.6739 10.3561H20.1024C20.2456 10.3561 20.3829 10.2992 20.4842 10.198C20.5854 10.0968 20.6422 9.95941 20.6422 9.81627V7.85709C20.6422 7.71395 20.5854 7.5766 20.4842 7.47538C20.3829 7.37416 20.2456 7.31729 20.1024 7.31729H16.6739C16.3758 7.31729 16.1341 7.559 16.1341 7.85709V9.81627C16.1341 9.95941 16.1909 10.0968 16.2922 10.198C16.3934 10.2992 16.5307 10.3561 16.6739 10.3561ZM17.2137 8.39689H19.5627V9.27648H17.2137V8.39689Z" fill="#F36DD4" stroke="#F36DD4" stroke-width="0.1"/>
<path d="M14.7143 14.7643C14.8574 14.7643 14.9948 14.7075 15.096 14.6063C15.1972 14.505 15.2541 14.3677 15.2541 14.2246V12.2654C15.2541 12.1222 15.1972 11.9849 15.096 11.8837C14.9948 11.7824 14.8574 11.7256 14.7143 11.7256H11.2857C10.9876 11.7256 10.7459 11.9673 10.7459 12.2654V14.2246C10.7459 14.3677 10.8028 14.505 10.904 14.6063C11.0052 14.7075 11.1426 14.7643 11.2857 14.7643H14.7143ZM11.8255 12.8052H14.1745V13.6848H11.8255V12.8052Z" fill="#F36DD4" stroke="#F36DD4" stroke-width="0.1"/>
<path d="M16.6739 14.7643H20.1024C20.2456 14.7643 20.3829 14.7075 20.4842 14.6063C20.5854 14.505 20.6422 14.3677 20.6422 14.2246V12.2654C20.6422 12.1222 20.5854 11.9849 20.4842 11.8837C20.3829 11.7824 20.2456 11.7256 20.1024 11.7256H16.6739C16.3758 11.7256 16.1341 11.9673 16.1341 12.2654V14.2246C16.1341 14.3677 16.1909 14.505 16.2922 14.6063C16.3934 14.7075 16.5307 14.7643 16.6739 14.7643ZM17.2137 12.8052H19.5627V13.6848H17.2137V12.8052Z" fill="#F36DD4" stroke="#F36DD4" stroke-width="0.1"/>
<path d="M28.4286 14.1745H22.601V2.95918C22.601 2.42639 22.3893 1.91533 22.0126 1.53841L22.0126 1.5384C21.6357 1.16168 21.1246 0.95 20.5918 0.95H10.7959C10.2631 0.95 9.75206 1.16168 9.37515 1.5384L9.37513 1.53842C8.99842 1.91535 8.78673 2.4264 8.78673 2.95918V6.33776H2.95918C2.42639 6.33776 1.91533 6.54944 1.53842 6.92615L1.5384 6.92617C1.16168 7.30311 0.95 7.81416 0.95 8.34694V24.5102C0.95 24.6533 1.00687 24.7907 1.10809 24.8919C1.2093 24.9931 1.34666 25.05 1.4898 25.05H29.898C30.0411 25.05 30.1785 24.9931 30.2797 24.8919C30.3809 24.7907 30.4378 24.6533 30.4378 24.5102V16.1837C30.4378 15.6509 30.2261 15.1398 29.8494 14.7629L29.8493 14.7629C29.4724 14.3862 28.9614 14.1745 28.4286 14.1745ZM2.02959 8.34694C2.02959 8.10043 2.12754 7.86387 2.30183 7.68958C2.47612 7.51529 2.71267 7.41735 2.95918 7.41735H8.78673V23.9704H2.02959V8.34694ZM9.86633 6.87755V2.95918C9.86633 2.71267 9.96427 2.47612 10.1386 2.30183C10.3129 2.12754 10.5494 2.02959 10.7959 2.02959H20.5918C20.8383 2.02959 21.0749 2.12754 21.2492 2.30183C21.4235 2.47612 21.5214 2.71267 21.5214 2.95918V23.9704H19.6622V17.6531C19.6622 17.2502 19.5022 16.8635 19.2173 16.5787C18.9324 16.2938 18.5457 16.1337 18.1429 16.1337H13.2449C12.842 16.1337 12.4554 16.2938 12.1705 16.5787C11.8857 16.8636 11.7256 17.2502 11.7256 17.6531V23.9704H9.86638L9.86633 6.87755ZM12.8051 23.9704V17.6531C12.8051 17.4102 13.002 17.2133 13.2449 17.2133H15.1541V23.9704H12.8051ZM16.2337 23.9704V17.2133H18.1429C18.2595 17.2133 18.3714 17.2596 18.4539 17.3421C18.5363 17.4245 18.5827 17.5364 18.5827 17.6531V23.9704H16.2337ZM29.3582 23.9704H22.601V15.2541H28.4286C28.6751 15.2541 28.9116 15.352 29.0859 15.5263C29.2602 15.7006 29.3582 15.9372 29.3582 16.1837V23.9704Z" fill="#F36DD4" stroke="#F36DD4" stroke-width="0.1"/>
<path d="M27.9394 16.1335H24.021C23.723 16.1335 23.4812 16.3753 23.4812 16.6733V18.6325C23.4812 18.7757 23.5381 18.913 23.6393 19.0142C23.7406 19.1155 23.8779 19.1723 24.021 19.1723H27.9394C28.0826 19.1723 28.2199 19.1155 28.3211 19.0142C28.4223 18.913 28.4792 18.7757 28.4792 18.6325V16.6733C28.4792 16.5302 28.4223 16.3928 28.3211 16.2916C28.2199 16.1904 28.0826 16.1335 27.9394 16.1335ZM27.3996 18.0927H24.5608V17.2131H27.3996V18.0927Z" fill="#F36DD4" stroke="#F36DD4" stroke-width="0.1"/>
<path d="M27.9394 20.0522H24.021C23.723 20.0522 23.4812 20.2939 23.4812 20.592V22.5511C23.4812 22.6943 23.5381 22.8316 23.6393 22.9328C23.7406 23.0341 23.8779 23.0909 24.021 23.0909H27.9394C28.0826 23.0909 28.2199 23.0341 28.3211 22.9328C28.4223 22.8316 28.4792 22.6943 28.4792 22.5511V20.592C28.4792 20.4488 28.4223 20.3115 28.3211 20.2102C28.2199 20.109 28.0826 20.0522 27.9394 20.0522ZM27.3996 22.0113H24.5608V21.1317H27.3996V22.0113Z" fill="#F36DD4" stroke="#F36DD4" stroke-width="0.1"/>
</svg>
