<svg width="22" height="22" viewBox="0 0 22 22" fill="none" xmlns="http://www.w3.org/2000/svg">
<path fill-rule="evenodd" clip-rule="evenodd" d="M10.9997 20.5143C5.75345 20.5143 1.48573 16.2463 1.48573 10.9997C1.48573 5.75345 5.75372 1.48573 10.9997 1.48573C16.2462 1.48573 20.5143 5.75372 20.5143 10.9997C20.5143 16.2462 16.2463 20.5143 10.9997 20.5143ZM10.9997 0C4.93423 0 0 4.93433 0 10.9997C0 17.0651 4.93433 22 10.9997 22C17.0651 22 22 17.0655 22 10.9997C22 4.93402 17.0655 0 10.9997 0ZM12.4944 10.9997V16.5712H9.36914V10.9997H6.24369L10.9996 5.42823L15.7559 10.9997H12.4944ZM12.1296 4.46357C11.8473 4.13297 11.4342 3.94248 10.9995 3.94248C10.5647 3.94248 10.152 4.13297 9.86946 4.46357L5.11336 10.0351C4.73717 10.4761 4.65156 11.0952 4.89428 11.6219C5.13699 12.1482 5.66389 12.4854 6.24364 12.4854H7.88336V16.5712C7.88336 17.3916 8.54828 18.0569 9.36909 18.0569H12.4943C13.3147 18.0569 13.9801 17.3916 13.9801 16.5712V12.4854H15.7558C16.3353 12.4854 16.8624 12.1482 17.1049 11.6219C17.3481 11.0953 17.262 10.4757 16.8856 10.0351L12.1296 4.46357Z" fill="#F36DD4"/>
</svg>
