<svg width="52" height="52" viewBox="0 0 52 52" fill="none" xmlns="http://www.w3.org/2000/svg">
<g clip-path="url(#clip0_3852_144679)">
<g filter="url(#filter0_d_3852_144679)">
<circle cx="26" cy="26" r="19" fill="white"/>
<path d="M43.3337 25.9997C43.3337 35.5547 35.5553 43.333 26.0003 43.333C16.4453 43.333 8.66699 35.5547 8.66699 25.9997C8.66699 16.4447 16.4453 8.66634 26.0003 8.66634C35.5553 8.66634 43.3337 16.4447 43.3337 25.9997ZM47.667 25.9997C47.667 14.0397 37.9603 4.33301 26.0003 4.33301C14.0403 4.33301 4.33366 14.0397 4.33366 25.9997C4.33365 37.9597 14.0403 47.6663 26.0003 47.6663C37.9603 47.6663 47.667 37.9597 47.667 25.9997ZM19.5003 25.9997L28.167 17.333L28.167 34.6663L19.5003 25.9997Z" fill="#6C6C6C"/>
</g>
</g>
<defs>
<filter id="filter0_d_3852_144679" x="0.333496" y="4.33301" width="51.3335" height="51.3333" filterUnits="userSpaceOnUse" color-interpolation-filters="sRGB">
<feFlood flood-opacity="0" result="BackgroundImageFix"/>
<feColorMatrix in="SourceAlpha" type="matrix" values="0 0 0 0 0 0 0 0 0 0 0 0 0 0 0 0 0 0 127 0" result="hardAlpha"/>
<feOffset dy="4"/>
<feGaussianBlur stdDeviation="2"/>
<feComposite in2="hardAlpha" operator="out"/>
<feColorMatrix type="matrix" values="0 0 0 0 0 0 0 0 0 0 0 0 0 0 0 0 0 0 0.25 0"/>
<feBlend mode="normal" in2="BackgroundImageFix" result="effect1_dropShadow_3852_144679"/>
<feBlend mode="normal" in="SourceGraphic" in2="effect1_dropShadow_3852_144679" result="shape"/>
</filter>
<clipPath id="clip0_3852_144679">
<rect width="52" height="52" fill="white" transform="translate(52) rotate(90)"/>
</clipPath>
</defs>
</svg>
