<svg width="185" height="58" viewBox="0 0 185 58" fill="none" xmlns="http://www.w3.org/2000/svg">
<g clip-path="url(#clip0_3852_144639)">
<path d="M157.018 45.4532C156.35 45.6053 155.757 45.9895 155.343 46.5381C155.196 46.7847 153.501 46.7917 153.13 46.5381C152.984 46.4421 152.844 46.3387 152.709 46.2281C152.667 46.6085 152.709 46.9326 152.331 47.1087C152.284 47.1368 152.244 47.1741 152.212 47.2182C152.18 47.2624 152.157 47.3125 152.144 47.3657C152.132 47.419 152.13 47.4741 152.14 47.528C152.149 47.5819 152.169 47.6333 152.198 47.6794C152.24 47.7799 152.315 47.863 152.411 47.9154C152.506 47.9678 152.616 47.9864 152.723 47.9682C153.163 47.8671 153.622 47.8939 154.047 48.0457C146.152 48.8277 138.222 49.2856 130.327 50.1239L130.369 50.6523C138.159 50.0535 145.956 49.504 153.781 49.3208C153.431 49.5593 153.026 49.7047 152.604 49.7435C149.802 49.9337 147 50.0394 144.247 50.3564C141.206 50.7016 138.152 50.8777 135.14 51.1172C133.566 51.2733 131.984 51.3275 130.404 51.2793C129.654 51.244 129.171 51.6104 129.227 52.5403C130.005 52.2444 130.796 52.6459 131.546 52.2514C131.658 52.2174 131.778 52.2125 131.893 52.2371C132.008 52.2618 132.115 52.3151 132.204 52.3923C132.4 52.5826 132.155 52.8009 132.015 53.0264C132.639 52.9277 133.311 53.118 133.682 52.3712C133.837 52.0753 133.991 52.3712 134.152 52.4839C134.502 52.7657 134.852 53.1884 135.14 52.343C135.287 51.9133 135.735 52.174 136.085 52.2162C136.59 52.2796 137.248 53.0334 137.584 51.8922C137.669 51.6033 138.019 51.8922 138.138 52.188C138.257 52.4839 138.005 52.8925 138.551 52.8291C138.923 52.8291 139.07 52.8291 139.112 52.2444C139.154 51.6597 139.938 51.4413 140.597 51.7724C140.95 51.9378 141.343 52.001 141.73 51.955C142.117 51.9089 142.484 51.7555 142.79 51.5117C143.035 51.3568 143.175 51.4131 143.238 51.709C143.277 51.9072 143.36 52.0936 143.483 52.2536C143.606 52.4136 143.763 52.5428 143.944 52.6309C144.125 52.719 144.323 52.7637 144.524 52.7614C144.725 52.7592 144.923 52.71 145.101 52.6178C145.283 52.5544 145.41 52.2867 145.676 52.4487C145.512 52.7032 145.27 52.896 144.986 52.9967C144.702 53.0974 144.392 53.1004 144.107 53.0052C143.77 52.9066 143.315 53.0968 143.406 53.4561C143.749 54.4706 142.916 54.4283 142.488 54.4283C142.061 54.4283 141.921 54.4283 141.788 54.8369C141.655 55.2455 141.15 55.2525 140.723 55.2384C139.996 55.1899 139.266 55.2686 138.565 55.4709C137.64 55.6487 136.689 55.6487 135.763 55.4709C135.062 55.4287 134.18 56.1754 133.528 55.2032C133.451 55.0835 133.486 55.5555 133.241 55.5555C133.241 55.4991 133.199 55.4427 133.241 55.4005C133.346 55.1116 133.36 54.7735 133.024 54.696C132.688 54.6185 132.884 55.1821 132.576 55.2455C132.898 55.9922 132.337 55.7104 132.015 55.7457C131.745 55.7738 131.478 55.8233 131.217 55.8936C130.936 55.9782 130.929 55.7175 130.831 55.5977C130.81 55.5659 130.796 55.5292 130.792 55.4909C130.788 55.4525 130.794 55.4138 130.808 55.3782C130.823 55.3426 130.846 55.3111 130.876 55.2867C130.905 55.2623 130.941 55.2458 130.978 55.2384C131.539 55.2384 131.581 55.013 131.273 54.6115C130.964 54.2099 130.677 54.3719 130.411 54.6819C130.366 54.7266 130.317 54.7667 130.264 54.8017C129.935 53.3927 128.589 54.4283 127.931 53.8577C128.197 53.4561 128.547 53.8577 128.856 53.759C128.741 53.6226 128.594 53.5172 128.429 53.4524C128.264 53.3875 128.085 53.3653 127.909 53.3877C127.732 53.4101 127.565 53.4764 127.421 53.5806C127.276 53.6849 127.16 53.8237 127.083 53.9845C126.992 54.2104 126.832 54.401 126.625 54.5279C126.418 54.6548 126.176 54.7112 125.934 54.6889C125.844 54.6923 125.754 54.7089 125.668 54.7383C125.899 55.5062 125.43 55.5555 124.849 55.7386C124.47 55.8584 124.519 56.0697 124.316 55.6118C124.246 55.4568 124.155 55.2878 124.029 55.2948C123.903 55.3018 123.882 55.485 123.938 55.64C123.994 55.795 123.938 55.8302 123.791 55.7316C122.847 55.3078 121.832 55.0687 120.799 55.0271C119.721 54.8439 118.698 55.323 117.591 55.0271C116.829 54.9174 116.053 55.0794 115.398 55.485C115.02 55.7104 114.957 55.4005 114.908 55.0482C114.831 54.5833 114.41 54.3931 114.116 54.7453C113.579 55.284 112.863 55.6049 112.106 55.647C111.237 55.8091 110.333 55.5273 109.388 55.7386C108.939 55.8373 108.197 55.4427 107.573 55.5555C106.389 55.6843 105.197 55.7219 104.007 55.6682C102.221 55.7104 100.449 56.2599 98.6411 55.8725C98.0177 55.7457 97.3031 56.1331 96.7076 55.4568C96.7076 56.8024 95.3416 55.4921 95.1034 56.3938C95.1875 56.5558 95.3486 56.5065 95.4887 56.5206C95.6288 56.5347 96.0141 56.3727 96.0491 56.6333C96.1122 57.0842 95.6708 56.7038 95.6008 56.8165C95.2995 57.3096 95.0263 57.7957 94.1997 57.521C94.3661 57.3603 94.475 57.1488 94.5092 56.9193C94.5434 56.6899 94.5011 56.4556 94.3888 56.2529C94.3118 56.0627 93.373 56.1613 92.8056 56.4079C93.0858 56.7813 93.5762 57.0349 93.5061 57.5773C92.9247 57.9859 93.0438 56.577 92.2171 57.3519C92.6165 56.6122 92.8406 56.105 91.8108 56.2529C91.5516 56.2881 91.2014 55.8091 90.9071 55.5484C90.774 55.4287 90.8511 55.2384 90.9071 55.1257C90.9632 55.013 91.2014 54.9919 91.3765 55.1257C92 55.5414 92.1541 55.175 92.077 54.6396C92.035 54.4072 92.007 54.2522 92.1961 54.1042C91.7688 53.8365 92.8546 53.3293 92.1121 53.2448C91.7408 53.2025 90.9351 52.66 90.8581 53.7943C90.8581 54.2169 89.9964 54.2803 89.8493 53.9211C89.3729 52.7305 88.3571 53.2166 87.6356 53.2166C86.7923 53.2547 85.9706 53.4964 85.2397 53.9211C85.2873 53.9943 85.3602 54.0472 85.4444 54.0693C85.5286 54.0914 85.6179 54.0813 85.6951 54.0408C85.9823 53.8788 86.2695 53.7379 86.5287 54.0408C86.7879 54.3438 86.4727 54.5692 86.3536 54.8298C86.2345 55.0905 85.7301 55.5836 86.6618 55.3441C86.893 55.2878 87.2713 55.9711 87.7267 55.4568C87.8107 55.3582 87.9298 55.3018 87.8808 55.168C87.8317 55.0341 87.6566 55.168 87.5935 55.1328C87.3413 54.9848 87.0261 54.9073 87.3974 54.4635C87.6714 54.1989 88.0276 54.0372 88.4062 54.0056C88.5253 53.9704 88.6444 54.4283 88.7424 54.7101C88.9386 55.2173 89.1488 55.8091 89.9474 55.5836C89.7862 56.0416 89.7582 56.6263 89.0087 56.1331C88.8545 56.0275 88.5463 56.1331 88.3081 56.1684C87.7617 56.274 87.2223 56.591 86.7319 56.0204C86.5217 55.7738 86.4236 56.1613 86.3536 56.1543C86.0734 56.112 86.1785 56.7319 85.8912 56.4572C85.1206 55.7527 84.1539 56.2811 83.2782 56.0275C82.5785 55.7979 81.8376 55.7234 81.1065 55.8091C80.7079 55.9297 80.3589 56.1768 80.1117 56.5136C80.0066 56.0134 79.6283 55.5555 80.2518 55.2878C80.6301 55.1257 81.0645 55.5836 81.4708 55.2878C81.128 55.0337 80.7304 54.8649 80.3103 54.7951C79.8902 54.7253 79.4597 54.7565 79.0539 54.8862C78.6406 55.1328 78.7387 55.64 78.5215 55.9922C78.4374 56.1331 78.4654 56.5065 78.3183 56.429C77.4286 55.9781 76.3428 56.8165 75.7403 56.3233C75.1378 55.8302 75.1449 56.3233 74.8366 56.3656C74.5284 56.4079 73.982 56.8235 73.5967 56.3163C73.4495 56.119 73.1903 56.3727 73.1413 56.3163C72.6649 56.0556 72.0695 57.0842 71.6632 56.1684C71.6071 56.0345 71.2779 56.0627 71.1938 56.2529C70.9696 56.7319 70.5423 56.5488 70.241 56.5065C69.9398 56.4642 69.5405 56.2952 69.2743 56.6967C69.2182 56.7742 69.0291 56.8517 68.959 56.8094C68.1254 56.3656 67.1797 56.6192 66.318 56.3656C65.5716 56.179 64.7976 56.1312 64.0342 56.2247C63.6209 56.2247 63.1936 56.5347 62.7032 56.577C62.3669 56.577 62.6471 57.0701 62.472 57.2814C62.2969 57.4928 62.2899 57.9155 61.9396 57.4435C61.7765 57.2282 61.572 57.0481 61.3384 56.9138C61.1048 56.7794 60.8468 56.6936 60.5796 56.6614C60.3124 56.6292 60.0415 56.6513 59.7829 56.7264C59.5244 56.8014 59.2834 56.9279 59.0744 57.0983C58.7242 57.3717 58.2983 57.5292 57.8554 57.5491C57.8904 57.4364 57.8974 57.366 57.9325 57.3448C58.1777 57.1828 58.584 57.4294 58.7241 57.0419C58.7539 56.9199 58.7457 56.7916 58.7006 56.6744C58.6555 56.5572 58.5756 56.4568 58.4719 56.3868C58.1706 56.119 57.8484 56.3304 57.5472 56.4783C57.2459 56.6263 56.6785 56.6967 56.6925 57.2674C56.6925 57.4294 56.7345 57.5985 56.5314 57.6196C56.3282 57.6407 56.2652 57.4998 56.2091 57.3519C55.8729 56.4783 55.4385 55.8373 54.3737 56.4854C54.2126 56.584 54.1005 56.3938 54.2196 56.2177C54.4507 55.8866 54.0234 55.7879 53.9674 55.5484C53.9114 55.3855 53.7945 55.2509 53.6414 55.1733C53.4884 55.0957 53.3113 55.0812 53.1477 55.1328C52.9796 55.175 52.8395 55.2596 52.8815 55.4357C52.9516 55.7527 52.7764 56.2106 53.3439 56.267C53.6521 56.267 53.7642 56.4079 53.4069 56.591C53.3579 56.591 53.2528 56.6333 53.2458 56.6615C53.2458 57.0278 53.5541 57.6266 52.8185 57.5491C52.251 57.4857 52.5733 56.8869 52.4682 56.5417C52.2861 55.957 52.181 55.9147 51.7046 56.274C51.6407 56.3147 51.5687 56.3409 51.4937 56.3506C51.4186 56.3603 51.3424 56.3534 51.2703 56.3304C50.9069 56.2028 50.5082 56.2236 50.1598 56.3882C49.8115 56.5529 49.5411 56.8482 49.4068 57.211C49.3088 57.3942 49.0986 57.5069 48.9795 57.2885C48.8604 57.0701 48.5662 56.9926 48.2789 56.9574C47.9917 56.9222 47.8866 56.9574 47.8796 56.7038C47.8726 56.4502 48.1879 56.5488 48.2719 56.3233C47.9847 56.0979 47.4103 56.2106 47.3893 55.6189C47.3893 55.4075 47.2842 55.4921 47.109 55.5625C46.8433 55.645 46.6008 55.7895 46.4011 55.9841C46.2015 56.1788 46.0504 56.4181 45.9601 56.6826C45.8663 56.6387 45.7791 56.5818 45.7009 56.5136C45.3787 56.0697 45.2035 54.7453 44.5871 56.4008C44.5179 56.5021 44.4274 56.5868 44.3221 56.6491C44.2168 56.7113 44.0991 56.7494 43.9775 56.7609C43.8558 56.7723 43.7332 56.7567 43.6182 56.7152C43.5032 56.6737 43.3987 56.6072 43.3121 56.5206C42.8777 55.8936 42.7657 56.4008 42.5205 56.591C42.2753 56.7813 42.0651 56.9362 42.3033 57.2955C42.5415 57.6548 42.8217 57.5985 43.1019 57.2955C43.1328 57.2609 43.1706 57.2332 43.2128 57.2142C43.2551 57.1952 43.3008 57.1854 43.3471 57.1854C43.3934 57.1854 43.4391 57.1952 43.4814 57.2142C43.5236 57.2332 43.5614 57.2609 43.5923 57.2955C43.6834 57.3801 43.7885 57.5069 43.6273 57.5844C43.4662 57.6619 43.1299 58.2395 42.9268 57.9648C42.4854 57.4223 42.2262 58.0775 41.96 58.0141C42.0361 57.6555 42.0263 57.2838 41.9312 56.9298C41.8362 56.5758 41.6588 56.2496 41.4136 55.9781C41.0493 55.5625 41.0283 56.3163 41.0493 56.3374C41.2805 56.6544 40.9092 56.6756 40.8251 56.8235C40.5729 56.4079 40.2227 57.0419 40.0125 56.7672C39.951 56.6601 39.9187 56.5386 39.9187 56.4149C39.9187 56.2913 39.951 56.1698 40.0125 56.0627C40.4039 55.6273 40.9165 55.3205 41.4837 55.1821C42.5762 55.0026 43.6855 54.9482 44.7902 55.0201C45.7548 55.1056 46.7242 54.9228 47.5924 54.4917C47.8236 54.379 48.0548 54.7101 48.363 54.7594C49.1686 54.8862 49.9533 54.0549 50.7799 54.8298C51.1652 55.2032 51.9638 55.0623 52.4892 54.7594C52.7858 54.5459 53.1336 54.4157 53.4969 54.3823C53.8601 54.3489 54.2256 54.4134 54.5558 54.5692C54.9411 54.7524 55.3194 54.9637 55.6067 54.4142C55.6417 54.3624 55.6867 54.3182 55.7389 54.2841C55.7912 54.25 55.8497 54.2267 55.911 54.2156C55.9722 54.2044 56.0351 54.2057 56.0959 54.2192C56.1568 54.2327 56.2143 54.2583 56.2652 54.2944C56.4656 54.4246 56.6991 54.4938 56.9377 54.4938C57.1763 54.4938 57.4098 54.4246 57.6102 54.2944C58.4158 53.8858 59.3896 54.534 60.1182 53.8436C60.1182 53.8436 60.2022 53.8436 60.2092 53.8436C60.6576 54.7524 61.6103 53.9563 62.2338 54.4494C62.4279 54.609 62.6745 54.6896 62.9248 54.6752C63.1752 54.6609 63.411 54.5527 63.5859 54.3719C63.8161 54.2175 64.0867 54.135 64.3635 54.135C64.6403 54.135 64.9108 54.2175 65.1411 54.3719C65.7646 54.858 66.318 54.4072 66.8014 54.2663C67.4108 54.0831 66.5141 53.7661 66.6542 53.4279C67.2357 53.4913 67.2567 53.9704 67.4108 54.4072C68.0273 53.7027 68.9871 54.0901 69.6456 53.5688C69.7437 53.8436 69.6806 54.3719 69.9468 54.3578C70.6474 54.3015 71.3829 54.9073 72.0905 54.3578C71.9574 54.1676 71.6281 54.3578 71.5651 53.9633C72.841 54.0058 74.1183 53.9705 75.39 53.8577C75.4391 53.8577 75.5512 53.9492 75.5582 54.0056C75.6352 54.8369 76.3498 54.4846 76.7631 54.6185C77.0083 54.696 77.5127 54.6185 77.0083 54.1395C76.9457 54.0728 76.9109 53.9846 76.9109 53.8929C76.9109 53.8012 76.9457 53.713 77.0083 53.6463C77.0714 53.597 77.1834 53.6463 77.2745 53.6463C76.9593 54.1395 77.5687 54.1254 77.6668 54.386C77.7649 54.6467 77.9891 54.7523 78.0031 54.5551C78.0451 53.9633 78.6126 54.1958 78.9138 53.914L77.905 53.3927C78.3253 53.3927 78.5005 53.3363 78.6056 53.3927C78.8998 53.5547 79.138 53.4772 79.173 53.2025C79.208 52.9277 78.8858 52.9911 78.6826 52.9418C78.3198 52.899 77.9522 52.9204 77.5968 53.0052C76.3358 53.1532 75.0328 53.4632 73.8068 52.808C73.7633 52.7694 73.7072 52.748 73.6492 52.748C73.5911 52.748 73.5351 52.7694 73.4916 52.808C73.2072 53.0895 72.8368 53.2663 72.4401 53.3097C72.0435 53.3532 71.6438 53.2608 71.3059 53.0475C71.1377 52.9418 70.8295 52.7023 70.7875 52.97C70.6754 53.7731 70.0869 53.3223 69.7296 53.4561C69.8978 53.0616 69.6596 52.6671 69.7296 52.2796C69.7647 52.0331 69.6596 52.0119 69.4985 52.019C69.3787 52.006 69.258 52.0333 69.1552 52.0965C68.9257 52.395 68.6303 52.6358 68.2923 52.7997C67.9542 52.9635 67.5829 53.046 67.2077 53.0405C65.9869 52.8419 64.7524 52.7406 63.5158 52.7375C62.5491 52.7375 61.5473 52.7375 60.5595 52.7798C60.5595 52.7305 60.5595 52.6671 60.6226 52.646C60.6856 52.6248 61.7364 51.5963 61.9116 51.4061C61.9787 51.3399 62.0646 51.2962 62.1574 51.2811C62.2502 51.2659 62.3454 51.2801 62.43 51.3215C62.6524 51.4103 62.8916 51.4488 63.1305 51.4342C63.2857 51.4766 63.4294 51.5537 63.5507 51.6599C63.672 51.766 63.7679 51.8984 63.8311 52.0471C63.9148 52.249 64.0743 52.4095 64.2749 52.4939C64.4755 52.5783 64.7012 52.5797 64.9029 52.498C65.2952 52.3642 66.0378 52.336 65.8766 51.5047C65.8346 51.2722 65.9957 50.9693 66.318 51.1031C67.2847 51.4906 68.2305 50.3987 69.2393 51.1031C69.3584 51.1947 69.8838 50.8777 70.0519 50.3987C68.7139 50.3987 67.4529 50.1239 66.1569 50.5325C65.3372 50.7932 64.3775 50.2437 63.5719 50.8636C62.9484 50.1591 62.1287 50.5677 61.4142 50.5466C59.9702 50.3894 58.5096 50.5504 57.1338 51.0186C58.3808 51.2299 58.689 52.336 59.6628 52.7939C58.4509 53.0405 57.7643 52.026 56.7275 51.8147C56.8422 52.1285 56.8422 52.473 56.7275 52.7868C56.6575 52.9277 56.6575 53.132 56.4823 53.0757C55.5156 52.7657 54.6049 53.0757 53.6802 53.3011C53.6311 53.3011 53.5681 53.3011 53.3299 53.1743C54.0304 52.6107 54.731 52.808 55.4315 52.7234C55.6347 52.7234 55.9079 53.0264 56.034 52.6248C56.083 52.4628 56.1461 52.2162 56.069 52.1105C55.9919 52.0049 55.6627 51.9978 55.4175 52.026C54.6879 52.1834 53.9315 52.164 53.2108 51.9696C53.0216 51.9062 52.4612 52.0683 52.7484 52.4135C53.1688 52.9277 52.6083 53.118 52.5032 53.118C51.8108 53.3574 51.0847 53.4835 50.3526 53.4913C50.2335 53.4913 50.0373 53.4913 50.0093 53.442C49.3088 52.1105 47.9637 52.6248 46.9199 52.4769C45.3156 52.2585 43.6624 52.3783 42.0511 52.1951C41.0813 52.0788 40.0986 52.1409 39.1508 52.3782C38.5948 52.468 38.0327 52.5151 37.4695 52.5191C36.9721 52.5614 36.4187 52.5191 36.2226 53.1743C36.2226 53.2518 36.0054 53.3645 35.9494 53.3363C34.8005 52.8432 33.5325 53.2307 32.3906 52.8221C32.1065 52.738 31.8595 52.5591 31.69 52.3148C31.5537 52.0538 31.3223 51.8559 31.0441 51.7626C30.7659 51.6694 30.4627 51.688 30.1979 51.8147C30.0508 51.8781 29.8406 51.9767 29.7775 51.871C29.2381 51.0045 28.2013 51.5963 27.5288 51.0679C27.3186 50.9059 26.9053 50.9975 26.5831 51.0045C26.471 51.0045 26.2888 51.1454 26.2538 51.1102C25.3781 50.2296 24.1101 50.8918 23.1574 50.3212C22.8421 50.131 22.4568 50.5889 22.0435 50.2578C22.5759 50.1732 23.0453 50.0887 22.9682 49.3983C22.9682 49.1799 23.2555 48.9615 23.5847 49.2292C24.2292 49.7505 24.9858 49.3067 25.7284 49.5251C25.7932 49.5509 25.8642 49.5567 25.9323 49.5416C26.0003 49.5266 26.0624 49.4916 26.1106 49.4409C26.1587 49.3902 26.1907 49.3262 26.2025 49.2571C26.2143 49.1881 26.2053 49.117 26.1767 49.0531C26.0997 48.8136 26.2258 48.3838 25.6724 48.5388C25.5042 48.5881 25.259 48.3838 24.9718 48.2711C25.4272 47.8484 25.8265 48.2711 26.2118 48.2148C26.3869 48.2148 26.6671 48.405 26.6391 47.9964C26.6391 47.8343 26.6391 47.5596 26.3939 47.623C25.9456 47.7216 25.6373 47.0735 25.245 47.3835C25.0769 47.5173 25.0208 47.5666 24.8387 47.4891C24.044 47.294 23.2234 47.2275 22.4078 47.2919C21.4901 47.2355 21.5952 47.8555 21.7073 48.2641C21.8754 48.7854 21.5111 48.9686 21.2869 49.1165C21.0628 49.2644 20.9086 48.884 20.8246 48.7009C20.6705 48.3627 20.8246 48.102 21.2099 48.102C21.5952 48.102 21.4551 47.8202 21.4411 47.6441C21.4411 47.3271 21.2309 47.3342 20.9857 47.3976C20.6909 47.4986 20.3732 47.5105 20.0718 47.4316C19.7704 47.3527 19.4987 47.1865 19.2904 46.9537C19.2203 46.8762 19.1433 46.7847 18.9821 46.8481C18.5478 47.0312 18.2326 47.4046 17.6791 47.4187C17.1257 47.4328 16.6143 47.1651 16.0959 47.3553C15.8927 47.0946 16.3481 46.7565 16.0328 46.6508C15.7176 46.5451 15.2412 46.4958 15.0941 46.7847C14.7368 47.4891 14.0293 47.2355 13.5179 47.4891C12.8412 47.7517 12.1356 47.9315 11.4163 48.0245C10.8624 48.0966 10.2997 48.0035 9.79799 47.7568C9.57519 47.711 9.34546 47.7111 9.1227 47.7571C8.89994 47.8031 8.68878 47.8941 8.50198 48.0245C7.95556 48.2852 7.42314 48.6163 6.79966 48.2288C6.71559 48.1795 6.55447 48.412 6.60351 48.2852C6.86971 47.5807 6.70859 46.5522 7.89251 46.4888C8.03885 46.4741 8.17757 46.416 8.29107 46.322C8.40456 46.2279 8.48772 46.1021 8.53001 45.9604C7.35309 46.4324 6.30227 45.8266 5.16039 45.9604C4.30943 46.0498 3.45055 45.8985 2.68045 45.5236C2.51933 45.4391 2.29515 45.4602 2.34419 45.2066C2.36415 45.027 2.44593 44.86 2.57537 44.7346C2.72949 44.643 2.98869 44.5303 3.1288 44.8121C3.26891 45.0939 3.47207 45.0798 3.75929 44.8967C4.23389 44.6876 4.76967 44.6675 5.25846 44.8403C5.53328 44.8643 5.81015 44.8428 6.0781 44.7769C6.1167 44.7621 6.15136 44.7385 6.17932 44.7079C6.20729 44.6774 6.2278 44.6407 6.23923 44.6008C6.24846 44.5714 6.24988 44.5402 6.24335 44.5101C6.23682 44.48 6.22257 44.4522 6.20202 44.4294C6.18146 44.4066 6.15532 44.3896 6.12621 44.3801C6.09709 44.3706 6.06601 44.369 6.03607 44.3753C5.65077 44.4387 5.33552 44.2063 4.99926 44.1358C4.663 44.0654 4.12358 44.0301 4.13058 43.7131C4.12963 43.5031 4.19784 43.2987 4.32456 43.1317C4.45129 42.9648 4.62941 42.8447 4.83113 42.7902C4.91519 42.7902 4.97123 42.6212 5.04129 42.5225C4.34074 42.1562 3.6402 42.8396 2.88361 42.4732C2.6104 42.3323 2.78553 43.1002 2.36521 43.1777C2.57537 43.5159 3.16383 43.1777 3.23389 43.7131C2.93265 43.6709 2.68746 43.4031 2.37221 43.4595C2.05697 43.5159 1.67167 43.53 1.97991 42.9805C2.03595 42.8748 2.02894 42.5648 1.7137 42.6987C1.39845 42.8325 1.32139 42.6987 1.21631 42.4169C0.908072 41.5363 0.88706 41.5433 0.284591 42.0928C0.627858 41.2686 0.63486 41.3108 1.46851 41.1911C2.06397 41.1065 2.65243 41.4095 3.28292 41.1277C3.09378 41.4236 2.72949 41.7053 3.0027 42.0153C3.11559 42.1585 3.27437 42.2578 3.45195 42.2963C3.62954 42.3349 3.81492 42.3102 3.97646 42.2267C4.23362 42.1308 4.50957 42.097 4.78209 42.128C5.03429 42.128 5.59472 42.283 5.1814 41.6631C5.0553 41.4729 5.1814 41.3672 5.34252 41.339C5.50365 41.3108 5.70681 41.339 5.60173 41.6208C5.59302 41.6561 5.59242 41.6929 5.59997 41.7285C5.60752 41.764 5.62302 41.7974 5.6453 41.8261C5.66758 41.8547 5.69605 41.8779 5.72856 41.8938C5.76106 41.9097 5.79675 41.918 5.83291 41.918C5.86907 41.918 5.90475 41.9097 5.93725 41.8938C5.96976 41.8779 5.99823 41.8547 6.02051 41.8261C6.04279 41.7974 6.05829 41.764 6.06584 41.7285C6.07339 41.6929 6.0728 41.6561 6.06409 41.6208C5.89596 40.9938 6.2112 41.0572 6.65255 41.1206C6.90474 41.1206 7.35309 41.3742 7.40213 40.7754C7.40213 40.4936 7.50021 40.3598 7.10089 40.3457C5.56375 40.315 4.0267 40.4116 2.50532 40.6345C2.23911 40.6698 1.60862 40.9938 1.9729 40.1696C2.07798 39.9301 1.76274 39.5637 1.60862 39.6694C1.12524 40.0005 0.480741 39.5708 0.0744252 40.085C-0.128733 39.8244 0.151485 39.6342 0.123463 39.3806C0.074425 38.9649 -0.0516727 38.6338 0.725933 38.9015C1.3214 39.1058 2.21809 38.6761 2.82757 38.4013C3.50437 38.2261 4.19261 38.0989 4.88717 38.0209C5.20942 37.9293 5.58772 38.0209 5.85392 37.7321C6.12013 37.4432 6.23922 37.6475 6.45639 37.8166C6.9748 38.2323 7.47218 37.8166 7.97658 37.6968C7.89251 37.401 8.44594 37.3446 8.27781 37.1826C7.92053 36.8233 7.24801 36.619 8.08166 36.0554C8.1377 36.0554 7.98358 35.8441 7.85048 35.8581C7.59828 35.8581 7.26902 35.7454 7.14993 36.1188C7.07988 36.3302 7.24801 36.6613 6.75763 36.6542C6.86972 36.1047 6.75763 35.6539 6.05708 36.0765C5.76285 36.2738 5.83991 35.985 5.80489 35.9568C5.76986 35.9286 5.75585 35.7243 5.90296 35.7102C6.60351 35.6186 6.65955 35.3157 6.40736 34.6887C6.15516 34.0617 6.73661 34.2026 7.31806 34.0547C6.61752 34.6817 6.9818 34.893 7.38111 35.1114C7.4971 34.7577 7.70397 34.4411 7.98077 34.1937C8.25756 33.9463 8.59446 33.7768 8.95734 33.7024C9.31462 33.7024 9.65789 33.5756 9.65789 33.2868C9.65789 32.843 9.27259 33.0966 9.04141 33.0754C8.18506 32.9502 7.31174 33.0176 6.48442 33.2727C6.42837 33.2727 6.35131 33.3502 6.31628 33.3291C6.03838 33.189 5.73017 33.1209 5.4195 33.1307C5.10882 33.1405 4.80548 33.2281 4.5369 33.3854C4.26369 33.4981 4.17962 32.9416 4.03951 32.6034C4.33374 32.8852 4.57893 32.9839 4.90118 32.7091C5.33552 32.3357 4.82412 32.1808 4.72605 31.9412C5.00626 31.7651 5.3075 31.7087 5.48964 31.9412C5.67178 32.1737 5.8259 32.2864 5.98002 31.9412C6.06409 31.751 6.61752 31.6665 6.13414 31.3565C5.86794 31.1874 6.01505 31.0043 6.00805 30.8C6.00104 30.5957 5.79087 30.3702 5.59472 30.6309C5.20241 31.1663 4.75407 31.0888 4.19363 30.9409C3.88358 30.8147 3.53693 30.8147 3.22688 30.9409C3.08677 31.0113 2.82757 31.0184 2.80655 30.7577C2.78554 30.497 2.95367 30.2998 3.18485 30.3421C4.28889 30.5603 5.43419 30.3675 6.40736 29.7996C6.9818 29.4685 7.67534 29.9475 8.12369 29.3346C7.8855 29.0035 7.53523 29.2994 7.241 29.1233C7.19897 28.8063 7.76641 28.9331 7.64732 28.5386C7.64732 28.5386 7.53523 28.454 7.4862 28.4752C7.12892 28.6443 6.67356 28.609 6.42136 28.9824C6.16917 29.3558 6.02206 28.9824 5.98703 28.9401C5.67879 28.5456 5.43359 28.6654 5.16739 28.9401C5.16739 28.9401 4.98525 29.1444 4.90118 28.9401C4.90118 28.9401 5.11835 28.7992 5.13236 28.7147C5.1814 28.3554 4.2777 28.8274 4.663 28.2357C4.86616 27.9186 5.13236 28.5245 5.46162 28.4259C5.79088 28.3272 5.78387 28.2075 5.6998 28.0314C5.55269 27.7073 5.49665 27.5593 5.93799 27.4114C6.08426 27.3522 6.24614 27.3443 6.39743 27.389C6.54871 27.4338 6.68056 27.5285 6.77164 27.658C7.01683 27.9398 7.03084 27.9398 7.21298 27.5875C7.39513 27.2353 7.70337 27.3832 8.01161 27.4044C8.01161 27.7707 7.37411 27.6862 7.57727 28.0173C7.78042 28.3484 8.27781 28.0173 8.66311 28.0807C9.18852 28.1652 8.69814 27.7425 8.75418 27.5946C8.97836 26.9535 9.65088 27.0733 10.0852 27.0521C11.3812 26.9887 12.6282 26.4392 13.9452 26.6717C14.0204 26.6695 14.0937 26.6484 14.1586 26.6102C14.2235 26.572 14.2778 26.5181 14.3165 26.4533C14.4076 26.1997 14.0993 26.3406 14.0503 26.249C13.7911 25.777 14.5057 26.1293 14.4426 25.7418C13.686 25.8122 12.9645 25.615 12.1588 25.7418C11.2669 25.8597 10.3648 25.8786 9.46874 25.7981C9.15366 25.7386 8.86489 25.5817 8.64264 25.3494C8.42039 25.1171 8.27572 24.8208 8.22877 24.5019C8.17273 24.0581 8.86627 23.6143 9.38467 23.417C9.5933 23.3526 9.814 23.3382 10.0292 23.3747C11.059 24.4878 11.3882 23.1 12.0257 22.8252C12.1308 22.7759 12.2149 22.6421 12.32 22.6209C13.1886 22.4871 14.0643 22.3673 14.954 22.2405C14.6804 21.8214 14.4279 21.3888 14.1974 20.9443C13.8541 20.2398 14.0433 19.5353 14.8209 19.324C15.5985 19.1126 16.3061 18.5068 17.2028 18.8942C17.4269 18.9929 17.7142 18.8449 17.9804 18.7392C18.2466 18.6336 18.6809 18.4152 18.9401 18.6336C19.7597 19.338 19.4935 18.5138 19.6407 18.225C18.8911 17.9573 18.0854 18.5772 17.448 17.915C17.1467 18.3306 16.6844 18.1827 16.2991 18.1897C16.0509 18.1662 15.8103 18.0915 15.5921 17.9703C15.374 17.8491 15.183 17.684 15.0311 17.4853C14.975 17.4359 15.0311 17.2316 15.2062 17.2528C15.3813 17.2739 15.4094 17.3796 15.4444 17.3585C15.8017 17.0767 16.6283 17.4219 16.5933 16.8371C16.5583 16.2524 15.8927 16.5976 15.4444 16.5765C15.2594 16.5777 15.0746 16.5895 14.891 16.6117C14.7722 16.6429 14.6465 16.6335 14.5337 16.5851C14.4208 16.5366 14.3272 16.4518 14.2675 16.344C14.2249 16.2625 14.2157 16.1675 14.2418 16.0793C14.268 15.9911 14.3275 15.9167 14.4076 15.872C14.6668 15.6677 14.884 15.872 15.0451 16.0129C15.5845 16.6047 16.1239 15.7945 16.6563 16.0129C16.7684 15.4775 17.2588 15.1393 17.4409 14.7026C17.7982 13.8431 18.4147 14.0826 18.9191 14.2376C19.5352 14.3721 20.1395 14.5558 20.7265 14.7871C21.1048 14.9773 21.8123 14.6039 22.3167 14.3503C22.5129 14.2517 22.3167 13.9558 22.0575 13.8219C21.7983 13.6881 21.5321 13.8713 21.2799 13.8854C20.3342 13.9417 19.5846 13.2936 18.6529 13.2654C17.9523 13.2654 17.3289 13.1738 16.7474 13.8783C16.7964 12.265 15.3463 11.5606 14.7649 10.3559C14.8699 10.2995 14.94 10.2361 14.961 10.2502C15.6616 10.7222 15.6616 10.7786 16.5232 10.5813C17.2238 10.4334 17.7632 11.0181 18.4357 10.8209C18.7019 10.7434 19.2203 11.159 19.0662 10.3911C19.0662 10.2291 19.4585 10.208 19.6266 10.2714C20.0408 10.3523 20.4665 10.3523 20.8806 10.2714C20.5303 9.70777 19.9069 9.9473 19.4235 9.82049C18.3376 9.54574 17.1958 9.65142 16.0889 9.36258C15.5144 9.2076 15.5845 8.1861 14.8069 8.5947C14.8069 8.52425 14.8629 8.39039 14.884 8.39039C15.3743 8.39039 14.6248 7.73523 15.2903 7.74932C17.3078 7.79159 19.3254 7.20686 21.35 7.70705C21.5812 7.7634 21.6092 7.70705 21.8194 7.18573C22.2047 7.18573 21.8754 7.89021 22.2957 7.79863C22.9963 7.65069 23.2134 7.09415 23.4376 6.5517C22.7791 5.67814 21.9174 6.24173 21.1468 6.19241C21.1028 6.19103 21.0591 6.19984 21.019 6.21816C20.9789 6.23648 20.9436 6.26383 20.9156 6.29808C20.7012 6.5936 20.4042 6.81834 20.0624 6.94377C19.7206 7.06921 19.3495 7.08967 18.9962 7.00256C18.4442 6.8391 17.8683 6.77238 17.2938 6.80531C17.1327 6.42489 17.9523 6.65032 17.6371 6.10083C17.2098 5.33999 16.7124 6.19945 16.236 5.89653C16.4152 5.75211 16.6224 5.64683 16.8443 5.5874C17.0663 5.52796 17.2981 5.51568 17.525 5.55133C17.749 5.59942 17.9825 5.57158 18.189 5.47218C18.3956 5.37277 18.5636 5.20739 18.6669 5.00184C19.3641 4.10225 20.1741 3.29716 21.0768 2.6066C21.1959 2.49388 21.4621 2.48683 21.385 2.24731C21.0908 1.36671 21.7493 2.00779 21.8824 1.81758C22.1416 2.21913 21.343 2.198 21.7003 2.59955C22.0575 3.00111 22.2187 2.7334 22.4919 2.59955C23.0523 2.31776 23.1924 2.8109 23.4166 3.12791L23.2765 3.2829C22.9734 3.53613 22.6216 3.72376 22.2431 3.83407C21.8646 3.94437 21.4676 3.97498 21.0768 3.92398C20.8386 3.92398 20.6004 3.92398 20.3762 3.88171C19.8298 3.79717 19.9419 4.25509 19.9209 4.48052C19.9209 4.86094 20.2221 4.82572 20.5023 4.8398C21.3981 4.94897 22.3037 4.94897 23.1994 4.8398C23.963 4.70595 24.6005 5.28363 25.3431 4.90321C25.7354 4.70596 26.1207 4.90321 26.2328 5.53725C26.3028 4.68482 26.8563 4.95252 27.2626 4.94548C28.3896 4.85953 29.5221 4.87604 30.6462 4.99479C31.5429 5.14978 32.3766 4.29031 33.3153 4.99479C33.4764 5.11455 34.1349 4.29031 34.7584 4.39598C35.0456 4.94548 35.5711 4.7764 36.0264 4.79754C36.804 4.79754 37.5956 5.02297 38.2962 4.49461C38.5133 4.32553 38.5624 4.49461 38.6675 4.66368C38.8205 4.90919 39.0068 5.13207 39.2209 5.3259C39.34 5.45271 39.5221 5.657 39.6833 5.51611C39.8028 5.34808 39.8841 5.15567 39.9214 4.95252C39.9985 4.73413 39.9214 4.61437 39.6903 4.5721C39.4591 4.52983 39.2559 4.65664 39.34 4.33962C39.4241 4.02261 39.5992 4.20577 39.7883 4.23395C40.9105 4.34431 42.0398 4.36316 43.165 4.29031C44.1808 4.29031 45.1965 4.10715 46.2193 4.12124C46.8779 4.12124 47.7535 4.31144 48.4401 3.70559C48.7553 3.41675 49.3368 2.86725 49.7571 3.70559C49.8972 3.98738 50.0443 3.81126 50.1914 3.74081C50.5067 3.58583 50.3386 3.33926 50.3105 3.10678C50.2825 2.8743 50.2055 2.77567 49.9252 2.75454C49.0704 2.66597 48.2088 2.83779 47.4523 3.24768C46.8849 3.57174 46.2824 3.03633 45.82 3.52243C45.82 3.52243 45.7079 3.45198 45.6589 3.45902C45.5642 3.47035 45.4682 3.45992 45.378 3.42852C45.2879 3.39713 45.2061 3.34558 45.1386 3.27776C45.0712 3.20994 45.0199 3.12761 44.9887 3.03698C44.9575 2.94635 44.9471 2.84978 44.9584 2.75454C44.9584 2.75454 44.9584 2.69114 44.9584 2.66296C44.9584 2.31776 44.2018 2.66296 44.447 2.11346C44.6221 1.71895 44.9794 2.0571 45.2316 1.97961C45.5309 1.88121 45.8379 1.80816 46.1493 1.76122C47.5504 1.57806 48.9515 1.72599 50.3526 1.5217C52.1505 1.29398 53.9651 1.22797 55.7748 1.32444C55.8823 1.33423 55.9864 1.3677 56.0796 1.42249C56.1728 1.47728 56.2529 1.55204 56.3142 1.64146C56.1391 1.64146 55.9709 1.7894 55.9849 1.90916C56.076 2.75454 55.4455 2.79681 54.9271 2.78272C53.7152 2.78272 52.5032 3.142 51.2703 2.78272C51.1173 2.78271 50.9704 2.84334 50.8616 2.95148C50.7527 3.05962 50.6907 3.20654 50.6888 3.36039C50.6888 3.74081 50.9831 3.7549 51.2002 3.70559C52.0479 3.52242 52.9866 3.94511 53.7642 3.30403C53.8553 3.23359 54.0164 3.14905 54.0795 3.18427C55.2844 3.88875 56.4473 3.12791 57.6312 3.08565C58.2827 3.18694 58.9484 3.13878 59.5787 2.94475C59.6514 2.92204 59.7279 2.91409 59.8036 2.92134C59.8794 2.9286 59.953 2.95092 60.0201 2.98702C60.6576 3.3463 60.6506 3.12087 61.3721 3.10678C62.0937 3.09269 62.9063 2.35298 63.4738 3.43789C63.6279 3.74786 63.9852 3.55765 64.1393 3.30403C64.1847 3.205 64.2523 3.11792 64.3368 3.04963C64.4213 2.98134 64.5204 2.93371 64.6264 2.91049C64.7323 2.88727 64.8422 2.8891 64.9473 2.91582C65.0524 2.94255 65.1499 2.99345 65.2321 3.06451C66.0168 3.76899 66.7523 3.31813 67.4459 3.06451C67.9254 2.82202 68.4375 2.65114 68.966 2.55728C68.4476 2.1346 68.2655 1.53578 67.6 1.4442C67.4389 1.4442 67.0886 1.37375 67.2777 0.965154C67.3968 0.697451 67.3828 0.190226 67.7541 0.345212C68.931 0.838349 70.0029 -0.0140721 71.1728 0.204317C71.8733 0.331124 72.6509 0.0211484 73.0082 1.21877C73.2254 0.598824 73.2814 -0.0633895 73.9329 0.514286C74.094 0.662227 74.2622 0.464974 74.4023 0.345212C74.5496 0.210258 74.7333 0.122182 74.9303 0.0920921C75.1272 0.0620023 75.3287 0.091248 75.5091 0.176137C76.0976 0.725633 76.5179 0.40157 77.0013 0.119778C77.3091 -0.0171326 77.6498 -0.0611864 77.9821 -0.00702942C79.3832 -0.00702942 80.7282 0.0422841 82.1013 0.0422841C82.9419 0.0422841 83.2151 0.612915 83.5024 1.1765C82.2554 1.54988 80.9944 1.1765 79.8595 1.02151C78.7246 0.866528 77.9821 1.68372 77.0083 1.2399C77.4018 1.57338 77.8951 1.7644 78.4094 1.78236C78.5595 1.75418 78.7147 1.77609 78.8512 1.84477C78.9878 1.91344 79.0983 2.02511 79.166 2.16278C79.2781 2.42343 79.4112 2.53615 79.6073 2.2614C80.1257 1.55692 80.7913 1.726 81.3797 2.06415C81.8312 2.29498 82.3245 2.43158 82.8298 2.4657C83.5304 2.53615 84.28 2.36003 84.0278 1.27513C85.4289 1.62737 86.7389 1.97961 88.0629 2.28254C88.3361 2.34594 88.3922 1.8528 88.7635 1.97256C89.7469 2.15614 90.7569 2.13937 91.7338 1.92325C92.042 1.85985 92.4343 1.60623 92.6445 2.14868C92.6445 2.21913 93.0158 2.63478 93.2399 2.14868C93.4641 1.66259 93.4991 2.28958 93.6533 2.2614C93.9615 2.20504 94.5009 3.00816 94.564 1.96552C94.564 1.60624 95.0193 1.83167 95.1104 1.96552C95.3276 2.34594 95.6498 2.53615 96.0001 2.34594C96.3504 2.15573 96.1262 1.83871 96.0001 1.54283C95.874 1.24695 96.0982 0.894709 96.4204 0.753812C96.7427 0.612916 96.8618 0.873575 96.9949 1.13423C97.128 1.39489 97.163 1.73304 97.4852 1.46534C97.8075 1.19763 97.4502 1.00742 97.3241 0.760853C98.0947 1.2399 99.2016 1.09196 99.706 2.16982C99.0895 2.51501 98.6131 2.04301 98.1017 1.85985C97.9406 1.80349 97.7024 1.5851 97.7585 1.92325C97.8145 2.2614 97.2611 2.20504 97.5903 2.48684C98.0597 2.88135 100.435 3.07155 100.953 2.72636C101.045 2.67706 101.12 2.60072 101.167 2.50756C101.215 2.4144 101.233 2.30886 101.219 2.20504C100.757 2.4023 100.414 2.16278 99.9512 1.90916C100.357 1.65555 101.135 2.01483 100.925 1.20468C100.925 1.07787 101.058 1.01447 101.191 1.00743C102.27 0.962129 103.349 1.08088 104.393 1.35967C104.467 1.37884 104.532 1.42277 104.578 1.48423C104.624 1.5457 104.647 1.62102 104.645 1.69782C104.645 2.00779 104.827 2.14868 104.981 2.00074C105.675 1.44269 106.538 1.14169 107.426 1.14832C108.225 1.07083 109.037 1.49352 109.871 1.14832C109.941 1.14832 110.13 1.42307 110.256 1.56396C110.018 1.93734 109.556 1.40193 109.374 1.81758C109.261 2.04301 109.682 2.74045 109.934 2.74045C111.657 2.74045 113.367 2.26845 115.104 2.47979C115.37 2.47979 115.447 2.2614 115.58 2.11346C116.148 1.48647 116.694 1.52874 116.925 2.29662C117.023 2.6066 117.087 2.55728 117.332 2.55024C117.948 2.55024 117.829 2.07119 117.927 1.5217C118.004 1.72417 118.147 1.89433 118.333 2.00438C118.519 2.11443 118.736 2.15785 118.95 2.12755C119.595 2.09676 120.234 2.2745 120.771 2.63478C120.991 2.76929 121.249 2.82446 121.504 2.79115C121.759 2.75784 121.995 2.63805 122.172 2.45161C122.314 2.31937 122.486 2.22494 122.674 2.17694C122.861 2.12895 123.057 2.12892 123.244 2.17686C123.659 2.27071 124.089 2.27659 124.506 2.19411C124.924 2.11163 125.319 1.9426 125.668 1.69782C125.423 2.26845 125.234 2.75454 125.948 2.57137C126.495 2.42343 126.649 2.94475 127.013 3.18427C127.108 2.99577 127.141 2.78213 127.108 2.57355C127.076 2.36497 126.979 2.17199 126.831 2.02188C127.931 2.02188 128.709 2.89544 129.745 2.83908C130.11 2.88245 130.48 2.82902 130.817 2.68409C130.975 2.59466 131.156 2.5543 131.337 2.56809C131.518 2.58188 131.69 2.64921 131.833 2.76158C132.12 2.91657 132.59 3.46606 132.828 2.62069C132.912 2.33889 133.157 2.55024 133.255 2.67C133.448 2.90301 133.613 3.15844 133.745 3.43084C134.159 4.29031 134.845 4.24099 135.63 4.13532C136.585 4.02529 137.501 3.69238 138.306 3.16314C138.131 2.76158 137.69 3.16314 137.507 2.77567C138.145 2.02188 139.119 2.11346 139.938 1.83872C139.987 1.83872 140.106 1.92325 140.148 1.9937C140.345 2.31071 139.637 2.16277 139.861 2.65591C140.085 3.14905 139.602 2.83203 139.42 2.86726C139.084 2.93066 138.656 2.86725 138.579 3.35335C138.474 3.99443 139.042 3.62105 139.28 3.76899C139.518 3.91694 139.686 3.8324 139.896 3.84649H140.527C140.064 4.47348 139.483 4.3044 139.021 4.25509C138.629 4.21624 138.235 4.21624 137.844 4.25509C137.535 4.25509 137.08 4.29735 137.458 4.8398C137.514 4.91025 137.458 5.06524 137.423 5.185C137.388 5.30477 136.835 5.3893 137.199 5.70632C137.563 6.02334 137.802 5.66405 137.949 5.45975C138.096 5.25545 138.278 5.15682 138.362 5.26954C138.972 6.07265 139.105 5.51611 139.497 5.01592C140.015 4.36076 140.863 4.83276 141.353 5.07228C141.645 5.22026 141.964 5.30431 142.29 5.31888C142.616 5.33346 142.942 5.27822 143.245 5.15682C143.819 4.95957 144.177 4.93844 144.254 5.86131C144.73 4.84685 145.178 5.10751 145.725 5.55838C145.934 5.76699 146.191 5.91953 146.474 6.002C146.757 6.08446 147.056 6.09422 147.343 6.03038C147.574 5.95993 147.756 5.92471 147.672 5.62883C147.63 5.50202 147.476 5.37521 147.728 5.29067C147.771 5.2731 147.817 5.26489 147.863 5.2666C147.909 5.26832 147.954 5.2799 147.995 5.30059C148.036 5.32128 148.072 5.35059 148.101 5.38655C148.13 5.42251 148.151 5.46429 148.163 5.50907C148.387 6.54465 149.27 5.97402 149.487 5.82608C150.484 5.16015 151.635 4.76238 152.828 4.67073C152.904 4.65224 152.977 4.62382 153.046 4.58619C152.681 4.14237 152.261 4.33962 151.778 4.5087C152.205 4.06487 152.919 3.92398 153.242 4.27622C153.564 4.62846 153.781 4.63551 154.089 4.27622C154.18 4.17055 154.433 4.15646 154.615 4.15646C155.168 4.15646 155.736 4.42416 156.275 3.94511C156.444 3.89905 156.623 3.90994 156.785 3.97612C156.947 4.04229 157.083 4.16009 157.172 4.31144C157.41 4.69186 158.734 4.74823 159.056 4.48052C159.378 4.21282 159.308 4.26213 159.217 3.59992C159.666 4.45939 160.149 4.76936 160.927 4.23395C160.995 4.18997 161.074 4.16519 161.155 4.16219C161.236 4.15918 161.317 4.17807 161.388 4.21687C161.46 4.25568 161.52 4.313 161.562 4.38289C161.604 4.45278 161.626 4.5327 161.627 4.61437C161.627 5.12864 161.893 5.07933 162.188 4.82572C162.486 4.51314 162.89 4.32399 163.321 4.29532C163.751 4.26666 164.176 4.40053 164.513 4.67073C164.906 4.93843 165.347 4.75527 165.76 4.67073C165.922 4.67073 166.062 4.45234 166.237 4.67073C166.412 4.88912 166.3 4.9173 166.188 4.95252C166.076 4.98775 166.055 5.45975 165.732 5.26249C165.249 4.95957 165.032 5.09342 164.885 5.63587C164.738 6.17832 165.151 6.22763 165.417 6.40376C165.622 6.51313 165.788 6.68275 165.893 6.88985C164.205 7.54502 162.097 6.6151 160.646 8.29881C160.832 8.38022 161.033 8.41688 161.235 8.40587C161.437 8.39486 161.634 8.33648 161.809 8.23541C161.922 8.1518 162.05 8.09343 162.187 8.06425C162.323 8.03508 162.465 8.03579 162.601 8.06633C163.743 8.82013 165.074 7.79863 166.216 8.48902C166.503 8.67219 166.678 8.28472 166.916 8.11565C167.47 10.6518 168.317 7.94657 168.955 8.2495C169.109 8.57356 168.443 8.95398 169.039 9.24282C169.039 9.24282 169.039 9.31327 169.039 9.32031C168.788 9.5018 168.592 9.75052 168.475 10.0382C168.357 10.3259 168.322 10.641 168.373 10.9477C168.408 11.1379 167.932 11.3844 168.443 11.6522C168.619 11.7437 168.654 12.1101 168.752 12.3566C168.479 12.3989 168.275 12.6102 167.946 12.5821C166.755 12.4574 165.556 12.4245 164.359 12.4834C163.915 12.527 163.476 12.6167 163.049 12.7511C164.275 13.9417 165.718 13.2725 167.049 13.3711C167.26 13.3711 167.456 13.3711 167.638 13.4768C168.107 13.8501 168.535 13.8713 168.906 13.3147C169.032 13.1245 169.312 13.0118 169.445 13.202C169.578 13.3922 169.396 13.519 169.165 13.519C169.137 13.5212 169.11 13.5308 169.086 13.5469C169.063 13.5629 169.044 13.5849 169.032 13.6106C168.731 14.8575 167.75 14.7307 166.804 14.78C166.58 14.78 166.349 14.5123 166.153 14.78C165.813 15.288 165.424 15.76 164.99 16.189C164.878 16.2947 165.137 16.5201 165.235 16.4144C165.536 16.0763 166.027 16.5272 166.342 16.0199C166.657 15.5127 166.713 16.4849 167.14 16.2595C166.72 15.1957 168.212 16.034 168.03 14.9914C168.324 15.4493 167.855 15.6184 168.128 15.8086C168.401 15.9988 168.457 15.7663 168.591 15.6466C168.724 15.5268 168.941 15.4 169.081 15.5409C169.355 15.7653 169.681 15.9165 170.029 15.9806C170.377 16.0446 170.735 16.0194 171.071 15.9072C171.771 15.7945 171.771 16.4356 172.254 16.499C172.738 16.5624 173.312 16.5694 173.838 16.6258C174.755 16.7244 175.673 16.2876 176.584 16.6258C176.623 16.6363 176.664 16.6366 176.703 16.6268C176.742 16.6169 176.778 16.5972 176.808 16.5694C177.389 15.8227 178.279 16.5694 178.91 16.1256C179.05 16.027 179.064 16.3229 179.113 16.4497C179.162 16.5765 179.183 16.809 178.938 16.8724C178.692 16.9358 178.405 17.0344 178.174 16.7949C177.964 17.1119 177.368 15.7804 177.354 16.9851C176.738 16.816 176.184 17.2387 175.561 17.1471C175.44 17.1115 175.314 17.1018 175.189 17.1187C175.064 17.1355 174.944 17.1786 174.837 17.245C174.73 17.3115 174.639 17.3998 174.568 17.5043C174.497 17.6088 174.449 17.7271 174.426 17.8516C174.314 18.5561 174.622 18.9294 175.666 18.5561C175.205 18.9549 174.632 19.2009 174.027 19.2606C173.803 19.2606 173.543 19.3169 173.529 19.5705C173.515 19.8241 173.838 19.8382 174.034 19.9439C174.433 20.1552 174.818 19.9439 175.197 20.0143C175.365 20.0143 175.582 19.8171 175.673 20.0143C175.764 20.2116 175.575 20.3736 175.393 20.5145C175.18 20.7234 174.909 20.8612 174.615 20.909C175.694 21.853 176.885 21.7403 178.062 21.6699C178.342 21.6699 178.356 21.839 178.37 22.0221C178.371 22.0767 178.384 22.1304 178.408 22.1795C178.432 22.2286 178.466 22.272 178.508 22.3068C178.549 22.3415 178.598 22.3668 178.651 22.3809C178.703 22.395 178.758 22.3976 178.812 22.3885C179.211 22.3251 178.917 22.1137 178.847 21.9587C179.316 21.9094 179.764 21.6347 180.248 21.8108C180.425 21.8555 180.588 21.948 180.717 22.0785C180.952 22.4704 181.316 22.7681 181.745 22.921C182.174 23.0739 182.643 23.0724 183.071 22.9168C183.968 22.5787 184.36 23.255 184.983 23.6213C184.847 23.5681 184.7 23.5457 184.554 23.5556C184.408 23.5655 184.266 23.6076 184.137 23.6788C184.009 23.75 183.898 23.8486 183.812 23.9677C183.726 24.0868 183.666 24.2234 183.638 24.368C183.33 25.1641 183.022 24.2553 182.693 24.2483C182.588 24.516 183.001 25.143 182.118 24.7696C181.282 24.5524 180.412 24.4927 179.554 24.5935C179.288 24.5935 178.854 24.4526 178.791 24.8823C178.727 25.3121 179.134 25.3966 179.414 25.5375C179.568 25.594 179.728 25.6341 179.89 25.6572C179.617 26.1081 178.917 25.6572 178.763 26.3054C179.465 26.3156 180.167 26.365 180.864 26.4533C181.228 26.5097 181.929 26.3476 181.705 27.2001C181.565 27.7143 181.635 27.6439 181.109 27.5312C180.676 27.3731 180.208 27.3414 179.757 27.4396C178.405 27.7918 177.537 28.9401 176.255 29.2642C176.353 28.447 176.36 28.4611 177.144 28.4188C177.424 28.4188 177.775 28.5104 177.845 27.9891C177.915 27.4678 177.593 27.4044 177.298 27.4044C176.43 27.4044 175.554 27.4678 174.685 27.51C174.559 27.51 174.363 27.6016 174.412 27.6862C174.839 28.3906 174.09 28.8697 174.118 29.4755C174.118 29.6446 173.838 29.9053 174.209 30.0039C174.262 30.0176 174.317 30.0206 174.371 30.0128C174.425 30.005 174.477 29.9864 174.524 29.9582C174.571 29.9301 174.612 29.8928 174.644 29.8487C174.677 29.8045 174.7 29.7543 174.713 29.701C174.811 29.3135 175.134 29.2219 175.54 28.9965C175.127 30.025 175.736 29.9616 176.325 29.9264C176.788 29.8552 177.258 29.834 177.726 29.863C178.426 29.9828 179.414 29.863 179.127 31.124C179.729 30.955 180.339 31.0113 180.36 30.18C180.372 30.0831 180.409 29.9911 180.467 29.9129C180.525 29.8347 180.603 29.7731 180.692 29.734C180.781 29.6949 180.878 29.6798 180.975 29.6901C181.071 29.7003 181.164 29.7356 181.242 29.7926C181.761 30.1237 182.055 29.546 182.391 29.3487C182.728 29.1515 182.279 28.919 182.139 28.7429C181.999 28.5668 182.139 28.2357 182.258 28.1018C182.377 27.968 182.651 28.1018 182.798 28.2568C182.899 28.375 182.97 28.5162 183.004 28.6682C183.039 28.8202 183.036 28.9784 182.996 29.129C182.956 29.2797 182.88 29.4182 182.774 29.5326C182.669 29.647 182.538 29.7338 182.391 29.7855C182.273 29.8497 182.173 29.9426 182.099 30.0558C182.026 30.1691 181.982 30.2989 181.971 30.4336C181.908 30.7436 182.223 30.5675 182.349 30.6379C182.475 30.7084 182.538 30.7647 182.531 30.7859C182.524 30.807 182.419 31.0324 182.335 31.0536C181.516 31.2649 180.78 31.7581 179.918 31.8003C179.057 31.8426 178.111 31.1663 177.277 32.068C177.221 32.1314 176.185 32.4696 175.876 31.7087C175.841 31.6242 175.505 31.5749 175.484 31.6031C174.917 32.6809 174.118 31.5397 173.459 31.8074C173.312 31.8708 172.864 31.9976 172.724 31.5749C172.689 31.4904 172.472 31.3847 172.437 31.5326C172.191 32.6809 171.246 32.0046 170.615 32.3287C171.225 32.371 171.477 33.4065 172.324 32.843C172.516 32.743 172.738 32.7155 172.948 32.7655C173.804 32.9624 174.687 33.0195 175.561 32.9345C175.705 32.8931 175.859 32.9106 175.991 32.9831C176.122 33.0557 176.219 33.1775 176.262 33.322C175.869 33.322 175.561 33.7377 175.113 33.322C174.917 33.1388 174.734 33.4066 174.594 33.5615C174.454 33.7165 174.384 33.8292 174.475 33.9701C174.566 34.111 174.804 34.104 174.98 34.0335C175.407 33.8645 175.68 34.5337 176.269 33.9631C175.757 35.0057 175.057 34.6676 174.482 34.7732C174.293 34.7732 173.985 34.7169 174.013 35.048C174.041 35.3791 174.286 35.2171 174.454 35.2312L176.388 35.3157C175.598 35.8431 174.712 36.2071 173.782 36.3865C173.73 36.4017 173.682 36.4273 173.64 36.4616C173.599 36.496 173.564 36.5385 173.539 36.5865C173.515 36.6346 173.5 36.6872 173.495 36.7412C173.491 36.7952 173.498 36.8495 173.515 36.9008C173.564 37.2248 173.277 37.3869 173.186 37.6053C173.095 37.8237 172.871 37.7039 172.759 37.6053C172.528 37.4573 172.759 37.3939 172.85 37.3164L173.179 37.0135C172.913 36.7599 173.494 36.5133 173.179 36.309C172.864 36.1047 172.703 36.309 172.584 36.5767C172.31 37.098 171.799 36.9642 171.078 37.0065C172.03 37.3939 172.114 38.2816 172.794 38.5C171.106 38.8733 170.188 40.6134 168.415 40.8318C168.78 41.2686 169.354 40.8318 169.515 41.4376C169.162 41.5845 168.769 41.6069 168.401 41.501C168.228 41.4516 168.047 41.4387 167.868 41.4629C167.69 41.4871 167.519 41.5481 167.365 41.6419C167.117 41.7544 166.846 41.806 166.574 41.7926C166.303 41.7791 166.038 41.7009 165.802 41.5644C165.102 41.2192 164.366 41.6208 163.645 41.6419C161.928 41.7053 160.275 42.2901 158.545 42.276C158.032 42.3063 157.525 42.4058 157.039 42.5719C156.884 42.6071 156.52 42.5225 156.632 42.8818C156.642 42.9364 156.665 42.9878 156.699 43.0314C156.733 43.0749 156.778 43.1094 156.828 43.1316C156.879 43.1539 156.934 43.1633 156.989 43.1591C157.044 43.1548 157.097 43.137 157.144 43.1073C157.226 43.0439 157.324 43.0023 157.426 42.9863C157.529 42.9703 157.634 42.9804 157.732 43.0157C157.886 43.3116 157.277 43.1848 157.487 43.4454C157.515 43.4915 157.554 43.5304 157.599 43.5591C157.645 43.5878 157.696 43.6056 157.75 43.611C157.803 43.6165 157.857 43.6095 157.908 43.5905C157.958 43.5716 158.004 43.5412 158.04 43.5018C158.307 43.1918 158.461 43.3327 158.657 43.6145C159.035 44.1358 158.363 43.8258 158.363 44.0231C158.363 44.9389 157.27 44.7276 156.962 45.3616L157.018 45.4532ZM105.177 51.7935C104.531 51.3842 103.751 51.2475 103.006 51.4131C102.325 51.6199 101.613 51.7034 100.904 51.6597C98.7252 51.2581 96.5325 51.5047 94.3538 51.4483C92.7285 51.4061 91.0893 51.4483 89.45 51.3638C87.6496 51.2652 85.8422 51.6738 84.0208 51.3638C83.5724 51.2863 82.9349 51.0256 82.7388 51.1243C81.5478 51.7372 80.3639 51.1665 79.187 51.2652C77.7299 51.3849 76.2657 51.4765 74.7946 51.4554C73.5126 51.4554 72.2236 51.9344 70.9206 51.6174C70.4862 51.5047 70.5703 51.9344 70.3601 52.1035C82.0382 52.4346 93.6322 52.3783 105.205 51.7654L105.177 51.7935ZM149.312 44.2133C148.765 44.4951 149.55 44.7487 149.69 44.8192C150.208 45.0728 150.748 44.636 151.322 44.7487C151.483 44.7487 151.525 44.4317 151.553 44.1288C151.175 44.319 150.804 44.4458 150.517 43.854C151.112 44.2203 151.623 43.9315 152.114 43.9949C152.485 44.0442 152.114 43.3679 152.373 43.6638C152.632 43.9597 153.074 44.0301 153.431 44.2626C153.788 44.4951 154.335 44.8966 154.299 45.3546C154.25 45.9604 154.517 46.1365 154.958 46.3056C155.203 46.1436 154.909 45.6434 155.399 45.6363C155.68 45.6363 156.1 46.0168 156.233 45.425C155.715 45.115 155 45.2207 154.573 44.6219C155.308 45.0164 156.149 44.1569 156.863 44.8967C156.997 45.0235 157.165 44.8966 157.242 44.7698C157.295 44.6436 157.384 44.5357 157.497 44.4594C157.61 44.383 157.743 44.3416 157.879 44.3401C158.026 44.3401 158.201 44.3401 158.201 44.1076C158.201 43.8751 158.012 43.9245 157.865 43.8963C156.955 43.7202 156.037 43.5652 155.133 43.3679C154.985 43.3411 154.833 43.3501 154.689 43.3942C154.546 43.4383 154.414 43.5162 154.306 43.6215C153.851 44.5233 153.417 43.7977 153.13 43.5652C152.947 43.3985 152.729 43.2752 152.493 43.2045C152.256 43.1338 152.007 43.1174 151.764 43.1566C150.877 43.4017 149.955 43.4899 149.038 43.4172C148.87 43.3879 148.696 43.3954 148.531 43.4391C148.365 43.4828 148.211 43.5617 148.078 43.6705C147.945 43.7794 147.837 43.9156 147.761 44.07C147.685 44.2244 147.643 44.3934 147.637 44.5655C148.338 44.6994 149.038 44.643 149.312 44.1851V44.2133ZM101.401 53.597C101.745 53.3645 102.452 53.6534 102.417 53.2729C102.375 52.7446 101.717 52.9418 101.282 52.9066H101.1C99.699 52.9066 98.2979 52.9066 96.8968 53.0334C95.6568 53.1532 94.4028 52.8714 93.1629 53.2377C92.6095 53.4068 92.8476 53.6181 93.0088 53.8577C93.0971 53.9657 93.2176 54.0424 93.3525 54.0767C93.4873 54.1109 93.6296 54.1008 93.7583 54.0479C94.6786 53.9193 95.6148 53.9647 96.5185 54.1817C96.6638 54.2291 96.8191 54.2364 96.9681 54.203C97.1172 54.1695 97.2547 54.0965 97.3662 53.9915C97.5747 53.7677 97.8416 53.6073 98.1364 53.5288C98.4313 53.4504 98.7421 53.4569 99.0334 53.5477C99.8391 53.7097 100.624 53.3857 101.401 53.597ZM14.6598 43.6779C13.0976 43.6779 11.7245 43.9808 10.3444 43.8329C10.2183 43.8329 9.77698 43.8329 9.79799 44.1992C9.81901 44.5655 10.1763 44.5655 10.4285 44.5162C10.9399 44.4317 11.2972 44.4528 11.3322 45.1221C11.3322 45.1996 11.5143 46.362 12.0888 45.3475C12.1798 45.1855 12.327 45.2278 12.4811 45.3123C13.1816 45.7209 13.9732 45.3475 14.7158 45.3687C14.7761 45.3815 14.839 45.3702 14.8912 45.3374C14.9435 45.3046 14.9811 45.2526 14.996 45.1925C15.0381 44.9812 14.8629 44.9601 14.7508 44.8755C14.564 44.7265 14.3445 44.6245 14.1105 44.578C13.8766 44.5314 13.635 44.5416 13.4058 44.6078C13.1956 44.6642 12.9224 44.6994 12.9294 44.4106C12.9364 44.1217 13.1536 44.2556 13.3568 44.3049C13.8331 44.4106 14.1974 44.171 14.6598 43.6779ZM76.6721 1.25399C75.271 1.35262 73.8699 1.45125 72.4688 1.53579C72.1185 1.53579 71.6772 1.76827 71.7682 1.02856C71.8173 0.514288 71.2008 0.556554 70.9416 0.584733C70.3041 0.655181 71.0537 0.845395 70.9416 1.02856C70.8295 1.21173 70.8715 1.23286 70.7454 1.28217C70.6714 1.29644 70.602 1.32841 70.5428 1.37538C70.4837 1.42235 70.4367 1.48295 70.4058 1.55204C70.3749 1.62114 70.3609 1.6967 70.3652 1.77235C70.3694 1.84799 70.3917 1.9215 70.4302 1.98666C70.5843 2.35299 70.8645 2.31776 71.2288 2.33185C72.3006 2.38116 73.3305 2.14164 74.4233 2.198C75.1659 2.24027 76.3148 2.7475 76.6721 1.25399ZM119.062 53.7872C119.847 53.7872 119.924 53.4138 119.924 52.6671C119.924 51.9203 119.454 52.3642 119.223 52.2303C118.523 51.8358 118.796 52.5614 118.635 52.7446C118.27 53.1532 118.256 51.7231 117.801 52.6107C117.703 52.7512 117.564 52.8577 117.404 52.9157C117.243 52.9738 117.069 52.9804 116.904 52.9348C116.408 52.8886 115.908 52.9315 115.426 53.0616C115.216 53.0968 114.852 52.97 114.859 53.3363C114.866 53.7027 115.265 53.59 115.454 53.6252C116.649 53.7951 117.857 53.8493 119.062 53.7872ZM114.312 53.8506C114.2 53.442 113.654 53.3645 113.871 52.9277C113.941 52.7868 114.368 52.8714 114.172 52.5332C114.046 52.3148 113.787 52.4346 113.584 52.4416C113.015 52.4403 112.447 52.4709 111.881 52.5332C111.636 52.5332 111.272 52.4628 111.139 52.7516C110.922 53.2166 111.713 52.8573 111.587 53.3997C111.192 53.2057 110.742 53.1511 110.312 53.2448C109.913 53.28 110.025 53.7379 110.088 53.7238C110.901 53.6252 110.214 54.1958 110.466 54.4635C111.104 53.8788 112.148 54.4635 112.757 53.604C112.855 53.4632 112.967 53.604 112.932 53.7449C112.799 54.2663 113.205 54.0408 113.353 54.0056C113.654 53.9352 113.927 53.7027 114.312 53.8506ZM162.566 9.6021C162.23 10.8068 162.279 10.9336 163.126 10.9195C163.945 10.9365 164.761 10.8199 165.543 10.5743C166.189 10.303 166.907 10.2583 167.582 10.4475C167.686 10.4712 167.795 10.4537 167.886 10.3986C167.977 10.3435 168.044 10.255 168.072 10.1516C168.128 9.84867 167.771 9.77118 167.645 9.79231C167.092 9.76078 166.538 9.76078 165.985 9.79231C165.571 9.89094 164.541 10.3136 165.13 8.94694C164.212 9.31327 163.519 10.053 162.566 9.6021ZM107.349 53.9845C108.162 54.7242 109.184 54.4494 109.843 53.3504C109.941 53.1814 110.319 53.0264 110.025 52.7798C109.731 52.5332 109.437 52.4346 109.219 52.7798C108.617 53.6815 107.818 53.6463 106.887 53.4843C106.509 53.4728 106.14 53.6006 105.85 53.8436C105.731 53.9281 105.983 54.2733 106.151 54.4353C106.295 54.5686 106.47 54.6615 106.661 54.7048C106.852 54.7481 107.05 54.7402 107.237 54.6819C107.608 54.4846 107.139 54.1606 107.349 53.9211V53.9845ZM150.348 7.30549C150.706 7.30549 150.888 7.30549 151.049 7.25618C151.21 7.20686 151.63 7.19278 151.546 6.8828C151.462 6.57283 151.112 6.31922 150.846 6.41785C150.201 6.64328 149.445 6.33331 148.87 6.78418C148.825 6.81379 148.772 6.83207 148.718 6.83749C148.664 6.84292 148.61 6.83535 148.559 6.8154C148.508 6.79545 148.463 6.7637 148.427 6.72275C148.391 6.6818 148.365 6.63283 148.352 6.57988C148.31 6.45307 148.317 6.284 148.072 6.43898C147.773 6.65973 147.431 6.81304 147.068 6.88843C146.706 6.96381 146.331 6.95949 145.97 6.87576C145.942 6.86579 145.912 6.86154 145.883 6.86325C145.853 6.86496 145.824 6.87259 145.797 6.88571C145.77 6.89882 145.746 6.91715 145.727 6.93963C145.707 6.96211 145.692 6.9883 145.683 7.01666C145.613 7.17164 145.732 7.228 145.851 7.26322C146.022 7.31954 146.198 7.36194 146.376 7.39003C147.756 7.52388 149.129 7.12233 150.348 7.24209V7.30549ZM128.491 5.19205C128.898 5.25545 129.192 5.27658 129.423 5.33999C131.004 5.60271 132.611 5.66897 134.208 5.53725C134.425 5.53725 134.852 5.5936 134.964 5.19205C134.502 5.08637 134.481 4.48757 134.068 4.34667C133.731 5.31885 132.94 4.72004 132.365 4.81162C131.603 5.01587 130.806 5.06142 130.026 4.94548C129.774 4.85599 129.506 4.8241 129.24 4.85213C128.975 4.88017 128.719 4.96741 128.491 5.10751V5.19205Z" fill="white"/>
<path d="M56.2539 1.58509C56.4158 1.34119 56.6533 1.15788 56.9295 1.06362C57.2056 0.969353 57.505 0.969404 57.7811 1.06377C58.4405 1.13976 59.1085 1.05519 59.7286 0.817201C60.4292 0.626991 61.0666 1.0215 61.7462 0.929921C61.9003 0.929921 62.2085 1.099 61.8443 1.32443C61.7182 1.40192 61.536 1.41601 61.7041 1.62031C61.7403 1.66768 61.7933 1.69924 61.852 1.70842C61.9107 1.7176 61.9706 1.70371 62.0194 1.66962C62.2996 1.52873 62.6149 1.54282 62.6779 1.05673C62.6859 0.93119 62.7254 0.809726 62.7926 0.703611C62.8597 0.597496 62.9525 0.510169 63.0622 0.449734C63.1719 0.389299 63.295 0.357712 63.4201 0.357911C63.5452 0.35811 63.6682 0.390089 63.7778 0.450873C64.6044 0.887652 65.368 0.542456 66.1526 0.450873C66.3348 0.450873 66.5169 0.302928 66.608 0.535408C66.699 0.767887 66.9722 1.19058 66.8602 1.57804C66.7481 1.96551 66.4959 1.76825 66.3137 1.74007C65.8402 1.72968 65.3678 1.79144 64.9126 1.92324C64.3032 2.02187 63.6517 2.45865 63.0842 1.80348C63.0842 1.80348 62.9651 1.74712 62.9511 1.76121C62.1315 2.81089 60.9336 2.1839 59.9808 2.24026C59.2086 2.29975 58.4319 2.26188 57.669 2.12754C57.479 2.11216 57.2879 2.1396 57.1098 2.20784C56.9317 2.27609 56.7709 2.38343 56.6392 2.52205C56.4361 2.24025 56.6392 1.7753 56.2539 1.55691V1.58509Z" fill="white"/>
<path d="M156.992 45.4463C157.287 45.6337 157.621 45.752 157.968 45.7922C158.314 45.8325 158.666 45.7937 158.996 45.6787C159.438 45.4816 159.913 45.3693 160.397 45.3476C161.097 45.4181 161.371 44.7629 161.91 44.6079C161.714 44.1993 162.323 43.8259 161.966 43.3962C161.894 43.3148 161.854 43.2095 161.854 43.1003C161.854 42.9912 161.894 42.8858 161.966 42.8044C162 42.7773 162.04 42.7592 162.083 42.7518C162.126 42.7444 162.17 42.748 162.211 42.7622C162.293 42.8309 162.351 42.9232 162.379 43.0266C162.406 43.1299 162.402 43.2393 162.365 43.3398C162.211 44.0443 162.253 44.615 163.234 44.312C163.29 44.312 163.402 44.312 163.402 44.312C163.689 45.721 164.761 44.9249 165.504 45.0729C165.707 45.1151 166.029 45.0729 165.952 45.3476C165.875 45.6224 165.994 46.1014 165.567 46.0521C164.663 45.9605 163.921 46.5523 162.996 46.5311C162.547 46.5311 162.197 46.2494 161.742 46.3128C161.287 46.3762 160.754 45.7069 160.292 46.3973C159.717 45.728 159.43 46.2353 159.122 46.6861C158.659 46.1155 158.064 46.9961 157.49 46.503C157.202 46.2564 157.139 46.3691 157.412 46.0521C157.686 45.7351 156.929 45.7844 157.034 45.4181L156.992 45.4463Z" fill="white"/>
<path d="M31.7979 56.8024C32.0851 56.8024 32.4984 56.7461 32.1691 56.4009C31.8399 56.0557 32.1691 55.9077 32.2042 55.7739C32.3513 55.4991 32.5474 55.7387 32.7296 55.8373C33.0728 56.0416 33.283 55.8796 33.4301 55.5414C33.8154 54.4706 33.9065 54.4283 35.0204 54.9285C34.6561 55.1751 34.6 55.9289 33.9065 55.4216C33.8715 55.4216 33.6683 55.5062 33.6333 55.5978C33.6038 55.6655 33.5885 55.7387 33.5885 55.8126C33.5885 55.8866 33.6038 55.9597 33.6333 56.0275C33.7653 56.191 33.9293 56.3255 34.1151 56.4226C34.301 56.5196 34.5047 56.5772 34.7137 56.5918C34.9226 56.6063 35.1323 56.5775 35.3296 56.5071C35.527 56.4367 35.7079 56.3262 35.861 56.1825C36.1412 55.9007 35.861 55.478 36.1552 55.1398C36.204 55.0532 36.2756 54.9817 36.3621 54.9333C36.4486 54.8848 36.5467 54.8612 36.6456 54.8651C36.9749 54.8651 37.2411 55.1328 37.6334 55.006C38.0257 54.8792 38.3339 55.1046 38.7473 55.1892C38.39 55.5062 37.7665 55.1117 37.7105 55.7457C37.6378 55.7856 37.5541 55.8005 37.4723 55.788C36.9118 55.0835 36.7717 55.943 36.4775 56.0698C36.6526 56.4854 36.0572 57.0701 36.7787 57.4224C36.2393 57.049 36.0782 57.7323 35.6158 57.7746C34.6281 57.8591 34.3268 57.0701 33.8154 56.5699C33.4932 56.2459 33.6193 56.2881 33.248 56.5699C32.8553 56.7465 32.482 56.9637 32.1341 57.2181C32.0781 57.2815 31.8889 56.9926 31.8329 56.8165L31.7979 56.8024Z" fill="white"/>
<path d="M34.7124 4.34664C34.4112 3.60693 34.138 3.56466 33.5916 3.57171C32.5548 3.57171 33.1432 3.99439 33.4444 4.55798C32.5407 3.70556 31.6721 4.28323 30.8454 4.17052C30.5442 4.12825 30.1028 4.30437 30.0118 3.86054C29.9207 3.41672 30.2359 3.15606 30.7123 3.02925C31.616 2.85313 32.6108 3.16311 33.4304 2.50794C33.6056 2.36704 33.7247 2.50794 33.8858 2.63475C34.5163 2.99403 35.1468 3.40967 35.8473 2.69815C36.0785 2.46567 36.4918 2.5643 36.8001 2.69815C36.9542 2.74746 37.2134 2.74747 37.2064 2.99403C37.1994 3.2406 36.8421 3.12084 36.8281 3.14902C36.3797 4.00144 35.2168 3.59284 34.7264 4.36073L34.7124 4.34664Z" fill="white"/>
<path d="M31.8043 56.7601C30.8656 56.6897 30.0039 56.2247 28.883 56.3515C29.2823 56.119 29.6256 55.795 29.2893 55.7175C28.5888 55.5484 28.7429 54.7171 28.1474 54.541C27.8042 54.4424 27.9653 54.1183 28.0143 53.914C28.0634 53.7097 28.3576 53.7097 28.5538 53.7449C29.8358 53.9985 30.2 54.5551 30.13 55.6329C30.13 55.8443 30.2561 55.9711 30.4733 55.8443C30.6904 55.7175 31.2228 55.5061 31.2579 55.2737C31.44 54.1958 32.1335 54.5058 32.9041 54.6185C32.0495 55.1468 31.0127 55.5343 31.7973 56.7319L31.8043 56.7601Z" fill="white"/>
<path d="M161.196 2.78982C161.208 2.73724 161.229 2.6872 161.259 2.64188C161.665 2.25442 162.064 1.19769 162.485 2.64188C162.485 2.73347 163.087 2.74756 163.031 2.49394C162.863 1.74719 163.395 1.95149 163.732 1.89513C164.236 1.80355 164.74 1.77537 165.245 1.66969C166.141 1.48653 166.702 2.37418 167.479 2.64892C165.357 2.43053 163.297 3.52953 161.196 2.78982Z" fill="white"/>
<path d="M20.3579 48.6514C19.8955 49.053 19.153 48.4894 18.8517 49.2009C17.8289 48.6232 16.589 49.5743 15.7974 49.06C14.8656 48.4612 14.4453 49.3629 13.7448 49.3066C13.3276 49.3215 12.9154 49.2111 12.5608 48.9896C12.3227 48.7782 12.8341 48.4682 12.792 48.0737C12.9181 48.7782 13.4926 48.8768 13.9409 49.0671C14.1511 49.1586 14.4033 48.7148 14.8166 48.6444C15.4671 48.6271 16.1175 48.6791 16.7571 48.7993C17.0794 48.7993 17.3175 48.9262 17.1564 48.426C17.0513 48.0808 17.2685 48.2499 17.4436 48.271C18.3964 48.3978 19.4122 48.2428 20.3579 48.6514Z" fill="white"/>
<path d="M23.2305 3.26181L23.3706 3.10683C24.6666 2.51506 25.9136 3.10683 27.1675 3.30408C27.4337 3.3534 27.3497 3.72677 27.3917 3.92403C27.4337 4.12128 27.1605 4.14946 27.0204 3.9663C27.0204 3.91698 27.0204 3.79722 27.0835 3.71268C26.5861 3.62814 26.1517 3.25477 25.5843 3.43794C24.9431 3.72914 24.2254 3.8033 23.5387 3.64928C23.3005 3.5577 23.2865 3.40976 23.2305 3.26181Z" fill="white"/>
</g>
<defs>
<clipPath id="clip0_3852_144639">
<rect width="185" height="58" fill="white"/>
</clipPath>
</defs>
</svg>
