<svg width="158" height="59" viewBox="0 0 158 59" fill="none" xmlns="http://www.w3.org/2000/svg">
<g clip-path="url(#clip0_3852_144652)">
<path d="M139.762 15.407C139.417 16.1874 138.659 15.8211 138.049 16.0441C138.123 16.3201 138.717 16.4316 138.441 16.8139C138.166 17.1961 137.863 16.8139 137.566 16.8139C137.365 16.8139 137.169 16.782 136.967 16.7873C136.928 16.7972 136.891 16.8163 136.861 16.8431C136.83 16.8699 136.807 16.9035 136.792 16.9413C136.79 16.9795 136.797 17.0176 136.814 17.052C136.831 17.0864 136.856 17.1159 136.887 17.1377C137.513 17.4138 137.991 18.1465 138.85 17.7271C138.993 17.6515 139.159 17.6319 139.316 17.6721C139.473 17.7123 139.609 17.8095 139.698 17.9447C139.815 18.104 139.9 18.4756 139.772 18.4756C139.11 18.5447 138.956 19.4525 138.181 19.3569C137.695 19.363 137.212 19.4235 136.739 19.5375C136.389 19.5746 136.018 19.7286 135.848 19.1711C135.758 18.8685 135.355 18.9535 135.079 18.9694C134.464 19.0012 133.854 19.0703 133.562 18.3376C133.545 18.2998 133.519 18.2663 133.487 18.2397C133.455 18.2131 133.417 18.1939 133.377 18.1836C130.81 18.0244 128.36 17.1218 125.798 17.0156C123.677 16.9466 121.556 16.936 119.434 17.0156C118.188 17.074 116.862 16.7183 115.558 16.7183C112.328 16.7183 109.098 16.5166 105.874 16.9732C104.08 17.1493 102.276 17.1954 100.475 17.1112C100.125 17.1112 99.7541 17.1484 100.046 16.5484C100.237 16.1609 99.8707 16.0175 99.5154 16.0175C98.9427 16.0175 98.3699 16.0175 97.7971 16.0175C97.1427 16.0738 96.4838 15.9943 95.8615 15.7839C95.6177 15.6995 95.3585 15.6695 95.1019 15.6961C94.8454 15.7227 94.5978 15.8052 94.3765 15.9379C94.0663 16.1061 93.7191 16.1942 93.3663 16.1942C93.0135 16.1942 92.6662 16.1061 92.356 15.9379C91.6348 15.5662 90.7014 15.7043 89.9059 15.8423C88.9191 16.0093 87.9132 16.0308 86.9202 15.906C86.7727 15.861 86.6153 15.8601 86.4674 15.9035C86.3194 15.9469 86.1874 16.0327 86.0876 16.1503C86.5542 16.644 87.2331 16.214 87.7422 16.5007C87.4929 16.9572 86.9679 16.6599 86.6815 16.9413C87.0037 17.0656 87.3527 17.1036 87.6941 17.0515C88.0355 16.9993 88.3573 16.8589 88.6278 16.644C88.9768 16.4019 89.3894 16.2683 89.8139 16.2598C90.2383 16.2513 90.6559 16.3683 91.0143 16.5962C91.1673 16.7019 91.3411 16.7736 91.524 16.8065C91.7069 16.8395 91.8947 16.833 92.0749 16.7873C93.6659 16.6546 95.2569 16.5166 96.8479 16.3201C97.5214 16.2511 98.2002 16.2511 98.8737 16.3201C98.004 17.2598 97.0971 17.6899 95.9251 16.9891C95.8564 16.937 95.7726 16.9091 95.6864 16.9095C94.5869 17.2048 93.4275 17.192 92.3348 16.8723C92.4196 17.4032 92.8651 17.1643 92.9818 17.5359C91.0832 17.2652 89.243 17.9394 87.3285 17.3979C87.4982 17.8863 87.8588 17.7111 88.177 17.9288C87.0276 18.1675 85.8663 18.3447 84.6981 18.4597C85.2284 18.5128 85.7588 18.5977 86.2891 18.619C89.4339 18.7517 92.5787 18.895 95.7236 18.9747C97.6115 19.0172 99.4995 18.9747 101.387 18.9163C101.992 18.9163 102.591 19.049 103.18 19.0225C106.489 18.8473 109.772 19.4313 113.102 19.2295C114.73 19.134 116.449 18.7836 118.151 19.3304C119.291 19.666 120.511 19.6004 121.609 19.1446C122.547 18.7729 123.433 19.3676 124.207 19.6755C125.533 20.2489 126.859 20.2542 128.233 20.3179C130.762 20.4241 133.313 20.3179 135.8 20.9231C136.372 20.9733 136.936 21.08 137.487 21.2417C137.704 21.3479 138.017 21.3213 138.017 21.6982C138.017 22.0752 137.699 22.1017 137.455 22.1548C136.91 22.3165 136.34 22.3759 135.774 22.33C134.931 22.1495 134.236 22.6273 133.409 22.4999C133.509 22.7654 133.711 22.7282 133.843 22.7176C134.512 22.6539 134.681 23.5352 135.328 23.5033C135.391 23.5891 135.417 23.6957 135.403 23.8007C135.18 24.2254 134.687 24.0502 134.342 24.236C134.119 24.3528 133.721 24.305 133.695 24.0343C133.658 23.6201 133.663 23.5883 133.297 23.8378C133.136 23.9847 132.924 24.063 132.706 24.0561C132.488 24.0492 132.282 23.9575 132.13 23.8007C132.062 23.7316 131.881 23.6573 131.839 23.6892C131.123 24.305 130.402 23.7529 129.717 23.6892C128.217 23.498 126.769 24.1564 125.268 23.9068C124.738 23.8219 124.467 24.3369 124.382 24.6926C124.266 25.1757 124.86 25.0271 125.109 25.2235C126.87 26.4605 128.938 26.0676 130.879 26.3384C131.123 26.3703 131.409 26.3384 131.584 26.5667C131.462 26.933 131.054 26.641 130.868 26.9065C130.948 26.9673 131.04 27.0094 131.139 27.0296C131.237 27.0499 131.338 27.0477 131.436 27.0233C133.249 26.9171 134.946 27.586 136.739 27.7878C136.946 27.7878 137.269 27.7878 137.206 28.1435C137.142 28.4992 136.887 28.2975 136.675 28.2762C136.463 28.255 136.4 28.1966 136.246 28.3983C137.519 28.6903 138.797 28.5523 140.043 28.701C140.494 28.7732 140.949 28.8193 141.406 28.839C141.655 28.839 142.116 29.0779 142.037 28.4408C142.037 28.2284 142.122 28.1754 142.44 28.3718C142.731 28.5533 143.059 28.6659 143.4 28.7009C143.741 28.7358 144.086 28.6923 144.407 28.5735C144.525 28.521 144.658 28.5131 144.781 28.5511C144.903 28.5892 145.008 28.6708 145.076 28.7806C145.378 29.3115 145.648 29.2584 145.945 28.7806C145.995 28.7082 146.064 28.6519 146.146 28.6189C146.227 28.5858 146.316 28.5774 146.402 28.5948C147.388 28.7594 148.624 28.1594 149.233 29.5345C149.366 29.8371 149.716 29.7575 149.833 29.3858C149.891 29.2 149.939 29.1204 150.093 29.1788C151.005 29.5185 152.081 29.4336 152.781 30.3255C152.992 30.5668 153.276 30.7314 153.59 30.7939C153.903 30.8563 154.229 30.813 154.515 30.6706C155 30.49 155.525 30.4477 156.032 30.5485C156.258 30.5816 156.464 30.6948 156.613 30.8673C156.761 31.0398 156.844 31.2602 156.844 31.4882C156.968 32.2269 157.202 32.9427 157.538 33.6119C157.713 34.0791 158.535 34.5303 157.538 34.971C157.692 35.9054 157.008 35.3479 156.7 35.4223C155.327 35.7621 154.107 34.9604 152.792 34.833C151.291 34.679 149.758 34.7958 148.3 34.3021C148.12 34.2383 147.823 34.1693 147.902 34.5038C147.982 34.8383 147.786 35.3214 148.364 35.2364C148.928 35.2228 149.487 35.3352 150.002 35.5656C149.472 35.8576 148.666 35.3957 148.364 36.0965C148.242 36.3832 148.518 36.7973 148.926 37.0946C148.602 37.1424 148.305 37.0415 148.077 37.2751C149.414 39.1652 151.599 38.8997 153.481 39.3988C153.985 39.5315 154.542 39.4837 154.701 40.2111C154.807 40.6517 155.401 40.6358 155.836 40.8588C155.581 41.0499 155.343 41.1986 155.109 41.1189C153.72 40.6305 152.198 40.9703 150.787 40.2642C150.225 39.9828 149.727 39.4519 149.005 39.3882C148.669 39.3155 148.32 39.3319 147.992 39.4359C148.4 39.943 148.924 40.3438 149.52 40.604C150.33 40.977 151.206 41.1863 152.097 41.2198C152.628 41.2198 152.803 41.7507 153.333 41.9631C152.878 42.207 152.374 42.346 151.858 42.3699C151.343 42.3938 150.828 42.302 150.352 42.1011C149.594 41.8091 149.334 42.1436 149.149 42.6798C149.074 42.9081 149.149 43.1576 148.799 43.0727C148.449 42.9877 148.141 43.0037 148.077 42.6904C147.971 42.1861 148.443 42.563 148.671 42.3613C147.876 41.6021 147.033 41.034 145.871 41.0818C145.834 41.4693 146.2 41.4375 146.28 41.6551C146.216 41.687 146.168 41.7401 146.126 41.7295C144.827 41.5197 143.516 41.3973 142.201 41.3632C141.22 41.3101 140.282 40.9703 139.29 40.88C138.622 40.9049 137.956 40.8096 137.322 40.5986C136.966 40.4789 136.581 40.4789 136.225 40.5986C135.981 40.6464 135.806 40.88 135.949 41.0181C136.654 41.687 136.479 42.7966 137.163 43.4284C137.847 44.0602 138.017 44.538 137.481 45.2919C137.285 45.568 138.245 46.2104 137.206 46.2741C136.728 46.3059 136.256 46.5342 135.763 46.3325C135.684 46.2935 135.593 46.285 135.508 46.3085C135.423 46.332 135.35 46.3858 135.302 46.4599C135.355 46.7466 135.625 46.7572 135.832 46.874C135.929 46.9221 136.009 46.9988 136.061 47.0937C136.113 47.1886 136.135 47.2972 136.124 47.4049C135.652 47.3306 135.339 46.6563 134.734 47.028L135.62 48.0632C135.456 48.2278 135.18 48.0632 135.09 48.3128C136.219 48.7853 134.353 49.5445 135.344 50.0754C134.174 50.1804 133.063 50.6417 132.162 51.3973C132.311 51.8858 133.223 51.2859 133.074 52.1141C132.926 52.9423 132.353 52.2521 132.014 52.4645C131.762 52.5855 131.497 52.6764 131.224 52.7352C131.356 53.2662 131.823 53.0007 132.104 53.2077C131.684 53.4799 131.186 53.6033 130.688 53.5581C129.728 53.5581 128.705 53.3139 127.851 54.0891C127.718 54.2005 127.114 54.7421 127.076 53.8714C127.076 53.7387 126.901 53.7705 126.79 53.7652C126.74 53.7584 126.69 53.7623 126.642 53.7764C126.594 53.7906 126.549 53.8148 126.511 53.8474C126.473 53.8799 126.442 53.9202 126.421 53.9655C126.4 54.0108 126.388 54.0602 126.387 54.1103C126.286 54.758 125.899 54.8695 125.326 54.7049C125.083 54.6441 124.829 54.632 124.581 54.6693C124.332 54.7067 124.094 54.7927 123.879 54.9226C124.154 55.1774 124.483 54.8801 124.807 55.1084C124.515 55.7402 123.788 55.4535 123.247 55.8623C124.923 56.1808 126.286 57.1949 128.02 57.0462C127.785 57.3678 127.446 57.5984 127.061 57.6992C126.864 57.7523 126.53 57.7629 126.53 57.5984C126.44 56.6056 125.682 57.0037 125.194 56.956C124.229 56.8657 123.253 56.8923 122.282 56.8286C120.509 56.7836 118.739 56.6489 116.979 56.4251C116.767 56.3879 116.512 56.4622 116.274 56.1171C117.506 55.9768 118.749 55.9519 119.986 56.0428C120.776 56.149 121.614 56.4463 122.341 55.4588C122.664 55.0181 123.401 54.6996 123.788 54.1315C123.932 53.9192 124.239 53.6643 123.894 53.3989C123.55 53.1334 123.412 53.3299 123.168 53.5635C122.976 53.7167 122.754 53.8269 122.516 53.8864C122.278 53.946 122.03 53.9535 121.789 53.9086C120.473 53.8955 119.158 53.7998 117.854 53.6219C117.63 53.57 117.398 53.5575 117.17 53.5847C114.81 53.9935 112.397 53.7333 110.053 53.8024C105.906 53.9245 101.775 54.1368 97.638 54.3758C93.3954 54.62 89.1952 54.9067 84.9738 55.1509C84.889 55.1509 84.8042 55.1827 84.4966 55.2358C85.6177 55.4527 86.7627 55.5188 87.9013 55.4323C90.4044 55.3261 92.9022 55.1403 95.4054 55.0182C95.7699 55.0582 96.1269 55.1494 96.466 55.2889V55.2624C93.181 55.8228 89.8396 55.9761 86.5171 55.719C85.0004 55.6393 83.5048 55.9791 81.9881 55.8198C81.4896 55.7667 81.0229 55.8888 80.5509 55.496C80.3601 55.3605 80.1308 55.29 79.8969 55.2948C79.663 55.2996 79.4368 55.3794 79.2516 55.5225C78.7213 56.1331 78.191 55.7986 77.6607 55.7349C77.0401 55.6342 76.4093 55.6128 75.7833 55.6712C72.3415 56.1012 68.8891 55.9366 65.426 56.2445C63.0979 56.4463 60.7539 56.51 58.4258 56.7436C56.0976 56.9772 53.8543 56.9719 51.5633 57.0515C51.0794 57.0497 50.5981 57.1231 50.1368 57.2692C52.0724 57.3064 53.849 57.7258 55.6999 57.5081C55.0928 57.8393 54.3971 57.9711 53.7111 57.8851C52.03 57.816 50.2587 57.9753 48.6943 57.6302C46.7374 57.2055 44.8865 57.678 43.0092 57.4816C42.7493 57.455 42.3516 57.5612 42.3356 57.1524C42.3197 56.7436 42.6645 56.6905 42.9455 56.648C43.5746 56.5836 44.1995 56.4844 44.8176 56.3507C44.6476 56.2296 44.4529 56.1477 44.2474 56.111C44.042 56.0742 43.831 56.0836 43.6296 56.1384C43.0602 56.2171 42.4837 56.2295 41.9114 56.1755C41.678 56.1437 41.5136 56.0216 41.5561 55.7827C41.5985 55.5438 41.8 55.5809 41.9697 55.6181C42.7917 55.788 43.635 55.5013 44.4517 55.7402C44.5642 55.7562 44.6785 55.7562 44.7911 55.7402C44.7539 54.6784 45.7881 55.2093 46.4351 54.6784C44.3371 54.7268 42.255 54.3041 40.3416 53.4413C41.5289 53.1092 42.7577 52.9501 43.9903 52.9688C44.266 52.9688 44.7433 53.0856 44.7486 52.6503C44.7539 52.215 44.3403 52.0716 43.985 52.1194C43.1873 52.1684 42.3941 51.968 41.7152 51.546C41.0151 51.169 40.1984 51.3389 39.4295 51.3177C39.2386 51.3177 38.984 51.3549 38.9522 51.0841C38.9204 50.8133 39.1378 50.7496 39.3287 50.6753C39.951 50.4525 40.609 50.3463 41.2697 50.3621C43.985 50.3621 46.7108 50.4736 49.4155 50.2931C51.3512 50.1603 53.2816 49.8577 55.2491 49.8365C56.7923 49.8365 58.3303 49.6719 59.8735 49.5923C60.9925 49.5285 62.1115 49.2419 63.257 49.1781C67.4996 48.9392 71.7051 48.5304 75.9106 48.0526C76.0394 48.0673 76.1698 48.0525 76.292 48.0093C76.4142 47.9661 76.525 47.8955 76.6159 47.8031C73.8635 47.8403 71.1801 47.8668 68.4966 47.9146C64.323 47.9836 60.1387 48.0154 55.965 48.1482C50.5822 48.3234 45.2047 48.5888 39.8272 48.8065C36.5922 48.9339 33.3572 49.1781 30.1275 49.1091C28.1972 49.0666 26.2509 49.1357 24.3205 48.9021C23.4923 48.8589 22.6619 48.8873 21.8386 48.987C21.5681 48.987 21.3082 49.0348 21.1916 48.7215C21.0749 48.4083 21.3507 48.2915 21.5628 48.2278C22.5651 47.9252 23.3447 47.166 24.4159 46.8846C24.1614 46.5077 23.6258 46.6882 23.3553 46.2687C27.0305 46.1838 30.6685 45.7378 34.333 45.5255C33.8451 45.4724 33.3519 45.4034 32.8587 45.3715C32.7164 45.3689 32.5768 45.3324 32.4513 45.265C32.3259 45.1976 32.2183 45.1013 32.1375 44.984C31.7981 44.5327 31.8405 44.2619 32.4557 44.1876C32.7338 44.1569 33.0037 44.0741 33.2512 43.9434C32.1479 43.7259 31.0232 43.6368 29.8995 43.6779C29.7086 43.6779 29.4222 43.6407 29.4116 43.8956C29.413 43.961 29.4284 44.0254 29.4569 44.0843C29.4853 44.1432 29.526 44.1953 29.5763 44.2371C29.6266 44.2789 29.6853 44.3094 29.7484 44.3265C29.8114 44.3436 29.8774 44.3469 29.9419 44.3362C30.2548 44.3362 30.5677 44.2619 30.8806 44.2354C31.1935 44.2088 31.2731 44.4 31.342 44.6389C31.3846 44.7471 31.3871 44.8671 31.3492 44.977C31.3113 45.087 31.2354 45.1798 31.1352 45.2388C30.9389 45.3662 30.7427 45.4936 30.6685 45.0742C30.642 44.9202 30.345 45.0105 30.2283 45.1167C29.3586 45.9024 28.4411 45.5308 27.5502 45.2122C26.882 44.9733 26.8395 44.6495 27.3327 44.1504C27.46 44.0177 27.7199 43.9115 27.635 43.6779C27.5843 43.5573 27.4959 43.4565 27.3831 43.3904C27.2702 43.3244 27.1391 43.2967 27.0092 43.3116C25.9462 43.299 24.8834 43.354 23.8273 43.4762C22.7931 43.6354 21.8014 43.8213 20.7991 43.3859C20.7063 43.3495 20.6069 43.333 20.5073 43.3376C20.4077 43.3422 20.3102 43.3677 20.2211 43.4125C19.6165 43.6673 19.6907 43.5346 19.1286 43.2585C18.5888 43.0898 18.0217 43.0268 17.4581 43.0727C16.7195 43.1182 15.9795 43.0116 15.2837 42.7594C16.1216 42.2604 16.8747 42.7276 17.5907 42.4781C17.8346 42.3878 18.2854 42.5683 18.2695 42.1595C18.2536 41.7507 17.8399 41.8303 17.5694 41.825C16.2807 41.7932 14.9921 41.7826 13.7087 41.7666C13.6238 41.7666 13.4753 41.7666 13.4647 41.8144C13.2844 42.6745 12.6745 42.5471 12.0116 42.6267C11.5927 42.6798 11.2798 42.7329 11.0676 42.4197C10.9448 42.2442 10.7735 42.1086 10.5747 42.0293C10.3759 41.9501 10.1583 41.9308 9.94865 41.9737C9.06177 42.052 8.1682 41.9983 7.29702 41.8144C6.26868 41.5688 5.19562 41.5816 4.1734 41.8516C3.77035 41.9365 3.30366 41.8091 3.26123 41.3207C3.25161 41.2263 3.26185 41.1309 3.29129 41.0406C3.32073 40.9504 3.36871 40.8674 3.43216 40.7969C3.49561 40.7263 3.57311 40.6699 3.65967 40.6312C3.74624 40.5925 3.83995 40.5723 3.93476 40.5721C4.79389 40.5721 4.74615 39.935 4.79388 39.4413C4.8204 39.1811 4.89994 39.1174 5.04843 39.1758C5.62118 39.3935 6.26288 39.059 6.80912 39.4147C7.00003 39.5421 7.1114 39.4997 7.33944 39.3669C7.7637 39.0962 7.83795 39.1705 7.77431 39.7226C7.73719 40.0518 8.00234 39.9987 8.14553 40.0146C9.20748 40.0772 10.273 40.0381 11.3275 39.8978C11.4813 39.8978 11.6351 39.8129 11.5661 39.6324C11.5274 39.5213 11.4473 39.4294 11.3426 39.376C11.2378 39.3226 11.1165 39.3118 11.004 39.3457C10.4218 39.4835 9.82562 39.553 9.2274 39.5527C9.12134 39.5527 8.99936 39.5846 8.96224 39.4784C10.4525 38.5387 12.1442 39.1386 13.7352 38.7935L11.232 38.5281C11.3605 38.2818 11.5781 38.094 11.8404 38.0032C12.1027 37.9124 12.3897 37.9254 12.6427 38.0396C13.5443 38.3316 14.5678 38.2149 15.5224 38.3741C15.8618 38.4325 16.6732 37.9494 16.5088 38.9794C16.5088 39.1333 16.8482 39.0909 17.0391 39.1121C18.0705 39.1349 19.1005 39.026 20.1044 38.7882C21.2022 38.629 22.2734 38.3157 23.3606 38.0874C23.578 38.0396 23.7742 38.0131 23.7424 37.737C23.7388 37.6742 23.7206 37.613 23.6891 37.5585C23.6577 37.504 23.6139 37.4576 23.5613 37.423C23.5087 37.3884 23.4488 37.3666 23.3864 37.3594C23.3239 37.3522 23.2606 37.3597 23.2015 37.3813C20.762 37.6521 18.3119 36.8504 15.8989 37.3282C13.8625 37.7158 11.9427 37.0787 9.99107 36.8823C9.20438 36.8294 8.41589 36.9546 7.68415 37.2486C7.52783 37.3256 7.35015 37.3476 7.17982 37.311C7.00948 37.2744 6.85646 37.1813 6.74548 37.0469C6.8034 36.9809 6.8673 36.9205 6.93639 36.8663C7.19625 36.723 7.70537 36.9247 7.72128 36.5159C7.73719 36.1071 7.19096 36.2027 6.94701 35.985C5.91287 35.1515 4.39084 35.5019 3.40443 34.456C3.10745 34.1428 2.41272 34.1906 1.893 34.1162C1.51074 34.0937 1.13891 33.9827 0.806729 33.792C0.474544 33.6013 0.191042 33.3361 -0.0214844 33.0172C1.4157 31.8439 3.16047 31.9979 4.8363 31.982C5.63179 31.982 6.4644 32.4173 7.22277 31.7802C7.31293 31.7059 7.5993 31.8333 7.78491 31.9076C8.71242 32.2607 9.73707 32.2607 10.6646 31.9076C11.5329 31.608 12.4603 31.5206 13.3692 31.6528C13.4541 31.6528 13.5761 31.6528 13.6238 31.6528C15.1299 33.2084 16.8641 31.9926 18.4922 32.0563C19.8127 32.1094 21.1067 31.5254 22.4378 31.8758C22.5969 31.9183 22.703 31.828 22.8356 31.7696C23.3918 31.5459 24.0047 31.505 24.5856 31.6528C25.2709 31.8619 26.0064 31.8357 26.6751 31.5785C27.057 31.4485 27.4648 31.4139 27.8631 31.4776C29.8571 31.6634 31.8564 31.8333 33.8451 32.0085C34.9058 32.0991 35.9733 32.0688 37.0271 31.9183C38.3593 31.7873 39.6982 31.7377 41.0364 31.7696C40.9038 31.4351 41.2167 30.8193 40.75 30.7927C40.1507 30.7556 39.5674 30.007 38.9363 30.7025C38.7082 30.952 38.5173 30.7874 38.4059 30.5538C38.162 30.0601 37.8756 30.076 37.4089 30.3202C36.7938 30.6441 36.1096 30.4583 35.4732 30.3202C34.646 30.0975 33.7842 30.0326 32.933 30.1291C32.2778 30.1953 31.6164 30.1631 30.9708 30.0335C28.8495 29.6831 26.7547 29.8424 24.644 29.853C23.7273 29.8869 22.8094 29.8567 21.8969 29.7628C20.5127 29.5663 19.0862 30.0176 17.7285 29.4548C17.4952 29.3593 17.1982 29.354 17.1664 29.0248C17.1346 28.6957 17.4687 28.7434 17.6596 28.6479C18.3649 28.3028 18.9324 27.6816 19.8392 27.7082C19.346 26.8056 18.5664 27.2887 17.9407 27.0392C18.1138 26.8827 18.3267 26.7772 18.556 26.7341C18.7852 26.691 19.0219 26.7121 19.24 26.795C19.5529 26.9012 19.7968 27.0392 20.0673 26.6941C20.3377 26.349 20.5074 26.7897 20.7302 26.8428C20.9529 26.8959 21.2605 27.0498 21.3348 26.7791C21.409 26.5083 21.1014 26.4287 20.884 26.4074C20.0301 26.3172 19.1763 26.2375 18.3172 26.1685C17.4581 26.0995 16.6626 26.0464 15.8353 25.9827C15.6709 25.9827 15.4693 25.9827 15.4004 25.7809C15.3315 25.5792 15.4853 25.4199 15.6603 25.3031C16.1259 24.9851 16.5392 24.5964 16.8853 24.1511L14.117 23.8644C14.5307 23.3335 15.0186 23.5405 15.4004 23.4609C16.3126 23.2644 16.9914 22.4787 18.052 22.638C18.4074 22.6964 18.4445 22.4628 18.2376 22.1389C17.9513 21.6983 17.4952 21.7513 17.0974 21.6558C16.6997 21.5602 16.4345 21.5761 16.0898 21.4859C17.4156 21.4222 18.5718 20.7904 19.8392 20.3869C19.1763 20.1692 18.5558 19.9834 17.8982 20.3869C17.4262 20.6789 17.0232 20.0206 17.0338 19.9887C17.1982 19.118 16.4504 19.2932 16.058 19.1605C15.5844 19.0508 15.1044 18.971 14.6208 18.9216C14.4405 18.8897 14.17 18.8844 14.2019 18.5977C14.2284 18.3907 14.4617 18.3907 14.6208 18.3641C15.3845 18.2314 16.1429 18.0934 16.9118 18.0137C18.9377 17.7908 20.9794 18.0987 23.0053 17.9182C25.3864 17.7058 27.7782 18.0668 30.1594 17.5678C31.0058 17.4086 31.8744 17.4086 32.7209 17.5678C33.8292 17.7589 34.9588 17.1908 36.0301 17.7536C36.6665 17.09 37.7855 17.6368 38.2468 17.1643C39.1855 16.2087 40.2143 16.9944 41.1795 16.713C42.0068 16.4688 42.7016 15.8954 43.6137 15.906C43.1152 15.3751 42.4894 15.5769 41.9803 15.5769C39.3287 15.5769 36.7142 15.7096 34.0838 15.7839C33.5535 15.7839 33.0549 15.7839 32.5405 15.7839L36.4596 15.0831C36.3335 14.9907 36.1901 14.9248 36.0379 14.8892C35.8857 14.8536 35.7279 14.8491 35.574 14.8761C34.0891 14.9026 32.5989 14.8761 31.1193 15.0088C29.9154 15.1203 28.7275 14.8973 27.529 14.9769C27.0835 15.0088 27.3486 15.2902 27.2585 15.4176C27.0623 15.6884 27.2585 15.7202 27.4017 15.7255C28.1654 15.768 28.9449 16.1025 29.6821 15.7255C29.968 15.5645 30.2873 15.4722 30.6148 15.4556C30.9424 15.439 31.2694 15.4987 31.57 15.63C31.9007 15.7198 32.2406 15.7715 32.583 15.7839C30.0904 16.1821 27.5767 16.283 25.0682 16.5113C24.2993 16.5803 23.5303 16.6334 22.756 16.6865C22.459 16.6865 22.1249 16.8192 21.8598 16.3785C22.494 16.4469 23.1354 16.4001 23.753 16.2405C24.3311 16.1184 24.9887 16.1449 25.344 15.4494C25.5137 15.1044 25.9486 15.2159 26.4047 15.2849C25.9857 14.6637 26.235 14.4779 26.813 14.2814C29.3798 13.4001 32.0102 13.4851 34.6724 13.501C36.0479 13.4842 37.4216 13.3956 38.7878 13.2355C38.6075 12.8586 38.3794 12.9648 38.2044 12.9542C36.4968 12.8427 34.7679 12.986 33.0815 12.487C32.7793 12.393 32.4578 12.3798 32.1489 12.4487C31.84 12.5177 31.5545 12.6663 31.3208 12.8798C31.1865 13.0033 31.0269 13.0959 30.8531 13.1511C30.6793 13.2064 30.4956 13.2229 30.3148 13.1997C30.1339 13.1764 29.9604 13.1139 29.8062 13.0165C29.652 12.919 29.521 12.7891 29.4222 12.6356C29.3552 12.5648 29.2717 12.5116 29.1791 12.4811C29.0866 12.4505 28.9879 12.4434 28.8919 12.4604C26.3463 12.6887 23.8061 12.2056 21.2605 12.3861C21.1747 12.3934 21.0884 12.3844 21.0059 12.3596C20.6771 12.2428 20.1256 12.3224 20.1256 11.8552C20.1256 11.388 20.6559 11.4889 20.9582 11.4464C21.7484 11.3349 22.5492 11.2871 23.3447 11.1916C23.5997 11.156 23.8504 11.0937 24.0924 11.0057C24.1283 10.9989 24.1623 10.9848 24.1924 10.9643C24.2225 10.9437 24.2481 10.9172 24.2675 10.8863C24.2869 10.8554 24.2997 10.8208 24.3052 10.7847C24.3107 10.7486 24.3087 10.7118 24.2993 10.6766C24.2462 10.4908 24.0606 10.5279 23.9333 10.5704C23.6417 10.6713 23.3606 10.8199 23.0636 10.9155C22.5969 11.0641 22.1355 11.234 21.7378 10.719C21.6331 10.6191 21.5013 10.5523 21.3589 10.5268C21.2165 10.5013 21.0698 10.5183 20.937 10.5757C20.482 10.697 19.9988 10.6518 19.5741 10.4483L27.7835 9.49796V9.22719C26.9085 9.34399 26.219 8.6485 25.3334 8.81308C25.1107 8.85024 24.9038 8.81308 24.8826 8.54762C24.8614 8.28217 25.0788 8.28747 25.2485 8.27685C25.8785 8.25822 26.486 8.03874 26.9827 7.65038C27.0322 7.59601 27.0937 7.55395 27.1623 7.52757C27.2309 7.50119 27.3047 7.49122 27.3779 7.49844C27.451 7.50566 27.5215 7.52986 27.5836 7.56915C27.6457 7.60843 27.6978 7.66171 27.7358 7.72472C27.7662 7.76968 27.8063 7.8073 27.8531 7.83484C27.8999 7.86239 27.9522 7.87918 28.0062 7.88399C30.8859 7.55482 33.7921 7.8309 36.6665 7.47519C38.0347 7.31061 39.4136 7.47518 40.7871 7.31059C42.3463 7.13008 43.8312 6.50893 45.4328 6.57795C45.618 6.54916 45.807 6.55732 45.989 6.60196C46.1711 6.64661 46.3425 6.72686 46.4934 6.83809C46.6199 6.97686 46.7782 7.08272 46.9547 7.14655C47.1311 7.21037 47.3205 7.23023 47.5063 7.20442C49.4526 6.94958 51.4413 7.31061 53.4248 6.84341C53.271 6.74784 53.0801 6.68943 53.0588 6.59918C53.0164 6.39743 53.2285 6.4293 53.3558 6.39744C53.6039 6.33115 53.8552 6.27797 54.1089 6.23816C58.1924 5.70725 62.2759 5.17634 66.3753 4.82594C67.489 4.73038 68.5974 4.59234 69.7111 4.51271C70.1831 4.48085 70.6922 4.35874 71.1058 4.72507C71.2649 4.8631 71.371 4.85779 71.5354 4.72507C71.8917 4.43475 72.3065 4.22511 72.7515 4.11055C73.1964 3.996 73.6608 3.97923 74.1128 4.06143C74.7119 4.05816 75.3065 3.95775 75.8735 3.76412C79.0554 3.15357 82.2798 3.07394 85.4883 2.76601C86.708 2.6439 87.9384 2.54303 89.1475 2.32536C90.0013 2.1714 90.5529 2.95183 91.3855 2.85627C92.2388 2.69086 93.1195 2.73457 93.9523 2.98368C92.29 3.26642 90.6054 3.39615 88.9195 3.37125C88.5548 3.35929 88.1922 3.43007 87.8588 3.5783C87.1784 3.93826 86.4261 4.14129 85.6572 4.17253C84.8882 4.20376 84.122 4.06241 83.4147 3.75882C82.5821 3.42966 81.6593 3.71635 80.7631 3.75882C80.5085 3.75882 80.2327 3.8597 79.9994 3.89155C79.0713 4.00835 78.1114 3.865 77.3849 4.76755C76.7909 5.51082 75.6772 5.04893 74.9083 5.54267C75.2634 5.77523 75.6882 5.87697 76.1101 5.83049C76.5319 5.784 76.9244 5.59216 77.2205 5.28783C77.3 5.21881 77.4644 5.13388 77.5122 5.16573C78.2811 5.66479 79.1031 5.26661 79.9358 5.35155C81.0547 5.47366 82.2692 5.67539 83.3511 5.02237C83.6543 4.85476 83.9965 4.77051 84.3428 4.77816C84.5814 4.77816 85.0057 4.64013 85.0057 4.90028C85.0057 5.16042 85.1277 5.7338 84.5867 5.909C83.8784 6.14092 83.1448 6.28708 82.4018 6.34435C79.0024 6.60981 75.5871 6.59387 72.2036 7.05045C72.0957 7.03804 71.9864 7.05348 71.8862 7.0953C71.7859 7.13712 71.698 7.20393 71.6309 7.28937C72.2089 7.28937 72.6915 7.34246 73.1847 7.32122C75.6136 7.21504 78.0425 7.19381 80.4767 7.22566C81.4843 7.22566 82.4177 6.73722 83.4889 6.85402C86.0133 7.13009 88.5483 6.91773 91.0832 6.80624C91.7408 6.77969 92.1014 6.18508 92.7325 6.13199C91.3961 5.89839 90.0332 6.33903 88.649 5.88776C88.7575 5.80288 88.882 5.74079 89.0151 5.70521C89.1481 5.66963 89.287 5.66131 89.4233 5.68071C90.9212 5.56496 92.4246 5.5366 93.9258 5.59577C95.5751 5.75504 97.235 5.06485 98.8631 5.72318C98.9479 5.75503 99.1548 5.69132 99.1601 5.65416C99.2926 4.74099 99.9821 5.08078 100.465 5.12325C104.002 5.31438 107.529 5.91961 111.071 5.65416C112.827 5.53736 114.577 5.4418 116.332 5.39402C117.483 5.35685 118.628 4.92682 119.816 4.97991C120.044 4.97991 120.272 4.94805 120.5 4.97991C120.728 5.01176 121.275 4.94274 121.28 5.325C121.285 5.70725 120.792 5.63293 120.516 5.64886C117.865 5.83999 115.213 5.90899 112.561 6.34965C110.387 6.71067 108.181 6.63634 106.007 6.91241C105.622 6.92618 105.247 7.03373 104.914 7.22566L109.024 7.27344C109.024 7.52297 108.552 7.43802 108.695 7.71409C108.839 7.99016 109.045 7.87337 109.226 7.8893C111.252 8.02203 113.283 8.1282 115.309 8.29278C116.778 8.40958 118.268 8.53169 119.71 8.75998C120.771 8.92987 121.832 8.90864 122.892 9.29089C123.47 9.49795 124.186 9.29089 124.743 9.38645C126.424 9.74747 128.248 9.3546 129.802 10.3209C130.076 10.5353 130.422 10.6361 130.768 10.6022C131.317 10.5184 131.878 10.6252 132.358 10.9049C133.345 11.3721 134.443 11.1544 135.466 11.4358C136.635 11.7218 137.828 11.8995 139.03 11.9667C139.228 11.991 139.413 12.0763 139.56 12.2109C140.011 12.6562 140.593 12.9431 141.22 13.0285C141.34 13.0153 141.461 13.047 141.559 13.1176C141.657 13.1882 141.725 13.2927 141.751 13.4108C141.793 13.6921 141.565 13.8089 141.342 13.8833C141.13 13.9258 140.941 14.0465 140.814 14.2214C140.686 14.3964 140.629 14.613 140.653 14.8283C140.653 15.407 140.229 15.4176 139.804 15.391C139.274 14.1593 139.274 14.1593 138.075 14.4407C138.022 14.4407 137.959 14.4407 137.906 14.4407C135.7 14.6159 133.663 13.8514 131.542 13.3789C131.542 13.3789 131.542 13.278 131.542 13.2196C132.242 12.8851 132.995 12.9595 133.732 12.8851C133.987 12.8586 134.416 13.0391 134.448 12.6569C134.48 12.2746 134.024 12.3596 133.769 12.2534C133.059 11.9455 132.242 11.9932 131.552 11.6163C130.942 11.2838 130.241 11.1572 129.553 11.2553C128.729 11.3668 127.895 11.3668 127.071 11.2553C126.732 11.2128 126.668 11.3402 126.493 11.6322C126.101 12.2905 125.475 13.002 124.695 12.9117C122.738 12.6834 120.76 12.6781 118.766 12.3808C119.357 12.8673 120.071 13.1797 120.829 13.2833C121.768 13.5275 122.643 13.2462 123.544 13.2515C125.48 13.2515 127.421 13.3577 129.378 13.4001C129.792 13.4001 130.168 13.4001 130.386 13.8886C129.177 14.2071 127.957 13.3577 126.779 13.9841C127.196 14.0901 127.619 14.1629 128.047 14.2018C128.917 14.3186 130.004 14.2018 130.608 14.6531C131.153 15.0569 131.827 15.2459 132.502 15.184C134.22 15.2318 135.943 15.2159 137.641 15.4229C138.314 15.5397 139.025 15.7202 139.762 15.407ZM55.6946 17.6262C55.1815 17.4528 54.6297 17.4288 54.1036 17.5572C54.0007 17.6087 53.8854 17.6301 53.7709 17.6188C53.6564 17.6075 53.5474 17.5641 53.4566 17.4935C53.3717 17.4085 53.3346 17.2439 53.4566 17.1855C53.6793 17.0528 53.8066 16.713 54.1778 16.8617C54.3503 16.9101 54.5292 16.9316 54.7082 16.9254C56.292 17.1294 57.9008 17.0028 59.4334 16.5537C59.6031 16.5006 59.8046 16.4635 59.7463 16.2352C59.7352 16.1926 59.7158 16.1527 59.6892 16.1177C59.6627 16.0826 59.6295 16.0531 59.5916 16.031C59.5536 16.0088 59.5117 15.9943 59.4682 15.9883C59.4247 15.9824 59.3804 15.9851 59.3379 15.9963C58.6432 16.2617 57.9378 15.9963 57.2431 15.9963C56.3257 16.0388 55.4771 16.4688 54.5013 16.2724C53.8808 16.1502 52.8467 15.9857 52.8679 17.2811C52.8679 17.5306 52.4914 17.4563 52.274 17.4616C51.5209 17.4935 50.7678 17.5094 50.0201 17.5306C51.9452 17.7908 53.8649 18.104 55.7741 17.589C55.8749 17.9341 56.1453 17.9978 56.4529 17.9925C57.4196 18.0722 58.3904 18.0882 59.3591 18.0403C61.088 17.7908 62.8434 18.173 64.5775 17.8226C65.4145 17.633 66.2702 17.5386 67.1284 17.5412C68.8626 17.6049 70.5172 18.3164 72.2832 18.173C72.7657 18.1359 73.2802 18.4119 73.609 17.7589C73.7469 17.4881 74.2029 17.4828 74.484 17.6368C75.6454 18.2845 76.8333 17.9766 78.0107 17.7854C78.8837 17.5892 79.7893 17.5892 80.6623 17.7854C81.8127 18.085 83.0096 18.1625 84.189 18.0137C84.5336 17.9966 84.8702 17.9042 85.1754 17.743C85.3345 17.658 85.5042 17.5519 85.4246 17.3554C85.3371 17.2105 85.23 17.0783 85.1064 16.9625C84.6822 17.3342 84.2367 16.8723 83.8443 16.9625C82.2533 17.366 80.5934 17.1059 78.9706 17.2333C78.8645 17.2333 78.7372 17.2333 78.7425 16.9891C79.4417 16.9023 80.1264 16.7238 80.779 16.4582C81.5871 16.1649 82.4699 16.1499 83.2874 16.4157C83.6626 16.5453 84.0632 16.5835 84.4561 16.5272C84.849 16.4709 85.2228 16.3216 85.5466 16.0918C85.0534 16.0016 84.7087 15.8317 84.5761 15.9379C84.1465 16.2777 83.8496 16.1078 83.5154 15.8317C83.2668 15.6831 82.9714 15.6339 82.6881 15.6937C80.8956 15.7945 79.1032 15.7521 77.3054 15.8954C75.7886 16.0122 74.2401 15.8423 72.718 15.8423C70.5967 15.8423 68.4754 16.1396 66.3541 16.3095C66.5079 16.9625 67.1655 16.5537 67.5527 16.9519L65.0919 17.0793C65.2245 16.7767 65.6594 16.936 65.792 16.3732C62.3714 17.7377 59.0038 17.3607 55.6946 17.6262ZM88.9248 11.2022C80.3229 11.2553 71.7157 10.9526 63.151 12.0304C71.7581 12.264 80.36 12.3649 88.9248 11.2022ZM123.433 32.1784C123.523 32.4917 123.682 32.4863 123.81 32.5394C124.833 32.9642 125.973 32.6403 126.992 33.0438C127.14 33.1022 127.384 33.0066 127.411 33.2455C127.437 33.4844 127.198 33.58 127.013 33.6331C126.742 33.7127 126.482 33.7658 126.244 33.4632C126.216 33.4038 126.176 33.3511 126.126 33.3091C126.076 33.267 126.017 33.2365 125.953 33.2198C125.89 33.203 125.824 33.2005 125.76 33.2123C125.695 33.2241 125.634 33.2499 125.581 33.288C125.432 33.3889 125.295 33.5429 125.358 33.7181C125.459 34.0154 125.751 34.0047 126.005 34.0313C126.744 34.0877 127.485 33.9619 128.164 33.665C128.359 33.5416 128.577 33.4583 128.804 33.4201C129.032 33.3818 129.265 33.3892 129.489 33.442C130.203 33.5493 130.929 33.5493 131.643 33.442C132.703 33.3676 133.764 33.7552 134.872 33.6756C135.206 33.649 135.546 33.7818 135.206 34.2436C135.079 34.4242 135.015 34.6153 135.296 34.7268C135.471 34.7905 135.684 34.7746 135.71 34.5622C135.822 33.6809 136.469 33.8349 137.015 33.8986C139.29 34.1481 141.56 34.4295 143.829 34.6949C144.864 34.8117 145.898 34.9126 147.075 35.0347C146.593 34.5857 145.962 34.3321 145.304 34.3233C143.713 34.4719 142.223 33.9941 140.663 33.9623C139.475 33.9623 138.288 33.6596 137.11 33.6119C135.933 33.5641 134.989 32.8951 133.859 33.2455C133.772 33.2622 133.683 33.2472 133.606 33.2034C133.529 33.1596 133.47 33.0899 133.44 33.0066C133.329 32.7359 133.143 32.7253 132.91 32.7412C131.319 32.8527 129.797 32.4333 128.238 32.3271C126.679 32.2209 125.072 31.897 123.433 32.1784ZM119.583 50.0701C119.583 49.948 119.583 49.8205 119.583 49.6931C118.624 49.6369 117.668 49.5323 116.719 49.3799C114.471 48.9115 112.162 48.8182 109.883 49.1038C108.112 49.3268 106.319 49.4117 104.538 49.5657C104.209 49.5923 103.721 49.5657 103.71 49.9533C103.7 50.3408 104.108 50.5532 104.5 50.6275C104.677 50.6449 104.854 50.6449 105.031 50.6275C107.539 50.5373 110.011 49.9214 112.535 50.0488C113.855 50.1125 115.144 49.6666 116.518 50.0488C117.462 50.2984 118.554 50.0807 119.588 50.0701H119.583ZM118.909 13.363C118.836 13.1995 118.713 13.0636 118.558 12.9748C118.402 12.886 118.223 12.8491 118.045 12.8692C116.966 12.9109 115.885 12.8558 114.815 12.7046C112.54 12.1737 110.223 12.4657 107.921 12.1737C106.862 12.094 105.798 12.094 104.739 12.1737C104.453 12.1737 104.097 12.1737 104.108 12.5772C104.119 12.9807 104.511 12.8586 104.771 12.8533C107.062 12.8533 109.337 13.0232 111.623 13.1772C113.908 13.3311 116.38 13.3046 118.915 13.363H118.909ZM84.0299 49.9161C86.7499 50.0324 89.4747 49.9685 92.1863 49.725C92.0484 49.348 91.587 49.6135 91.656 49.2525C91.709 49.0189 91.9795 49.0985 92.1863 49.0826C92.4992 49.056 92.8545 49.1357 93.1568 48.764C92.4143 48.4243 91.6772 48.6791 91.009 48.5092C89.9342 48.3008 88.8205 48.5117 87.896 49.0985C87.6299 49.2469 87.3222 49.3029 87.0209 49.2578C85.9868 49.141 84.9421 49.1675 84.0352 49.9161H84.0299ZM97.3994 49.7037C97.5295 49.7442 97.6668 49.7566 97.802 49.7401C97.9373 49.7236 98.0676 49.6787 98.1843 49.6082C98.6797 49.3677 99.2248 49.2477 99.7753 49.2578C100.731 49.1795 101.677 49.0124 102.602 48.7587C102.787 48.695 103.164 48.918 103.132 48.557C103.1 48.196 102.719 48.334 102.501 48.2968C101.912 48.196 101.319 48.6313 100.74 48.3499C100.142 48.1541 99.5113 48.0801 98.8843 48.1322C97.8237 48.0792 96.8638 48.8596 95.7819 48.3871C95.7119 48.3723 95.6394 48.3753 95.5709 48.3957C95.5024 48.4161 95.44 48.4533 95.3895 48.5039C95.1243 48.8649 94.8591 48.8277 94.5091 48.6366C94.297 48.5198 93.9788 48.3765 93.8727 48.7481C93.7667 49.1197 94.0955 49.1304 94.3553 49.2153C95.2781 49.5126 96.1637 49.2153 97.0653 49.1304C97.2668 49.1304 97.5002 49.0401 97.6274 49.2206C97.7547 49.4011 97.2668 49.3905 97.4047 49.7037H97.3994ZM74.2613 30.7768C73.7575 30.4317 73.3067 30.6175 72.8984 30.522C72.49 30.4264 72.1029 30.522 72.071 29.9911C72.0732 29.9335 72.0636 29.8761 72.0429 29.8224C72.0223 29.7686 71.9909 29.7197 71.9507 29.6785C71.9105 29.6372 71.8624 29.6046 71.8092 29.5826C71.7561 29.5606 71.699 29.5496 71.6415 29.5504C71.2756 29.5504 71.4877 29.8424 71.4346 30.0017C71.3392 30.2778 71.1164 30.1716 70.9043 30.2194C69.9126 30.453 68.9739 29.9911 67.9875 30.0017C66.1102 30.0335 64.2752 29.3858 62.4032 29.4336C61.2999 29.5022 60.1925 29.4541 59.0993 29.2903C58.5776 29.1438 58.0198 29.2027 57.5401 29.4548C58.1235 29.5876 73.7575 30.8511 74.2666 30.7768H74.2613ZM126.233 34.6471C126.053 35.0559 126.801 35.0135 126.498 35.3745C126.276 35.6346 125.968 35.4701 125.687 35.4117C125.157 35.3108 124.669 35.5497 124.154 35.3586C123.841 35.2418 123.555 34.4242 123.147 35.2842C123.115 35.3479 122.876 35.1515 122.791 34.9869C122.723 34.8003 122.618 34.6289 122.484 34.4826C122.416 34.3983 122.331 34.3288 122.236 34.2785C122.14 34.2282 122.035 34.1982 121.927 34.1902C121.819 34.1823 121.711 34.1966 121.608 34.2322C121.506 34.2679 121.413 34.3242 121.333 34.3976C121.036 34.6896 121.1 34.7427 120.728 34.6949C119.737 34.5516 118.782 34.8967 117.796 34.8648C119.021 35.3373 127.575 36.1868 128.068 35.9532C127.845 35.6081 127.267 36.0381 127.135 35.5391C127.002 35.04 127.628 35.263 127.739 34.8914L126.233 34.6471ZM47.0131 54.9013C47.798 55.7508 48.8215 55.6499 49.8026 55.5278C50.5822 55.4323 51.5739 55.0978 52.1043 55.2836C53.2285 55.6765 54.3157 55.0553 55.3764 55.5013C55.6787 55.6287 56.1082 55.4588 56.4741 55.4057C56.6332 55.4057 56.8507 55.3473 56.8029 55.1084C56.7552 54.8695 56.5855 54.9173 56.4529 54.9544C55.5408 55.2093 54.6339 54.912 53.743 54.8376C52.5391 54.7368 51.3512 55.3048 50.2375 55.0022C49.1238 54.6996 48.1268 54.9013 47.0131 54.9013ZM64.673 55.1403C64.4683 54.9768 64.2325 54.8567 63.9799 54.7873C63.7274 54.718 63.4634 54.7008 63.204 54.7368C61.8357 54.7952 60.4675 54.8589 59.1046 54.9916C58.6856 55.0341 57.8424 54.8801 57.9272 55.3845C58.0121 55.8888 58.8076 55.7508 59.3485 55.6659C60.5205 55.48 61.6607 55.0659 62.8911 55.4163C63.1914 55.5062 63.5083 55.5256 63.8173 55.4732C64.1263 55.4207 64.4191 55.2977 64.673 55.1137V55.1403ZM99.2768 12.6675C100.661 12.6675 101.902 12.6993 103.143 12.7046C103.371 12.7046 103.641 12.7046 103.673 12.3914C103.684 12.2637 103.644 12.137 103.563 12.0379C103.482 11.9388 103.365 11.8752 103.238 11.8605C103.074 11.818 102.899 11.834 102.734 11.7862C101.939 11.5579 101.191 11.9242 100.422 11.9508C100.182 11.9357 99.9427 11.9955 99.7376 12.1219C99.5325 12.2483 99.3715 12.4352 99.2768 12.6569V12.6675ZM81.776 49.8312C80.5297 49.4383 75.8204 49.7781 75.009 50.3621C77.2947 49.9745 79.5062 50.585 81.7654 49.8365L81.776 49.8312Z" fill="#F2B56B"/>
<path d="M96.4932 55.2782V55.3048C96.9011 55.0924 97.3609 55.0004 97.819 55.0393C98.5243 55.0393 99.2243 55.1349 99.8554 54.6199C100.211 54.3332 100.741 54.4606 101.192 54.4765C102.958 54.5456 104.729 54.7155 106.495 54.6411C107.221 54.6998 107.953 54.6497 108.664 54.4925C108.828 54.4324 109.002 54.408 109.176 54.4208C109.35 54.4336 109.519 54.4834 109.672 54.5668C109.985 54.7526 110.584 54.6252 110.616 55.0075C110.658 55.5012 109.963 55.1455 109.714 55.5384C110.144 55.9365 110.849 55.4959 111.305 56.1064C109.755 56.1833 108.203 56.1726 106.654 56.0746C107.142 55.5118 107.757 55.8569 108.245 55.6286C107.635 55.172 106.84 54.8588 106.299 55.0552C105.747 55.2489 105.17 55.3598 104.586 55.3844L103.769 55.4428C103.769 55.7242 104.156 55.6339 104.225 55.9418C103.116 56.0454 101.999 56.0454 100.89 55.9418L99.866 55.8675C99.4312 55.8675 98.9857 55.9896 98.6304 55.4959C98.4607 55.2623 98.0152 55.2251 97.6599 55.2676C97.5167 55.2676 97.3682 55.3101 97.3205 55.4746C97.2727 55.6392 97.6068 55.6233 97.6015 55.8357C97.3813 55.877 97.1536 55.8449 96.9534 55.7442C96.7532 55.6435 96.5915 55.4798 96.4932 55.2782Z" fill="#FFBAE8"/>
<path d="M97.0605 2.56967C97.1825 1.61934 97.8242 1.38575 98.6515 1.35389C100.046 1.29549 101.441 1.24239 102.83 1.17869C103.218 1.17869 103.599 1.13621 103.557 1.7096C103.52 2.17149 103.112 2.03346 102.873 2.08124C102.093 2.24051 101.213 1.96975 100.518 2.34669C100.312 2.45959 100.083 2.52527 99.8484 2.53904C99.6136 2.55281 99.3787 2.51432 99.1606 2.42633C98.5083 2.26705 97.7553 2.50065 97.0605 2.56967Z" fill="#FFBAE8"/>
<path d="M106.993 0.594616C107.677 0.51498 108.42 0.249531 109.146 0.700805C109.239 0.768872 109.353 0.799565 109.467 0.786773C109.581 0.773981 109.686 0.718641 109.762 0.631784C110.631 -0.207054 111.772 0.244218 112.769 0C112.89 0.668946 113.479 0.530919 113.919 0.690192C114.025 0.727356 113.999 0.876004 113.983 0.998113C113.946 1.24764 113.787 1.24233 113.606 1.21047C112.896 1.09898 112.175 1.26888 111.485 1.17862C110.525 1.05651 109.581 1.43346 108.611 1.17862C108.154 1.10741 107.687 1.19351 107.285 1.42283C107.121 1.49716 106.919 1.70953 106.786 1.42283C106.696 1.22109 106.892 1.14146 107.052 1.06182C107.587 0.748583 106.733 0.844144 106.993 0.594616Z" fill="#FFBAE8"/>
<path d="M103.015 56.7278C98.4982 56.6901 93.9826 56.9188 89.4922 57.4127C90.1498 56.8234 90.3248 56.7119 90.8286 56.6907C94.6576 56.5597 98.483 56.4341 102.305 56.3137C102.529 56.3218 102.752 56.3431 102.973 56.3774L103.015 56.7278Z" fill="#FFBAE8"/>
<path d="M7.69531 17.9447C10.7341 16.6811 13.9425 17.0262 17.1351 17.0793C13.985 17.4775 10.8508 18.0349 7.69531 17.9447Z" fill="#FFBAE8"/>
<path d="M8.00293 13.1029C9.24137 12.1633 10.6842 11.5302 12.2137 11.2554C12.2137 11.3669 12.2137 11.4359 12.2137 11.4571C11.9645 11.6907 11.344 11.7013 11.5349 12.1738C11.6834 12.5455 12.1395 12.1738 12.463 12.1738L12.8077 12.211C12.4258 12.726 8.80372 13.4268 8.00293 13.1029Z" fill="#FFBAE8"/>
<path d="M61.5918 57.5824C63.8351 56.8392 66.0996 57.5559 68.3535 57.4285C66.1247 57.8643 63.838 57.9163 61.5918 57.5824Z" fill="#FFBAE8"/>
<path d="M65.1982 58.692C65.2139 58.6277 65.2427 58.5675 65.2828 58.515C65.3229 58.4624 65.3735 58.4188 65.4314 58.3869C65.4892 58.355 65.553 58.3354 65.6187 58.3294C65.6845 58.3234 65.7508 58.3312 65.8134 58.3522C67.2294 58.8247 68.587 58.1663 69.9765 58.1823C70.2301 58.1438 70.4891 58.1619 70.7348 58.2354C70.9152 58.3203 71.1379 58.3946 71.1114 58.6389C71.0849 58.8831 70.878 58.8618 70.7136 58.8884C68.8681 59.1485 67.0597 58.8672 65.1982 58.692Z" fill="#FFBAE8"/>
<path d="M28.4577 6.80636C28.3993 6.98687 28.2562 7.0081 28.113 7.02933C27.6675 7.10366 27.2114 7.14613 26.7659 7.24701C26.4849 7.30541 26.0818 7.05057 26.0341 7.74606C26.0023 8.18672 25.5038 7.69297 25.2598 7.57617C25.0159 7.45937 24.7984 7.35319 24.8303 7.09835C24.8621 6.84352 25.1909 6.8913 25.3924 6.81697C26.2409 6.49843 27.1425 6.66832 28.0122 6.56744C28.1872 6.54621 28.4365 6.51436 28.4577 6.80636Z" fill="#FFBAE8"/>
</g>
<defs>
<clipPath id="clip0_3852_144652">
<rect width="158" height="59" fill="white"/>
</clipPath>
</defs>
</svg>
