<svg width="128" height="42" viewBox="0 0 128 42" fill="none" xmlns="http://www.w3.org/2000/svg">
<path fill-rule="evenodd" clip-rule="evenodd" d="M31.5682 17.3825C31.5706 17.3095 31.5718 17.1071 31.5718 17.3825H31.5682ZM31.5651 17.3825C31.5663 17.4181 31.5673 17.4087 31.5682 17.3825H31.5651ZM16.2534 32.6249C16.2175 32.6261 16.2269 32.627 16.2534 32.6279V32.6249ZM24.244 7.80196C23.1864 6.80826 21.9353 6.00813 20.549 5.45939C19.2217 4.93378 17.7727 4.64496 16.2534 4.64496C13.031 4.64496 10.1314 5.9433 8.03965 8.04361C5.93965 10.1524 4.64526 13.0748 4.64526 16.3103C4.64526 19.547 5.93996 22.4727 8.04117 24.584C10.1333 26.6861 13.0322 27.9866 16.2534 27.9866C16.8627 27.9866 15.9238 28 16.4317 27.9945C19.5967 27.9607 22.2399 26.9899 24.0605 25.2082C25.4815 23.8177 26.4372 21.8969 26.7872 19.5026H16.3812V14.8577H29.2481H31.5365L31.5615 17.1622C31.5627 17.2839 31.5639 17.3509 31.5651 17.3825H31.5627C31.5627 22.1036 29.9993 25.8772 27.3085 28.5107C24.6193 31.1421 20.8627 32.5746 16.4683 32.6215C16.3499 32.6227 16.2847 32.624 16.2534 32.6249V32.6279C16.3286 32.6303 16.541 32.6316 16.2534 32.6316C11.756 32.6316 7.69696 30.8043 4.75696 27.85C1.81391 24.8926 0 20.811 0 16.3103C0 11.8096 1.81361 7.73165 4.75574 4.77765C7.69604 1.82517 11.7557 0 16.2534 0C18.3701 0 20.395 0.404783 22.2545 1.1407C24.1777 1.90217 25.9268 3.02491 27.4193 4.42704L24.244 7.80196Z" fill="#DEDEDE"/>
<path fill-rule="evenodd" clip-rule="evenodd" d="M48.0718 17.6835C46.9817 16.5583 45.4733 15.8622 43.8055 15.8622C42.1374 15.8622 40.629 16.5583 39.5388 17.6835C38.4471 18.8105 37.7718 20.3754 37.7718 22.1114C37.7718 23.8474 38.4471 25.4127 39.5388 26.5394C40.629 27.6645 42.1374 28.3606 43.8055 28.3606C45.4733 28.3606 46.9817 27.6645 48.0718 26.5394C49.1635 25.4127 49.8389 23.8474 49.8389 22.1114C49.8389 20.3754 49.1635 18.8105 48.0718 17.6835ZM43.8055 11.6851C46.7154 11.6851 49.3516 12.8556 51.2614 14.7477C53.17 16.6383 54.3502 19.2423 54.3502 22.1114C54.3502 24.9805 53.17 27.5845 51.2614 29.4751C49.3516 31.3675 46.7154 32.5378 43.8055 32.5378C40.8956 32.5378 38.259 31.3675 36.3493 29.4751C34.441 27.5845 33.2607 24.9805 33.2607 22.1114C33.2607 19.2423 34.441 16.6383 36.3493 14.7477C38.259 12.8556 40.8956 11.6851 43.8055 11.6851Z" fill="#DEDEDE"/>
<path fill-rule="evenodd" clip-rule="evenodd" d="M70.7511 17.6835C69.6609 16.5583 68.1526 15.8622 66.4847 15.8622C64.8166 15.8622 63.3083 16.5583 62.2181 17.6835C61.1267 18.8105 60.4513 20.3754 60.4513 22.1114C60.4513 23.8474 61.1267 25.4127 62.2181 26.5394C63.3083 27.6645 64.8166 28.3606 66.4847 28.3606C68.1526 28.3606 69.6609 27.6645 70.7511 26.5394C71.8428 25.4127 72.5181 23.8474 72.5181 22.1114C72.5181 20.3754 71.8428 18.8105 70.7511 17.6835ZM66.4847 11.6851C69.3946 11.6851 72.0309 12.8556 73.941 14.7477C75.8492 16.6383 77.0295 19.2423 77.0295 22.1114C77.0295 24.9805 75.8492 27.5845 73.941 29.4751C72.0309 31.3675 69.3946 32.5378 66.4847 32.5378C63.5749 32.5378 60.9386 31.3675 59.0285 29.4751C57.1203 27.5845 55.9397 24.9805 55.9397 22.1114C55.9397 19.2423 57.1203 16.6383 59.0285 14.7477C60.9386 12.8556 63.5749 11.6851 66.4847 11.6851Z" fill="#DEDEDE"/>
<path fill-rule="evenodd" clip-rule="evenodd" d="M93.0472 17.6835C92.0088 16.5583 90.572 15.8622 88.9833 15.8622C87.3943 15.8622 85.9578 16.5583 84.9193 17.6835C83.8794 18.8105 83.2363 20.3754 83.2363 22.1114C83.2363 25.6196 85.6014 28.4753 88.9833 28.4753C90.572 28.4753 92.0088 27.6645 93.0472 26.5394C94.0872 25.4127 94.7303 23.8474 94.7303 22.1114C94.7303 20.3754 94.0872 18.8105 93.0472 17.6835ZM88.1859 11.6851C91.0249 11.6851 92.7466 12.5874 94.2939 14.0879V12.2731H98.6052V32.1381C98.6052 34.9086 97.3036 37.9135 95.5408 39.4808C93.8428 40.9907 91.5617 41.9436 89.3035 41.9436C87.2412 41.9436 85.1707 41.5461 83.3611 40.4322C81.7511 39.4413 80.3776 37.9609 79.4353 35.8758L83.3891 34.0939C84.5085 36.5707 86.179 37.8468 89.3035 37.8468C91.517 37.8468 94.2939 35.7943 94.2939 32.4124V30.1298C92.7228 31.6335 90.9415 32.5378 88.6272 32.5378C85.9946 32.5378 83.1681 31.3675 81.44 29.4751C79.7135 27.5845 78.6455 24.9805 78.6455 22.1114C78.6455 16.3163 83.4317 11.6851 88.1859 11.6851Z" fill="#DEDEDE"/>
<path fill-rule="evenodd" clip-rule="evenodd" d="M101.393 31.9402H105.844V1.34229H101.393V31.9402Z" fill="#DEDEDE"/>
<path fill-rule="evenodd" clip-rule="evenodd" d="M113.081 25.2767C114.833 29.4518 121.008 29.4977 123.348 25.5975L126.874 27.9605C124.715 31.1245 121.57 32.606 118.144 32.6249C115.094 32.6282 112.639 31.4851 110.804 29.6332C106.321 25.1078 107.281 18.1641 110.387 14.8723C112.921 12.187 116.83 10.8217 120.863 12.2862C123.481 13.2373 125.607 15.5412 127.161 19.5455C122.465 21.4492 117.784 23.3828 113.081 25.2767ZM112.372 21.7475L121.853 17.9292C120.18 15.7774 117.748 14.7356 114.544 16.9218C113.312 17.9626 112.233 19.7394 112.372 21.7475Z" fill="#DEDEDE"/>
</svg>
