<svg width="23" height="24" viewBox="0 0 23 24" fill="none" xmlns="http://www.w3.org/2000/svg">
<path d="M7 2C9.757 2 12 4.243 12 7C12 9.757 9.757 12 7 12C4.243 12 2 9.757 2 7C2 4.243 4.243 2 7 2ZM7 1C3.6865 1 1 3.6865 1 7C1 10.3135 3.6865 13 7 13C10.3135 13 13 10.3135 13 7C13 3.6865 10.3135 1 7 1ZM9.1965 4.75L6.375 7.642L5.053 6.389L4.125 7.318L6.375 9.5L10.125 5.6785L9.1965 4.75Z" fill="#4C14E9" stroke="#4C14E9" stroke-width="0.5"/>
<path d="M16 12C18.757 12 21 14.243 21 17C21 19.757 18.757 22 16 22C13.243 22 11 19.757 11 17C11 14.243 13.243 12 16 12ZM16 11C12.6865 11 10 13.6865 10 17C10 20.3135 12.6865 23 16 23C19.3135 23 22 20.3135 22 17C22 13.6865 19.3135 11 16 11ZM19 19.047L16.9215 16.995L18.9715 14.9245L18.047 14L15.9945 16.0795L13.9165 14.0285L13 14.9455L15.0805 17.0055L13.0285 19.084L13.9455 20L16.0045 17.9205L18.076 19.9715L19 19.047Z" fill="#4C14E9" stroke="#4C14E9" stroke-width="0.5"/>
</svg>
