<svg width="16" height="16" viewBox="0 0 16 16" fill="none" xmlns="http://www.w3.org/2000/svg">
<path d="M15.13 3.19468L13.3718 1.1094V1.1094C13.249 0.963794 13.0496 0.963496 12.9265 1.10873C12.9263 1.10895 12.9261 1.10918 12.926 1.1094L5.50026 9.89739V9.89739C5.37745 10.043 5.17809 10.0433 5.05497 9.89805C5.05479 9.89783 5.0546 9.89761 5.05441 9.89739L3.29622 7.8121V7.8121C3.17342 7.6665 2.97406 7.6662 2.85094 7.81144C2.85075 7.81166 2.85056 7.81188 2.85038 7.8121L1.09219 9.89739H1.09219C0.969271 10.0428 0.969271 10.2785 1.09219 10.4239L5.05441 15.1106V15.1106C5.17722 15.2562 5.37658 15.2565 5.49969 15.1113C5.49988 15.111 5.50007 15.1108 5.50026 15.1106L15.13 3.71601V3.71601C15.25 3.57121 15.25 3.33948 15.13 3.19468V3.19468Z" fill="#4C14E9"/>
</svg>
