<svg width="24" height="24" viewBox="0 0 24 24" fill="none" xmlns="http://www.w3.org/2000/svg">
<path fill-rule="evenodd" clip-rule="evenodd" d="M24 15.951C24 13.483 22.256 11.5 19.886 10.598C19.955 10.203 20 9.805 20 9.403C20 4.523 15.249 1 10 1C4.718 1 0 4.549 0 9.403C0 11.124 0.616 12.814 1.706 14.127C1.751 15.663 0.854 17.868 0.045 19.473C2.213 19.079 5.296 18.208 6.693 17.343C7.873 17.632 9.006 17.767 10.076 17.767L10.349 17.754C11.215 20.005 13.663 21.806 16.949 21.806C17.697 21.806 18.489 21.712 19.315 21.509C20.293 22.113 22.452 22.724 23.969 23C23.403 21.876 22.775 20.333 22.807 19.258C23.57 18.339 24 17.157 24 15.951V15.951ZM20.852 20.035C20.456 19.867 20.431 19.835 19.651 19.353C18.64 19.6 17.968 19.791 16.949 19.791C14.77 19.791 13.189 18.775 12.457 17.526C15.704 16.872 18.143 14.919 19.284 12.516C20.894 13.16 22 14.457 22 15.951C22 16.493 21.985 17.109 20.829 18.499C20.806 19.262 20.786 19.504 20.852 20.035V20.035ZM6.356 15.186C5.551 15.686 5.187 15.98 3.352 16.57C3.788 14.971 3.708 14.188 3.684 13.369C3.366 12.985 2 11.659 2 9.403C2 5.881 5.589 3.015 10 3.015C14.412 3.015 18 5.881 18 9.403C18 12.456 14.971 15.751 10.076 15.751C8.427 15.751 7.172 15.387 6.356 15.186V15.186ZM12.999 11.649C12.787 11.72 12.558 11.605 12.488 11.393C12.488 11.393 10.992 10.892 9.216 11.481L10.382 13.295C10.503 13.474 10.419 13.717 10.218 13.785L9.424 14.048L9.257 14.076C9.108 14.076 8.963 14.012 8.861 13.897L7.257 12.127C6.384 12.403 5.395 12.085 5.065 11.262C4.989 11.074 4.951 10.873 4.951 10.67C4.951 10.085 5.278 9.487 5.989 9.137C9.548 7.39 10.117 5.441 10.117 5.441C10.031 5.179 10.227 4.909 10.499 4.909C10.668 4.909 10.826 5.017 10.882 5.186L13.253 11.138C13.324 11.35 13.209 11.579 12.999 11.649ZM14.686 9.606L14.072 9.345C14.339 8.711 14.365 7.974 14.086 7.287C13.807 6.599 13.278 6.088 12.645 5.821L12.905 5.206C14.17 5.741 14.951 6.977 14.951 8.297C14.951 8.751 14.859 9.195 14.686 9.606V9.606ZM13.623 9.155L13.024 8.901C13.178 8.536 13.193 8.112 13.032 7.716C12.872 7.32 12.566 7.026 12.202 6.873L12.455 6.272C12.973 6.491 13.407 6.907 13.634 7.47C13.863 8.034 13.841 8.635 13.623 9.155Z" fill="#4C14E9"/>
<path d="M1 23L23 1" stroke="#4C14E9" stroke-width="2"/>
</svg>
