<svg width="24" height="24" viewBox="0 0 24 24" fill="none" xmlns="http://www.w3.org/2000/svg">
<g clip-path="url(#clip0)">
<path d="M16 2C19.309 2 22 4.691 22 8C22 11.309 19.309 14 16 14C12.691 14 10 11.309 10 8C10 4.691 12.691 2 16 2ZM16 0C11.582 0 8 3.582 8 8C8 12.418 11.582 16 16 16C20.418 16 24 12.418 24 8C24 3.582 20.418 0 16 0ZM12.644 14.351L9.123 18H6V20H4V22H2V19.821L9.44055 12.3075C9.03655 11.7485 8.68654 11.1495 8.40254 10.5125L0 19V24H6V22H8V20H10L14.5 15.288C13.845 15.039 13.224 14.726 12.644 14.351ZM18 5C18.551 5 19 5.449 19 6C19 6.551 18.551 7 18 7C17.449 7 17 6.551 17 6C17 5.449 17.449 5 18 5ZM18 4C16.896 4 16 4.896 16 6C16 7.104 16.896 8 18 8C19.104 8 20 7.104 20 6C20 4.896 19.104 4 18 4Z" fill="#4C14E9"/>
</g>
<defs>
<clipPath id="clip0">
<rect width="24" height="24" fill="white"/>
</clipPath>
</defs>
</svg>
