<svg width="24" height="24" viewBox="0 0 24 24" fill="none" xmlns="http://www.w3.org/2000/svg">
<path d="M21 3C21 1.343 19.657 0 18 0C16.343 0 15 1.343 15 3C15 4.323 15.861 5.433 17.05 5.832C17.218 10.127 15.029 10.596 12.052 11.223C10.343 11.583 8.41 11.998 7 13.308V5.816C8.163 5.403 9 4.305 9 3C9 1.343 7.657 0 6 0C4.343 0 3 1.343 3 3C3 4.305 3.837 5.403 5 5.816V18.183C3.837 18.597 3 19.695 3 21C3 22.657 4.343 24 6 24C7.657 24 9 22.657 9 21C9 19.705 8.176 18.612 7.027 18.192C7.297 14.27 9.597 13.784 12.464 13.18C15.502 12.54 19.238 11.738 19.043 5.803C20.184 5.378 21 4.289 21 3ZM4.2 3C4.2 2.007 5.007 1.2 6 1.2C6.993 1.2 7.8 2.007 7.8 3C7.8 3.993 6.993 4.8 6 4.8C5.007 4.8 4.2 3.993 4.2 3ZM7.8 21C7.8 21.993 6.993 22.8 6 22.8C5.007 22.8 4.2 21.993 4.2 21C4.2 20.007 5.007 19.2 6 19.2C6.993 19.2 7.8 20.007 7.8 21ZM18 4.8C17.007 4.8 16.2 3.993 16.2 3C16.2 2.007 17.007 1.2 18 1.2C18.993 1.2 19.8 2.007 19.8 3C19.8 3.993 18.993 4.8 18 4.8Z" fill="#4C14E9"/>
</svg>
