<svg width="24" height="24" viewBox="0 0 24 24" fill="none" xmlns="http://www.w3.org/2000/svg">
<path d="M23 10.826V13.175C21.438 13.175 20 14.487 20 16.032C20 18.213 21.281 22 14 22V19.998C18.917 19.998 17.966 18.398 17.966 16.031C17.966 13.937 19.177 12.531 20.244 12C19.177 11.469 17.966 10.562 17.966 8.688C17.966 6.316 18.906 3.996 14 4.002V2C21.285 2 20 6.506 20 8.688C20 10.232 21.438 10.826 23 10.826V10.826ZM4 8.688C4 6.506 2.715 2 10 2V4.002C5.094 3.995 6.034 6.315 6.034 8.688C6.034 10.563 4.823 11.469 3.756 12C4.823 12.531 6.034 13.938 6.034 16.031C6.034 18.398 5.083 19.998 10 19.998V22C2.719 22 4 18.213 4 16.031C4 14.486 2.562 13.174 1 13.174V10.825C2.562 10.826 4 10.232 4 8.688V8.688Z" fill="#4C14E9"/>
</svg>
