<svg width="16" height="16" viewBox="0 0 16 16" fill="none" xmlns="http://www.w3.org/2000/svg">
<path fill-rule="evenodd" clip-rule="evenodd" d="M0.167972 6.00662L7.48978 13.795V13.795V13.795C7.76136 14.0604 8.21118 14.0693 8.49447 13.8148C8.50168 13.8084 8.50874 13.8017 8.51566 13.795L15.8341 6.00662L15.8341 6.00662C16.0753 5.75201 16.0506 5.36242 15.7788 5.13644C15.7735 5.13206 15.7682 5.12776 15.7628 5.12355L14.5296 4.15117L14.5296 4.15117C14.2435 3.92518 13.8168 3.95604 13.5711 4.2205L8.12837 10.1241V10.1241C8.06834 10.1894 7.96312 10.1968 7.89335 10.1406C7.88705 10.1355 7.88116 10.13 7.87573 10.1241L2.43104 4.22237V4.22237C2.31255 4.09457 2.14468 4.01615 1.96443 4.00441L1.96443 4.00441C1.78511 3.98943 1.60696 4.04304 1.47049 4.15305L0.236633 5.12605V5.12605C-0.0427998 5.34473 -0.0801026 5.73424 0.153315 5.99604C0.157247 6.00045 0.161245 6.00481 0.165308 6.00911L0.167972 6.00662Z" fill="#4C14E9"/>
</svg>
