<svg width="24" height="24" viewBox="0 0 24 24" fill="none" xmlns="http://www.w3.org/2000/svg">
<path d="M22 4V20H20.463C19.771 18.805 18.478 18 17 18C15.522 18 14.229 18.805 13.537 20H10.463C9.771 18.805 8.478 18 7 18C5.522 18 4.229 18.805 3.537 20H2V4H22ZM24 2H0V22H5C5 20.896 5.896 20 7 20C8.104 20 9 20.896 9 22H15C15 20.896 15.896 20 17 20C18.104 20 19 20.896 19 22H24V2ZM14 15.597V16H4V15.583C3.996 14.471 4.044 13.836 5.324 13.54C6.726 13.216 8.111 12.927 7.445 11.699C5.473 8.062 6.883 6 9 6C11.077 6 12.521 7.985 10.556 11.699C9.909 12.919 11.244 13.209 12.677 13.54C13.961 13.837 14.005 14.476 14 15.597V15.597ZM20 6H16V8H20V6ZM20 10H16V12H20V10ZM20 14H16V16H20V14Z" fill="#4C14E9"/>
</svg>
