<svg width="24" height="24" viewBox="0 0 24 24" fill="none" xmlns="http://www.w3.org/2000/svg">
<g clip-path="url(#clip0)">
<path fill-rule="evenodd" clip-rule="evenodd" d="M23.999 12.149C23.95 15.983 22.106 19.372 19.293 21.527C17.3 23.057 14.808 23.976 12.095 24C5.631 24.057 0.044 18.893 0 12C3.966 13.066 7.682 10.007 6 6C10.668 6.655 12.859 3.611 12.077 0C18.801 0.064 24.076 5.542 23.999 12.149ZM8.423 8.026C8.358 11.419 5.622 13.894 2.241 14.192C3.249 18.681 7.256 21.999 12 21.999C17.262 21.999 21.576 17.927 21.97 12.77C22.339 7.952 19.215 3.413 14.174 2.236C13.897 5.144 11.793 7.593 8.423 8.026V8.026ZM13.5 17C14.328 17 15 17.672 15 18.5C15 19.328 14.328 20 13.5 20C12.672 20 12 19.328 12 18.5C12 17.672 12.672 17 13.5 17ZM8 14.147C9.104 14.147 10 15.043 10 16.147C10 17.251 9.104 18.147 8 18.147C6.896 18.147 6 17.251 6 16.147C6 15.043 6.896 14.147 8 14.147V14.147ZM18 12C19.104 12 20 12.896 20 14C20 15.104 19.104 16 18 16C16.896 16 16 15.104 16 14C16 12.896 16.896 12 18 12ZM13 12C13.552 12 14 12.448 14 13C14 13.552 13.552 14 13 14C12.448 14 12 13.552 12 13C12 12.448 12.448 12 13 12ZM15.5 7C16.328 7 17 7.672 17 8.5C17 9.328 16.328 10 15.5 10C14.672 10 14 9.328 14 8.5C14 7.672 14.672 7 15.5 7ZM3 7C3.552 7 4 7.448 4 8C4 8.552 3.552 9 3 9C2.448 9 2 8.552 2 8C2 7.448 2.448 7 3 7ZM1.5 3C2.328 3 3 3.672 3 4.5C3 5.328 2.328 6 1.5 6C0.672 6 0 5.328 0 4.5C0 3.672 0.672 3 1.5 3ZM7.5 1C8.328 1 9 1.672 9 2.5C9 3.328 8.328 4 7.5 4C6.672 4 6 3.328 6 2.5C6 1.672 6.672 1 7.5 1ZM4 0C4.552 0 5 0.448 5 1C5 1.552 4.552 2 4 2C3.448 2 3 1.552 3 1C3 0.448 3.448 0 4 0Z" fill="#4C14E9"/>
<path d="M1 23L23 1" stroke="#4C14E9" stroke-width="2"/>
</g>
<defs>
<clipPath id="clip0">
<rect width="24" height="24" fill="white"/>
</clipPath>
</defs>
</svg>
