<svg width="24" height="24" viewBox="0 0 24 24" fill="none" xmlns="http://www.w3.org/2000/svg">
<path fill-rule="evenodd" clip-rule="evenodd" d="M5.662 23L0.293 17.635C0.098 17.44 0 17.185 0 16.928C0 16.672 0.098 16.416 0.293 16.221L15.222 1.293C15.417 1.099 15.673 1 15.929 1C16.184 1 16.441 1.099 16.636 1.293L23.707 8.366C23.903 8.561 24 8.817 24 9.074C24 9.33 23.903 9.585 23.707 9.781L12.491 21H18.005V23H5.662V23ZM9.319 21L3.833 15.514L2.414 16.928L6.49 21H9.319ZM15.924 3.419L5.247 14.099L10.905 19.758L21.581 9.076L15.924 3.419V3.419Z" fill="#4C14E9"/>
</svg>
