<svg width="24" height="24" viewBox="0 0 24 24" fill="none" xmlns="http://www.w3.org/2000/svg">
<path fill-rule="evenodd" clip-rule="evenodd" d="M12 0C18.623 0 24 5.377 24 12C24 18.623 18.623 24 12 24C5.377 24 0 18.623 0 12C0 5.377 5.377 0 12 0ZM14.557 16H9.442C9.988 18.46 10.883 20.114 12 21.744C13.194 20.003 14.041 18.334 14.557 16ZM7.4 16H2.833C4.069 18.825 6.537 20.972 9.588 21.716C8.54 19.983 7.805 18.058 7.4 16ZM21.167 16H16.6C16.209 17.988 15.505 19.887 14.425 21.694C17.437 20.931 19.942 18.799 21.167 16ZM7.162 10H2.2C1.933 11.313 1.933 12.685 2.2 14H7.115C6.996 12.671 7.014 11.328 7.162 10ZM14.823 10H9.176C9.011 11.326 8.991 12.672 9.123 14H14.876C15.009 12.672 14.987 11.327 14.823 10V10ZM21.8 10H16.837C16.985 11.328 17.003 12.671 16.885 14H21.8C22.06 12.715 22.073 11.352 21.8 10V10ZM9.644 2.271C6.567 3.003 4.077 5.157 2.833 8H7.486C7.921 5.958 8.664 4.015 9.644 2.271ZM11.999 2.223C10.91 3.993 10.089 5.676 9.536 8H14.463C13.929 5.754 13.126 4.052 11.999 2.223ZM14.367 2.292C15.38 4.104 16.1 6.052 16.513 8H21.167C19.935 5.184 17.405 3.042 14.367 2.292Z" fill="#4C14E9"/>
</svg>
