<svg width="24" height="24" viewBox="0 0 24 24" fill="none" xmlns="http://www.w3.org/2000/svg">
<path d="M14 11C12.344 11 11 12.344 11 14C11 15.656 12.344 17 14 17C15.656 17 17 15.656 17 14C17 12.344 15.656 11 14 11ZM14.15 15.484V15.799H13.85V15.5C13.539 15.495 13.218 15.421 12.951 15.283L13.086 14.79C13.373 14.9 13.755 15.019 14.054 14.952C14.399 14.874 14.469 14.519 14.088 14.348C13.809 14.219 12.955 14.106 12.955 13.375C12.955 12.966 13.268 12.6 13.85 12.52V12.201H14.151V12.506C14.368 12.512 14.612 12.549 14.883 12.632L14.775 13.125C14.545 13.045 14.29 12.971 14.042 12.986C13.596 13.012 13.556 13.399 13.868 13.561C14.382 13.803 15.05 13.981 15.05 14.624C15.051 15.14 14.647 15.415 14.15 15.484V15.484ZM4 8V20H24V8H4ZM22 16.018C21.041 16.438 20.605 17.04 20.186 18H7.815C7.395 17.041 6.959 16.438 6 16.018V11.982C6.959 11.562 7.395 10.96 7.815 10H20.186C20.606 10.959 21.041 11.562 22 11.982V16.018ZM21 6H2V17H0V4H21V6Z" fill="#4C14E9"/>
</svg>
