<svg width="24" height="24" viewBox="0 0 24 24" fill="none" xmlns="http://www.w3.org/2000/svg">
<g clip-path="url(#clip0)">
<path d="M18.536 7.555C17.348 7.303 13.93 6.651 13 6.467V2.955C13 1.326 11.654 0 10 0C8.346 0 7 1.326 7 2.955V10.412C6.446 10.076 5.812 9.791 5.162 9.697C3.34 9.435 2 10.637 2 12.195C2 13 2.363 13.808 3.022 14.466C6.994 18.438 8.71 19.591 9.081 24H19V22.252C19 17.098 22 16.221 22 12.223C22 9.775 20.939 8.066 18.536 7.555V7.555ZM18.893 15.577C18.072 17.06 17.055 18.896 17.002 22H10.872C10.146 18.18 7.062 15.682 4.436 13.051C3.748 12.365 4.043 11.681 4.878 11.678C6.141 11.672 7.938 13.562 9 14.883V2.955C9 2.438 9.458 2 10 2C10.542 2 11 2.438 11 2.955V9.903C11 10.218 11.256 10.474 11.572 10.474C11.886 10.474 12.142 10.218 12.142 9.903V9.328C12.142 8.794 12.632 8.39 13.156 8.495C13.554 8.574 13.842 8.923 13.842 9.328V10.601C13.842 10.916 14.098 11.172 14.413 11.172C14.728 11.172 14.984 10.916 14.984 10.601V9.771C14.984 9.24 15.471 8.839 15.992 8.943C16.388 9.021 16.674 9.367 16.674 9.771V11.304C16.674 11.619 16.93 11.875 17.245 11.875C17.56 11.875 17.816 11.619 17.816 11.304V10.392C17.816 9.869 18.361 9.525 18.834 9.746C19.479 10.051 20 10.678 20 12.223C20 13.578 19.535 14.416 18.893 15.577V15.577Z" fill="#4C14E9"/>
</g>
<defs>
<clipPath id="clip0">
<rect width="24" height="24" fill="white"/>
</clipPath>
</defs>
</svg>
