<svg width="24" height="24" viewBox="0 0 24 24" fill="none" xmlns="http://www.w3.org/2000/svg">
<g clip-path="url(#clip0)">
<path d="M16.5 11.5C16.5 12.328 15.94 13 15.25 13C14.56 13 14 12.328 14 11.5C14 10.672 14.56 10 15.25 10C15.94 10 16.5 10.672 16.5 11.5ZM10 11.5C10 10.672 9.44 10 8.75 10C8.06 10 7.5 10.672 7.5 11.5C7.5 12.328 8.06 13 8.75 13C9.44 13 10 12.328 10 11.5ZM12 19C15.156 19 16 16 16 16H8C8 16 8.75 19 12 19ZM24 12.426C24 14.342 23.112 17.135 20.72 17.608C18.949 21.187 16.019 23 12 23C7.981 23 5.051 21.187 3.28 17.608C0.888 17.135 0 14.342 0 12.426C0 10.284 0.8 8.347 2.826 8.204C3.034 5.791 4.119 3.734 6.108 2.415C6.419 0.499 7.322 0 8.204 0C8.723 0 10.773 0.875 12 0.875C13.079 0.875 15.193 0 15.795 0C16.67 0 17.579 0.488 17.892 2.412C19.752 3.638 20.953 5.637 21.174 8.205C23.206 8.347 24 10.298 24 12.426V12.426ZM13 2.751V4.298C13.741 4.45 14.627 4.742 15.707 5.209C16.103 4.452 16.095 2.66 15.701 1.93C15.173 2.13 14.012 2.545 13 2.751ZM8.294 5.212C9.382 4.752 10.271 4.461 11 4.306V2.769C9.945 2.572 8.822 2.15 8.296 1.937C7.903 2.682 7.902 4.463 8.294 5.212V5.212ZM21.369 10.31C21.097 10.133 20.756 10.206 20.613 10.269C19.944 10.569 19.186 10.064 19.207 9.328C19.241 8.096 19.014 6.384 17.844 5.02C17.446 6.917 16.357 7.49 15.331 7.217C14.379 6.961 13.209 6.172 12 6.172C10.875 6.172 9.544 6.984 8.668 7.216C7.651 7.49 6.555 6.922 6.156 5.02C4.986 6.384 4.759 8.096 4.793 9.328C4.814 10.061 4.06 10.569 3.387 10.269C3.245 10.206 2.903 10.133 2.631 10.31C1.529 11.027 1.833 15.636 3.967 15.677C4.356 15.685 4.705 15.917 4.863 16.272C6.271 19.453 8.606 21 12 21C15.394 21 17.729 19.453 19.137 16.271C19.295 15.916 19.644 15.684 20.033 15.676C22.168 15.635 22.471 11.026 21.369 10.31V10.31Z" fill="#4C14E9"/>
</g>
<defs>
<clipPath id="clip0">
<rect width="24" height="24" fill="white"/>
</clipPath>
</defs>
</svg>
