<svg width="16" height="16" viewBox="0 0 16 16" fill="none" xmlns="http://www.w3.org/2000/svg">
<path fill-rule="evenodd" clip-rule="evenodd" d="M9.53264 8.1179V8.1179C9.46747 8.0529 9.46734 7.94737 9.53234 7.88221C9.53244 7.88211 9.53254 7.88201 9.53264 7.88191L15.7075 1.70749V1.70749C16.0979 1.31649 16.0975 0.682996 15.7065 0.292545C15.3155 -0.0979052 14.682 -0.0974572 14.2916 0.293545L8.11742 6.4653V6.4653C8.05242 6.53046 7.9469 6.5306 7.88174 6.4656C7.88164 6.4655 7.88154 6.4654 7.88144 6.4653L1.70728 0.293545V0.293545C1.31685 -0.0970891 0.683676 -0.0972384 0.293061 0.293211C-0.0975565 0.683661 -0.0977059 1.31686 0.292728 1.70749L6.46622 7.88191V7.88191C6.53139 7.94691 6.53152 8.05243 6.46652 8.1176C6.46642 8.1177 6.46632 8.1178 6.46622 8.1179L0.292728 14.293H0.292727C-0.097706 14.6836 -0.0975567 15.3168 0.293061 15.7073C0.683678 16.0977 1.31684 16.0976 1.70728 15.7069V15.7069L7.88144 9.53184V9.53184C7.94644 9.46667 8.05196 9.46654 8.11712 9.53154C8.11722 9.53164 8.11732 9.53174 8.11742 9.53184L14.2916 15.7069V15.7069C14.682 16.0976 15.3152 16.0977 15.7058 15.7073C16.0964 15.3168 16.0966 14.6836 15.7061 14.293L9.53264 8.1179Z" fill="#D4D4D4"/>
</svg>
