<svg width="24" height="24" viewBox="0 0 24 24" fill="none" xmlns="http://www.w3.org/2000/svg">
<path d="M16.143 2L22 7.858V16.142L16.143 22H7.857L2 16.142V7.858L7.857 2H16.143V2ZM16.971 0H7.029L0 7.029V16.97L7.029 24H16.97L24 16.971V7.029L16.971 0ZM17.903 11.667C17.776 11.995 16.208 15.555 15.807 16.453C15.387 17.394 14.568 18.334 13.056 18.334H10.429C8.837 18.334 7.999 17.389 7.999 15.738V8.53C7.999 7.574 9.315 7.622 9.315 8.486V11.646C9.315 11.906 9.793 11.905 9.793 11.646V6.567C9.793 5.585 11.265 5.61 11.265 6.567V11.362C11.265 11.626 11.708 11.614 11.708 11.357V5.729C11.708 4.772 13.165 4.745 13.165 5.729L13.166 11.421C13.166 11.675 13.625 11.682 13.625 11.421V6.641C13.625 5.736 15.221 5.708 15.221 6.641V12.058C15.221 12.389 15.548 12.442 15.671 12.189C15.789 11.949 16.276 10.874 16.284 10.862C16.774 9.833 18.412 10.458 17.903 11.667V11.667Z" fill="#4C14E9"/>
</svg>
