<svg width="24" height="24" viewBox="0 0 24 24" fill="none" xmlns="http://www.w3.org/2000/svg">
<path d="M15.877 6.124L12 10L8.123 6.124L9.247 5L12 7.753L14.754 5L15.877 6.124V6.124ZM12 2C17.514 2 22 6.486 22 12C22 17.514 17.514 22 12 22C6.486 22 2 17.514 2 12C2 6.486 6.486 2 12 2ZM12 0C5.373 0 0 5.373 0 12C0 18.627 5.373 24 12 24C18.627 24 24 18.627 24 12C24 5.373 18.627 0 12 0ZM12.001 14C9.669 14 7.856 15.636 6.908 16.797L7.379 17.377C8.665 16.558 10.111 16.069 12.001 16.069C13.891 16.069 15.337 16.558 16.623 17.377L17.094 16.797C16.146 15.636 14.333 14 12.001 14V14ZM8.5 9C7.672 9 7 9.671 7 10.5C7 11.329 7.672 12 8.5 12C9.328 12 10 11.329 10 10.5C10 9.671 9.328 9 8.5 9ZM15.5 9C14.672 9 14 9.671 14 10.5C14 11.329 14.672 12 15.5 12C16.328 12 17 11.329 17 10.5C17 9.671 16.328 9 15.5 9Z" fill="#4C14E9"/>
</svg>
