<svg width="24" height="24" viewBox="0 0 24 24" fill="none" xmlns="http://www.w3.org/2000/svg">
<path d="M18.513 7.119C19.471 5.976 20 4.542 20 3.083V0H4V3.083C4 4.542 4.528 5.975 5.487 7.118L8.573 10.798C9.14 11.475 9.144 12.423 8.582 13.104L5.452 16.898C4.516 18.034 4 19.453 4 20.893V24H20V20.893C20 19.453 19.483 18.035 18.547 16.899L15.417 13.105C14.855 12.424 14.859 11.476 15.426 10.799L18.513 7.119ZM13.874 14.376L17.004 18.17C17.656 18.962 18 19.896 18 21H16.939C16.146 18.983 12 16 12 16C12 16 7.853 18.983 7.06 21H6C6 19.896 6.343 18.961 6.996 18.171L10.125 14.378C11.292 12.964 11.284 10.919 10.106 9.514L7.02 5.833C6.36 5.048 6 4.097 6 2.999H18C18 4.1 17.637 5.049 16.98 5.833L13.893 9.513C12.716 10.918 12.708 12.964 13.874 14.376V14.376Z" fill="#4C14E9"/>
</svg>
