<svg width="24" height="24" viewBox="0 0 24 24" fill="none" xmlns="http://www.w3.org/2000/svg">
<path d="M10.2733 19.4865C6.80228 19.4192 5.39347 19.3598 4.53198 19.2443C3.90023 19.1596 3.58997 19.077 3.24005 18.9005C2.66212 18.6089 2.3027 18.2024 2.04331 17.5468C1.80616 16.9474 1.7096 16.4713 1.62098 15.4646C1.52097 14.3285 1.51315 14.1229 1.50277 12.3528C1.49053 10.2711 1.51516 9.58895 1.65215 8.20726C1.724 7.48291 1.8287 7.00152 2.02545 6.49103C2.20462 6.02614 2.36821 5.76957 2.66571 5.48684C3.03961 5.13149 3.45025 4.91548 3.96865 4.80144C4.74241 4.63123 8.23972 4.5 12.0018 4.5C15.7639 4.5 19.2612 4.63123 20.035 4.80144C20.5945 4.92454 21.0052 5.15191 21.406 5.56044C21.7196 5.88019 21.8811 6.17074 22.0733 6.76089C22.2714 7.36898 22.3474 7.90713 22.4599 9.49964C22.5134 10.2559 22.5134 13.7372 22.4599 14.4931C22.3974 15.3774 22.3206 16.1648 22.2695 16.4466C22.1382 17.171 21.8802 17.8493 21.5893 18.2349C21.3897 18.4995 20.9957 18.8147 20.6663 18.9735C20.3327 19.1342 20.0149 19.2139 19.5025 19.2652C17.9148 19.4245 13.0664 19.5407 10.2733 19.4865H10.2733Z" fill="#98A2B3"/>
<path d="M12.4624 13.6989C15.4389 12.0054 15.3749 12.0425 15.3749 12.0085C15.3749 11.9767 10.165 8.98285 10.1396 9.00007C10.1225 9.01172 10.1193 14.9758 10.1362 14.9946C10.1425 15.0015 10.1605 15.0018 10.1762 14.9952C10.1919 14.9885 11.2206 14.4052 12.4622 13.6988L12.4624 13.6989Z" fill="#3E3E3E"/>
</svg>
