<svg width="39" height="44" viewBox="0 0 39 44" fill="none" xmlns="http://www.w3.org/2000/svg">
<path d="M38.0676 12.376L20.7329 0.382458C20.3699 0.133222 19.9398 0 19.4996 0C19.0592 0 18.6294 0.13323 18.2663 0.382458L0.933129 12.376C0.348846 12.7802 0 13.4454 0 14.156V41.1128C0 41.8784 0.304383 42.6128 0.846076 43.1544C1.38804 43.6958 2.12285 44 2.88876 44H36.1112C36.8772 44 37.612 43.6958 38.1539 43.1544C38.6956 42.6127 39 41.8783 39 41.1128V14.156C39 13.4457 38.6519 12.7805 38.0676 12.376ZM9.38894 27.3981H29.6115V28.8418H9.38894V27.3981ZM15.8889 23.7889L24.5555 23.7892C24.9388 23.7892 25.306 23.9412 25.5768 24.2119C25.848 24.4825 26 24.8499 26 25.2326V25.9543L15.8887 25.9547L15.8889 23.7889ZM14.4444 25.9544L12.278 25.9547V23.0672H14.4447L14.4444 25.9544ZM32.5003 42.5564H31.0557V20.9019H32.5003V42.5564ZM9.3891 30.286H29.6117V36.0607L27.445 36.0604V35.3387C27.445 34.5728 27.1406 33.8385 26.5986 33.2971C26.057 32.7558 25.3222 32.4515 24.556 32.4515H15.6889C15.4329 32.0062 14.959 31.731 14.4454 31.7295H12.2788C11.8955 31.7295 11.5283 31.8818 11.2574 32.1524C10.9863 32.4231 10.8343 32.7905 10.8343 33.1732V36.0604H9.38973L9.3891 30.286ZM14.4445 36.0607L12.2782 36.0604V33.1732H14.4448L14.4445 36.0607ZM15.889 33.8952L24.5556 33.8949C24.9389 33.8949 25.3062 34.0472 25.577 34.3179C25.8481 34.5886 26.0002 34.9559 26.0002 35.3387V36.0604H15.8889L15.889 33.8952ZM9.3891 37.5044L29.6117 37.5041V38.9479H9.3891V37.5044ZM9.3891 40.3916L29.6117 40.3913V42.5567H9.3891V40.3916ZM7.94456 42.557L6.50034 42.5567V20.9022H7.94487L7.94456 42.557ZM37.5557 41.1133C37.5557 41.4961 37.4037 41.8634 37.1328 42.1341C36.862 42.4047 36.4944 42.5567 36.1115 42.5567H33.9448V20.9022C33.9448 20.5194 33.7925 20.1521 33.5217 19.8814C33.2508 19.6108 32.8833 19.4588 32.5003 19.4588H31.0558C30.6728 19.4588 30.3053 19.6107 30.0344 19.8814C29.7636 20.1521 29.6116 20.5195 29.6116 20.9022V25.9548L27.4449 25.9551V25.2331C27.4449 24.4676 27.1405 23.7331 26.5985 23.1916C26.0569 22.6502 25.3221 22.3459 24.5558 22.3459H15.6888C15.4328 21.9006 14.9589 21.6257 14.4453 21.6242H12.2787C11.8954 21.6242 11.5282 21.7762 11.2573 22.0469C10.9862 22.3175 10.8342 22.6849 10.8342 23.0676V25.9548L9.38962 25.9551V20.9022C9.38962 20.5194 9.23759 20.1521 8.96675 19.8814C8.69592 19.6107 8.32837 19.4588 7.94541 19.4588H6.50088C6.11791 19.4588 5.75035 19.6107 5.47953 19.8814C5.20872 20.1521 5.05636 20.5194 5.05636 20.9022V42.5567H2.88971C2.50674 42.5567 2.13918 42.4047 1.86836 42.1341C1.59755 41.8634 1.4455 41.496 1.4455 41.1133V14.1564C1.4455 13.9196 1.56187 13.6978 1.75653 13.5631L19.0897 1.57035C19.3373 1.39906 19.6649 1.39906 19.9125 1.57035L37.2457 13.5623C37.441 13.697 37.5576 13.9194 37.5576 14.1565L37.5557 41.1133Z" fill="#D71796"/>
</svg>
