<svg width="51" height="51" viewBox="0 0 51 51" fill="none" xmlns="http://www.w3.org/2000/svg">
<path d="M49.248 48.3505H49.234C45.8829 48.4128 43.7049 47.4226 41.7826 46.5502C41.4303 46.389 41.0761 46.2317 40.7203 46.079V39.8952H42.1764C42.5949 39.8952 42.934 39.5557 42.934 39.1375V36.7129C42.934 36.2943 42.5945 35.9552 42.1764 35.9552H40.9134L40.9138 28.846C41.4405 29.1847 42.0535 29.3645 42.6799 29.3645C43.5356 29.3634 44.3572 29.0281 44.9699 28.4305C45.5823 27.8333 45.9376 27.0202 45.9601 26.1649C45.969 26.0812 45.9644 25.9971 45.9458 25.9153C45.9342 22.8462 44.7052 19.9074 42.5291 17.7434L37.7188 12.9323V12.9327C38.4377 13.2962 39.1338 13.7031 39.8035 14.1511C42.3594 15.8707 44.2227 17.7007 44.2417 17.7193V17.719C44.449 17.9228 44.7544 17.9906 45.0284 17.893C45.3024 17.7953 45.4962 17.5484 45.5268 17.2589C45.5446 17.0934 45.8923 13.3807 42.6822 10.9205C46.0729 10.9383 48.9377 12.0568 48.9664 12.0684V12.0687C49.2469 12.1804 49.5671 12.1149 49.781 11.9017C49.9949 11.6889 50.062 11.3688 49.9515 11.0879C49.8744 10.8902 47.9924 6.24463 42.7272 6.24463H42.6849V6.24502C41.8327 6.24424 40.9847 6.36554 40.167 6.60506C40.4309 6.31555 40.7068 6.02488 40.9936 5.73848C43.4643 3.26786 45.9144 1.68312 45.9388 1.66764V1.66726C46.1834 1.50913 46.3159 1.22506 46.2799 0.935943C46.2439 0.647211 46.0454 0.404217 45.7695 0.311204C45.7323 0.298414 44.825 0 43.5144 0C41.913 0 39.5652 0.443754 37.4705 2.55902C36.4143 3.62596 35.7869 4.72625 35.4327 5.76412C34.7153 4.5674 33.6143 3.34965 31.9203 2.38232C30.5492 1.59946 29.1195 1.20217 27.6724 1.20217C24.615 1.20217 22.5446 2.96669 22.4582 3.04189H22.4578C22.2365 3.23489 22.1466 3.53874 22.2272 3.82165C22.3079 4.10419 22.5447 4.31463 22.8345 4.3619C22.8524 4.36462 23.9147 4.54018 25.5207 5.06648H25.521C22.2454 4.91146 19.0575 6.14969 16.7453 8.47467L14.9377 10.2826C14.4967 9.52187 12.2415 6.10058 7.37346 6.09552C1.83148 6.09552 0.0633894 10.9338 0.0463246 10.9826C-0.0505636 11.2601 0.0215214 11.5686 0.231577 11.7744C0.441632 11.9798 0.751288 12.0457 1.02683 11.9433C1.05358 11.9333 3.72495 10.9443 7.48466 10.8055L7.63541 10.8016C7.35637 10.969 7.08199 11.1543 6.8138 11.3581C2.79763 14.4089 4.0509 18.7197 4.10636 18.9018L4.10597 18.9022C4.19317 19.1875 4.43927 19.3948 4.73536 19.4328C5.03107 19.4704 5.32134 19.3309 5.47715 19.0766C5.49342 19.0507 7.0979 16.4497 9.62517 14.5496C10.5658 13.8454 11.5533 13.2071 12.581 12.6389L7.47739 17.7426C5.30124 19.9064 4.07278 22.8452 4.06107 25.9141C4.04285 25.9951 4.0382 26.0789 4.04673 26.1614C4.06843 27.0171 4.42343 27.8306 5.03616 28.4289C5.64888 29.0269 6.47049 29.3622 7.327 29.3633C7.95329 29.3641 8.56638 29.1839 9.09311 28.8448V35.954L7.83012 35.9544C7.41155 35.9544 7.07245 36.2939 7.07245 36.7121V39.1367C7.07245 39.5552 7.41195 39.8943 7.83012 39.8943H9.28618V45.8569C8.61183 46.1185 7.98826 46.4301 7.37433 46.7397C5.66795 47.5993 3.90532 48.4876 0.832075 48.4876H0.758827L0.759214 48.488C0.340652 48.4872 0.000775195 48.8259 1.32781e-06 49.2445C-0.000773829 49.663 0.337943 50.0029 0.756506 50.0037H0.832466C4.26546 50.0037 6.2791 48.989 8.05642 48.0934C9.56744 47.3319 10.8716 46.6735 12.8628 46.7276C14.825 46.78 16.3752 47.4423 18.0165 48.1426C19.9209 48.9561 22.0796 49.8777 25.1048 49.8777C28.2428 49.8777 30.2597 48.9119 32.0394 48.0605C33.5861 47.3199 34.9224 46.6804 36.8218 46.6688H36.8586C38.3805 46.6688 39.6675 47.2532 41.1561 47.9287C43.2245 48.8678 45.5638 49.9324 49.2618 49.8638L49.2614 49.8642C49.6718 49.8502 49.9962 49.5115 49.9927 49.1007C49.9892 48.6899 49.659 48.357 49.2482 48.3504L49.248 48.3505ZM39.2046 45.519C38.7752 45.3884 38.3361 45.2911 37.8912 45.2279V39.8952H39.2046V45.519ZM30.8117 35.9553V28.8456C31.4857 29.2777 32.2941 29.4483 33.0851 29.325C33.8761 29.2014 34.5942 28.7929 35.1043 28.1759C35.6147 28.7929 36.3336 29.2018 37.1246 29.325C37.916 29.4483 38.7248 29.2774 39.3987 28.8445V35.9557L30.8117 35.9553ZM29.296 31.7247H25.7603V28.8455C26.2707 29.1734 26.8777 29.3645 27.5275 29.3645C28.1546 29.3648 28.7685 29.1846 29.2955 28.8448V31.7246L29.296 31.7247ZM24.245 31.7247H20.7094V28.8452C21.2198 29.1731 21.8267 29.3646 22.4773 29.3646C23.104 29.3649 23.7179 29.1847 24.2453 28.8456V31.7248L24.245 31.7247ZM20.7098 33.2397H24.2454V35.9553H20.7098V33.2397ZM25.7607 33.2397H29.2964V35.9553H25.7607V33.2397ZM43.8494 15.3267H43.8498C42.8286 14.4574 41.7601 13.6451 40.6489 12.8943C39.7874 12.3192 38.8867 11.8053 37.9531 11.3569C38.4732 11.2624 39.0871 11.1662 39.7672 11.0887C40.2838 11.2441 40.7919 11.4786 41.2872 11.7925C42.9014 12.8153 43.5745 14.219 43.8497 15.3266L43.8494 15.3267ZM42.6914 7.76121H42.7262C45.1352 7.76121 46.6692 8.97817 47.5532 10.0501C46.2921 9.73072 44.5341 9.40596 42.599 9.40596C41.6329 9.40596 40.7128 9.46448 39.8788 9.55051H39.8792C39.3467 9.41642 38.7994 9.34782 38.2503 9.34666H38.2441C39.2013 8.53085 40.6415 7.77085 42.6917 7.76122L42.6914 7.76121ZM38.5461 3.62598C40.273 1.88201 42.2003 1.51571 43.5129 1.51571H43.5408L43.5412 1.51532C42.2658 2.4842 41.0566 3.5368 39.9215 4.66694C38.4907 6.0978 37.3304 7.5872 36.5633 8.65683L36.5598 8.639C36.4808 7.32828 36.7711 5.41882 38.5461 3.62602V3.62598ZM27.6713 2.71795C28.8525 2.71795 30.0288 3.04814 31.1682 3.69846C33.6168 5.09638 34.5972 7.10665 34.9879 8.56886C33.8721 7.66004 32.22 6.44857 30.2497 5.42081C28.5576 4.53797 26.7802 3.82912 24.9448 3.30557C25.6598 2.99282 26.5954 2.71765 27.6712 2.71765L27.6713 2.71795ZM7.42771 9.29285C5.3469 9.36958 3.58864 9.68777 2.36166 9.98191C3.22242 8.89284 4.78506 7.61239 7.3793 7.61239C9.84684 7.61472 11.4997 8.67081 12.4896 9.62415L12.49 9.62376C11.0933 9.39821 9.68065 9.28233 8.26566 9.27767C7.98624 9.27729 7.7072 9.28233 7.42777 9.29279L7.42771 9.29285ZM8.71322 13.3393C7.32542 14.3826 6.2054 15.5999 5.42518 16.5668C5.54184 15.3762 6.0631 13.8311 7.72883 12.5661C8.93804 11.6484 10.2696 11.1826 11.6873 11.1826C11.8155 11.1826 11.9399 11.1864 12.0605 11.1938L12.0609 11.1934C10.8943 11.8263 9.77547 12.5432 8.71358 13.3393L8.71322 13.3393ZM7.32542 27.8493H7.32581C6.88012 27.8485 6.45149 27.6799 6.12483 27.3769C5.7985 27.0738 5.59814 26.6587 5.56443 26.2146C5.57179 26.1708 5.57567 26.1262 5.57489 26.0813C5.55319 23.3342 6.6089 20.7544 8.54744 18.815L17.8146 9.54708L17.815 9.54747C19.7167 7.63492 22.3048 6.56292 25.0021 6.57026C27.7173 6.57026 30.2698 7.62748 32.1893 9.54707L41.4564 18.815C43.395 20.754 44.4507 23.3343 44.429 26.0812C44.4286 26.125 44.4321 26.1684 44.4398 26.2115C44.4073 26.656 44.2077 27.0722 43.881 27.376C43.5543 27.6798 43.1249 27.8492 42.6788 27.8496C42.2106 27.8492 41.7615 27.6632 41.4305 27.3318C41.0991 27.0009 40.9131 26.5517 40.9127 26.0835C40.9127 25.665 40.5705 25.3259 40.1519 25.3259C39.7334 25.3259 39.3943 25.6654 39.3943 26.0835C39.3935 26.5517 39.2075 27.0009 38.8761 27.3318C38.5451 27.6632 38.096 27.8492 37.6278 27.8496C37.1596 27.8492 36.7109 27.6628 36.3799 27.3318C36.0489 27.0005 35.8625 26.5517 35.8621 26.0835C35.8602 25.6642 35.5199 25.3255 35.101 25.3255C34.6824 25.3255 34.3433 25.665 34.3433 26.0831V26.0835C34.3429 26.5517 34.1565 27.0005 33.8255 27.3318C33.4946 27.6628 33.0458 27.8492 32.5776 27.8496C32.1091 27.8492 31.6603 27.6632 31.3289 27.3318C30.9979 27.0009 30.8115 26.5517 30.8111 26.0835C30.8111 25.665 30.4689 25.3259 30.0504 25.3259C29.6318 25.3259 29.2927 25.6654 29.2927 26.0835C29.2927 27.0575 28.5005 27.8496 27.5266 27.8496C26.5526 27.8496 25.7605 27.0575 25.7605 26.0835C25.7605 25.665 25.4183 25.3259 24.9997 25.3259C24.5811 25.3259 24.242 25.6654 24.242 26.0835H24.2417C24.2413 26.5517 24.0552 27.0009 23.7239 27.3318C23.3929 27.6632 22.9437 27.8492 22.4756 27.8496C22.0074 27.8492 21.5582 27.6632 21.2273 27.3318C20.8959 27.0009 20.7099 26.5517 20.7095 26.0835C20.7095 25.665 20.3673 25.3259 19.9487 25.3259C19.5302 25.3259 19.1911 25.6654 19.1911 26.0835C19.1903 26.5517 19.0043 27.0009 18.6729 27.3318C18.3419 27.6632 17.8927 27.8492 17.4246 27.8496C16.9564 27.8492 16.5072 27.6632 16.1763 27.3318C15.8449 27.0009 15.6589 26.5517 15.6585 26.0835C15.6585 25.665 15.3163 25.3259 14.8977 25.3259C14.4792 25.3259 14.1401 25.6654 14.1401 26.0835C14.1397 26.5517 13.9533 27.0009 13.6223 27.3318C13.2909 27.6632 12.8421 27.8492 12.3736 27.8496C11.9054 27.8492 11.4562 27.6632 11.1253 27.3318C10.7943 27.0009 10.6079 26.5517 10.6075 26.0835C10.6075 25.665 10.2653 25.3259 9.84673 25.3259C9.42816 25.3259 9.08906 25.6654 9.08906 26.0835C9.08945 26.5513 8.90381 27.0005 8.57323 27.3318C8.24226 27.6628 7.79347 27.8488 7.32572 27.8492L7.32542 27.8493ZM10.6072 28.8449H10.6076C11.2812 29.2778 12.0904 29.4487 12.8814 29.3255C13.6728 29.2022 14.3913 28.7934 14.9017 28.1764C15.4117 28.7934 16.1302 29.2018 16.9212 29.3255C17.7118 29.4487 18.5206 29.2782 19.1942 28.8461V35.9561L10.6075 35.9557V28.8449L10.6072 28.8449ZM8.58693 37.471H41.4177V38.3806H8.58693V37.471ZM10.8003 39.8956H12.1137V45.2276C11.6475 45.2547 11.2118 45.3159 10.8003 45.4027V39.8956ZM31.3832 46.6956C29.6691 47.5157 27.8967 48.364 25.1032 48.364C22.3877 48.364 20.4673 47.544 18.6102 46.7506C17.0984 46.1049 15.54 45.4411 13.6294 45.2593V39.8956H36.3751V45.1683C34.3583 45.2722 32.8476 45.9946 31.3838 46.6957L31.3832 46.6956Z" fill="#D71796"/>
<path d="M11.52 26.0832C11.52 26.5556 11.9045 26.9401 12.3769 26.9401C12.8493 26.9401 13.2338 26.5556 13.2338 26.0832C13.2489 25.4972 13.5702 24.9624 14.0802 24.6736C14.5902 24.3849 15.2142 24.3849 15.7242 24.6736C16.2341 24.9624 16.5555 25.4972 16.5706 26.0832C16.5706 26.5556 16.955 26.9401 17.4275 26.9401C17.8999 26.9401 18.2843 26.5556 18.2843 26.0832H18.2839C18.2991 25.4972 18.6203 24.9624 19.1304 24.6736C19.6404 24.3849 20.2644 24.3849 20.7743 24.6736C21.2843 24.9624 21.6056 25.4972 21.6207 26.0832C21.6207 26.5556 22.0052 26.9401 22.4776 26.9401C22.9501 26.9401 23.3345 26.5556 23.3345 26.0832H23.3341C23.3492 25.4972 23.6705 24.9624 24.1805 24.6736C24.6905 24.3849 25.3149 24.3849 25.8249 24.6736C26.3349 24.9624 26.6562 25.4972 26.6713 26.0832C26.6713 26.5556 27.0558 26.9401 27.5282 26.9401C28.001 26.9401 28.3851 26.5556 28.3851 26.0832H28.3847C28.3998 25.4972 28.7211 24.9624 29.2311 24.6736C29.7411 24.3849 30.3651 24.3849 30.8751 24.6736C31.385 24.9624 31.7064 25.4972 31.7215 26.0832C31.7215 26.5556 32.1059 26.9401 32.5784 26.9401C33.0508 26.9401 33.4352 26.5556 33.4352 26.0832H33.4349C33.45 25.4972 33.7712 24.9624 34.2813 24.6736C34.7913 24.3849 35.4157 24.3849 35.9256 24.6736C36.4356 24.9624 36.7569 25.4972 36.772 26.0832C36.772 26.5556 37.1565 26.9401 37.6289 26.9401C38.1017 26.9401 38.4858 26.5556 38.4858 26.0832C38.4858 25.1643 39.2338 24.4163 40.1527 24.4163H40.1523C40.5844 24.4167 40.9995 24.5845 41.3107 24.8848C41.6215 25.1852 41.8037 25.5944 41.8188 26.0266C41.8184 26.0382 41.8149 26.0495 41.8149 26.0615C41.8149 26.0948 41.8149 26.1277 41.8161 26.1603C41.8293 26.5699 42.1661 26.8932 42.573 26.8932L42.5982 26.8928H42.5978C42.9741 26.8796 43.2834 26.5916 43.3229 26.2169C43.3307 26.1731 43.3361 26.1285 43.3361 26.0832C43.3349 25.2391 42.9989 24.4299 42.4017 23.8334C41.8045 23.2366 40.9952 22.9013 40.1511 22.9006C39.1245 22.9006 38.2095 23.3897 37.627 24.1469C37.0244 23.3617 36.0912 22.9017 35.1017 22.9017C34.1123 22.9017 33.1791 23.3617 32.5764 24.1469C31.9742 23.3617 31.0409 22.9017 30.0516 22.9017C29.0617 22.9017 28.1285 23.3617 27.5263 24.1469C26.9236 23.3617 25.9904 22.9017 25.001 22.9017C24.0112 22.9017 23.0779 23.3617 22.4753 24.1469C21.873 23.3617 20.9398 22.9017 19.95 22.9017C18.9606 22.9017 18.0273 23.3617 17.4251 24.1469C16.8225 23.3617 15.8893 22.9017 14.8998 22.9017C13.9104 22.9017 12.9772 23.3617 12.3745 24.1469C11.7723 23.3609 10.8383 22.9006 9.84846 22.9006C9.00476 22.9017 8.19596 23.2373 7.59948 23.8338C7.00265 24.4306 6.66742 25.2394 6.66626 26.0832C6.66626 26.5017 7.00576 26.8408 7.42431 26.8408C7.84287 26.8408 8.18198 26.5017 8.18198 26.0832C8.18198 25.4867 8.50016 24.936 9.01677 24.6376C9.53299 24.3396 10.1693 24.3396 10.6855 24.6376C11.2022 24.936 11.52 25.4867 11.52 26.0832L11.52 26.0832ZM14.2872 16.1913C14.481 16.1913 14.6751 16.1172 14.8228 15.9692L19.5304 11.2612V11.2608C20.9787 9.80476 22.949 8.98862 25.003 8.99398C25.4134 8.98313 25.7401 8.64712 25.7405 8.2367C25.7405 7.82629 25.4138 7.49028 25.0034 7.47904C22.5475 7.47245 20.1911 8.44831 18.4592 10.1896L13.7516 14.8975V14.8979C13.5338 15.1142 13.4683 15.4405 13.5857 15.7238C13.7031 16.0075 13.9802 16.192 14.2872 16.1912L14.2872 16.1913Z" fill="#D71796"/>
</svg>
