<svg width="45" height="45" viewBox="0 0 45 45" fill="none" xmlns="http://www.w3.org/2000/svg">
<path d="M18.9 15.4849H26.1005C26.5975 15.4849 27 15.9176 27 16.452V23.2257C27 23.7601 26.5979 24.194 26.1005 24.194H18.9C18.4034 24.194 18.0002 23.7598 18.0002 23.2257L17.9999 16.452C17.9999 15.9176 18.4034 15.4849 18.9 15.4849H18.9ZM19.7995 22.2586H25.1999V17.4203H19.7995V22.2586Z" fill="#D71796"/>
<path d="M7.2002 15.4849H14.4003C14.8963 15.4849 15.2998 15.9176 15.2998 16.452V23.2257C15.2998 23.7601 14.8963 24.194 14.4003 24.194H7.2002C6.70424 24.194 6.30037 23.7598 6.30037 23.2257L6.30002 16.452C6.30002 15.9176 6.70425 15.4849 7.20021 15.4849H7.2002ZM8.09967 22.2586H13.5008V17.4203H8.10038L8.10004 22.2586H8.09967Z" fill="#D71796"/>
<path d="M30.1488 15.4849H37.3496C37.8466 15.4849 38.249 15.9176 38.249 16.452V23.2257C38.249 23.7601 37.8465 24.194 37.3496 24.194H30.1484C29.6525 24.194 29.25 23.7598 29.25 23.2257L29.2504 16.452C29.2504 15.9176 29.6529 15.4849 30.1488 15.4849H30.1488ZM31.0497 22.2586H36.4501V17.4203H31.0497V22.2586Z" fill="#D71796"/>
<path d="M7.2002 30H14.4003C14.8963 30 15.2998 30.4328 15.2998 30.9675V37.7412C15.2998 38.2756 14.8963 38.7088 14.4003 38.7088H7.2002C6.70424 38.7088 6.30037 38.2756 6.30037 37.7412L6.30002 30.9675C6.30002 30.4328 6.70425 30 7.20021 30H7.2002ZM8.09967 36.7748H13.5008V31.9351H8.10038L8.10004 36.7748H8.09967Z" fill="#D71796"/>
<path d="M30.1488 30H37.3496C37.8466 30 38.249 30.4328 38.249 30.9675V37.7412C38.249 38.2756 37.8465 38.7088 37.3496 38.7088H30.1484C29.6525 38.7088 29.25 38.2756 29.25 37.7412L29.2504 30.9675C29.2504 30.4328 29.6529 30 30.1488 30H30.1488ZM31.0497 36.7748H36.4501V31.9351H31.0497V36.7748Z" fill="#D71796"/>
<path d="M0.900036 14.5161C0.403378 14.5161 0.000205994 14.0818 0.000205994 13.5477V9.19406C0.000205994 8.65853 0.403736 8.22651 0.900036 8.22651H2.59853L6.09113 0.541531C6.24215 0.210387 6.55501 0 6.8996 0H38.4685C38.8114 0 39.1267 0.210762 39.2767 0.541531L42.7686 8.22575H44.0991C44.5971 8.22575 45 8.65852 45 9.19329V13.547C45 14.0814 44.5972 14.5153 44.0991 14.5153H42.2991V38.7088H44.0991C44.5971 38.7088 45 39.1415 45 39.6763V44.031C45 44.5654 44.5972 44.9986 44.0991 44.9986L29.3303 44.9993C29.1056 44.9993 28.8898 44.9101 28.7251 44.7473L26.0224 42.1052H19.04L16.683 44.7075C16.5135 44.8946 16.2816 45 16.0374 45L0.899826 44.9996C0.403172 44.9996 0 44.5665 0 44.0321V39.6773C0 39.1418 0.40353 38.7098 0.899826 38.7098H2.69948V14.5163L0.900036 14.5161ZM37.9065 1.93544H7.46258L4.603 8.22575H40.7666L37.9065 1.93544ZM43.1995 12.5796V10.1604H3.16174L1.80013 10.16V12.5792H3.60014L41.4004 12.5796H43.1995ZM25.2003 30.4924H19.7999V40.1688H25.2003V30.4924ZM3.60103 40.644H1.80102V43.0641L15.6591 43.0637L18.0011 40.4775V29.5146C18.0011 28.9813 18.4047 28.5478 18.9009 28.5478H26.1011C26.5981 28.5478 27.0006 28.9809 27.0006 29.5146V40.442L29.6784 43.0634L43.1999 43.0638V40.6438H41.401C40.9037 40.6438 40.5012 40.2095 40.5012 39.6762V14.515H4.50184V39.6753C4.50114 40.2089 4.09762 40.6428 3.60094 40.6428L3.60103 40.644Z" fill="#D71796"/>
</svg>
